<?xml version="1.0" encoding="UTF-8"?>
<svg width="108px" height="101px" viewBox="0 0 108 101" version="1.1" xmlns="http://www.w3.org/2000/svg" xmlns:xlink="http://www.w3.org/1999/xlink">
    <!-- Generator: Sketch 52.5 (67469) - http://www.bohemiancoding.com/sketch -->
    <title>2</title>
    <desc>Created with Sketch.</desc>
    <defs>
        <linearGradient x1="50%" y1="0%" x2="50%" y2="100%" id="linearGradient-1">
            <stop stop-color="#FDB5AB" offset="0%"></stop>
            <stop stop-color="#FE5939" offset="100%"></stop>
        </linearGradient>
        <path d="M69.5003155,28.5723755 L53.6272331,1.78292431 C52.9702711,0.674988362 51.7663407,-0.00497232777 50.4684158,2.73831859e-05 L19.1012292,0.129019926 C17.8033042,0.135019579 16.6083733,0.823979748 15.9674104,1.93791535 L0.474306072,28.8553592 C-0.166656872,29.9682948 -0.157657392,31.3392156 0.499304627,32.4481515 L16.372387,59.2366027 C17.029349,60.3445387 18.2332794,61.0244994 19.5312043,61.0194997 L50.8983909,60.8905071 C52.1963159,60.8855074 53.3912468,60.1965472 54.0322097,59.0826116 L69.525314,32.1641679 C70.1672769,31.0512322 70.1572775,29.6803115 69.5003155,28.5723755" id="path-2"></path>
        <filter x="-50.0%" y="-41.0%" width="200.0%" height="214.7%" filterUnits="objectBoundingBox" id="filter-3">
            <feOffset dx="0" dy="10" in="SourceAlpha" result="shadowOffsetOuter1"></feOffset>
            <feGaussianBlur stdDeviation="10" in="shadowOffsetOuter1" result="shadowBlurOuter1"></feGaussianBlur>
            <feColorMatrix values="0 0 0 0 0.992884696   0 0 0 0 0.70900017   0 0 0 0 0.671653211  0 0 0 1 0" type="matrix" in="shadowBlurOuter1"></feColorMatrix>
        </filter>
    </defs>
    <g id="2" stroke="none" stroke-width="1" fill="none" fill-rule="evenodd">
        <g id="Group" transform="translate(19.000000, 10.000000)">
            <g id="Fill-1">
                <use fill="black" fill-opacity="1" filter="url(#filter-3)" xlink:href="#path-2"></use>
                <use fill="url(#linearGradient-1)" fill-rule="evenodd" xlink:href="#path-2"></use>
            </g>
            <g id="conversation-smile-type" transform="translate(20.000000, 16.000000)" stroke="#FFFFFF" stroke-linecap="round" stroke-linejoin="round" stroke-width="1.999995">
                <path d="M9.9999725,22.99994 L5.9999825,25.9999325 L5.9999825,19.9999475 L1.9999925,19.9999475 C0.895425841,19.9999475 -2.58742239e-06,19.1045191 -2.58742239e-06,17.9999525 C-2.58742239e-06,17.9999525 -2.58742239e-06,17.9999525 -2.58742239e-06,17.9999525 L-2.58742239e-06,1.9999925 L-2.58742236e-06,1.99999229 C-2.42063745e-06,0.895425714 0.895425841,-2.71456878e-06 1.99999241,-2.71456878e-06 L23.9999374,-2.71456878e-06 C25.1045039,-2.76285092e-06 25.9999323,0.895425714 25.9999323,1.99999229 C25.9999323,1.99999229 25.9999323,1.99999229 25.9999323,1.99999229 L25.9999323,7.99997729" id="Path"></path>
                <path d="M6.99064448,13.2666298 C8.25144799,13.9338735 9.60173128,14.4161523 10.9999678,14.6986262" id="Path"></path>
                <path d="M7.9999775,5.9999825 L7.9999775,7.9999775" id="Path"></path>
                <path d="M17.9999525,5.9999825 L17.9999525,7.9999775" id="Path"></path>
                <polygon id="Path" points="29.9999225 23.9999375 25.9999325 23.9999375 25.9999325 29.9999225 19.9999475 23.9999375 13.9999625 23.9999375 13.9999625 11.9999675 29.9999225 11.9999675"></polygon>
                <path d="M17.9999525,17.4999537 C17.7238105,17.4999538 17.4999537,17.7238105 17.4999537,17.9999525 C17.4999537,18.2760945 17.7238105,18.4999512 17.9999525,18.4999512 C18.2760945,18.4999512 18.4999512,18.2760945 18.4999512,17.9999525 C18.4999512,17.7238105 18.2760945,17.4999537 17.9999525,17.4999537" id="Path"></path>
                <path d="M21.9999425,17.4999537 C21.7238005,17.4999538 21.4999437,17.7238105 21.4999437,17.9999525 C21.4999437,18.2760945 21.7238005,18.4999512 21.9999425,18.4999512 C22.2760845,18.4999512 22.4999412,18.2760945 22.4999412,17.9999525 C22.4999412,17.7238105 22.2760845,17.4999537 21.9999425,17.4999537" id="Path"></path>
                <path d="M25.9999325,17.4999537 C25.7237905,17.4999538 25.4999337,17.7238105 25.4999337,17.9999525 C25.4999337,18.2760945 25.7237905,18.4999512 25.9999325,18.4999512 C26.2760745,18.4999512 26.4999312,18.2760945 26.4999312,17.9999525 C26.4999312,17.7238105 26.2760745,17.4999537 25.9999325,17.4999537" id="Path"></path>
            </g>
        </g>
    </g>
</svg>