<?xml version="1.0" encoding="UTF-8"?>
<svg width="86px" height="86px" viewBox="0 0 86 86" version="1.1" xmlns="http://www.w3.org/2000/svg" xmlns:xlink="http://www.w3.org/1999/xlink">
    <!-- Generator: Sketch 52.5 (67469) - http://www.bohemiancoding.com/sketch -->
    <title>icon-screen</title>
    <desc>Created with Sketch.</desc>
    <defs>
        <linearGradient x1="50%" y1="0%" x2="50%" y2="100%" id="linearGradient-1">
            <stop stop-color="#FBD16B" offset="0%"></stop>
            <stop stop-color="#F5BE02" offset="100%"></stop>
        </linearGradient>
        <circle id="path-2" cx="43" cy="33" r="24"></circle>
        <filter x="-72.9%" y="-52.1%" width="245.8%" height="245.8%" filterUnits="objectBoundingBox" id="filter-3">
            <feOffset dx="0" dy="10" in="SourceAlpha" result="shadowOffsetOuter1"></feOffset>
            <feGaussianBlur stdDeviation="10" in="shadowOffsetOuter1" result="shadowBlurOuter1"></feGaussianBlur>
            <feColorMatrix values="0 0 0 0 0.984313725   0 0 0 0 0.819607843   0 0 0 0 0.419607843  0 0 0 1 0" type="matrix" in="shadowBlurOuter1"></feColorMatrix>
        </filter>
    </defs>
    <g id="icon-screen" stroke="none" stroke-width="1" fill="none" fill-rule="evenodd">
        <g id="Oval">
            <use fill="black" fill-opacity="1" filter="url(#filter-3)" xlink:href="#path-2"></use>
            <use fill="url(#linearGradient-1)" fill-rule="evenodd" xlink:href="#path-2"></use>
        </g>
        <g id="hierarchy-5" transform="translate(33.000000, 21.000000)" stroke="#FFFFFF" stroke-linecap="round" stroke-linejoin="round" stroke-width="1.5">
            <path d="M3.5,5.248 C3.08579,5.248 2.75,4.91221 2.75,4.498 L2.75,1.498 C2.75,1.08379 3.08579,0.748 3.5,0.748 L17,0.748 C17.41421,0.748 17.75,1.08379 17.75,1.498 L17.75,4.498 C17.75,4.91221 17.41421,5.248 17,5.248 L3.5,5.248 Z" id="Path"></path>
            <path d="M10.25,5.25 L10.25,18.75" id="Path"></path>
            <path d="M2.75,18.7480002 L2.75,14.248 L2.75,14.2480002 C2.74999987,13.4195732 3.421573,12.7480002 4.25,12.7480002 L16.25,12.7480002 C17.0784269,12.7480002 17.7499999,13.4195732 17.7499999,14.2480002 L17.7499999,18.7480002" id="Path"></path>
            <path d="M4.34099,19.407 C5.21967,20.28568 5.21967,21.7103 4.34099,22.58898 C3.46231,23.46766 2.03769,23.46766 1.15901,22.58898 C0.28033,21.7103 0.28033,20.28568 1.15901,19.407 C2.03769,18.52832 3.46231,18.52832 4.34099,19.407" id="Path"></path>
            <path d="M11.841,19.407 C12.71968,20.28568 12.71968,21.7103 11.841,22.58898 C10.96232,23.46766 9.5377,23.46766 8.65902,22.58898 C7.78034,21.7103 7.78034,20.28568 8.65902,19.407 C9.5377,18.52832 10.96232,18.52832 11.841,19.407" id="Path"></path>
            <path d="M19.341,19.407 C20.21968,20.28568 20.21968,21.7103 19.341,22.58898 C18.46232,23.46766 17.0377,23.46766 16.15902,22.58898 C15.28034,21.7103 15.28034,20.28568 16.15902,19.407 C17.0377,18.52832 18.46232,18.52832 19.341,19.407" id="Path"></path>
        </g>
    </g>
</svg>