<?xml version="1.0" encoding="UTF-8"?>
<svg width="108px" height="101px" viewBox="0 0 108 101" version="1.1" xmlns="http://www.w3.org/2000/svg" xmlns:xlink="http://www.w3.org/1999/xlink">
    <!-- Generator: Sketch 52.5 (67469) - http://www.bohemiancoding.com/sketch -->
    <title>3</title>
    <desc>Created with Sketch.</desc>
    <defs>
        <linearGradient x1="50%" y1="0%" x2="50%" y2="100%" id="linearGradient-1">
            <stop stop-color="#86D1E9" offset="0%"></stop>
            <stop stop-color="#00ADD7" offset="100%"></stop>
        </linearGradient>
        <path d="M69.5003155,28.5723755 L53.6272331,1.78292431 C52.9702711,0.674988362 51.7663407,-0.00497232777 50.4684158,2.73831859e-05 L19.1012292,0.129019926 C17.8033042,0.135019579 16.6083733,0.823979748 15.9674104,1.93791535 L0.474306072,28.8553592 C-0.166656872,29.9682948 -0.157657392,31.3392156 0.499304627,32.4481515 L16.372387,59.2366027 C17.029349,60.3445387 18.2332794,61.0244994 19.5312043,61.0194997 L50.8983909,60.8905071 C52.1963159,60.8855074 53.3912468,60.1965472 54.0322097,59.0826116 L69.525314,32.1641679 C70.1672769,31.0512322 70.1572775,29.6803115 69.5003155,28.5723755" id="path-2"></path>
        <filter x="-50.0%" y="-41.0%" width="200.0%" height="214.7%" filterUnits="objectBoundingBox" id="filter-3">
            <feOffset dx="0" dy="10" in="SourceAlpha" result="shadowOffsetOuter1"></feOffset>
            <feGaussianBlur stdDeviation="10" in="shadowOffsetOuter1" result="shadowBlurOuter1"></feGaussianBlur>
            <feColorMatrix values="0 0 0 0 0.52513057   0 0 0 0 0.820598364   0 0 0 0 0.91358155  0 0 0 1 0" type="matrix" in="shadowBlurOuter1"></feColorMatrix>
        </filter>
    </defs>
    <g id="3" stroke="none" stroke-width="1" fill="none" fill-rule="evenodd">
        <g id="Group" transform="translate(19.000000, 10.000000)">
            <g id="Fill-1">
                <use fill="black" fill-opacity="1" filter="url(#filter-3)" xlink:href="#path-2"></use>
                <use fill="url(#linearGradient-1)" fill-rule="evenodd" xlink:href="#path-2"></use>
            </g>
            <g id="idea-strategy" transform="translate(19.000000, 15.000000)" stroke="#FFFFFF" stroke-linecap="round" stroke-linejoin="round" stroke-width="1.999995">
                <path d="M7.01554246,25.0523374 C8.37612573,26.4129206 8.37612573,28.6188618 7.01554246,29.9794451 C5.6549592,31.3400283 3.44901804,31.3400283 2.08843478,29.9794451 C0.727851514,28.6188618 0.727851514,26.4129206 2.08843478,25.0523374 C3.44901804,23.6917541 5.6549592,23.6917541 7.01554246,25.0523374" id="Path"></path>
                <polygon id="Path" points="12.6813016 24.2266061 19.317285 24.2266061 19.317285 30.8625895 12.6813016 30.8625895"></polygon>
                <polygon id="Path" points="30.9319227 30.8625895 22.9679426 30.8625895 26.949266 23.5626078 30.9319227 30.8625895"></polygon>
                <path d="M20.9772809,6.11331805 L20.9772809,6.11332943 C20.9820264,3.36442963 18.7574598,1.13216855 16.00856,1.12742189 C13.2596602,1.12267637 11.0273991,3.34724301 11.0226524,6.0961428 C11.0192303,8.07844451 12.1924255,9.87381336 14.009285,10.666638 L14.009285,13.0812987 L17.9906083,13.0812987 L17.9906083,10.666638 C19.8024704,9.87714404 20.9749075,8.08971117 20.9772808,6.11331612 L20.9772809,6.11331805 Z" id="Path"></path>
                <polyline id="Path" points="4.71865487 20.5759486 4.71865487 17.2586235 27.2812651 17.2586235 27.2812651 20.5759486"></polyline>
                <path d="M26.3599341,6.9733159 L28.3599291,6.9733159" id="Path"></path>
                <path d="M25.9599351,11.5333045 L27.3599316,12.9466343" id="Path"></path>
                <path d="M25.9599351,2.4133273 L27.3599316,0.9999975" id="Path"></path>
                <path d="M5.6266526,6.9733159 L3.6399909,6.9733159" id="Path"></path>
                <path d="M6.0399849,11.5333045 L4.6399884,12.9466343" id="Path"></path>
                <path d="M6.0399849,2.4133273 L4.6399884,0.9999975" id="Path"></path>
                <path d="M15.99996,13.0799673 L15.99996,19.9199502" id="Path"></path>
            </g>
        </g>
    </g>
</svg>