<?xml version="1.0" encoding="UTF-8"?>
<svg width="108px" height="101px" viewBox="0 0 108 101" version="1.1" xmlns="http://www.w3.org/2000/svg" xmlns:xlink="http://www.w3.org/1999/xlink">
    <!-- Generator: Sketch 52.5 (67469) - http://www.bohemiancoding.com/sketch -->
    <title>7</title>
    <desc>Created with Sketch.</desc>
    <defs>
        <linearGradient x1="50%" y1="0%" x2="50%" y2="100%" id="linearGradient-1">
            <stop stop-color="#BCAAA4" offset="0%"></stop>
            <stop stop-color="#8D6E62" offset="100%"></stop>
        </linearGradient>
        <path d="M69.5003155,28.5723755 L53.6272331,1.78292431 C52.9702711,0.674988362 51.7663407,-0.00497232777 50.4684158,2.73831859e-05 L19.1012292,0.129019926 C17.8033042,0.135019579 16.6083733,0.823979748 15.9674104,1.93791535 L0.474306072,28.8553592 C-0.166656872,29.9682948 -0.157657392,31.3392156 0.499304627,32.4481515 L16.372387,59.2366027 C17.029349,60.3445387 18.2332794,61.0244994 19.5312043,61.0194997 L50.8983909,60.8905071 C52.1963159,60.8855074 53.3912468,60.1965472 54.0322097,59.0826116 L69.525314,32.1641679 C70.1672769,31.0512322 70.1572775,29.6803115 69.5003155,28.5723755" id="path-2"></path>
        <filter x="-50.0%" y="-41.0%" width="200.0%" height="214.7%" filterUnits="objectBoundingBox" id="filter-3">
            <feOffset dx="0" dy="10" in="SourceAlpha" result="shadowOffsetOuter1"></feOffset>
            <feGaussianBlur stdDeviation="10" in="shadowOffsetOuter1" result="shadowBlurOuter1"></feGaussianBlur>
            <feColorMatrix values="0 0 0 0 0.619205713   0 0 0 0 0.536529958   0 0 0 0 0.404149055  0 0 0 1 0" type="matrix" in="shadowBlurOuter1"></feColorMatrix>
        </filter>
    </defs>
    <g id="7" stroke="none" stroke-width="1" fill="none" fill-rule="evenodd">
        <g id="Group" transform="translate(19.000000, 10.000000)">
            <g id="Fill-1">
                <use fill="black" fill-opacity="1" filter="url(#filter-3)" xlink:href="#path-2"></use>
                <use fill="url(#linearGradient-1)" fill-rule="evenodd" xlink:href="#path-2"></use>
            </g>
            <g id="Desktop-Monitor-Sign-Signature" transform="translate(20.000000, 15.000000)" stroke="#FFFFFF" stroke-linecap="round" stroke-linejoin="round" stroke-width="1.999995">
                <polygon id="Path" points="19.9999475 29.9865892 9.9999725 29.9865892 10.99997 25.9865992 18.99995 25.9865992"></polygon>
                <path d="M6.99998,29.9865892 L22.99994,29.9865892" id="Path"></path>
                <path d="M25.9999325,3.9866542 L25.9999323,3.9866542 C28.2090601,3.9866541 29.9999223,5.77751639 29.9999223,7.9866442 L29.9999223,21.9866092 C29.9999223,24.195737 28.2090601,25.9865992 25.9999323,25.9865992 L3.99998733,25.9865992 L3.99998715,25.9865992 C1.79085934,25.9865991 -2.84968974e-06,24.195737 -2.84968974e-06,21.9866092 C-2.84968974e-06,21.9866092 -2.84968974e-06,21.9866092 -2.84968974e-06,21.9866092 L-2.84968974e-06,7.9866442 L-2.84968969e-06,7.9866448 C-3.18325952e-06,5.77751699 1.79085934,3.9866548 3.99998715,3.9866548" id="Path"></path>
                <path d="M4.466653,20.9199452 L6.1066489,19.4799488 L6.10664909,19.4799486 C6.69282495,18.9840792 7.48176565,18.8004903 8.22664379,18.9866165 C8.94355003,19.1224709 9.53330589,19.6308816 9.77330663,20.3199465 L9.91997293,20.8666118 L11.7066351,19.8266144 C12.5855062,19.3179998 13.6887368,19.4139328 14.4666282,20.0666139" id="Path"></path>
                <path d="M20.8932786,15.9199577 C20.6576392,15.9199577 20.466613,15.7289315 20.466613,15.4932921 L20.466613,12.3466333 C20.466613,12.1109939 20.6576392,11.9199677 20.8932786,11.9199677 L25.0399349,11.9199677 C25.2755743,11.9199677 25.4666005,12.1109939 25.4666005,12.3466333 L25.4666005,15.4932921 C25.4666005,15.7289315 25.2755743,15.9199577 25.0399349,15.9199577 L20.8932786,15.9199577 Z" id="Path"></path>
                <path d="M10.8799703,13.6532967 L6.6666475,14.7066274 L7.7199782,10.5066379 L16.4266231,1.7866597 L16.4266229,1.78665987 C17.3004914,0.917100712 18.7127505,0.917100712 19.586615,1.78665953 C20.4561742,2.660528 20.4561742,4.07278714 19.586615,4.94665162 L10.8799703,13.6532967 Z" id="Path"></path>
                <path d="M13.5066304,4.733319 L16.6532892,7.8933111" id="Path"></path>
                <path d="M16.6532892,1.5733269 L15.5999585,0.5199962 C15.0189626,-0.050921015 14.087629,-0.050921015 13.5066304,0.519996176 L10.3466383,3.67998828" id="Path"></path>
                <path d="M19.5866152,1.8133263 L21.3866107,-2.50000005e-06" id="Path"></path>
            </g>
        </g>
    </g>
</svg>