<?xml version="1.0" encoding="UTF-8"?>
<svg width="55px" height="55px" viewBox="0 0 55 55" version="1.1" xmlns="http://www.w3.org/2000/svg" xmlns:xlink="http://www.w3.org/1999/xlink">
    <!-- Generator: Sketch 52.5 (67469) - http://www.bohemiancoding.com/sketch -->
    <title>1</title>
    <desc>Created with Sketch.</desc>
    <defs>
        <linearGradient x1="50%" y1="0%" x2="50%" y2="100%" id="linearGradient-1">
            <stop stop-color="#FDB5AB" offset="0%"></stop>
            <stop stop-color="#FE5939" offset="100%"></stop>
        </linearGradient>
    </defs>
    <g id="1" stroke="none" stroke-width="1" fill="none" fill-rule="evenodd">
        <circle id="Oval" fill="url(#linearGradient-1)" cx="27.5" cy="27.5" r="27.5"></circle>
        <g id="checklist" transform="translate(16.000000, 16.000000)" stroke="#FFFFFF" stroke-linecap="round" stroke-linejoin="round" stroke-width="1.999995">
            <path d="M1.6,24 C0.716352,24 0,23.3075264 0,22.4533333 L0,2.34666667 C0,1.4924736 0.716352,0.8 1.6,0.8 L22.4,0.8 C23.283648,0.8 24,1.4924736 24,2.34666667 L24,22.4533333 C24,23.3075264 23.283648,24 22.4,24 L1.6,24 Z" id="Path"></path>
            <polyline id="Path" points="12 4.8 7.2 11.2 4 8"></polyline>
            <path d="M14.4,8.4 L19.2,8.4" id="Path"></path>
            <polyline id="Path" points="12 13.6 7.2 20 4 16.8"></polyline>
            <path d="M14.4,18 L19.2,18" id="Path"></path>
        </g>
    </g>
</svg>