<?xml version="1.0" encoding="UTF-8"?>
<svg width="108px" height="101px" viewBox="0 0 108 101" version="1.1" xmlns="http://www.w3.org/2000/svg" xmlns:xlink="http://www.w3.org/1999/xlink">
    <!-- Generator: Sketch 52.5 (67469) - http://www.bohemiancoding.com/sketch -->
    <title>3</title>
    <desc>Created with Sketch.</desc>
    <defs>
        <linearGradient x1="50%" y1="0%" x2="50%" y2="100%" id="linearGradient-1">
            <stop stop-color="#86D1E9" offset="0%"></stop>
            <stop stop-color="#00ADD7" offset="100%"></stop>
        </linearGradient>
        <path d="M69.5003155,28.5723755 L53.6272331,1.78292431 C52.9702711,0.674988362 51.7663407,-0.00497232777 50.4684158,2.73831859e-05 L19.1012292,0.129019926 C17.8033042,0.135019579 16.6083733,0.823979748 15.9674104,1.93791535 L0.474306072,28.8553592 C-0.166656872,29.9682948 -0.157657392,31.3392156 0.499304627,32.4481515 L16.372387,59.2366027 C17.029349,60.3445387 18.2332794,61.0244994 19.5312043,61.0194997 L50.8983909,60.8905071 C52.1963159,60.8855074 53.3912468,60.1965472 54.0322097,59.0826116 L69.525314,32.1641679 C70.1672769,31.0512322 70.1572775,29.6803115 69.5003155,28.5723755" id="path-2"></path>
        <filter x="-50.0%" y="-41.0%" width="200.0%" height="214.7%" filterUnits="objectBoundingBox" id="filter-3">
            <feOffset dx="0" dy="10" in="SourceAlpha" result="shadowOffsetOuter1"></feOffset>
            <feGaussianBlur stdDeviation="10" in="shadowOffsetOuter1" result="shadowBlurOuter1"></feGaussianBlur>
            <feColorMatrix values="0 0 0 0 0.52513057   0 0 0 0 0.820598364   0 0 0 0 0.91358155  0 0 0 1 0" type="matrix" in="shadowBlurOuter1"></feColorMatrix>
        </filter>
    </defs>
    <g id="3" stroke="none" stroke-width="1" fill="none" fill-rule="evenodd">
        <g id="Group" transform="translate(19.000000, 10.000000)">
            <g id="Fill-1">
                <use fill="black" fill-opacity="1" filter="url(#filter-3)" xlink:href="#path-2"></use>
                <use fill="url(#linearGradient-1)" fill-rule="evenodd" xlink:href="#path-2"></use>
            </g>
            <g id="Group-13" transform="translate(20.000000, 17.000000)" stroke="#FFFFFF" stroke-linecap="round" stroke-linejoin="round" stroke-width="2">
                <path d="M2.6498,20.6503 C1.5838,20.6503 0.6498,19.7163 0.6498,18.6503 L0.6498,2.6503 C0.6498,1.5833 1.5838,0.6503 2.6498,0.6503 L28.6498,0.6503 C29.7168,0.6503 30.6498,1.5833 30.6498,2.6503 L30.6498,18.6503 C30.6498,19.7163 29.7168,20.6503 28.6498,20.6503 L2.6498,20.6503 Z" id="Stroke-1"></path>
                <polygon id="Stroke-3" points="20.6503 26.7831 10.6503 26.7831 11.7163 20.6501 19.7163 20.6501"></polygon>
                <path d="M7.7167,26.7831 L23.7167,26.7831" id="Stroke-5"></path>
                <path d="M11.7167,8.5165 L8.5167,12.6495 C8.2497,13.0505 7.7167,13.0505 7.3167,12.7835 L7.1837,12.6495 L5.5837,11.0505" id="Stroke-7"></path>
                <path d="M24.7831,7.9833 L19.7171,13.0503" id="Stroke-9"></path>
                <path d="M19.7167,7.9833 L24.7827,13.0503" id="Stroke-11"></path>
            </g>
        </g>
    </g>
</svg>