<?xml version="1.0" encoding="UTF-8"?>
<svg width="108px" height="101px" viewBox="0 0 108 101" version="1.1" xmlns="http://www.w3.org/2000/svg" xmlns:xlink="http://www.w3.org/1999/xlink">
    <!-- Generator: Sketch 52.5 (67469) - http://www.bohemiancoding.com/sketch -->
    <title>7</title>
    <desc>Created with Sketch.</desc>
    <defs>
        <linearGradient x1="50%" y1="0%" x2="50%" y2="100%" id="linearGradient-1">
            <stop stop-color="#BCAAA4" offset="0%"></stop>
            <stop stop-color="#8D6E62" offset="100%"></stop>
        </linearGradient>
        <path d="M69.5003155,28.5723755 L53.6272331,1.78292431 C52.9702711,0.674988362 51.7663407,-0.00497232777 50.4684158,2.73831859e-05 L19.1012292,0.129019926 C17.8033042,0.135019579 16.6083733,0.823979748 15.9674104,1.93791535 L0.474306072,28.8553592 C-0.166656872,29.9682948 -0.157657392,31.3392156 0.499304627,32.4481515 L16.372387,59.2366027 C17.029349,60.3445387 18.2332794,61.0244994 19.5312043,61.0194997 L50.8983909,60.8905071 C52.1963159,60.8855074 53.3912468,60.1965472 54.0322097,59.0826116 L69.525314,32.1641679 C70.1672769,31.0512322 70.1572775,29.6803115 69.5003155,28.5723755" id="path-2"></path>
        <filter x="-50.0%" y="-41.0%" width="200.0%" height="214.7%" filterUnits="objectBoundingBox" id="filter-3">
            <feOffset dx="0" dy="10" in="SourceAlpha" result="shadowOffsetOuter1"></feOffset>
            <feGaussianBlur stdDeviation="10" in="shadowOffsetOuter1" result="shadowBlurOuter1"></feGaussianBlur>
            <feColorMatrix values="0 0 0 0 0.619205713   0 0 0 0 0.536529958   0 0 0 0 0.404149055  0 0 0 1 0" type="matrix" in="shadowBlurOuter1"></feColorMatrix>
        </filter>
    </defs>
    <g id="7" stroke="none" stroke-width="1" fill="none" fill-rule="evenodd">
        <g id="Group" transform="translate(19.000000, 10.000000)">
            <g id="Fill-1">
                <use fill="black" fill-opacity="1" filter="url(#filter-3)" xlink:href="#path-2"></use>
                <use fill="url(#linearGradient-1)" fill-rule="evenodd" xlink:href="#path-2"></use>
            </g>
            <g id="credit-card-monitor-payment" transform="translate(19.000000, 16.000000)" stroke="#FFFFFF" stroke-linecap="round" stroke-linejoin="round" stroke-width="1.999995">
                <path d="M16.9999575,30.9999225 C15.8954003,30.9999225 14.9999625,30.1044847 14.9999625,28.9999275 L14.9999625,20.9999475 C14.9999625,19.8953903 15.8954003,18.9999525 16.9999575,18.9999525 L28.9999275,18.9999525 C30.1044847,18.9999525 30.9999225,19.8953903 30.9999225,20.9999475 L30.9999225,28.9999275 C30.9999225,30.1044847 30.1044847,30.9999225 28.9999275,30.9999225 L16.9999575,30.9999225 Z" id="Path"></path>
                <path d="M14.9999625,22.9999425 L30.9999225,22.9999425" id="Path"></path>
                <path d="M10.9999725,18.9999525 L3.199992,18.9999525 C1.97146985,18.9860384 0.986664309,17.9791537 0.999997609,16.7506248 L0.999997609,3.25065854 L0.999997552,3.2506536 C0.985930387,2.02171934 1.97077513,1.01407253 3.19971205,1.0000059 C3.19980818,1.0000048 3.1999043,1.0000037 3.20000043,1.00000261 L22.7999514,1.00000261 C24.028887,1.01391325 25.0138659,2.02143873 24.9999459,3.25037032 C24.9999448,3.25046645 24.9999437,3.25056257 24.9999426,3.2506587 L24.9999426,13.9999652" id="Path"></path>
                <path d="M10.9999725,18.9999525 L10.9999725,22.9999425" id="Path"></path>
                <path d="M7.99998,22.9999425 L10.9999725,22.9999425" id="Path"></path>
                <path d="M10.7719731,12.4586355 L10.771973,12.4586354 C11.3584248,13.2285575 12.2835692,13.6640097 13.2506334,13.6252991 C14.767963,13.6252991 15.9999599,12.7013015 15.9999599,11.5626376 C15.9999599,10.4239738 14.767963,9.50130946 13.2506334,9.50130946 C11.7333039,9.50130946 10.4999737,8.57731177 10.4999737,7.43731462 C10.4999737,6.29731747 11.7333039,5.37465311 13.2506334,5.37465311 C14.2172777,5.33615614 15.1419354,5.77160812 15.7279606,6.54131686" id="Path"></path>
                <path d="M13.2533002,13.6266326 L13.2533002,14.9999625" id="Path"></path>
                <path d="M13.2533002,3.99999 L13.2533002,5.3733199" id="Path"></path>
                <path d="M26.9999325,26.9999325 L24.9999375,26.9999325" id="Path"></path>
            </g>
        </g>
    </g>
</svg>