<?xml version="1.0" encoding="UTF-8"?>
<svg width="108px" height="101px" viewBox="0 0 108 101" version="1.1" xmlns="http://www.w3.org/2000/svg" xmlns:xlink="http://www.w3.org/1999/xlink">
    <!-- Generator: Sketch 52.5 (67469) - http://www.bohemiancoding.com/sketch -->
    <title>5</title>
    <desc>Created with Sketch.</desc>
    <defs>
        <linearGradient x1="50%" y1="0%" x2="50%" y2="100%" id="linearGradient-1">
            <stop stop-color="#94E2BD" offset="0%"></stop>
            <stop stop-color="#19D07A" offset="100%"></stop>
        </linearGradient>
        <path d="M69.5003155,28.5723755 L53.6272331,1.78292431 C52.9702711,0.674988362 51.7663407,-0.00497232777 50.4684158,2.73831859e-05 L19.1012292,0.129019926 C17.8033042,0.135019579 16.6083733,0.823979748 15.9674104,1.93791535 L0.474306072,28.8553592 C-0.166656872,29.9682948 -0.157657392,31.3392156 0.499304627,32.4481515 L16.372387,59.2366027 C17.029349,60.3445387 18.2332794,61.0244994 19.5312043,61.0194997 L50.8983909,60.8905071 C52.1963159,60.8855074 53.3912468,60.1965472 54.0322097,59.0826116 L69.525314,32.1641679 C70.1672769,31.0512322 70.1572775,29.6803115 69.5003155,28.5723755" id="path-2"></path>
        <filter x="-50.0%" y="-41.0%" width="200.0%" height="214.7%" filterUnits="objectBoundingBox" id="filter-3">
            <feOffset dx="0" dy="10" in="SourceAlpha" result="shadowOffsetOuter1"></feOffset>
            <feGaussianBlur stdDeviation="10" in="shadowOffsetOuter1" result="shadowBlurOuter1"></feGaussianBlur>
            <feColorMatrix values="0 0 0 0 0.587469339   0 0 0 0 0.886088014   0 0 0 0 0.746039748  0 0 0 1 0" type="matrix" in="shadowBlurOuter1"></feColorMatrix>
        </filter>
    </defs>
    <g id="5" stroke="none" stroke-width="1" fill="none" fill-rule="evenodd">
        <g id="Group" transform="translate(19.000000, 10.000000)">
            <g id="Fill-1">
                <use fill="black" fill-opacity="1" filter="url(#filter-3)" xlink:href="#path-2"></use>
                <use fill="url(#linearGradient-1)" fill-rule="evenodd" xlink:href="#path-2"></use>
            </g>
            <g id="browser-page-hierarchy" transform="translate(20.000000, 17.000000)" stroke="#FFFFFF" stroke-linecap="round" stroke-linejoin="round" stroke-width="1.999995">
                <path d="M2.99999,26.9999275 C1.89543276,26.9999275 0.999995,26.1044897 0.999995,24.9999325 L0.999995,2.9999875 C0.999995,1.89543026 1.89543276,0.9999925 2.99999,0.9999925 L26.99993,0.9999925 C28.1044872,0.9999925 28.999925,1.89543026 28.999925,2.9999875 L28.999925,24.9999325 C28.999925,26.1044897 28.1044872,26.9999275 26.99993,26.9999275 L2.99999,26.9999275 Z" id="Path"></path>
                <path d="M0.999995,6.9999775 L28.999925,6.9999775" id="Path"></path>
                <path d="M14.99996,14.9999575 L14.99996,18.9999475" id="Path"></path>
                <path d="M13.9999625,14.9999575 C13.4476839,14.9999575 12.999965,14.5522386 12.999965,13.99996 L12.999965,11.999965 C12.999965,11.4476864 13.4476839,10.9999675 13.9999625,10.9999675 L15.9999575,10.9999675 C16.5522361,10.9999675 16.999955,11.4476864 16.999955,11.999965 L16.999955,13.99996 C16.999955,14.5522386 16.5522361,14.9999575 15.9999575,14.9999575 L13.9999625,14.9999575 Z" id="Path"></path>
                <path d="M13.9999625,22.9999375 C13.4476839,22.9999375 12.999965,22.5522186 12.999965,21.99994 L12.999965,19.999945 C12.999965,19.4476664 13.4476839,18.9999475 13.9999625,18.9999475 L15.9999575,18.9999475 C16.5522361,18.9999475 16.999955,19.4476664 16.999955,19.999945 L16.999955,21.99994 C16.999955,22.5522186 16.5522361,22.9999375 15.9999575,22.9999375 L13.9999625,22.9999375 Z" id="Path"></path>
                <path d="M5.9999825,22.9999375 C5.44770388,22.9999375 4.999985,22.5522186 4.999985,21.99994 L4.999985,19.999945 C4.999985,19.4476664 5.44770388,18.9999475 5.9999825,18.9999475 L7.9999775,18.9999475 C8.55225612,18.9999475 8.999975,19.4476664 8.999975,19.999945 L8.999975,21.99994 C8.999975,22.5522186 8.55225612,22.9999375 7.9999775,22.9999375 L5.9999825,22.9999375 Z" id="Path"></path>
                <path d="M21.9999425,22.9999375 C21.4476639,22.9999375 20.999945,22.5522186 20.999945,21.99994 L20.999945,19.999945 C20.999945,19.4476664 21.4476639,18.9999475 21.9999425,18.9999475 L23.9999375,18.9999475 C24.5522161,18.9999475 24.999935,19.4476664 24.999935,19.999945 L24.999935,21.99994 C24.999935,22.5522186 24.5522161,22.9999375 23.9999375,22.9999375 L21.9999425,22.9999375 Z" id="Path"></path>
                <path d="M12.999965,12.9999625 L8.999975,12.9999625 C7.89540834,12.9999625 6.99997991,13.8953909 6.99997991,14.9999575 C6.99997991,14.9999575 6.99997991,14.9999575 6.99997991,14.9999575 L6.99997991,18.9999475" id="Path"></path>
                <path d="M16.999955,12.9999625 L20.999945,12.9999625 C22.1045115,12.9999625 22.9999399,13.8953909 22.9999399,14.9999575 L22.9999399,18.9999475" id="Path"></path>
            </g>
        </g>
    </g>
</svg>