<?xml version="1.0" encoding="UTF-8"?>
<svg width="55px" height="55px" viewBox="0 0 55 55" version="1.1" xmlns="http://www.w3.org/2000/svg" xmlns:xlink="http://www.w3.org/1999/xlink">
    <!-- Generator: Sketch 52.5 (67469) - http://www.bohemiancoding.com/sketch -->
    <title>3</title>
    <desc>Created with Sketch.</desc>
    <defs>
        <linearGradient x1="50%" y1="0%" x2="50%" y2="100%" id="linearGradient-1">
            <stop stop-color="#94E2BD" offset="0%"></stop>
            <stop stop-color="#19D07A" offset="100%"></stop>
        </linearGradient>
    </defs>
    <g id="3" stroke="none" stroke-width="1" fill="none" fill-rule="evenodd">
        <circle id="Oval" fill="url(#linearGradient-1)" cx="27.5" cy="27.5" r="27.5"></circle>
        <g id="Desktop-Monitor-Sign-Signature" transform="translate(16.000000, 16.000000)" stroke="#FFFFFF" stroke-linecap="round" stroke-linejoin="round" stroke-width="1.6">
            <polygon id="Path" points="15.4838303 23.2154239 7.74191419 23.2154239 8.51610581 20.1186574 14.7096387 20.1186574"></polygon>
            <path d="M5.41933935,23.2154239 L17.8064052,23.2154239" id="Path"></path>
            <path d="M20.12898,3.08644196 L20.1289799,3.08644196 C21.8392724,3.08644189 23.2257463,4.47291591 23.2257463,6.18320841 L23.2257463,17.021891 C23.2257463,18.7321835 21.8392724,20.1186574 20.1289799,20.1186574 L3.09676438,20.1186574 L3.09676425,20.1186574 C1.38647175,20.1186574 -2.20621141e-06,18.7321835 -2.20621141e-06,17.021891 C-2.20621141e-06,17.021891 -2.20621141e-06,17.021891 -2.20621141e-06,17.021891 L-2.20621141e-06,6.18320841 L-2.20621137e-06,6.18320888 C-2.46445899e-06,4.47291638 1.38647175,3.08644243 3.09676425,3.08644243" id="Path"></path>
            <path d="M3.45805394,16.1960866 L4.72772818,15.0812507 L4.72772833,15.0812506 C5.1815419,14.6973517 5.7923347,14.5552183 6.36901454,14.699316 C6.92403874,14.8044936 7.38062392,15.1981019 7.56643094,15.7315715 L7.67997904,16.1547963 L9.06320139,15.349637 C9.74361771,14.9558708 10.5977317,15.0301416 11.1999702,15.535443" id="Path"></path>
            <path d="M16.1754415,12.3251285 C15.993011,12.3251285 15.8451197,12.1772373 15.8451197,11.9948068 L15.8451197,9.55868385 C15.8451197,9.37625333 15.993011,9.22836209 16.1754415,9.22836209 L19.3857561,9.22836209 C19.5681866,9.22836209 19.7160778,9.37625333 19.7160778,9.55868385 L19.7160778,11.9948068 C19.7160778,12.1772373 19.5681866,12.3251285 19.3857561,12.3251285 L16.1754415,12.3251285 Z" id="Path"></path>
            <path d="M8.42320281,10.5702942 L5.16127548,11.3857761 L5.97675732,8.13417128 L12.7173856,1.38322041 L12.7173855,1.38322055 C13.3939288,0.710013454 14.4872907,0.710013454 15.163831,1.38322028 C15.8370381,2.05976361 15.8370381,3.15312553 15.163831,3.82966577 L8.42320281,10.5702942 Z" id="Path"></path>
            <path d="M10.4567461,3.66450503 L12.8928691,6.11095053" id="Path"></path>
            <path d="M12.8928691,1.21805954 L12.0773872,0.402577703 C11.627584,-0.0394227213 10.9065515,-0.0394227213 10.4567461,0.402577684 L8.01030064,2.84902318" id="Path"></path>
            <path d="M15.1638311,1.40386552 L16.557376,-1.93548391e-06" id="Path"></path>
        </g>
    </g>
</svg>