<?xml version="1.0" encoding="UTF-8"?>
<svg width="86px" height="86px" viewBox="0 0 86 86" version="1.1" xmlns="http://www.w3.org/2000/svg" xmlns:xlink="http://www.w3.org/1999/xlink">
    <!-- Generator: Sketch 52.5 (67469) - http://www.bohemiancoding.com/sketch -->
    <title>icon-screen copy</title>
    <desc>Created with Sketch.</desc>
    <defs>
        <linearGradient x1="50%" y1="0%" x2="50%" y2="100%" id="linearGradient-1">
            <stop stop-color="#FBD16B" offset="0%"></stop>
            <stop stop-color="#F5BE02" offset="100%"></stop>
        </linearGradient>
        <circle id="path-2" cx="43" cy="33" r="24"></circle>
        <filter x="-72.9%" y="-52.1%" width="245.8%" height="245.8%" filterUnits="objectBoundingBox" id="filter-3">
            <feOffset dx="0" dy="10" in="SourceAlpha" result="shadowOffsetOuter1"></feOffset>
            <feGaussianBlur stdDeviation="10" in="shadowOffsetOuter1" result="shadowBlurOuter1"></feGaussianBlur>
            <feColorMatrix values="0 0 0 0 0.984313725   0 0 0 0 0.819607843   0 0 0 0 0.419607843  0 0 0 1 0" type="matrix" in="shadowBlurOuter1"></feColorMatrix>
        </filter>
    </defs>
    <g id="icon-screen-copy" stroke="none" stroke-width="1" fill="none" fill-rule="evenodd">
        <g id="Oval">
            <use fill="black" fill-opacity="1" filter="url(#filter-3)" xlink:href="#path-2"></use>
            <use fill="url(#linearGradient-1)" fill-rule="evenodd" xlink:href="#path-2"></use>
        </g>
        <g id="phone-type" transform="translate(31.000000, 21.000000)" stroke="#FFFFFF" stroke-linecap="round" stroke-linejoin="round" stroke-width="1.6">
            <path d="M12.75,14.25 L12.75,20.518 C12.75,22.02684 11.52684,23.25 10.018,23.25 L3.483,23.25 C1.97400002,23.2500001 0.750550023,22.027 0.750000023,20.518 L0.750000023,4.983 L0.750000004,4.98305555 C0.750521241,3.47388555 1.97378,2.25058555 3.48294,2.24999555 L6,2.24999555" id="Path"></path>
            <path d="M0.75,18.75 L12.75,18.75" id="Path"></path>
            <path d="M20.25,0.75 L12,0.75 L11.9999999,0.75 C10.3431499,0.750000072 8.99999987,2.09315 8.99999987,3.75 C8.99999987,3.75 8.99999987,3.75 8.99999987,3.75 L8.99999987,8.25 L8.99999987,8.25000045 C9.00000012,9.90685045 10.3431499,11.2500005 11.9999999,11.2500005 L15.7499999,11.2500005 L15.7499999,15.0000005 L19.4999999,11.2500005 L20.2499999,11.2500005 L20.2499997,11.2500005 C21.9068497,11.2500005 23.2499997,9.90685045 23.2499997,8.25000045 L23.2499997,3.75000045 C23.2499997,2.09315045 21.9068497,0.750000453 20.2499997,0.750000453 C20.2499996,0.750000453 20.2499994,0.750000453 20.2499993,0.750000453 L20.25,0.75 Z" id="Path"></path>
            <path d="M12.375,5.625 C12.167893,5.62500001 12,5.792893 12,6 C12,6.207107 12.167893,6.375 12.375,6.375 C12.582107,6.37499999 12.75,6.207107 12.75,6 C12.75,5.792893 12.582107,5.625 12.375,5.625" id="Path"></path>
            <path d="M16.125,5.625 C15.917893,5.62500001 15.75,5.792893 15.75,6 C15.75,6.207107 15.917893,6.375 16.125,6.375 C16.332107,6.37499999 16.5,6.207107 16.5,6 C16.5,5.792893 16.332107,5.625 16.125,5.625" id="Path"></path>
            <path d="M19.875,5.625 C19.667893,5.62500001 19.5,5.792893 19.5,6 C19.5,6.207107 19.667893,6.375 19.875,6.375 C20.082107,6.37499999 20.25,6.207107 20.25,6 C20.25,5.792893 20.082107,5.625 19.875,5.625" id="Path"></path>
        </g>
    </g>
</svg>