<?xml version="1.0" encoding="UTF-8"?>
<svg width="108px" height="101px" viewBox="0 0 108 101" version="1.1" xmlns="http://www.w3.org/2000/svg" xmlns:xlink="http://www.w3.org/1999/xlink">
    <!-- Generator: Sketch 52.5 (67469) - http://www.bohemiancoding.com/sketch -->
    <title>4</title>
    <desc>Created with Sketch.</desc>
    <defs>
        <linearGradient x1="50%" y1="0%" x2="50%" y2="100%" id="linearGradient-1">
            <stop stop-color="#A9A3DF" offset="0%"></stop>
            <stop stop-color="#665EC5" offset="100%"></stop>
        </linearGradient>
        <path d="M69.5003155,28.5723755 L53.6272331,1.78292431 C52.9702711,0.674988362 51.7663407,-0.00497232777 50.4684158,2.73831859e-05 L19.1012292,0.129019926 C17.8033042,0.135019579 16.6083733,0.823979748 15.9674104,1.93791535 L0.474306072,28.8553592 C-0.166656872,29.9682948 -0.157657392,31.3392156 0.499304627,32.4481515 L16.372387,59.2366027 C17.029349,60.3445387 18.2332794,61.0244994 19.5312043,61.0194997 L50.8983909,60.8905071 C52.1963159,60.8855074 53.3912468,60.1965472 54.0322097,59.0826116 L69.525314,32.1641679 C70.1672769,31.0512322 70.1572775,29.6803115 69.5003155,28.5723755" id="path-2"></path>
        <filter x="-50.0%" y="-41.0%" width="200.0%" height="214.7%" filterUnits="objectBoundingBox" id="filter-3">
            <feOffset dx="0" dy="10" in="SourceAlpha" result="shadowOffsetOuter1"></feOffset>
            <feGaussianBlur stdDeviation="10" in="shadowOffsetOuter1" result="shadowBlurOuter1"></feGaussianBlur>
            <feColorMatrix values="0 0 0 0 0.660949349   0 0 0 0 0.640758276   0 0 0 0 0.875082254  0 0 0 1 0" type="matrix" in="shadowBlurOuter1"></feColorMatrix>
        </filter>
    </defs>
    <g id="4" stroke="none" stroke-width="1" fill="none" fill-rule="evenodd">
        <g id="Group" transform="translate(19.000000, 10.000000)">
            <g id="Fill-1">
                <use fill="black" fill-opacity="1" filter="url(#filter-3)" xlink:href="#path-2"></use>
                <use fill="url(#linearGradient-1)" fill-rule="evenodd" xlink:href="#path-2"></use>
            </g>
            <g id="common-file-text-star" transform="translate(19.000000, 15.000000)" stroke="#FFFFFF" stroke-linecap="round" stroke-linejoin="round" stroke-width="1.999995">
                <path d="M23.9292735,15.5732944 L25.983935,19.99995 L29.983925,19.99995 C30.5247463,19.9787309 30.9803705,20.3999517 31.0015905,20.940773 C31.0130698,21.2333509 30.8931231,21.5157355 30.6745899,21.7106124 L27.2079319,25.1279372 L29.1305938,29.5452595 C29.3524919,30.0798275 29.0990236,30.6930633 28.5644566,30.9149628 C28.2632547,31.0399915 27.9210128,31.0176749 27.6385975,30.8545902 L22.9866092,28.2439301 L18.3372875,30.8585902 C17.8360635,31.1480294 17.1951024,30.9763435 16.9056645,30.4751191 C16.7425796,30.1927038 16.7202636,29.8504634 16.845292,29.5492601 L18.7692872,25.1319378 L15.3026292,21.714613 C14.8957608,21.3588045 14.8543675,20.7405327 15.210176,20.3336698 C15.4045542,20.111397 15.6888975,19.9887679 15.9839607,19.9999559 L19.9839507,19.9999559 L22.0426122,15.5693003 C22.3186929,15.0488962 22.9643726,14.8508327 23.484782,15.1269147 C23.6745082,15.2275671 23.8294318,15.3831487 23.9292796,15.5733003 L23.9292735,15.5732944 Z" id="Path"></path>
                <path d="M4.9999875,8.9999775 L18.9999525,8.9999775" id="Path"></path>
                <path d="M4.9999875,14.9999625 L14.9999625,14.9999625" id="Path"></path>
                <path d="M4.9999875,20.9999475 L9.999975,20.9999475" id="Path"></path>
                <path d="M9.999975,26.9999325 L2.9999925,26.9999325 C1.89542584,26.9999325 0.999997413,26.1045041 0.999997413,24.9999375 C0.999997413,24.9999375 0.999997413,24.9999375 0.999997413,24.9999375 L0.999997413,2.9999925 L0.999997413,2.9999928 C0.999997246,1.89542623 1.89542584,0.999997802 2.99999241,0.999997802 L17.171957,0.999997802 C17.7020182,1.00011095 18.2103569,1.21063994 18.5852867,1.58532967 L22.4146104,5.41465343 C22.7893002,5.78958316 22.999829,6.29792189 22.9999423,6.82798323 L22.9999423,9.9999753" id="Path"></path>
            </g>
        </g>
    </g>
</svg>