<svg xmlns="http://www.w3.org/2000/svg" xmlns:xlink="http://www.w3.org/1999/xlink" viewBox="0 0 57.91 63.44"><defs><style>.cls-1{isolation:isolate;}.cls-2{fill:#fbf8f2;opacity:0.75;}.cls-3{fill:#5b4b37;}.cls-4{fill:none;stroke:#1f1f21;stroke-miterlimit:10;}.cls-26,.cls-28,.cls-5{fill:#efc29b;}.cls-25,.cls-33,.cls-6{fill:#fff;}.cls-7{fill:#51779c;}.cls-10,.cls-14,.cls-30,.cls-8{fill:#a7b2ba;}.cls-13,.cls-8{opacity:0.42;}.cls-10,.cls-13,.cls-16,.cls-18,.cls-19,.cls-26,.cls-28,.cls-30,.cls-8{mix-blend-mode:multiply;}.cls-9{fill:#76664d;}.cls-10,.cls-26{opacity:0.39;}.cls-11{fill:#575757;}.cls-12{fill:#403308;}.cls-15{fill:#b2864b;}.cls-16{fill:#d4d4d4;opacity:0.64;}.cls-17{fill:#f2f0e9;}.cls-18{fill:#e8e2d4;}.cls-19,.cls-20{fill:#e5d3a5;}.cls-19{opacity:0.6;}.cls-21{fill:#f4ebe1;}.cls-22{fill:#c4c4c4;}.cls-23{fill:#ebebeb;}.cls-24{fill:url(#linear-gradient);}.cls-25{opacity:0.5;}.cls-27{fill:#f4bb82;}.cls-28,.cls-30{opacity:0.25;}.cls-29{fill:#f4e2ae;}.cls-31{fill:#8e5930;}.cls-32{opacity:0.36;}.cls-33{font-size:2.62px;font-family:Autograf;}.cls-34{fill:url(#linear-gradient-2);}.cls-35{fill:url(#linear-gradient-3);}.cls-36{fill:url(#linear-gradient-4);}</style><linearGradient id="linear-gradient" x1="36.12" y1="26.92" x2="28.17" y2="13.16" gradientTransform="matrix(-1, 0, 0, 1, 61.28, 0)" gradientUnits="userSpaceOnUse"><stop offset="0" stop-color="#fbd16b"/><stop offset="1" stop-color="#f9bc03"/></linearGradient><linearGradient id="linear-gradient-2" x1="11.81" y1="-66.1" x2="11.81" y2="-57.81" gradientTransform="matrix(1.35, 0.2, -0.78, 0.62, -52.69, 53.39)" gradientUnits="userSpaceOnUse"><stop offset="0" stop-color="#f5b7ac"/><stop offset="1" stop-color="#f16540"/></linearGradient><linearGradient id="linear-gradient-3" x1="22.8" y1="-55.91" x2="22.8" y2="-47.5" gradientTransform="matrix(1.35, 0.2, -0.78, 0.62, -48.53, 44.78)" gradientUnits="userSpaceOnUse"><stop offset="0" stop-color="#a6a4da"/><stop offset="1" stop-color="#5d5cbe"/></linearGradient><linearGradient id="linear-gradient-4" x1="31.05" y1="-61.29" x2="31.05" y2="-50.43" gradientTransform="matrix(1.35, 0.2, -0.78, 0.62, -54.69, 33.84)" gradientUnits="userSpaceOnUse"><stop offset="0" stop-color="#90cee5"/><stop offset="1" stop-color="#3aa7d4"/></linearGradient></defs><title>Vector Smart Object1</title><g class="cls-1"><g id="Layer_1" data-name="Layer 1"><path class="cls-2" d="M57.29,20.67C52.79,35.77,47.37,41.33,43,43.43c-4.62,2.19-8.14.62-11.82,4.59C26.71,52.79,28.39,58.77,24.49,62c-4.36,3.56-10.92-.26-12.42-1.14C3.94,56.07-2.48,43.47.94,36c3.87-8.41,17-3,25.53-15.15,3.79-5.41,2.48-8.33,6.82-13C38,2.74,47.4-2.29,53.44,2.92,57.46,6.39,58.85,13.41,57.29,20.67Z"/><path class="cls-3" d="M33.45,44.5c-1.54-1.37-1-1.53-1.9-2.13a8.15,8.15,0,0,0-3.11-1.1c-.53,0-1.46.32-1.25.76A5.35,5.35,0,0,0,28.93,44a7.06,7.06,0,0,1,2.54,1.2c.6.67,1.24,1.58,2.35,1.15a1.36,1.36,0,0,0,.67-.41,1.11,1.11,0,0,0,0-.57C34.35,45.07,34,45,33.45,44.5Z"/><line class="cls-4" x1="33.39" y1="45.28" x2="33.39" y2="34.81"/><path class="cls-5" d="M29.06,41.3a11.61,11.61,0,0,0,2.3.13c.77-.09-.58-6.24-.58-6.24a1.56,1.56,0,0,1,1.6-.83,3.24,3.24,0,0,1,2.12,1s-.55,3.75-.57,5.32.7,3.42.63,4,0,1.06-.82,1.06S31.83,44.09,31,43.84s-1.63-.15-2.16-.75-1.61-1.17-1.19-1.42a.66.66,0,0,1,.79.15s-.64-.52-.12-.52Z"/><path class="cls-3" d="M34.3,43.24a.43.43,0,0,1-.27.29,2.44,2.44,0,0,1-2.11-.74c-.6-.55-.76-1.13-.43-1.38-1.2-.12-2.59-.53-3-.52s-1.46.32-1.25.76a5.43,5.43,0,0,0,1.74,1.92,7,7,0,0,1,2.54,1.19c.6.68,1.24,1.59,2.35,1.16a1.41,1.41,0,0,0,.64-.38A4.07,4.07,0,0,0,34.3,43.24Z"/><path class="cls-6" d="M28.61,41.79a.11.11,0,0,0,.08,0,5,5,0,0,1,.68-.53.14.14,0,0,0,0-.17.13.13,0,0,0-.16,0,4.17,4.17,0,0,0-.72.57.11.11,0,0,0,0,.17A.11.11,0,0,0,28.61,41.79Z"/><path class="cls-6" d="M29.18,41.92a.11.11,0,0,0,.08,0,3.22,3.22,0,0,1,.7-.55.12.12,0,0,0,0-.16.12.12,0,0,0-.16,0,4.34,4.34,0,0,0-.75.59.12.12,0,0,0,0,.17A.11.11,0,0,0,29.18,41.92Z"/><path class="cls-6" d="M29.75,42.05a.12.12,0,0,0,.09,0,3,3,0,0,1,.7-.55.13.13,0,0,0,.05-.17.11.11,0,0,0-.16,0,3,3,0,0,0-.77.6.12.12,0,0,0,0,.17A.11.11,0,0,0,29.75,42.05Z"/><path class="cls-6" d="M30.32,42.18a.14.14,0,0,0,.09,0,2.57,2.57,0,0,1,.72-.56.12.12,0,0,0-.11-.21,2.73,2.73,0,0,0-.8.62.12.12,0,0,0,0,.17A.13.13,0,0,0,30.32,42.18Z"/><path class="cls-7" d="M31.37,40.19c-.7-1.56-.47-11.47-.85-13a4.43,4.43,0,0,1,.62-3.22c2.17-.33,2.92.22,3.51,2.77,1,4.19.11,9-.15,13.59Z"/><path class="cls-8" d="M32.75,40.16c.1-2.89-.45-8.35-.45-10.28v-.35a33.1,33.1,0,0,0-.59-5.69l-.57.06a4.45,4.45,0,0,0-.62,3.22c.38,1.58.24,11.6.85,13Z"/><path class="cls-3" d="M21.48,50.72c-2.54-.25-2.57.11-3.77-.13a10.07,10.07,0,0,1-3.33-1.32,2.16,2.16,0,0,1-.08-.64c0-.28.28-.28.76-.32a19.81,19.81,0,0,1,4-.1,7.17,7.17,0,0,0,2.62.84c1,0,2.29.16,2.52.6a1.18,1.18,0,0,1,0,.53C24,50.94,23.48,50.91,21.48,50.72Z"/><path class="cls-5" d="M21.5,44.51c-.31.71-.54,1.24-.6,1.33-.32.49-.17.95-3,1.9l6.11,1c-.9-1.87.25-3,1.08-4.19Z"/><path class="cls-3" d="M23.75,47.52a2.91,2.91,0,0,1-2.27.46c-1.11-.11-1.89-.52-1.73-.92A.22.22,0,0,1,19.8,47a25.94,25.94,0,0,1-4.1.65c-1.44.06-1.5,1-1.34,1.28a9.81,9.81,0,0,0,3.32,1.31c1.21.24,1.24-.11,3.78.13,2,.2,2.53.23,2.78-.53A3.31,3.31,0,0,0,23.75,47.52Z"/><path class="cls-6" d="M16.77,48.24a.12.12,0,0,0,.12-.12c0-.42.22-.56.23-.56a.13.13,0,0,0,.05-.17.12.12,0,0,0-.16,0,.87.87,0,0,0-.35.78.11.11,0,0,0,.11.12Z"/><path class="cls-6" d="M17.62,48.16h0a.12.12,0,0,0,.1-.14c-.08-.44.16-.6.17-.6a.14.14,0,0,0,0-.17.13.13,0,0,0-.16,0,.77.77,0,0,0-.28.85A.12.12,0,0,0,17.62,48.16Z"/><path class="cls-6" d="M18.47,48.07h0a.13.13,0,0,0,.07-.16c-.15-.45.11-.63.11-.63a.12.12,0,0,0-.12-.21.77.77,0,0,0-.21.92A.13.13,0,0,0,18.47,48.07Z"/><path class="cls-6" d="M19.32,48l.06,0a.14.14,0,0,0,.05-.16c-.24-.47,0-.66,0-.67a.13.13,0,0,0,0-.17.11.11,0,0,0-.16,0,.73.73,0,0,0-.13,1A.12.12,0,0,0,19.32,48Z"/><path class="cls-9" d="M22,45a10.81,10.81,0,0,0-1-1.26s3.21-9.88,3.36-11.64A4.36,4.36,0,0,1,26,29.29c2.15.43,2.78,1.24,2.55,3.85-.27,3-2.41,8.81-3.94,12.61Z"/><path class="cls-10" d="M27.34,31.38a8.41,8.41,0,0,0,0-1.66c1.05.54,1.35,1.48,1.18,3.42-.27,3-2.41,8.81-3.94,12.61L23,45.3c2.34-3.06,3.18-7.32,3.63-11.24A22.82,22.82,0,0,1,27.34,31.38Z"/><path class="cls-9" d="M21.71,41.65c-.55,0-.61,1-.87,2.17-.19.85.81,2,1.49,2.6a3,3,0,0,0,1.73.4,5.64,5.64,0,0,0,1.28-2c.12-.34.08-.42-.06-.58s-.11.27-.29.33a1.67,1.67,0,0,1-1.22-.1C22.41,43.77,21.71,41.65,21.71,41.65Z"/><path class="cls-8" d="M23.31,46.25a5.87,5.87,0,0,0,.85-1.52,2.92,2.92,0,0,1-.72-.25A4.78,4.78,0,0,1,22,42.8h0c0-.07-.29-.53-.34-.64s-.12-.29-.18-.41l.1-.08h0l.13,0a7.14,7.14,0,0,0,.36.84,4.26,4.26,0,0,0,1.7,1.93,2.15,2.15,0,0,0,.45.14l.18,0h.42l.17,0a.2.2,0,0,0,.12-.08h0l.05-.06c.05-.09.09-.19.11-.18h0l0,0h0c.12.14.15.23,0,.55a5.64,5.64,0,0,1-1.28,2,3,3,0,0,1-1.73-.4,5.7,5.7,0,0,1-.73-.74C22.21,46.07,22.64,46.51,23.31,46.25Z"/><path class="cls-7" d="M31,38.18c-.46.33-.22,1.26-.12,2.39.07.85,1.24,1.26,2,1.36a2.91,2.91,0,0,0,1.56-.67,7.6,7.6,0,0,0,.51-2.52c0-.37-.05-.42-.21-.47s0,.3-.15.46a1.94,1.94,0,0,1-1.06.63C32.14,39.6,31,38.18,31,38.18Z"/><path class="cls-8" d="M34.7,38.28h0c-.05,0,0,.3-.15.46a1.94,1.94,0,0,1-1.06.63,2.59,2.59,0,0,1-2-.66,4.47,4.47,0,0,1-.54-.52l-.1.1,0,0c-.29.4-.09,1.25,0,2.26.07.85,1.24,1.26,2,1.36h.09c-1-.25-1.38-1.73-1.41-2.9a2.93,2.93,0,0,0,1.71.58c.61-.1,1.4-.5,1.52-.94A.65.65,0,0,0,34.7,38.28Z"/><path class="cls-11" d="M37.89,35.87c0-1.25.46-1.78.83-2s1.05-.36,2.1.28l7.74,4.67a.43.43,0,0,1,.15.58.39.39,0,0,1-.55.15l-7.74-4.67c-.57-.34-1-.44-1.3-.28s-.41.61-.42,1.27Z"/><path class="cls-12" d="M28.09,54.79h0a.41.41,0,0,1-.4-.43L27.76,42c0-1.25.45-1.78.83-2s1-.36,2.1.28l7.74,4.68a.43.43,0,0,1,.15.57.41.41,0,0,1-.56.16L30.28,41c-.56-.34-1-.44-1.29-.28s-.42.61-.42,1.28L28.5,54.37A.41.41,0,0,1,28.09,54.79Z"/><path class="cls-12" d="M35.8,32.54l-6.95,4.18a1.84,1.84,0,0,0,0,3.13l7.78,4.68a1.83,1.83,0,0,0,1.89,0L47.65,39a.89.89,0,0,0,0-1.51l-8.31-5A3.46,3.46,0,0,0,35.8,32.54Z"/><path class="cls-12" d="M35.8,31.89l-6.95,4.18a1.84,1.84,0,0,0,0,3.13l7.78,4.68a1.83,1.83,0,0,0,1.89,0l9.13-5.49a.89.89,0,0,0,0-1.51l-8.31-5A3.46,3.46,0,0,0,35.8,31.89Z"/><path class="cls-9" d="M38.56,38c-3.06-3.79-7.25-9.75-8.17-11.07C29.1,25.07,32.26,22.44,34,24c1.54,1.4,6.1,4.86,10.71,9.31.37.37.69.7,1,1,.46,2,.29,3.48-1.15,4.19C41.89,39.86,40.9,40,38.56,38Z"/><g class="cls-13"><path class="cls-14" d="M33.55,28c2.29,2.38,5.79,6,10.81,10.64-2.52,1.25-3.51,1.37-5.8-.61h0c-2.64-3.27-6.16-8.21-7.66-10.34Z"/></g><path class="cls-9" d="M36,41.36c-3.78-3-9.13-7.86-10.3-8.94-1.66-1.52.45-5.08,2.86-3.67,1.78,1,7,3.35,12.41,6.64.44.27.82.53,1.18.78.88,1.85,1,3.32-.23,4.35C39.6,42.4,38.67,42.79,36,41.36Z"/><g class="cls-13"><path class="cls-14" d="M26.6,31.23c2,1.37,8.21,5.41,15.15,9.4-2.19,1.79-3.13,2.13-5.79.73h0c-3.13-2.49-7.34-6.24-9.36-8.07Z"/></g><path class="cls-15" d="M22.49,38c0-.25.36-.45.81-.45s.81.2.81.45V62.5c0,.25-.37.45-.81.45s-.81-.2-.81-.45Z"/><path class="cls-16" d="M23.11,62.94c-.36,0-.62-.23-.62-.44V38c0-.21.26-.39.62-.43Z"/><path class="cls-15" d="M5.8,29.47c0-.25.36-.45.81-.45s.8.2.8.45V54c0,.25-.36.45-.8.45s-.81-.2-.81-.45Z"/><path class="cls-16" d="M6.41,54.44c-.35,0-.61-.23-.61-.44V29.47c0-.21.26-.39.61-.43Z"/><path class="cls-15" d="M53.87,20.07c0-.24.36-.44.81-.44s.8.2.8.44V44.61c0,.24-.36.44-.8.44s-.81-.2-.81-.44Z"/><path class="cls-16" d="M54.49,45c-.36,0-.62-.22-.62-.43V20.07c0-.21.26-.38.62-.43Z"/><polygon class="cls-17" points="56.64 19.96 37.98 9.36 4.64 29.5 23.3 40.1 56.64 19.96"/><polygon class="cls-6" points="56.41 19.83 56.64 19.96 23.3 40.1 23.3 39.39 56.41 19.83"/><polygon class="cls-18" points="56.41 19.83 56.64 19.96 23.3 40.1 23.3 39.39 56.41 19.83"/><polygon class="cls-6" points="5.25 29.14 23.3 39.39 23.3 40.1 4.64 29.5 5.25 29.14"/><polygon class="cls-18" points="5.25 29.14 23.3 39.39 23.3 40.1 4.64 29.5 5.25 29.14"/><path class="cls-19" d="M24.16,27.05V19a1,1,0,0,1,.43-.81l8.86-5.28a.3.3,0,0,1,.27,0l.08,0c.11,0,.18.15.18.33v8a1,1,0,0,1-.43.8l-8.86,5.28a.32.32,0,0,1-.24.05l-.17-.06A.35.35,0,0,1,24.16,27.05Z"/><path class="cls-19" d="M25.09,19v8.14l-.4.24a.32.32,0,0,1-.24.05l-.17-.06a.35.35,0,0,1-.12-.31V19Z"/><path class="cls-20" d="M25.84,27.11l7.9-4.26a1,1,0,0,1,.95,0L42,26.09a.39.39,0,0,1,.23.32c0,.06,0,.48,0,.54a.28.28,0,0,1-.16.27L33,32.68a1,1,0,0,1-1,0L24.7,28.25a.41.41,0,0,1-.23-.34c0-.06,1.2-.49,1.2-.56A.29.29,0,0,1,25.84,27.11Z"/><path class="cls-6" d="M33,32.53l9.1-5.46c.24-.14.21-.4-.07-.57l-7.32-4.4a1,1,0,0,0-.95,0l-9.1,5.46c-.25.15-.22.41.06.58L32,32.49A1,1,0,0,0,33,32.53Z"/><path class="cls-21" d="M29.93,30.43l8.62-5.17c.06,0,.05-.11,0-.15l-3.91-2.35a.26.26,0,0,0-.24,0l-8.62,5.17c-.06,0-.06.11,0,.15l3.9,2.35A.31.31,0,0,0,29.93,30.43Z"/><path class="cls-6" d="M34.38,23.43l.45-.27a0,0,0,0,0,0,0l-.3-.18a.06.06,0,0,0-.06,0l-.45.27s0,0,0,0l.3.18A.06.06,0,0,0,34.38,23.43Z"/><path class="cls-6" d="M34.31,23.43,34,23.25s0,0,0,0l.45-.27s.06,0,.08,0l.3.18a0,0,0,0,1,0,0l-.45.27S34.33,23.44,34.31,23.43ZM34,23.22s0,0,0,0l.3.18h0l.46-.27s0,0,0,0L34.53,23h-.05Z"/><path class="cls-6" d="M33.76,23.8l.46-.27a0,0,0,0,0,0,0l-.29-.18h-.06l-.46.27a0,0,0,0,0,0,0l.29.18Z"/><path class="cls-6" d="M33.7,23.8l-.3-.18s0,0,0,0l.46-.27s0,0,.07,0l.3.18a0,0,0,0,1,0,0l-.45.27S33.72,23.81,33.7,23.8Zm-.29-.21s0,0,0,0l.3.18a0,0,0,0,0,0,0l.46-.27s0,0,0,0l-.29-.18a0,0,0,0,0,0,0Z"/><path class="cls-6" d="M33.14,24.17l.46-.27a0,0,0,0,0,0,0l-.29-.18h-.06l-.46.27a0,0,0,0,0,0,0l.29.18Z"/><path class="cls-6" d="M33.08,24.17l-.3-.18a0,0,0,0,1,0,0l.45-.27s.05,0,.08,0l.29.18s0,0,0,0l-.46.27A0,0,0,0,1,33.08,24.17ZM32.79,24s0,0,0,0l.29.17h0l.45-.28s0,0,0,0l-.3-.18a0,0,0,0,0,0,0Z"/><path class="cls-6" d="M32.53,24.54l.45-.27s0,0,0,0l-.3-.18a.06.06,0,0,0-.06,0l-.45.27a0,0,0,0,0,0,0l.3.18A.06.06,0,0,0,32.53,24.54Z"/><path class="cls-6" d="M32.46,24.54l-.3-.18a0,0,0,0,1,0,0l.45-.27a.11.11,0,0,1,.08,0l.29.18s0,0,0,0l-.45.28A.08.08,0,0,1,32.46,24.54Zm-.28-.21s0,0,0,0l.29.17h.05l.45-.28s0,0,0,0l-.3-.18h0Z"/><path class="cls-6" d="M31.91,24.91l.45-.27a0,0,0,0,0,0,0l-.3-.18a.06.06,0,0,0-.06,0l-.45.27s0,0,0,0l.3.18A.06.06,0,0,0,31.91,24.91Z"/><path class="cls-6" d="M31.84,24.91l-.29-.18s0,0,0,0l.45-.27a.11.11,0,0,1,.08,0l.3.18a0,0,0,0,1,0,0l-.45.28A.08.08,0,0,1,31.84,24.91Zm-.28-.21a0,0,0,0,0,0,0l.3.17h0l.45-.28s0,0,0,0l-.29-.18H32Z"/><path class="cls-6" d="M31.29,25.28l.46-.27a0,0,0,0,0,0,0l-.29-.17a0,0,0,0,0-.06,0l-.46.27a0,0,0,0,0,0,0l.29.18Z"/><path class="cls-6" d="M31.22,25.28l-.29-.17s0,0,0-.05l.46-.27h.07l.3.18a0,0,0,0,1,0,0l-.45.28A.08.08,0,0,1,31.22,25.28Zm-.28-.21a0,0,0,0,0,0,0l.3.17h0l.46-.28s0,0,0,0l-.29-.18a0,0,0,0,0-.05,0Z"/><path class="cls-6" d="M30.67,25.65l.46-.27a0,0,0,0,0,0,0l-.29-.17s0,0-.06,0l-.46.28s0,0,0,0l.29.18A.06.06,0,0,0,30.67,25.65Z"/><path class="cls-6" d="M30.61,25.65l-.3-.17s0,0,0-.05l.45-.27a.11.11,0,0,1,.08,0l.29.18s0,0,0,0l-.46.28A.06.06,0,0,1,30.61,25.65Zm-.29-.21s0,0,0,0l.29.18h.05l.45-.27a0,0,0,0,0,0,0l-.3-.18a0,0,0,0,0,0,0Z"/><path class="cls-6" d="M30.06,26l.45-.27s0,0,0,0l-.3-.17a.07.07,0,0,0-.06,0l-.45.28s0,0,0,0L30,26A.06.06,0,0,0,30.06,26Z"/><path class="cls-6" d="M30,26l-.3-.17s0,0,0-.05l.45-.27a.11.11,0,0,1,.08,0l.29.18s0,0,0,.05l-.45.27A.08.08,0,0,1,30,26Zm-.29-.21s0,0,0,0L30,26h.05l.45-.27a0,0,0,0,0,0,0l-.3-.18h0Z"/><path class="cls-6" d="M29.44,26.39l.45-.27s0,0,0,0l-.3-.17a.07.07,0,0,0-.06,0l-.45.28s0,0,0,0l.3.18Z"/><path class="cls-6" d="M29.37,26.39l-.29-.17s0,0,0,0l.45-.27h.08l.3.18s0,0,0,.05l-.45.27A.08.08,0,0,1,29.37,26.39Zm-.28-.21a0,0,0,0,0,0,0l.3.18h0l.45-.27s0,0,0,0l-.29-.18a0,0,0,0,0-.05,0Z"/><path class="cls-6" d="M28.82,26.76l.46-.27s0,0,0,0L29,26.28h-.07l-.45.28s0,0,0,0l.29.18Z"/><path class="cls-6" d="M28.75,26.77l-.29-.18s0,0,0-.05l.46-.27H29l.3.18s0,0,0,.05l-.45.27A.11.11,0,0,1,28.75,26.77Zm-.28-.22a0,0,0,0,0,0,0l.3.18h0l.46-.27s0,0,0,0L29,26.28a0,0,0,0,0,0,0Z"/><path class="cls-6" d="M28.2,27.13l.46-.27s0,0,0,0l-.29-.18H28.3l-.46.27s0,0,0,0l.29.18A.06.06,0,0,0,28.2,27.13Z"/><path class="cls-6" d="M28.14,27.14l-.3-.18s0,0,0-.05l.45-.27a.09.09,0,0,1,.07,0l.3.18s0,0,0,.05l-.46.27Zm-.29-.22a0,0,0,0,0,0,0l.3.18a0,0,0,0,0,.05,0l.45-.27a0,0,0,0,0,0,0l-.3-.18h0Z"/><path class="cls-6" d="M27.59,27.5l.45-.27s0,0,0,0l-.3-.18h-.06l-.45.27s0,0,0,0l.3.18A.06.06,0,0,0,27.59,27.5Z"/><path class="cls-6" d="M27.52,27.51l-.3-.18a0,0,0,0,1,0,0l.45-.27a.11.11,0,0,1,.08,0l.29.18s0,0,0,0l-.46.27Zm-.29-.22s0,0,0,0l.29.18a0,0,0,0,0,0,0l.45-.27a0,0,0,0,0,0,0l-.3-.18h0Z"/><path class="cls-6" d="M27,27.87l.45-.27s0,0,0,0l-.3-.18a.06.06,0,0,0-.06,0l-.45.27s0,0,0,0l.3.18Z"/><path class="cls-6" d="M26.9,27.88l-.29-.18s0,0,0-.05l.45-.27h.08l.3.18s0,0,0,.05l-.45.27A.11.11,0,0,1,26.9,27.88Zm-.28-.22a0,0,0,0,0,0,0l.3.18h0l.45-.27s0,0,0,0l-.29-.18s0,0-.05,0Z"/><path class="cls-6" d="M26.38,28.23l.45-.27a0,0,0,0,0,0,0l-.3-.18h-.06L26,28s0,0,0,0l.3.18Z"/><path class="cls-6" d="M26.31,28.23,26,28.05s0,0,0,0l.45-.28a.08.08,0,0,1,.08,0l.3.18a0,0,0,0,1,0,0l-.45.27ZM26,28s0,0,0,0l.3.18a0,0,0,0,0,0,0l.46-.27s0,0,0,0l-.29-.17h-.05Z"/><path class="cls-6" d="M35.09,23.76l.34-.2s0-.06,0-.08l-.4-.24a.15.15,0,0,0-.13,0l-.34.21s0,.05,0,.07l.39.24A.15.15,0,0,0,35.09,23.76Z"/><path class="cls-6" d="M35,23.76l-.39-.23s-.05-.07,0-.09l.35-.21a.14.14,0,0,1,.14,0l.39.23s0,.07,0,.09l-.34.21A.16.16,0,0,1,35,23.76Zm-.38-.31a0,0,0,0,0,0,.07l.4.24a.11.11,0,0,0,.11,0l.35-.21s0-.05,0-.07L35,23.25a.17.17,0,0,0-.12,0Z"/><path class="cls-6" d="M34.49,24.12l.35-.21s0-.05,0-.07l-.39-.24a.15.15,0,0,0-.13,0l-.35.2a0,0,0,0,0,0,.08l.39.24A.15.15,0,0,0,34.49,24.12Z"/><path class="cls-6" d="M34.36,24.12l-.4-.23s0-.07,0-.09l.35-.21a.16.16,0,0,1,.15,0l.39.23s0,.07,0,.09l-.35.21A.14.14,0,0,1,34.36,24.12ZM34,23.81s0,.05,0,.07l.39.23a.14.14,0,0,0,.11,0l.35-.21s0-.05,0-.07l-.39-.24a.11.11,0,0,0-.11,0Z"/><path class="cls-6" d="M33.9,24.48l.34-.21s0-.05,0-.08L33.84,24a.12.12,0,0,0-.13,0l-.34.21s0,.06,0,.08l.39.23A.12.12,0,0,0,33.9,24.48Z"/><path class="cls-6" d="M33.76,24.48l-.39-.24s0-.06,0-.08L33.7,24a.19.19,0,0,1,.15,0l.39.24a0,0,0,0,1,0,.09l-.34.2A.16.16,0,0,1,33.76,24.48Zm-.38-.31s0,0,0,.06l.4.24a.11.11,0,0,0,.11,0l.35-.2a0,0,0,0,0,0-.07L33.84,24a.13.13,0,0,0-.12,0Z"/><path class="cls-6" d="M33.3,24.84l.35-.21a0,0,0,0,0,0-.08l-.39-.23a.12.12,0,0,0-.13,0l-.35.21s0,.05,0,.08l.39.23A.15.15,0,0,0,33.3,24.84Z"/><path class="cls-6" d="M33.17,24.84l-.4-.24s0-.07,0-.09l.35-.21a.17.17,0,0,1,.14,0l.4.24a0,0,0,0,1,0,.08l-.35.21A.17.17,0,0,1,33.17,24.84Zm-.39-.32s0,.05,0,.07l.39.24a.11.11,0,0,0,.11,0l.35-.21s0,0,0-.06l-.39-.24a.14.14,0,0,0-.11,0Z"/><path class="cls-6" d="M32.71,25.19l.34-.2s0-.06,0-.08l-.39-.24a.15.15,0,0,0-.13,0l-.34.2s0,.06,0,.08l.4.24A.15.15,0,0,0,32.71,25.19Z"/><path class="cls-6" d="M32.57,25.19,32.18,25s0-.07,0-.09l.34-.21a.16.16,0,0,1,.15,0l.39.23s.05.07,0,.09l-.35.21A.14.14,0,0,1,32.57,25.19Zm-.39-.31s0,.05,0,.07l.39.23a.13.13,0,0,0,.12,0L33,25a0,0,0,0,0,0-.07l-.4-.23a.11.11,0,0,0-.11,0Z"/><path class="cls-6" d="M32.11,25.55l.35-.21s0-.05,0-.08L32.06,25a.15.15,0,0,0-.13,0l-.35.21a0,0,0,0,0,0,.08l.39.24A.15.15,0,0,0,32.11,25.55Z"/><path class="cls-6" d="M32,25.55l-.39-.24s0-.06,0-.08l.35-.21a.17.17,0,0,1,.14,0l.4.24s0,.07,0,.09l-.35.21A.16.16,0,0,1,32,25.55Zm-.38-.31s0,.05,0,.07l.39.23a.14.14,0,0,0,.11,0l.35-.21s0-.05,0-.07L32.05,25a.13.13,0,0,0-.12,0Z"/><path class="cls-6" d="M31.52,25.91l.34-.21s0-.05,0-.08l-.39-.23a.12.12,0,0,0-.13,0l-.35.21s0,.05,0,.08l.4.23A.12.12,0,0,0,31.52,25.91Z"/><path class="cls-6" d="M31.38,25.91,31,25.67s0-.06,0-.09l.34-.2a.16.16,0,0,1,.15,0l.39.24a0,0,0,0,1,0,.09l-.35.2S31.42,25.93,31.38,25.91ZM31,25.59s0,.05,0,.07l.39.24a.13.13,0,0,0,.12,0l.34-.2a0,0,0,0,0,0-.07l-.4-.24a.11.11,0,0,0-.11,0Z"/><path class="cls-6" d="M30.92,26.27l.35-.21a0,0,0,0,0,0-.08l-.39-.24a.15.15,0,0,0-.13,0l-.35.21s0,.05,0,.07l.39.24A.15.15,0,0,0,30.92,26.27Z"/><path class="cls-6" d="M30.78,26.26,30.39,26s-.05-.07,0-.09l.35-.21a.14.14,0,0,1,.14,0l.4.24a0,0,0,0,1,0,.08l-.34.21A.16.16,0,0,1,30.78,26.26ZM30.4,26s0,.05,0,.07l.39.24a.11.11,0,0,0,.11,0l.35-.21s0-.05,0-.07l-.39-.23a.17.17,0,0,0-.12,0Z"/><path class="cls-6" d="M30.32,26.62l.35-.21s0-.05,0-.07l-.39-.24a.15.15,0,0,0-.13,0l-.35.2a0,0,0,0,0,0,.08l.39.24A.15.15,0,0,0,30.32,26.62Z"/><path class="cls-6" d="M30.19,26.62l-.39-.23c-.05,0-.05-.07,0-.09l.34-.21a.16.16,0,0,1,.15,0l.39.23s0,.07,0,.09l-.35.21A.14.14,0,0,1,30.19,26.62Zm-.39-.31s0,.05,0,.07l.39.23a.17.17,0,0,0,.12,0l.34-.21a0,0,0,0,0,0-.07l-.4-.23a.11.11,0,0,0-.11,0Z"/><path class="cls-6" d="M29.73,27l.35-.21s0-.05,0-.08l-.4-.23a.13.13,0,0,0-.12,0l-.35.21s0,.06,0,.08l.39.23A.12.12,0,0,0,29.73,27Z"/><path class="cls-6" d="M29.59,27l-.39-.24s-.05-.06,0-.08l.35-.21a.17.17,0,0,1,.14,0l.39.24c.05,0,.05.06,0,.09l-.34.2A.16.16,0,0,1,29.59,27Zm-.38-.31s0,0,0,.06l.4.24a.11.11,0,0,0,.11,0l.35-.2s0-.05,0-.07l-.39-.24a.13.13,0,0,0-.12,0Z"/><path class="cls-6" d="M29.13,27.34l.35-.21a0,0,0,0,0,0-.08l-.39-.23a.12.12,0,0,0-.13,0L28.6,27s0,.05,0,.08l.39.23A.15.15,0,0,0,29.13,27.34Z"/><path class="cls-6" d="M29,27.34l-.4-.24s0-.06,0-.09l.34-.2a.16.16,0,0,1,.15,0l.39.24s.05.06,0,.08l-.35.21A.17.17,0,0,1,29,27.34ZM28.61,27s0,.05,0,.07l.39.24a.13.13,0,0,0,.12,0l.34-.21s0,0,0-.06l-.39-.24a.11.11,0,0,0-.11,0Z"/><path class="cls-6" d="M28.54,27.69l.34-.2s0-.06,0-.08l-.4-.24a.15.15,0,0,0-.13,0l-.34.21s0,.05,0,.07l.39.24A.15.15,0,0,0,28.54,27.69Z"/><path class="cls-6" d="M28.4,27.69,28,27.46s-.05-.07,0-.09l.35-.21a.14.14,0,0,1,.14,0l.39.23c.05,0,.05.07,0,.09l-.34.21A.16.16,0,0,1,28.4,27.69ZM28,27.38a0,0,0,0,0,0,.07l.4.23a.11.11,0,0,0,.11,0l.35-.21s0-.05,0-.07l-.39-.23a.13.13,0,0,0-.12,0Z"/><path class="cls-6" d="M27.94,28.05l.35-.21s0-.05,0-.07l-.39-.24a.15.15,0,0,0-.13,0l-.35.21a0,0,0,0,0,0,.08l.39.24A.15.15,0,0,0,27.94,28.05Z"/><path class="cls-6" d="M27.81,28.05l-.4-.24a0,0,0,0,1,0-.08l.35-.21a.14.14,0,0,1,.14,0l.4.23s0,.07,0,.09l-.35.21A.14.14,0,0,1,27.81,28.05Zm-.39-.31s0,.05,0,.07l.39.23a.14.14,0,0,0,.11,0l.35-.21s0-.05,0-.07l-.39-.24a.11.11,0,0,0-.11,0Z"/><path class="cls-6" d="M27.05,28.59l.64-.39s0-.05,0-.08l-.39-.23a.12.12,0,0,0-.13,0l-.65.39s0,.06,0,.08l.4.23A.12.12,0,0,0,27.05,28.59Z"/><path class="cls-6" d="M26.91,28.59l-.39-.24c-.05,0-.05-.06,0-.08l.64-.39a.19.19,0,0,1,.15,0l.39.24a0,0,0,0,1,0,.09l-.65.38S27,28.61,26.91,28.59Zm-.39-.31s0,0,0,.06l.39.24a.13.13,0,0,0,.12,0l.64-.38a0,0,0,0,0,0-.07l-.4-.24a.11.11,0,0,0-.11,0Z"/><path class="cls-6" d="M34.81,24.7l.35-.2a0,0,0,0,0,0-.08l-.39-.24a.15.15,0,0,0-.13,0l-.35.2a0,0,0,0,0,0,.08l.39.24A.15.15,0,0,0,34.81,24.7Z"/><path class="cls-6" d="M34.68,24.7l-.4-.23s0-.07,0-.09l.34-.21a.16.16,0,0,1,.15,0l.39.23s.05.07,0,.09l-.35.21A.14.14,0,0,1,34.68,24.7Zm-.39-.31s0,.05,0,.07l.39.23a.13.13,0,0,0,.12,0l.34-.21s0,0,0-.07l-.39-.23a.11.11,0,0,0-.11,0Z"/><path class="cls-6" d="M35.46,24.32l.62-.38s0-.05,0-.07l-.39-.24a.15.15,0,0,0-.13,0l-.62.37s0,.05,0,.07l.39.24A.15.15,0,0,0,35.46,24.32Z"/><path class="cls-6" d="M35.32,24.31l-.39-.23s0-.07,0-.09l.62-.37a.16.16,0,0,1,.15,0l.39.23s0,.07,0,.09l-.62.37A.16.16,0,0,1,35.32,24.31ZM34.94,24s0,.05,0,.07l.39.24a.11.11,0,0,0,.11,0l.62-.37s0-.05,0-.07l-.39-.24a.11.11,0,0,0-.11,0Z"/><path class="cls-6" d="M34.22,25.06l.35-.21s0-.05,0-.08l-.4-.23a.15.15,0,0,0-.13,0l-.34.21s0,.06,0,.08l.39.23A.12.12,0,0,0,34.22,25.06Z"/><path class="cls-6" d="M34.08,25.06l-.39-.24s0-.06,0-.08l.35-.21a.17.17,0,0,1,.14,0l.39.24s0,.07,0,.09l-.34.21A.16.16,0,0,1,34.08,25.06Zm-.38-.31s0,0,0,.07l.4.23a.14.14,0,0,0,.11,0l.35-.21s0-.05,0-.07l-.39-.24a.13.13,0,0,0-.12,0Z"/><path class="cls-6" d="M33.62,25.42l.35-.21a0,0,0,0,0,0-.08l-.39-.23a.12.12,0,0,0-.13,0l-.35.21s0,0,0,.08l.39.23A.12.12,0,0,0,33.62,25.42Z"/><path class="cls-6" d="M33.49,25.42l-.4-.24a.05.05,0,0,1,0-.09l.35-.2a.16.16,0,0,1,.15,0l.39.24a0,0,0,0,1,0,.08l-.35.21A.17.17,0,0,1,33.49,25.42Zm-.39-.32s0,0,0,.07l.39.24a.13.13,0,0,0,.12,0l.34-.2s0-.05,0-.07l-.39-.24a.11.11,0,0,0-.11,0Z"/><path class="cls-6" d="M33,25.77l.34-.2s0-.06,0-.08l-.4-.24a.15.15,0,0,0-.13,0l-.34.21s0,.05,0,.07l.39.24A.15.15,0,0,0,33,25.77Z"/><path class="cls-6" d="M32.89,25.77l-.39-.23s0-.07,0-.09l.35-.21a.14.14,0,0,1,.14,0l.39.23c.05,0,.05.07,0,.09l-.34.21A.16.16,0,0,1,32.89,25.77Zm-.38-.31a0,0,0,0,0,0,.07l.4.24a.11.11,0,0,0,.11,0l.35-.21s0,0,0-.07L33,25.26a.17.17,0,0,0-.12,0Z"/><path class="cls-6" d="M32.43,26.13l.35-.21s0-.05,0-.07l-.39-.24a.15.15,0,0,0-.13,0l-.35.2a0,0,0,0,0,0,.08l.39.24A.15.15,0,0,0,32.43,26.13Z"/><path class="cls-6" d="M32.3,26.13l-.4-.23s0-.07,0-.09l.35-.21a.14.14,0,0,1,.14,0l.4.23s0,.07,0,.09l-.35.21A.14.14,0,0,1,32.3,26.13Zm-.39-.31s0,.05,0,.07l.39.23a.14.14,0,0,0,.11,0l.35-.21s0-.05,0-.07l-.39-.24a.11.11,0,0,0-.11,0Z"/><path class="cls-6" d="M31.84,26.49l.34-.21s0-.05,0-.08L31.78,26a.15.15,0,0,0-.13,0l-.34.21s0,.06,0,.08l.39.23A.12.12,0,0,0,31.84,26.49Z"/><path class="cls-6" d="M31.7,26.49l-.39-.24s0-.06,0-.08l.34-.21a.2.2,0,0,1,.15,0l.39.24a0,0,0,0,1,0,.09l-.34.2A.16.16,0,0,1,31.7,26.49Zm-.39-.31s0,0,0,.06l.39.24a.13.13,0,0,0,.12,0l.34-.2a0,0,0,0,0,0-.07l-.4-.24a.11.11,0,0,0-.11,0Z"/><path class="cls-6" d="M31.24,26.85l.35-.21a0,0,0,0,0,0-.08l-.39-.23a.12.12,0,0,0-.13,0l-.35.21s0,0,0,.08l.39.23A.15.15,0,0,0,31.24,26.85Z"/><path class="cls-6" d="M31.1,26.85l-.39-.24s0-.06,0-.09l.35-.2a.14.14,0,0,1,.14,0l.4.24a0,0,0,0,1,0,.08l-.35.21A.19.19,0,0,1,31.1,26.85Zm-.38-.32s0,0,0,.07l.39.24a.11.11,0,0,0,.11,0l.35-.21s0,0,0-.06l-.39-.24a.14.14,0,0,0-.11,0Z"/><path class="cls-6" d="M30.65,27.2,31,27s0-.06,0-.08l-.39-.24a.15.15,0,0,0-.13,0l-.35.21s0,.05,0,.07l.4.24A.15.15,0,0,0,30.65,27.2Z"/><path class="cls-6" d="M30.51,27.2,30.12,27c-.05,0-.05-.07,0-.09l.34-.21a.16.16,0,0,1,.15,0l.39.23S31,27,31,27l-.35.21A.14.14,0,0,1,30.51,27.2Zm-.39-.31s0,.05,0,.07l.39.23a.13.13,0,0,0,.12,0L31,27a0,0,0,0,0,0-.07l-.4-.23a.11.11,0,0,0-.11,0Z"/><path class="cls-6" d="M30.05,27.56l.35-.21s0-.05,0-.07L30,27a.15.15,0,0,0-.13,0l-.35.21a0,0,0,0,0,0,.08l.39.24A.15.15,0,0,0,30.05,27.56Z"/><path class="cls-6" d="M29.91,27.56l-.39-.24s-.05-.06,0-.08l.35-.21A.14.14,0,0,1,30,27l.4.23s0,.07,0,.09l-.34.21A.16.16,0,0,1,29.91,27.56Zm-.38-.31s0,.05,0,.07l.39.23a.14.14,0,0,0,.11,0l.35-.21s0-.05,0-.07L30,27a.13.13,0,0,0-.12,0Z"/><path class="cls-6" d="M29.45,27.92l.35-.21s0-.05,0-.08l-.39-.23a.12.12,0,0,0-.13,0l-.35.21s0,0,0,.08l.39.23A.12.12,0,0,0,29.45,27.92Z"/><path class="cls-6" d="M29.32,27.92l-.39-.24c-.05,0-.05-.06,0-.09l.34-.2a.16.16,0,0,1,.15,0l.39.24a0,0,0,0,1,0,.09l-.35.2S29.36,27.94,29.32,27.92Zm-.39-.32s0,0,0,.07l.39.24a.13.13,0,0,0,.12,0l.34-.2a0,0,0,0,0,0-.07l-.4-.24a.11.11,0,0,0-.11,0Z"/><path class="cls-6" d="M28.86,28.28l.35-.21a0,0,0,0,0,0-.08l-.39-.24a.15.15,0,0,0-.13,0l-.35.21s0,.05,0,.07l.39.24A.15.15,0,0,0,28.86,28.28Z"/><path class="cls-6" d="M28.72,28.27,28.33,28s0-.07,0-.09l.35-.21a.14.14,0,0,1,.14,0l.39.24c.05,0,.05.06,0,.08l-.34.21A.16.16,0,0,1,28.72,28.27ZM28.34,28a0,0,0,0,0,0,.07l.4.24a.11.11,0,0,0,.11,0l.35-.21s0,0,0-.07l-.39-.23a.17.17,0,0,0-.12,0Z"/><path class="cls-6" d="M28.26,28.63l.35-.21s0-.05,0-.07l-.39-.24a.15.15,0,0,0-.13,0l-.35.2a0,0,0,0,0,0,.08l.39.24A.15.15,0,0,0,28.26,28.63Z"/><path class="cls-6" d="M28.13,28.63l-.4-.23s0-.07,0-.09l.34-.21a.16.16,0,0,1,.15,0l.39.23s.05.07,0,.09l-.35.21A.14.14,0,0,1,28.13,28.63Zm-.39-.31s0,.05,0,.07l.39.23a.13.13,0,0,0,.12,0l.34-.21s0-.05,0-.07l-.39-.23a.11.11,0,0,0-.11,0Z"/><path class="cls-6" d="M35.41,25.17l.34-.21s0-.05,0-.08l-.39-.23a.15.15,0,0,0-.13,0l-.34.21s0,.06,0,.08l.39.23A.12.12,0,0,0,35.41,25.17Z"/><path class="cls-6" d="M35.27,25.17l-.39-.24s-.05-.06,0-.08l.34-.21a.2.2,0,0,1,.15,0l.39.24s0,.07,0,.09l-.34.21A.16.16,0,0,1,35.27,25.17Zm-.38-.31s0,0,0,.07l.4.23a.14.14,0,0,0,.11,0l.35-.21a0,0,0,0,0,0-.07l-.39-.24a.13.13,0,0,0-.12,0Z"/><path class="cls-6" d="M36,24.81l.77-.45s0-.06,0-.08l-.4-.24a.15.15,0,0,0-.13,0l-.76.45a0,0,0,0,0,0,.08l.39.24A.15.15,0,0,0,36,24.81Z"/><path class="cls-6" d="M35.87,24.81l-.39-.23s0-.07,0-.09l.76-.46a.14.14,0,0,1,.14,0l.39.23c.05,0,.05.07,0,.09l-.76.46A.14.14,0,0,1,35.87,24.81Zm-.39-.31s0,.05,0,.07l.39.23a.17.17,0,0,0,.12,0l.76-.46s0-.05,0-.07l-.39-.23a.13.13,0,0,0-.12,0Z"/><path class="cls-6" d="M34.81,25.53l.35-.21a0,0,0,0,0,0-.08L34.76,25a.12.12,0,0,0-.13,0l-.35.21s0,.05,0,.08l.39.23A.12.12,0,0,0,34.81,25.53Z"/><path class="cls-6" d="M34.68,25.53l-.4-.24a.05.05,0,0,1,0-.09l.35-.2a.14.14,0,0,1,.14,0l.4.24a0,0,0,0,1,0,.08l-.35.21A.17.17,0,0,1,34.68,25.53Zm-.39-.32s0,.05,0,.07l.39.24a.11.11,0,0,0,.11,0l.35-.2s0-.05,0-.07L34.75,25a.11.11,0,0,0-.11,0Z"/><path class="cls-6" d="M34.22,25.88l.34-.2s0-.06,0-.08l-.39-.24a.15.15,0,0,0-.13,0l-.34.21s0,.05,0,.07l.4.24A.15.15,0,0,0,34.22,25.88Z"/><path class="cls-6" d="M34.08,25.88l-.39-.23s0-.07,0-.09l.34-.21a.16.16,0,0,1,.15,0l.39.23s0,.07,0,.09l-.35.21A.14.14,0,0,1,34.08,25.88Zm-.39-.31s0,.05,0,.07l.39.24a.13.13,0,0,0,.12,0l.34-.21a0,0,0,0,0,0-.07l-.4-.23a.14.14,0,0,0-.11,0Z"/><path class="cls-6" d="M33.62,26.24,34,26S34,26,34,26l-.39-.24a.15.15,0,0,0-.13,0l-.35.2a0,0,0,0,0,0,.08l.39.24A.15.15,0,0,0,33.62,26.24Z"/><path class="cls-6" d="M33.48,26.24,33.09,26s0-.07,0-.09l.35-.21a.14.14,0,0,1,.14,0L34,26S34,26,34,26l-.35.21A.16.16,0,0,1,33.48,26.24Zm-.38-.31s0,.05,0,.07l.39.23a.14.14,0,0,0,.11,0L34,26S34,26,34,26l-.39-.24a.13.13,0,0,0-.12,0Z"/><path class="cls-6" d="M33,26.6l.34-.21s0-.05,0-.08L33,26.08a.15.15,0,0,0-.13,0l-.35.21s0,.06,0,.08l.4.23A.12.12,0,0,0,33,26.6Z"/><path class="cls-6" d="M32.89,26.6l-.39-.24s0-.06,0-.08l.34-.21a.2.2,0,0,1,.15,0l.39.24a0,0,0,0,1,0,.09l-.35.2S32.93,26.62,32.89,26.6Zm-.39-.31s0,0,0,.06l.39.24a.13.13,0,0,0,.12,0l.34-.2a0,0,0,0,0,0-.07l-.4-.24a.11.11,0,0,0-.11,0Z"/><path class="cls-6" d="M32.43,27l.35-.21a0,0,0,0,0,0-.08l-.39-.23a.12.12,0,0,0-.13,0l-.35.21s0,.05,0,.08l.39.23A.15.15,0,0,0,32.43,27Z"/><path class="cls-6" d="M32.29,27l-.39-.24s0-.06,0-.09l.35-.2s.1,0,.14,0l.4.24a0,0,0,0,1,0,.08l-.34.21A.19.19,0,0,1,32.29,27Zm-.38-.32s0,.05,0,.07l.39.24a.11.11,0,0,0,.11,0l.35-.21s0,0,0-.06l-.39-.24a.17.17,0,0,0-.12,0Z"/><path class="cls-6" d="M31.83,27.31l.35-.2a0,0,0,0,0,0-.08l-.39-.24a.15.15,0,0,0-.13,0L31.3,27s0,.05,0,.07l.39.24A.15.15,0,0,0,31.83,27.31Z"/><path class="cls-6" d="M31.7,27.31l-.39-.23s0-.07,0-.09l.34-.21a.16.16,0,0,1,.15,0l.39.23s0,.07,0,.09l-.35.21A.14.14,0,0,1,31.7,27.31ZM31.31,27s0,.05,0,.07l.39.23a.13.13,0,0,0,.12,0l.34-.21a0,0,0,0,0,0-.07l-.4-.23a.11.11,0,0,0-.11,0Z"/><path class="cls-6" d="M31.24,27.67l.35-.21s0-.05,0-.07l-.4-.24a.13.13,0,0,0-.12,0l-.35.21a0,0,0,0,0,0,.08l.39.24A.15.15,0,0,0,31.24,27.67Z"/><path class="cls-6" d="M31.1,27.67l-.39-.24s-.05-.06,0-.08l.35-.21a.14.14,0,0,1,.14,0l.39.23c.05,0,.05.07,0,.09l-.34.21A.16.16,0,0,1,31.1,27.67Zm-.38-.31s0,.05,0,.07l.4.23a.14.14,0,0,0,.11,0l.35-.21s0-.05,0-.07l-.39-.24a.13.13,0,0,0-.12,0Z"/><path class="cls-6" d="M30.64,28l.35-.21s0-.05,0-.08l-.39-.23a.12.12,0,0,0-.13,0l-.35.21s0,.05,0,.08l.39.23A.12.12,0,0,0,30.64,28Z"/><path class="cls-6" d="M30.51,28l-.4-.24s0-.06,0-.09l.34-.2a.16.16,0,0,1,.15,0l.39.24a0,0,0,0,1,0,.09l-.35.2A.14.14,0,0,1,30.51,28Zm-.39-.32s0,.05,0,.07l.39.24a.13.13,0,0,0,.12,0l.34-.2s0-.05,0-.07l-.39-.24a.11.11,0,0,0-.11,0Z"/><path class="cls-6" d="M30.05,28.39l.34-.21s0-.06,0-.08l-.4-.24a.15.15,0,0,0-.13,0l-.34.21s0,.05,0,.07l.39.24A.15.15,0,0,0,30.05,28.39Z"/><path class="cls-6" d="M29.91,28.38l-.39-.23s-.05-.07,0-.09l.35-.21a.14.14,0,0,1,.14,0l.39.24c.05,0,.05.06,0,.08l-.34.21A.16.16,0,0,1,29.91,28.38Zm-.38-.31a0,0,0,0,0,0,.07l.4.24a.11.11,0,0,0,.11,0l.35-.21s0-.05,0-.07L30,27.87a.17.17,0,0,0-.12,0Z"/><path class="cls-6" d="M29.45,28.74l.35-.21s0-.05,0-.07l-.39-.24a.15.15,0,0,0-.13,0l-.35.2a0,0,0,0,0,0,.08l.39.24A.15.15,0,0,0,29.45,28.74Z"/><path class="cls-6" d="M29.32,28.74l-.4-.23s0-.07,0-.09l.35-.21a.16.16,0,0,1,.15,0l.39.23s0,.07,0,.09l-.35.21A.14.14,0,0,1,29.32,28.74Zm-.39-.31s0,.05,0,.07l.39.23s.09,0,.11,0l.35-.21s0-.05,0-.07l-.39-.23a.11.11,0,0,0-.11,0Z"/><path class="cls-6" d="M28.38,29.39l.82-.5s0-.05,0-.08l-.39-.23a.15.15,0,0,0-.13,0l-.82.5s0,.05,0,.08l.4.23A.12.12,0,0,0,28.38,29.39Z"/><path class="cls-6" d="M28.24,29.39l-.39-.24c-.05,0-.05-.06,0-.09l.82-.49a.19.19,0,0,1,.15,0l.39.24s.05.06,0,.09l-.83.49S28.28,29.41,28.24,29.39Zm-.39-.32s0,.05,0,.07l.39.24a.13.13,0,0,0,.12,0l.83-.49a0,0,0,0,0,0-.07l-.39-.24a.13.13,0,0,0-.12,0Z"/><path class="cls-6" d="M37.81,25.4l.35-.21s0-.05,0-.07l-.49-.3a.15.15,0,0,0-.13,0l-.34.21s0,0,0,.07l.48.3A.15.15,0,0,0,37.81,25.4Z"/><path class="cls-6" d="M37.68,25.4l-.49-.29s0-.07,0-.09l.35-.21a.14.14,0,0,1,.14,0l.49.29s.05.07,0,.09l-.35.21A.14.14,0,0,1,37.68,25.4ZM37.2,25a0,0,0,0,0,0,.07l.49.29a.17.17,0,0,0,.12,0l.34-.21a0,0,0,0,0,0-.07l-.49-.29a.17.17,0,0,0-.12,0Z"/><path class="cls-6" d="M37.22,25.76l.35-.21s0-.05,0-.08l-.49-.29a.15.15,0,0,0-.13,0l-.35.2a0,0,0,0,0,0,.08l.49.29A.12.12,0,0,0,37.22,25.76Z"/><path class="cls-6" d="M37.08,25.76l-.49-.29s0-.07,0-.09l.35-.21a.16.16,0,0,1,.15,0l.48.29s0,.06,0,.09l-.34.2A.16.16,0,0,1,37.08,25.76Zm-.48-.37s0,.05,0,.07l.49.29a.11.11,0,0,0,.11,0l.35-.2s0-.05,0-.07l-.49-.3a.11.11,0,0,0-.11,0Z"/><path class="cls-6" d="M36.62,26.12l.35-.21a0,0,0,0,0,0-.08l-.49-.29a.15.15,0,0,0-.13,0l-.34.21s0,.06,0,.08l.48.29A.15.15,0,0,0,36.62,26.12Z"/><path class="cls-6" d="M36.49,26.12l-.49-.3s0-.06,0-.08l.35-.21a.17.17,0,0,1,.14,0l.49.3s.05.06,0,.08l-.35.21A.17.17,0,0,1,36.49,26.12ZM36,25.75s0,0,0,.06l.49.3a.13.13,0,0,0,.12,0L37,25.9s0,0,0-.06l-.48-.3a.13.13,0,0,0-.12,0Z"/><path class="cls-6" d="M30.94,29.53l.35-.21a0,0,0,0,0,0-.08l-.14-.08a.12.12,0,0,0-.13,0l-.35.21s0,.05,0,.08l.14.08A.15.15,0,0,0,30.94,29.53Z"/><path class="cls-6" d="M30.8,29.52l-.14-.08s0-.06,0-.09l.34-.2a.16.16,0,0,1,.15,0l.14.09a0,0,0,0,1,0,.08l-.34.21A.16.16,0,0,1,30.8,29.52Zm-.13-.16s0,.05,0,.07l.14.09a.11.11,0,0,0,.11,0l.35-.21s0,0,0-.07l-.14-.08a.11.11,0,0,0-.11,0Z"/><path class="cls-6" d="M29.77,30.23l.35-.21a0,0,0,0,0,0-.08L30,29.86a.12.12,0,0,0-.13,0l-.35.21s0,.05,0,.08l.14.08A.15.15,0,0,0,29.77,30.23Z"/><path class="cls-6" d="M29.64,30.23l-.14-.09c-.05,0-.05-.06,0-.09l.34-.2a.16.16,0,0,1,.15,0l.14.09a0,0,0,0,1,0,.08l-.35.21A.17.17,0,0,1,29.64,30.23Zm-.14-.17s0,.05,0,.07l.14.09a.11.11,0,0,0,.11,0l.35-.21s0,0,0-.06L30,29.86a.11.11,0,0,0-.11,0Z"/><path class="cls-6" d="M35.86,26.57l.51-.3s0-.06,0-.08l-.49-.29a.12.12,0,0,0-.13,0l-.51.31s0,.05,0,.08l.48.29A.15.15,0,0,0,35.86,26.57Z"/><path class="cls-6" d="M35.73,26.57l-.49-.29c-.05,0-.05-.07,0-.09l.51-.3a.14.14,0,0,1,.14,0l.49.29c.05,0,.05.07,0,.09l-.51.31A.14.14,0,0,1,35.73,26.57Zm-.49-.37s0,.05,0,.07l.49.29a.11.11,0,0,0,.11,0l.52-.31s0-.05,0-.07l-.49-.29a.14.14,0,0,0-.11,0Z"/><path class="cls-6" d="M32.15,28.8l.51-.31s0,0,0-.08l-.48-.29a.15.15,0,0,0-.13,0l-.51.3s0,.06,0,.08l.49.29A.12.12,0,0,0,32.15,28.8Z"/><path class="cls-6" d="M32,28.8l-.49-.3c-.05,0-.05-.06,0-.08l.51-.31a.14.14,0,0,1,.14,0l.49.29c.05,0,.05.06,0,.09l-.51.3A.14.14,0,0,1,32,28.8Zm-.49-.37s0,.05,0,.07l.49.29a.11.11,0,0,0,.11,0l.52-.3s0,0,0-.07l-.49-.29a.11.11,0,0,0-.11,0Z"/><path class="cls-6" d="M31.54,29.17l.39-.24s0-.05,0-.07l-.49-.3a.15.15,0,0,0-.13,0l-.39.23a0,0,0,0,0,0,.08l.49.29A.12.12,0,0,0,31.54,29.17Z"/><path class="cls-6" d="M31.4,29.17l-.49-.3s-.05-.06,0-.08l.39-.24a.16.16,0,0,1,.15,0l.49.29s0,.07,0,.09l-.39.23S31.44,29.19,31.4,29.17Zm-.48-.37s0,.05,0,.07l.48.29a.13.13,0,0,0,.12,0l.39-.23s0-.05,0-.07l-.49-.29a.14.14,0,0,0-.11,0Z"/><path class="cls-6" d="M32.89,28.36l2.74-1.65s0-.05,0-.07l-.49-.3a.15.15,0,0,0-.13,0L32.27,28s0,.05,0,.08l.48.29A.2.2,0,0,0,32.89,28.36Z"/><path class="cls-6" d="M32.76,28.35l-.49-.29c-.05,0-.05-.06,0-.09L35,26.33a.16.16,0,0,1,.15,0l.49.29s0,.07,0,.09L32.9,28.36A.14.14,0,0,1,32.76,28.35ZM32.27,28s0,.05,0,.07l.49.3a.11.11,0,0,0,.11,0l2.74-1.64s0-.05,0-.07l-.49-.29a.11.11,0,0,0-.11,0Z"/><path class="cls-6" d="M36.31,25.4l1.1-.66s0,0,0-.07L37,24.43a.15.15,0,0,0-.13,0l-1.1.66a0,0,0,0,0,0,.08l.39.24A.15.15,0,0,0,36.31,25.4Z"/><path class="cls-6" d="M36.17,25.4l-.39-.23s-.05-.07,0-.09l1.1-.66a.16.16,0,0,1,.15,0l.39.23s.05.07,0,.09l-1.1.66A.16.16,0,0,1,36.17,25.4Zm-.38-.31a0,0,0,0,0,0,.07l.4.23a.11.11,0,0,0,.11,0l1.1-.66s0,0,0-.07L37,24.43a.11.11,0,0,0-.11,0Z"/><path class="cls-6" d="M35.71,25.77l.34-.21s0-.06,0-.08l-.39-.24a.15.15,0,0,0-.13,0l-.34.21s0,.05,0,.07l.39.24A.15.15,0,0,0,35.71,25.77Z"/><path class="cls-6" d="M35.57,25.76l-.39-.23s0-.07,0-.09l.34-.21a.16.16,0,0,1,.15,0l.39.24s.05.06,0,.08l-.34.21A.16.16,0,0,1,35.57,25.76Zm-.39-.31s0,.05,0,.07l.39.24a.13.13,0,0,0,.12,0l.34-.21a0,0,0,0,0,0-.07l-.4-.23a.14.14,0,0,0-.11,0Z"/><path class="cls-6" d="M35.11,26.12l.35-.21s0-.05,0-.07l-.39-.24a.15.15,0,0,0-.13,0l-.35.2a0,0,0,0,0,0,.08l.39.24A.15.15,0,0,0,35.11,26.12Z"/><path class="cls-6" d="M35,26.12l-.39-.23s0-.07,0-.09l.35-.21a.14.14,0,0,1,.14,0l.4.23s0,.07,0,.09l-.35.21A.16.16,0,0,1,35,26.12Zm-.38-.31s0,.05,0,.07l.39.23a.14.14,0,0,0,.11,0l.35-.21s0-.05,0-.07l-.39-.23a.13.13,0,0,0-.12,0Z"/><path class="cls-6" d="M34.52,26.48l.34-.21s0-.05,0-.08L34.46,26a.15.15,0,0,0-.13,0l-.35.21s0,.06,0,.08l.4.23A.12.12,0,0,0,34.52,26.48Z"/><path class="cls-6" d="M34.38,26.48,34,26.24c-.05,0-.05-.06,0-.08l.34-.21a.2.2,0,0,1,.15,0l.39.24s0,.06,0,.09l-.35.2S34.42,26.5,34.38,26.48ZM34,26.17s0,0,0,.06l.39.24a.13.13,0,0,0,.12,0l.34-.2a0,0,0,0,0,0-.07l-.4-.24a.11.11,0,0,0-.11,0Z"/><path class="cls-6" d="M33.92,26.84l.35-.21a0,0,0,0,0,0-.08l-.39-.23a.12.12,0,0,0-.13,0l-.35.21s0,.05,0,.08l.39.23A.15.15,0,0,0,33.92,26.84Z"/><path class="cls-6" d="M33.78,26.84l-.39-.24s0-.06,0-.09l.35-.2a.14.14,0,0,1,.14,0l.4.24a0,0,0,0,1,0,.08l-.34.21A.19.19,0,0,1,33.78,26.84Zm-.38-.32s0,.05,0,.07l.39.24a.11.11,0,0,0,.11,0l.35-.21s0,0,0-.06l-.39-.24a.13.13,0,0,0-.12,0Z"/><path class="cls-6" d="M33.32,27.19l.35-.2a0,0,0,0,0,0-.08l-.39-.24a.15.15,0,0,0-.13,0l-.35.21s0,.05,0,.07l.39.24A.15.15,0,0,0,33.32,27.19Z"/><path class="cls-6" d="M33.19,27.19,32.8,27s0-.07,0-.09l.34-.21a.16.16,0,0,1,.15,0l.39.23s0,.07,0,.09l-.35.21A.14.14,0,0,1,33.19,27.19Zm-.39-.31s0,.05,0,.07l.39.23a.13.13,0,0,0,.12,0l.34-.21a0,0,0,0,0,0-.07l-.4-.23a.11.11,0,0,0-.11,0Z"/><path class="cls-6" d="M32.73,27.55l.35-.21s0-.05,0-.07L32.68,27a.15.15,0,0,0-.13,0l-.35.21a0,0,0,0,0,0,.08l.39.24A.15.15,0,0,0,32.73,27.55Z"/><path class="cls-6" d="M32.59,27.55l-.39-.24s-.05-.06,0-.08l.35-.21a.14.14,0,0,1,.14,0l.39.23s0,.07,0,.09l-.34.21A.16.16,0,0,1,32.59,27.55Zm-.38-.31s0,.05,0,.07l.4.23a.14.14,0,0,0,.11,0l.35-.21s0-.05,0-.07L32.67,27a.13.13,0,0,0-.12,0Z"/><path class="cls-6" d="M32.13,27.91l.35-.21s0-.05,0-.08l-.39-.23a.12.12,0,0,0-.13,0l-.35.21s0,.05,0,.08l.39.23A.12.12,0,0,0,32.13,27.91Z"/><path class="cls-6" d="M32,27.91l-.4-.24s0-.06,0-.09l.34-.2a.16.16,0,0,1,.15,0l.39.24a0,0,0,0,1,0,.09l-.35.2A.14.14,0,0,1,32,27.91Zm-.39-.32s0,.05,0,.07l.39.24a.13.13,0,0,0,.12,0l.34-.2s0-.05,0-.07l-.39-.24a.11.11,0,0,0-.11,0Z"/><path class="cls-6" d="M31.54,28.27l.34-.21s0-.06,0-.08l-.4-.24a.15.15,0,0,0-.13,0L31,28S31,28,31,28l.39.24A.15.15,0,0,0,31.54,28.27Z"/><path class="cls-6" d="M31.4,28.26,31,28S31,28,31,27.94l.35-.21a.14.14,0,0,1,.14,0l.39.24c.05,0,.05.06,0,.08l-.34.21A.16.16,0,0,1,31.4,28.26ZM31,28A0,0,0,0,0,31,28l.4.24a.11.11,0,0,0,.11,0l.35-.21s0-.05,0-.07l-.39-.23a.17.17,0,0,0-.12,0Z"/><path class="cls-6" d="M30.94,28.62l.35-.21s0-.05,0-.07l-.39-.24a.15.15,0,0,0-.13,0l-.35.2a0,0,0,0,0,0,.08l.39.24A.15.15,0,0,0,30.94,28.62Z"/><path class="cls-6" d="M30.81,28.62l-.4-.23s0-.07,0-.09l.35-.21a.16.16,0,0,1,.15,0l.39.23s0,.07,0,.09l-.35.21A.14.14,0,0,1,30.81,28.62Zm-.39-.31s0,.05,0,.07l.39.23s.09,0,.11,0l.35-.21s0-.05,0-.07l-.39-.23a.11.11,0,0,0-.11,0Z"/><path class="cls-6" d="M30.35,29l.34-.21s0-.05,0-.08l-.39-.23a.15.15,0,0,0-.13,0l-.34.21s0,.06,0,.08l.39.23A.12.12,0,0,0,30.35,29Z"/><path class="cls-6" d="M30.21,29l-.39-.24s-.05-.06,0-.08l.34-.21a.2.2,0,0,1,.15,0l.39.24s0,.06,0,.09l-.34.2A.16.16,0,0,1,30.21,29Zm-.38-.31s0,0,0,.06l.4.24a.11.11,0,0,0,.11,0l.35-.2a0,0,0,0,0,0-.07l-.39-.24a.13.13,0,0,0-.12,0Z"/><path class="cls-6" d="M29,29.78l1.06-.64s0-.06,0-.08l-.4-.24a.15.15,0,0,0-.13,0l-1.06.64s0,.05,0,.07l.39.24A.15.15,0,0,0,29,29.78Z"/><path class="cls-6" d="M28.88,29.77l-.39-.23s0-.07,0-.09l1.07-.64a.14.14,0,0,1,.14,0l.39.24c.05,0,.05.06,0,.08L29,29.78A.16.16,0,0,1,28.88,29.77Zm-.38-.31s0,.05,0,.07l.39.24a.11.11,0,0,0,.11,0l1.07-.64s0-.05,0-.07l-.39-.23a.17.17,0,0,0-.12,0Z"/><path class="cls-6" d="M27.69,29l.35-.21a0,0,0,0,0,0-.08l-.39-.23a.12.12,0,0,0-.13,0l-.35.21s0,.05,0,.08l.39.23A.15.15,0,0,0,27.69,29Z"/><path class="cls-6" d="M27.55,29l-.39-.24s-.05-.06,0-.09l.35-.2a.14.14,0,0,1,.14,0l.4.24a0,0,0,0,1,0,.08L27.7,29A.19.19,0,0,1,27.55,29Zm-.38-.32s0,.05,0,.07l.39.24a.11.11,0,0,0,.11,0l.35-.21s0,0,0-.06l-.39-.24a.13.13,0,0,0-.12,0Z"/><path class="cls-6" d="M29.92,29.7l-.19-.12s0,0,0-.07l.35-.21a.13.13,0,0,1,.12,0l.2.12Z"/><path class="cls-6" d="M29.72,29.59s0-.07,0-.09l.35-.21a.14.14,0,0,1,.14,0l.2.12-.48.29Zm.47-.28a.17.17,0,0,0-.12,0l-.34.21a0,0,0,0,0,0,.07l.19.11.45-.27Z"/><path class="cls-6" d="M30.47,29.47l.21.13s0,0,0,.08l-.34.2a.15.15,0,0,1-.13,0L30,29.75Z"/><path class="cls-6" d="M30.21,29.88,30,29.75l.48-.29.22.13s0,.07,0,.09l-.35.21A.14.14,0,0,1,30.21,29.88ZM30,29.75l.2.12a.13.13,0,0,0,.12,0l.34-.21a0,0,0,0,0,0-.07l-.2-.12Z"/><path class="cls-22" d="M35.92,30.42l2.62-1.57c.09-.05.08-.15,0-.22L36.1,27.18a.38.38,0,0,0-.36,0l-2.62,1.57c-.1.06-.08.15,0,.22l2.42,1.45A.38.38,0,0,0,35.92,30.42Z"/><polygon class="cls-21" points="32.34 23.11 33.17 22.61 32.68 22.32 31.85 22.82 32.34 23.11"/><polygon class="cls-20" points="32.34 23.11 33.17 22.61 33.1 22.57 32.27 23.07 32.34 23.11"/><polygon class="cls-23" points="25.55 27.18 26.38 26.68 25.89 26.39 25.06 26.89 25.55 27.18"/><polygon class="cls-22" points="25.55 27.18 26.38 26.68 26.31 26.64 25.48 27.14 25.55 27.18"/><path class="cls-23" d="M24.69,27.37l8.86-5.28a1,1,0,0,0,.43-.8v-8c0-.3-.19-.43-.43-.28l-8.86,5.28a1,1,0,0,0-.43.8v8C24.26,27.38,24.45,27.51,24.69,27.37Z"/><path class="cls-6" d="M24.69,27.37l8.86-5.28a1,1,0,0,0,.43-.8v-8c0-.3-.19-.43-.43-.28l-8.86,5.28a1,1,0,0,0-.43.8v8C24.26,27.38,24.45,27.51,24.69,27.37Z"/><polygon class="cls-24" points="24.69 26.64 33.58 21.34 33.58 13.43 24.69 18.74 24.69 26.64"/><polygon class="cls-6" points="25.87 19.89 32.23 16.09 32.23 15.21 25.87 19 25.87 19.89"/><polygon class="cls-25" points="28.03 19.22 32.23 16.72 32.23 16.5 28.03 19 28.03 19.22"/><polygon class="cls-25" points="28.03 19.67 32.23 17.16 32.23 16.94 28.03 19.45 28.03 19.67"/><polygon class="cls-6" points="25.87 20.98 27.64 19.92 27.64 19.23 25.87 20.29 25.87 20.98"/><path class="cls-5" d="M44.73,27.61c-2.23-.31-6.07-1.07-7-.86s-1.51-.15-1.61-.85c0-.33.63-.65,1.68-.95a41.54,41.54,0,0,1,4.39-.87c2.47-.38,5.78-.44,6.69.93a1.35,1.35,0,0,1,.24.67C49.24,27.55,47,27.91,44.73,27.61Z"/><path class="cls-26" d="M37.83,25.15l-.08-.2a41.54,41.54,0,0,1,4.39-.87c2.47-.38,5.78-.44,6.69.93,0,.27.06.44.06.44a3.63,3.63,0,0,0-2.51-1C44.58,24.34,37.83,25.15,37.83,25.15Z"/><path class="cls-27" d="M32.53,26.38c.15-.52,2.94-1.61,3.08-1S32.49,26.51,32.53,26.38Z"/><path class="cls-28" d="M32.57,26.33a2.68,2.68,0,0,1,.9-.61c.36-.16,1.63-.81,2-.51A8.22,8.22,0,0,0,32.57,26.33Z"/><path class="cls-27" d="M32.21,27.65c-.14-.65,2.93-2.26,3.19-1.6C35.73,26.89,32.23,27.79,32.21,27.65Z"/><path class="cls-28" d="M32.24,27.6a1.61,1.61,0,0,1,.13-.28,3.43,3.43,0,0,1,.85-.62c.38-.23,1.56-1.1,2-.85a10.32,10.32,0,0,0-1.7.78A4,4,0,0,0,32.24,27.6Z"/><path class="cls-27" d="M32.27,28c0-.47,1.26-.86,1.55-1s1.62-.92,1.79-.27C35.84,27.61,32.29,28.11,32.27,28Z"/><path class="cls-28" d="M32.31,27.92c-.06.15,0-.12.09-.18a2.7,2.7,0,0,1,.9-.48c.38-.16,1.81-1,2.14-.77A14.91,14.91,0,0,0,32.31,27.92Z"/><path class="cls-26" d="M37,27.81a5.75,5.75,0,0,0,1.24-.62c.5-.45.48-1.51-.33-1.54C36.87,25.63,36.87,27.08,37,27.81Z"/><path class="cls-5" d="M37,27.71c.06,1.15.86.28,1.21-.16s.72-1.1.15-1.53C37.16,25.15,36.92,27,37,27.71Z"/><path class="cls-5" d="M37.49,28.32c-.35.4-.71.79-1.07,1.18-.32-.42,0-1.19.3-1.52S38,27.77,37.49,28.32Z"/><path class="cls-26" d="M36.39,28.88a.94.94,0,0,0,0,.62c-.37-.52.12-1.66.6-1.7A6,6,0,0,0,36.39,28.88Z"/><path class="cls-5" d="M33.06,28.72c0-.6,2.94-2.27,3.2-1.6C36.59,28,33.05,28.86,33.06,28.72Z"/><path class="cls-28" d="M33.1,28.66c-.05.16.06-.19.13-.27a3.1,3.1,0,0,1,.85-.62c.38-.23,1.56-1.1,2-.85A7.13,7.13,0,0,0,33.1,28.66Z"/><path class="cls-26" d="M34.72,25.3a4.17,4.17,0,0,1,3.39-.21c-.63.06-1.27-.08-1.9,0A12.36,12.36,0,0,0,34.72,25.3Z"/><path class="cls-29" d="M39.46,17.72a4.08,4.08,0,0,1,.44-.4c1.18-.92,2.86-1.24,4.13-1.78,3.28-1.38,6.17-1.87,7.29-1.33,1.6.77,3,2.89,0,8.48C50,25.22,48.51,27.69,48,31c-.34,2.26-.29,3.29-.26,8.61-.69,2.07-6.72,3.91-9.87,3.11a4,4,0,0,1-.67-.22c-3.31-1.5-2.59-3.35-2.59-3.35S35.74,35.59,36,35c1.76-4.52.89-6.57,1.14-10S38.28,19,39.46,17.72Z"/><path class="cls-30" d="M39.37,17.74c.14-.14.29-.27.44-.4,1.88-.41,3.44,1.19,3.42,3.69-.07,3.34-.69,5.81-.48,9.21,0,4.57-6.46,8.22-5,12.51v0a4.38,4.38,0,0,1-.67-.22c-3.31-1.5-2.59-3.35-2.59-3.35s1.12-3.58,1.35-4.18c1.76-4.52.89-6.58,1.15-10S38.2,19,39.37,17.74Z"/><path class="cls-27" d="M33,27.59c-2.17-.61-6-1.46-6.82-2.06s-1.44-.47-1.8.14c-.17.29.34.85,1.2,1.55a41.78,41.78,0,0,0,3.72,2.58c2.13,1.35,5.16,2.74,6.51,1.85a1.43,1.43,0,0,0,.47-.53C37.1,29.47,35.12,28.21,33,27.59Z"/><path class="cls-26" d="M25.68,27.07l-.14.15a41.78,41.78,0,0,0,3.72,2.58c2.13,1.35,5.16,2.74,6.51,1.85l.22-.39a3.6,3.6,0,0,1-2.69-.11C31.6,30.54,25.68,27.07,25.68,27.07Z"/><path class="cls-27" d="M23.54,26c-.67.1.27,2,.67,1.65S23.65,26,23.54,26Z"/><path class="cls-26" d="M23.48,26a2.29,2.29,0,0,0,.65,1.67C23.71,27.82,23,26.21,23.48,26Z"/><path class="cls-27" d="M23.47,25.66c-.69.54,1.5,2.09,1.73,1.41C25.49,26.21,23.58,25.58,23.47,25.66Z"/><path class="cls-26" d="M23.42,25.73a2.79,2.79,0,0,0,1.72,1.46C24.74,27.58,22.93,26.28,23.42,25.73Z"/><path class="cls-27" d="M23.48,25c-.69.54,1.49,2.08,1.72,1.41C25.49,25.52,23.58,24.88,23.48,25Z"/><path class="cls-26" d="M23.42,25a2.8,2.8,0,0,0,1.72,1.45C24.74,26.89,22.93,25.58,23.42,25Z"/><path class="cls-26" d="M25.74,24.87a5.52,5.52,0,0,1,1.26.57c.52.42.54,1.48-.26,1.54C25.72,27.06,25.66,25.61,25.74,24.87Z"/><path class="cls-27" d="M25.72,25c0-1.15.85-.31,1.22.11s.76,1.07.21,1.52C26,27.52,25.71,25.68,25.72,25Z"/><path class="cls-27" d="M26.23,24.34l-1.12-1.13c-.3.43,0,1.18.36,1.5S26.74,24.87,26.23,24.34Z"/><path class="cls-26" d="M25.11,23.83a.83.83,0,0,1,0-.62c-.35.54.18,1.65.66,1.67A5.05,5.05,0,0,1,25.11,23.83Z"/><path class="cls-27" d="M23.5,24c-.76.43,1.19,2.29,1.51,1.66C25.42,24.85,23.62,23.93,23.5,24Z"/><path class="cls-26" d="M23.44,24.06a2.8,2.8,0,0,0,1.5,1.7C24.49,26.09,22.88,24.53,23.44,24.06Z"/><path class="cls-27" d="M24,27.63a3.26,3.26,0,0,0,2.65,0,1.44,1.44,0,0,0,.11-2.61A3.07,3.07,0,0,0,25,25c-.48.07-.37-.09-.59.42C24.13,26.13,24.21,26.94,24,27.63Z"/><path class="cls-26" d="M24,27.63a3.41,3.41,0,0,0,3-.09c-.64,0-1.26.13-1.9.07A5.82,5.82,0,0,1,24,27.63Z"/><path class="cls-29" d="M31.44,31.07c1.88.81,4.5,1.63,5.1-.18a2.15,2.15,0,0,0-1.58-3,16.41,16.41,0,0,0-3.19-.52Z"/><path class="cls-6" d="M32.93,31.64c-.32.47-1.29.21-2.34-.2-.79-.3-1.16-1.82-1.25-2.73A3.3,3.3,0,0,1,30,27a5.51,5.51,0,0,1,2.38.2c.34.09.38.15.43.35a1,1,0,0,0-.45.17,1.28,1.28,0,0,0-.6.86A4.38,4.38,0,0,0,32.93,31.64Z"/><path class="cls-8" d="M32.78,27.54h0a1,1,0,0,0-.45.17,1.28,1.28,0,0,0-.6.86A4.07,4.07,0,0,0,32.45,31a1.72,1.72,0,0,0,.48.63.28.28,0,0,1-.1.09l0,0c-.38.25-1.28.05-2.22-.31-.79-.3-1.16-1.82-1.25-2.73V28.6A3.71,3.71,0,0,0,32,31a5,5,0,0,1-.52-2.19c.09-.72.5-1.39.91-1.43A.57.57,0,0,1,32.78,27.54Z"/><path class="cls-29" d="M41.79,16.93c1.74.84,1.27,4.94-.44,7.53s-5,9.16-7.34,7.35c-1.95-1.49,0-3.75.78-5.62C36.21,22.85,39.09,15.65,41.79,16.93Z"/><path class="cls-27" d="M43.36,13.12c.4,1.56.79,2.58.9,3s.13.53.55.63a3.83,3.83,0,0,0,1.58-.08,2.36,2.36,0,0,0,1.29-.93A1.77,1.77,0,0,0,48,14c-.09-1.16-.28-1.87-.46-3C46.2,11.68,44.71,12.37,43.36,13.12Z"/><path class="cls-27" d="M41.22,8.77a4.06,4.06,0,0,1,4-4.06,3.85,3.85,0,0,1,3.62,4.16c0,2.08-1,2.16-1.61,3.76-.37.31-2.36,1.45-2.73,1.7a3.32,3.32,0,0,1-1.89.27c-.58-.08-.79-1.19-.91-1.65a10,10,0,0,1-.37-3.22A3.82,3.82,0,0,1,41.22,8.77Z"/><path class="cls-31" d="M48.4,11.62c-.39,1.88-.94,2-2,1.53a8.45,8.45,0,0,1-2-1.36s.56-1,.18-1.61a.62.62,0,0,0-1.15.06c-.16.45-.3-.4-.51-1.06-1.06.51-2.63-2.27-1.79-3.62.42-.68,2.1-1.8,4.64-.95,1.77.6,3.81,1.19,3.4,3.35C48.66,10.8,48.77,9.85,48.4,11.62Z"/><g class="cls-32"><path class="cls-5" d="M42.59,6.66"/></g><path class="cls-6" d="M48.51,14.66c-.38,1.33-3.94.36-5.07.42S41,16.67,41,16.67s1.31.25,4.12.53,4.76-.95,4.46-1.74A1.17,1.17,0,0,0,48.51,14.66Z"/><path class="cls-3" d="M40.69,32.05a12.94,12.94,0,0,0,4.55-1.87A43.8,43.8,0,0,0,50.9,26l-1.27,6.26a19,19,0,0,1-4.39,3.58,29.56,29.56,0,0,1-5.78,2.8Z"/><path class="cls-12" d="M50.9,56.27a.42.42,0,0,1-.4-.35L48,39.25a.33.33,0,0,1,0-.14l2.55-13.66a.41.41,0,0,1,.47-.34.42.42,0,0,1,.32.5L48.77,39.2l2.54,16.59a.43.43,0,0,1-.34.48Z"/><path class="cls-12" d="M40.77,62.36a.41.41,0,0,1-.4-.36L37.83,45.34a.38.38,0,0,1,0-.15l2.54-13.66a.41.41,0,0,1,.48-.33.42.42,0,0,1,.32.49L38.64,45.28l2.53,16.59a.41.41,0,0,1-.33.48Z"/><g id="m74QQR.tif"><text class="cls-33" transform="matrix(0.98, -0.51, 0.05, 1, 26.85, 23.39)">Arif</text></g><ellipse class="cls-34" cx="11.81" cy="17.28" rx="4.73" ry="2.98" transform="translate(-9.06 15.79) rotate(-51.56)"/><path class="cls-6" d="M13.64,15.21l-1.14.53s0,0,0,0l-1.1,1.61a.73.73,0,0,1-.17.18q-.26.18-.51.33c-.19.08-.34,0-.34-.19v-.07l.09-.48a.54.54,0,0,1,.1-.22l.2-.29s0-.05,0-.06h0l-.71.33a.46.46,0,0,0-.26.38V19.2c0,.14.12.2.26.14l3.65-1.7a.48.48,0,0,0,.26-.38V15.35C13.9,15.2,13.78,15.14,13.64,15.21Zm-.14,1.92-.51.24a.1.1,0,0,1-.09,0l-.09-.05s-.08,0-.11,0l-.13.14-.05,0c-.1.07-.19.05-.21,0l0,0s-.09,0-.13.06L12,17.8c-.05.07-.13.11-.18.09s-.05-.11,0-.19l.16-.24s0,0,0,0c.15-.19.37-.26.48-.17s0,0,0,0v0a.41.41,0,0,1,.44-.16l0,0s0,0,0,0l.44-.2c.07,0,.13,0,.13.07A.22.22,0,0,1,13.5,17.13Z"/><path class="cls-6" d="M10.71,17a.14.14,0,0,0,0,.06l-.09.47c0,.05,0,.08.07.07h0l.44-.29,0,0,1.35-2c.13-.19.13-.4,0-.47s-.34,0-.47.22h0Z"/><ellipse class="cls-35" cx="22.8" cy="17.28" rx="4.8" ry="3.02" transform="translate(-4.91 24.4) rotate(-51.56)"/><path class="cls-6" d="M25,15.45l-2.17.15a.23.23,0,0,0-.12.06l-2.18,1.88a.26.26,0,0,0-.09.19v1.21c0,.13.1.19.23.13a.42.42,0,0,0,.23-.34V18a.27.27,0,0,1,.16-.22l.05,0,1.61-.18.05,0s0,0,.05,0L25,15.75a.24.24,0,0,0,.09-.25s0-.05-.09-.05Z"/><path class="cls-6" d="M24,16.93l-1.14.93a.16.16,0,0,1-.1.05L21.61,18a.28.28,0,0,0-.2.18.13.13,0,0,0,0,.06v.78a.09.09,0,0,0,.1.1l.94-.11a1.48,1.48,0,0,0,.72-.34l.93-.76a.26.26,0,0,0,.11-.2V17c0-.09-.07-.13-.16-.09l-.05,0Z"/><ellipse class="cls-36" cx="31.05" cy="5.43" rx="6.2" ry="3.91" transform="translate(7.49 26.38) rotate(-51.56)"/><path class="cls-6" d="M30.87,4.07s0,0,0,0a4.44,4.44,0,0,0-2.37.59.22.22,0,0,0-.13.18h0V8.66a.08.08,0,0,0,.12.07,5,5,0,0,1,2.31-.6l.06,0a.09.09,0,0,0,0-.07v-4Z"/><path class="cls-6" d="M32.83,5.94a.32.32,0,0,1-.15.25,4,4,0,0,0-1.06,1c-.09.16-.18.31-.25.47s0,.07,0,.07,0,0,.05,0a8.23,8.23,0,0,1,2.18-1.42.24.24,0,0,0,.12-.18V2.28a.07.07,0,0,0-.12-.06h0c-.28.13-.52.26-.75.38a.12.12,0,0,0-.05.09Z"/><path class="cls-6" d="M32.42,6a.15.15,0,0,0,0-.08V2.25s0,0-.06,0l0,0a3.55,3.55,0,0,0-.76.83,2.15,2.15,0,0,0-.38.92V7.14s0,.05.06,0l0,0h0A4.24,4.24,0,0,1,32.42,6Z"/></g></g></svg>