<?xml version="1.0" encoding="UTF-8"?>
<svg width="16px" height="16px" viewBox="0 0 16 16" version="1.1" xmlns="http://www.w3.org/2000/svg" xmlns:xlink="http://www.w3.org/1999/xlink">
    <!-- Generator: Sketch 52.4 (67378) - http://www.bohemiancoding.com/sketch -->
    <title>Shape</title>
    <desc>Created with Sketch.</desc>
    <g id="Homepage" stroke="none" stroke-width="1" fill="none" fill-rule="evenodd">
        <g id="Home-Page" transform="translate(-271.000000, -546.000000)" fill="#FFFFFF" fill-rule="nonzero">
            <g id="Header" transform="translate(200.000000, 80.000000)">
                <g id="Dot" transform="translate(71.000000, 466.000000)">
                    <g id="Dot-Circle">
                        <path d="M8,1.75 C11.454125,1.75 14.25,4.54534375 14.25,8 C14.25,11.454125 11.4546562,14.25 8,14.25 C4.545875,14.25 1.75,11.4546562 1.75,8 C1.75,4.545875 4.54534375,1.75 8,1.75 Z M8,0.25 C3.71978125,0.25 0.25,3.71978125 0.25,8 C0.25,12.2802187 3.71978125,15.75 8,15.75 C12.2802187,15.75 15.75,12.2802187 15.75,8 C15.75,3.71978125 12.2802187,0.25 8,0.25 Z M8,5.5 C6.61928125,5.5 5.5,6.61928125 5.5,8 C5.5,9.38071875 6.61928125,10.5 8,10.5 C9.38071875,10.5 10.5,9.38071875 10.5,8 C10.5,6.61928125 9.38071875,5.5 8,5.5 Z" id="Shape"></path>
                    </g>
                </g>
            </g>
        </g>
    </g>
</svg>