<?xml version="1.0" encoding="UTF-8"?>
<svg width="16" height="16" version="1.1" viewBox="0 0 16 16" xmlns="http://www.w3.org/2000/svg" xmlns:xlink="http://www.w3.org/1999/xlink">
    <!--Generated by IJSVG (https://github.com/iconjar/IJSVG)-->
    <g transform="scale(0.125)">
        <path fill="none" d="M0,0h128v128h-128Z"></path>
        <path fill="#1E0938" fill-rule="evenodd" d="M68.369,128h-61.304c-3.903,0 -7.065,-3.164 -7.065,-7.065v-113.87c0,-3.903 3.162,-7.065 7.065,-7.065h113.871c3.901,0 7.064,3.162 7.064,7.065v113.87c0,3.902 -3.163,7.065 -7.064,7.065h-32.618v-49.569h16.638l2.491,-19.318h-19.129v-12.333c0,-5.593 1.553,-9.404 9.573,-9.404l10.229,-0.004v-17.278c-1.769,-0.235 -7.841,-0.761 -14.906,-0.761c-14.749,0 -24.846,9.003 -24.846,25.535v14.246h-16.68v19.318h16.681v49.568Z"></path>
    </g>
</svg>