<?xml version="1.0" encoding="UTF-8"?>
<svg width="357px" height="335px" viewBox="0 0 357 335" version="1.1" xmlns="http://www.w3.org/2000/svg" xmlns:xlink="http://www.w3.org/1999/xlink">
    <!-- Generator: Sketch 52.4 (67378) - http://www.bohemiancoding.com/sketch -->
    <title>Group 9</title>
    <desc>Created with Sketch.</desc>
    <defs>
        <path d="M132.175328,0 C88.3507259,0.045819276 47.9013541,26.6057263 48.5191929,81.6766778 C42.0585823,74.3417753 37.7565936,44.3759688 41.38735,30.0154441 C9.56102453,61.4321943 15.7661092,104.742865 28.9314148,136.972907 C19.8392686,134.193205 5.88831615,115.120931 0.518458005,100.489309 C-3.74920625,147.6908 18.4205277,199.966775 63.6753124,208.599891 C53.423765,208.44716 30.9756222,202.131736 14.2596504,194.017906 C32.016795,253.70515 150.924066,259.279828 180.481169,335 C203.009402,251.612736 336.760059,256.565036 357,160.157461 C350.844495,169.344226 328.388725,176.316392 323.487966,177.572604 C357.675046,146.621683 365.176829,95.1093622 333.072095,65.0099161 C335.131558,75.5598044 331.645727,101.970799 326.714458,108.73296 C328.712899,59.0114092 269.838964,19.7557445 217.414199,41.3977159 C283.740337,53.0510851 278.656516,117.705902 245.335173,137.412009 C230.747312,145.231832 205.019285,145.201286 203.562405,120.42833 C202.875918,108.752052 208.043644,95.8768351 235.022604,92.883309 C212.22359,82.1654167 211.304459,61.9018419 185.751867,53.1350871 C167.174752,46.7547529 134.639056,57.9384745 117.930712,79.8973625 C135.912871,74.0134038 144.936369,76.1058175 150.546498,79.4849891 C132.728332,91.1039938 124.036637,114.028905 126.469854,133.929744 C70.5173049,121.218713 72.1076678,-6.38033418 199.340507,22.168893 C179.851888,7.50672472 155.637947,0.015273092 132.366019,0 L132.175328,0 Z M110.673013,18.3009825 C43.2637493,62.7036792 65.9903009,163.681727 156.179509,155.774084 C133.643649,123.097303 154.081909,88.6526625 172.617072,83.8454568 C171.453857,78.7824268 167.517995,71.5238899 160.847625,68.9923749 C181.12189,62.9785949 200.20243,78.7633355 206.018505,86.827528 C190.206409,91.5201856 179.501017,118.297734 191.926442,140.184075 C204.157361,161.715316 226.502531,164.739389 252.398367,153.864947 C287.908842,138.496398 299.140541,86.2089678 270.472058,54.3454796 C290.609027,62.4402184 322.019646,82.5777902 314.514048,134.720126 C324.952473,133.822832 337.953784,121.470719 341.481568,108.484772 C339.075047,151.234157 309.685753,176.58749 282.683909,195.121387 C287.763917,196.923612 311.035845,196.64106 325.444456,192.673874 C273.759571,243.426359 225.823671,239.921184 188.291871,284.869894 C189.485597,269.230248 196.995008,240.234282 202.872104,226.622139 C234.866238,211.749966 278.732792,191.73076 287.988932,152.986744 C233.943293,211.29941 202.62802,190.039266 177.315698,209.642279 C154.715003,193.796446 127.629255,209.161177 87.7862806,160.000912 C95.5130793,197.179436 139.009693,219.138324 157.235937,228.894012 C162.491381,243.739457 167.300608,263.373017 168.517216,284.197878 C132.377461,247.943376 76.0320882,237.912772 62.9125484,223.494974 C81.3104147,221.288012 92.3056569,218.35176 102.995794,209.061902 C70.6698577,203.743047 32.016795,186.369905 22.0856085,150.867603 C31.0328295,154.624783 45.7045939,156.045181 53.2025635,153.074565 C43.2599355,139.336418 32.0778161,105.747071 33.1685685,84.5862018 C38.8130217,103.620293 53.5114829,111.237747 63.7363335,115.132386 C53.9386307,85.6324086 59.1483084,33.1426096 110.673013,18.3009825 C110.673013,18.3009825 110.673013,18.3009825 110.673013,18.3009825 Z M167.628596,184.319493 C167.285352,191.062563 172.479775,196.809064 179.237863,197.156526 C185.992138,197.503989 191.75482,192.322593 192.09425,185.575704 C192.441307,178.832634 187.246885,173.086133 180.49261,172.738671 C180.275222,172.727216 180.061648,172.719579 179.851888,172.719579 C173.376022,172.723397 167.964212,177.790246 167.628596,184.319493 Z" id="path-1"></path>
    </defs>
    <g id="Symbols" stroke="none" stroke-width="1" fill="none" fill-rule="evenodd" opacity="0.07">
        <g id="Bottom" transform="translate(-43.000000, -53.000000)">
            <g id="Logo">
                <g>
                    <g id="Group-9" transform="translate(43.000000, 53.000000)">
                        <mask id="mask-2" fill="white">
                            <use xlink:href="#path-1"></use>
                        </mask>
                        <g id="Clip-8"></g>
                        <path d="M132.175328,0 C88.3507259,0.045819276 47.9013541,26.6057263 48.5191929,81.6766778 C42.0585823,74.3417753 37.7565936,44.3759688 41.38735,30.0154441 C9.56102453,61.4321943 15.7661092,104.742865 28.9314148,136.972907 C19.8392686,134.193205 5.88831615,115.120931 0.518458005,100.489309 C-3.74920625,147.6908 18.4205277,199.966775 63.6753124,208.599891 C53.423765,208.44716 30.9756222,202.131736 14.2596504,194.017906 C32.016795,253.70515 150.924066,259.279828 180.481169,335 C203.009402,251.612736 336.760059,256.565036 357,160.157461 C350.844495,169.344226 328.388725,176.316392 323.487966,177.572604 C357.675046,146.621683 365.176829,95.1093622 333.072095,65.0099161 C335.131558,75.5598044 331.645727,101.970799 326.714458,108.73296 C328.712899,59.0114092 269.838964,19.7557445 217.414199,41.3977159 C283.740337,53.0510851 278.656516,117.705902 245.335173,137.412009 C230.747312,145.231832 205.019285,145.201286 203.562405,120.42833 C202.875918,108.752052 208.043644,95.8768351 235.022604,92.883309 C212.22359,82.1654167 211.304459,61.9018419 185.751867,53.1350871 C167.174752,46.7547529 134.639056,57.9384745 117.930712,79.8973625 C135.912871,74.0134038 144.936369,76.1058175 150.546498,79.4849891 C132.728332,91.1039938 124.036637,114.028905 126.469854,133.929744 C70.5173049,121.218713 72.1076678,-6.38033418 199.340507,22.168893 C179.851888,7.50672472 155.637947,0.015273092 132.366019,0 L132.175328,0 Z M110.673013,18.3009825 C43.2637493,62.7036792 65.9903009,163.681727 156.179509,155.774084 C133.643649,123.097303 154.081909,88.6526625 172.617072,83.8454568 C171.453857,78.7824268 167.517995,71.5238899 160.847625,68.9923749 C181.12189,62.9785949 200.20243,78.7633355 206.018505,86.827528 C190.206409,91.5201856 179.501017,118.297734 191.926442,140.184075 C204.157361,161.715316 226.502531,164.739389 252.398367,153.864947 C287.908842,138.496398 299.140541,86.2089678 270.472058,54.3454796 C290.609027,62.4402184 322.019646,82.5777902 314.514048,134.720126 C324.952473,133.822832 337.953784,121.470719 341.481568,108.484772 C339.075047,151.234157 309.685753,176.58749 282.683909,195.121387 C287.763917,196.923612 311.035845,196.64106 325.444456,192.673874 C273.759571,243.426359 225.823671,239.921184 188.291871,284.869894 C189.485597,269.230248 196.995008,240.234282 202.872104,226.622139 C234.866238,211.749966 278.732792,191.73076 287.988932,152.986744 C233.943293,211.29941 202.62802,190.039266 177.315698,209.642279 C154.715003,193.796446 127.629255,209.161177 87.7862806,160.000912 C95.5130793,197.179436 139.009693,219.138324 157.235937,228.894012 C162.491381,243.739457 167.300608,263.373017 168.517216,284.197878 C132.377461,247.943376 76.0320882,237.912772 62.9125484,223.494974 C81.3104147,221.288012 92.3056569,218.35176 102.995794,209.061902 C70.6698577,203.743047 32.016795,186.369905 22.0856085,150.867603 C31.0328295,154.624783 45.7045939,156.045181 53.2025635,153.074565 C43.2599355,139.336418 32.0778161,105.747071 33.1685685,84.5862018 C38.8130217,103.620293 53.5114829,111.237747 63.7363335,115.132386 C53.9386307,85.6324086 59.1483084,33.1426096 110.673013,18.3009825 C110.673013,18.3009825 110.673013,18.3009825 110.673013,18.3009825 Z M167.628596,184.319493 C167.285352,191.062563 172.479775,196.809064 179.237863,197.156526 C185.992138,197.503989 191.75482,192.322593 192.09425,185.575704 C192.441307,178.832634 187.246885,173.086133 180.49261,172.738671 C180.275222,172.727216 180.061648,172.719579 179.851888,172.719579 C173.376022,172.723397 167.964212,177.790246 167.628596,184.319493 Z" id="Fill-7" fill="#FFFFFF" mask="url(#mask-2)"></path>
                    </g>
                </g>
            </g>
        </g>
    </g>
</svg>