<?xml version="1.0" encoding="UTF-8"?>
<svg width="350px" height="91px" viewBox="0 0 350 91" version="1.1" xmlns="http://www.w3.org/2000/svg" xmlns:xlink="http://www.w3.org/1999/xlink">
    <!-- Generator: Sketch 52.4 (67378) - http://www.bohemiancoding.com/sketch -->
    <title>phoenix</title>
    <desc>Created with Sketch.</desc>
    <defs>
        <path d="M0.00948963317,5.37423977 C10.2020999,5.37423977 37.3067251,11.0239766 60.2382066,2.29423977 C55.4691698,3.71266082 49.1621611,2.73266082 41.5839137,1.75450292 C36.7410996,1.12634503 31.3780613,0.50002924 25.5704678,0.50002924 C17.7916977,0.50002924 9.21651161,1.62371345 0.00948963317,5.37423977" id="path-1"></path>
        <linearGradient x1="8.62570388%" y1="79.0966171%" x2="92.3338784%" y2="16.2310261%" id="linearGradient-3">
            <stop stop-color="#BF7542" offset="0%"></stop>
            <stop stop-color="#FBCD87" offset="100%"></stop>
        </linearGradient>
        <path d="M19.2123516,1.75450292 C11.6341042,2.73266082 5.32520379,3.71266082 0.558058657,2.29423977 C23.4914319,11.0239766 50.5960571,5.37423977 60.7886674,5.37423977 C51.5816454,1.62371345 43.0045676,0.50002924 35.2257974,0.50002924 C29.418204,0.50002924 24.0551657,1.12634503 19.2123516,1.75450292" id="path-4"></path>
        <linearGradient x1="91.3742206%" y1="79.096537%" x2="7.66867521%" y2="16.2308853%" id="linearGradient-6">
            <stop stop-color="#BF7542" offset="0%"></stop>
            <stop stop-color="#FBCD87" offset="100%"></stop>
        </linearGradient>
    </defs>
    <g id="About" stroke="none" stroke-width="1" fill="none" fill-rule="evenodd">
        <g id="About-Page" transform="translate(-625.000000, -243.000000)">
            <g id="Company-Profile" transform="translate(200.000000, 80.000000)">
                <g id="phoenix" transform="translate(425.000000, 163.000000)">
                    <g id="Group-5" fill="#FFFFFF">
                        <path d="M322.268207,43.7935225 L330.483696,29.6409282 L338.527989,43.7935225 L349.347554,43.7935225 L336.488859,22.5071469 L349.461685,1.61932811 L338.527989,1.61932811 L330.595924,15.3733657 L323.118478,1.61932811 L312.297011,1.61932811 L324.533696,22.5071469 L311.334511,43.7935225 L322.268207,43.7935225 Z M282.879891,43.7935225 L292.284239,43.7935225 L292.284239,1.61932811 L282.879891,1.61932811 L282.879891,43.7935225 Z M250.405978,26.2723578 L229.499185,1.61932811 L223.155435,1.61932811 L223.155435,43.7935225 L232.390489,43.7935225 L232.390489,19.366597 L252.840761,43.7935225 L259.582065,43.7935225 L259.582065,1.61932811 L250.405978,1.61932811 L250.405978,26.2723578 Z M201.215761,43.7935225 L201.215761,35.0041981 L181.444565,35.0041981 L181.444565,26.9583352 L199.800543,26.9583352 L199.800543,18.226495 L181.444565,18.226495 L181.444565,10.4086525 L201.272826,10.4086525 L201.272826,1.61932811 L172.038315,1.61932811 L172.038315,43.7935225 L201.215761,43.7935225 Z M129.197554,35.1766505 C125.796467,35.1766505 122.908967,33.9771482 120.586413,31.6375439 C118.261957,29.2404554 117.073098,26.2723578 117.073098,22.7351674 C117.073098,19.1385766 118.261957,16.1723952 120.586413,13.7753067 C122.908967,11.3782182 125.796467,10.1806321 129.197554,10.1806321 C132.539674,10.1806321 135.429076,11.3782182 137.75163,13.7753067 C140.074185,16.114911 141.263043,19.1385766 141.320109,22.7351674 C141.377174,26.2723578 140.186413,29.2404554 137.863859,31.6375439 C135.541304,33.9771482 132.651902,35.1766505 129.197554,35.1766505 Z M107.328261,22.7926515 C107.328261,28.8993829 109.424457,34.0346323 113.559783,38.200316 C117.697011,42.3659998 122.908967,44.4775837 129.140489,44.4775837 C135.372011,44.4775837 140.583967,42.3659998 144.776359,38.200316 C148.96875,33.9771482 151.064946,28.8418987 151.064946,22.7351674 C151.064946,16.628436 148.96875,11.4931865 144.719293,7.26810253 C140.526902,2.98936668 135.372011,0.877782755 129.197554,0.877782755 C123.021196,0.877782755 117.864402,2.98936668 113.616848,7.26810253 C109.424457,11.4931865 107.328261,16.6859201 107.328261,22.7926515 Z M60.6336957,43.7935225 L60.6336957,27.1863556 L76.9486413,27.1863556 L76.9486413,43.7935225 L86.3529891,43.7935225 L86.3529891,1.61932811 L76.9486413,1.61932811 L76.9486413,18.1115267 L60.6336957,18.1115267 L60.6336957,1.61932811 L51.2845109,1.61932811 L51.2845109,43.7935225 L60.6336957,43.7935225 Z M9.34918478,21.3076446 L9.34918478,10.2936842 L16.0904891,10.2936842 C19.4896739,10.2936842 21.6429348,12.7463407 21.6429348,15.7719224 C21.6429348,18.797504 19.544837,21.3076446 15.6929348,21.3076446 L9.34918478,21.3076446 Z M0,1.61932811 L0,43.7935225 L9.34918478,43.7935225 L9.34918478,29.8114645 L15.3524457,29.8114645 C20.7355978,29.8114645 24.6997283,28.49891 27.3076087,25.8738012 C29.913587,23.2486923 31.2165761,19.9376061 31.2165761,15.8868906 C31.2165761,11.8342591 29.96875,8.46760483 27.419837,5.72752768 C24.9279891,2.98936668 21.13125,1.61932811 16.0334239,1.61932811 L0,1.61932811 Z" id="Fill-1"></path>
                        <path d="M229.539891,78.6013164 L229.539891,72.1132736 L233.359457,72.1132736 C235.38337,72.1132736 236.579837,73.5197188 236.579837,75.3285529 C236.579837,77.1373871 235.354837,78.6013164 233.07413,78.6013164 L229.539891,78.6013164 Z M225.663261,68.4668633 L225.663261,89.6861739 L229.539891,89.6861739 L229.539891,82.1921588 L232.96,82.1921588 C235.4975,82.1921588 237.37875,81.5310912 238.632283,80.2376981 C239.914348,78.9462212 240.542065,77.3098395 240.542065,75.3860371 C240.542065,73.4622347 239.94288,71.854595 238.71788,70.5037178 C237.49288,69.1547568 235.697228,68.4668633 233.273859,68.4668633 L225.663261,68.4668633 Z M205.751304,90.0579047 C208.117609,90.0579047 210.055924,89.3700112 211.56625,88.0210501 C213.076576,86.6414309 213.846957,84.6601443 213.846957,82.0752744 L213.846957,68.4668633 L209.913261,68.4668633 L209.913261,81.7322857 C209.913261,84.6314023 208.288804,86.2390419 205.751304,86.2390419 C203.156739,86.2390419 201.59125,84.6888864 201.59125,81.7322857 L201.59125,68.4668633 L197.684185,68.4668633 L197.684185,82.0752744 C197.684185,84.6601443 198.454565,86.6414309 199.964891,88.0210501 C201.47712,89.3700112 203.413533,90.0579047 205.751304,90.0579047 Z M183.046957,79.0899316 C183.075489,81.1287023 182.421141,82.8225681 181.080109,84.1715292 C179.740978,85.5224064 178.116522,86.1834739 176.149674,86.1834739 C174.182826,86.1834739 172.556467,85.5224064 171.217337,84.1715292 C169.906739,82.8225681 169.250489,81.1287023 169.250489,79.0899316 C169.250489,77.0511609 169.906739,75.357295 171.24587,74.008334 C172.586902,72.6574568 174.211359,71.9695633 176.149674,71.9695633 C178.059457,71.9695633 179.683913,72.6574568 181.023043,74.008334 C182.364076,75.357295 183.046957,77.0511609 183.046957,79.0899316 Z M165.202663,79.1474157 C165.202663,82.2189847 166.229837,84.8038547 168.310815,86.9001095 C170.391793,88.9963643 172.986359,90.0291626 176.092609,90.0291626 C179.198859,90.0291626 181.793424,88.9676222 183.902935,86.8426254 C186.040978,84.7176285 187.094783,82.1346746 187.094783,79.0899316 C187.094783,76.0471046 186.040978,73.4622347 183.902935,71.3084957 C181.793424,69.1547568 179.198859,68.0932164 176.149674,68.0932164 C173.100489,68.0932164 170.505924,69.1547568 168.36788,71.3084957 C166.25837,73.4622347 165.202663,76.0758467 165.202663,79.1474157 Z M148.258098,72.1132736 C150.196413,72.1132736 151.335815,73.4334926 151.335815,75.1273585 C151.335815,76.8499664 150.196413,78.2008436 147.828207,78.2008436 L144.29587,78.2008436 L144.29587,72.1132736 L148.258098,72.1132736 Z M156.209185,89.6861739 L150.907826,81.2724126 C153.844783,80.3239243 155.326576,77.8559388 155.326576,75.0986164 C155.326576,73.2322981 154.727391,71.6821426 153.502391,70.3887495 C152.275489,69.0991888 150.536902,68.4668633 148.258098,68.4668633 L140.417337,68.4668633 L140.417337,89.6861739 L144.29587,89.6861739 L144.29587,81.7322857 L146.888533,81.7322857 L151.590707,89.6861739 L156.209185,89.6861739 Z M119.793967,90.0023367 C123.527935,90.0023367 126.721685,88.5652333 129.399946,85.7236008 L129.399946,77.1373871 L119.70837,77.1373871 L119.70837,80.582603 L125.808641,80.582603 L125.808641,83.7978823 C124.412446,85.2637278 122.160272,86.2390419 119.908098,86.2390419 C117.884185,86.2390419 116.17413,85.5511484 114.835,84.1715292 C113.49587,82.7938261 112.83962,81.0999602 112.83962,79.0611895 C112.83962,76.9936767 113.5225,75.2710688 114.863533,73.9221078 C116.231196,72.5731467 117.94125,71.8833371 119.965163,71.8833371 C122.302935,71.8833371 124.298315,72.7149409 125.922772,74.4088068 L128.517337,71.6534005 C126.607554,69.5571457 123.385272,68.0932164 119.965163,68.0932164 C116.858913,68.0932164 114.207283,69.1260147 112.069239,71.1935274 C109.931196,73.2610402 108.848859,75.9033943 108.848859,79.0899316 C108.848859,82.2477268 109.87413,84.8613388 111.926576,86.9288516 C114.007554,88.9676222 116.630652,90.0023367 119.793967,90.0023367 Z" id="Fill-3"></path>
                    </g>
                    <g id="Group-8" transform="translate(252.777778, 73.684211)">
                        <mask id="mask-2" fill="white">
                            <use xlink:href="#path-1"></use>
                        </mask>
                        <g id="Clip-7"></g>
                        <path d="M0.00948963317,5.37423977 C10.2020999,5.37423977 37.3067251,11.0239766 60.2382066,2.29423977 C55.4691698,3.71266082 49.1621611,2.73266082 41.5839137,1.75450292 C36.7410996,1.12634503 31.3780613,0.50002924 25.5704678,0.50002924 C17.7916977,0.50002924 9.21651161,1.62371345 0.00948963317,5.37423977" id="Fill-6" fill="url(#linearGradient-3)" mask="url(#mask-2)"></path>
                    </g>
                    <g id="Group-11" transform="translate(35.818713, 73.684211)">
                        <mask id="mask-5" fill="white">
                            <use xlink:href="#path-4"></use>
                        </mask>
                        <g id="Clip-10"></g>
                        <path d="M19.2123516,1.75450292 C11.6341042,2.73266082 5.32520379,3.71266082 0.558058657,2.29423977 C23.4914319,11.0239766 50.5960571,5.37423977 60.7886674,5.37423977 C51.5816454,1.62371345 43.0045676,0.50002924 35.2257974,0.50002924 C29.418204,0.50002924 24.0551657,1.12634503 19.2123516,1.75450292" id="Fill-9" fill="url(#linearGradient-6)" mask="url(#mask-5)"></path>
                    </g>
                </g>
            </g>
        </g>
    </g>
</svg>