<?xml version="1.0" encoding="UTF-8"?>
<svg width="187px" height="152px" viewBox="0 0 187 152" version="1.1" xmlns="http://www.w3.org/2000/svg" xmlns:xlink="http://www.w3.org/1999/xlink">
    <!-- Generator: Sketch 52.4 (67378) - http://www.bohemiancoding.com/sketch -->
    <title>“</title>
    <desc>Created with Sketch.</desc>
    <g id="Homepage" stroke="none" stroke-width="1" fill="none" fill-rule="evenodd" opacity="0.03">
        <g id="Home-Page" transform="translate(-255.000000, -1575.000000)" fill="#1E0938">
            <g id="Testimonials" transform="translate(200.000000, 1228.000000)">
                <path d="M55,447.884956 C55,406.858407 78.4322034,369.19469 109.228814,347 L134,367.176991 C112.576271,381.300885 93.1610169,408.20354 91.1525424,429.725664 C91.8220339,429.725664 96.5084746,429.053097 99.8559322,429.053097 C118.601695,429.053097 131.991525,443.176991 131.991525,463.353982 C131.991525,482.858407 116.59322,499 96.5084746,499 C74.4152542,499 55,480.840708 55,447.884956 Z M163,447.884956 C163,406.858407 186.432203,369.19469 217.228814,347 L242,367.176991 C220.576271,381.300885 201.830508,408.20354 199.152542,429.725664 C199.822034,429.725664 204.508475,429.053097 207.855932,429.053097 C226.601695,429.053097 240.661017,443.176991 240.661017,463.353982 C240.661017,482.858407 224.59322,499 204.508475,499 C182.415254,499 163,480.840708 163,447.884956 Z" id="“"></path>
            </g>
        </g>
    </g>
</svg>