<?xml version="1.0" standalone="no"?>
<!DOCTYPE svg PUBLIC "-//W3C//DTD SVG 20010904//EN"
 "http://www.w3.org/TR/2001/REC-SVG-20010904/DTD/svg10.dtd">
<svg version="1.0" xmlns="http://www.w3.org/2000/svg"
 width="19.000000pt" height="19.000000pt" viewBox="0 0 512.000000 512.000000"
 preserveAspectRatio="xMidYMid meet">
<metadata>
Created by potrace 1.13, written by Peter Selinger 2001-2015
</metadata>
<g transform="translate(0.000000,512.000000) scale(0.100000,-0.100000)"
fill="#579900" stroke="none">
<path d="M2315 5109 c-720 -74 -1370 -439 -1799 -1009 -505 -670 -649 -1543
-386 -2340 127 -387 332 -720 621 -1009 405 -405 902 -649 1494 -733 118 -17
512 -17 630 0 592 84 1088 328 1494 733 405 406 649 902 733 1494 17 118 17
512 0 630 -84 592 -328 1088 -733 1494 -396 395 -881 639 -1449 726 -126 19
-477 28 -605 14z m1265 -1149 c233 -68 399 -288 402 -531 2 -168 -51 -299
-166 -414 -114 -114 -237 -165 -401 -165 -149 0 -272 46 -377 140 l-57 51
-358 -179 -358 -180 2 -123 1 -123 357 -178 356 -179 57 51 c105 94 228 140
377 140 164 0 288 -51 400 -164 118 -120 167 -239 167 -404 -1 -158 -54 -287
-163 -398 -109 -110 -243 -165 -404 -165 -168 0 -305 59 -417 181 -62 68 -117
168 -137 254 -7 27 -11 95 -10 150 l3 101 -350 177 c-192 97 -356 177 -364
177 -8 0 -28 -14 -45 -31 -48 -49 -143 -106 -214 -129 -201 -63 -425 -12 -569
130 -314 309 -194 814 228 957 84 28 253 26 342 -4 74 -26 167 -82 213 -130
17 -17 37 -31 45 -31 8 0 172 80 364 177 l350 177 -3 101 c-2 117 9 172 55
269 117 249 402 373 674 295z"/>
<path d="M3327 3686 c-172 -64 -246 -251 -161 -406 108 -199 389 -198 499 2
26 46 30 63 30 133 0 70 -4 87 -30 133 -51 93 -130 143 -235 149 -40 2 -79 -2
-103 -11z"/>
<path d="M1659 2839 c-65 -10 -120 -41 -167 -94 -97 -111 -96 -263 4 -374 114
-126 305 -126 419 1 97 108 99 264 4 372 -68 77 -159 110 -260 95z"/>
<path d="M3327 1976 c-94 -35 -164 -110 -188 -201 -25 -91 14 -222 84 -281 63
-53 107 -69 192 -69 63 0 89 5 121 22 63 34 97 66 129 125 26 46 30 63 30 133
0 70 -4 87 -30 133 -51 93 -130 143 -235 149 -40 2 -79 -2 -103 -11z"/>
</g>
</svg>
