<?xml version="1.0" encoding="UTF-8"?>
<svg width="116px" height="148px" viewBox="0 0 116 148" version="1.1" xmlns="http://www.w3.org/2000/svg" xmlns:xlink="http://www.w3.org/1999/xlink">
    <!-- Generator: Sketch 59.1 (86144) - https://sketch.com -->
    <title>2</title>
    <desc>Created with Sketch.</desc>
    <g id="Design" stroke="none" stroke-width="1" fill="none" fill-rule="evenodd" opacity="0.600000024">
        <g id="Landing" transform="translate(-749.000000, -4829.000000)" fill="#FFFFFF" fill-rule="nonzero">
            <g id="Employer-Copy" transform="translate(1.000000, 4282.000000)">
                <g id="2" transform="translate(739.000000, 505.000000)">
                    <path d="M12.9776001,189.443041 L12.9776001,161.033977 L67.238912,116.147657 L68.1388311,115.393498 C77.9406629,107.141602 84.4995072,100.290803 84.5684409,90.2954085 C84.4974183,79.1448509 76.4008351,72.3976983 65.5343682,72.3976983 C54.525856,72.3976983 46.4292728,79.0738283 46.5002954,91.431771 L9,91.431771 C8.92930854,60.8210048 31.6565596,42 65.5343682,42 C100.761607,42 121.500224,62.5965713 121.784315,89.7272272 C121.855337,109.968685 110.562734,124.457308 84.5684409,145.693083 L70.6479997,157.056708 L70.6479997,157.90898 L124.625221,157.90898 L124.625221,189.443041 L12.9776001,189.443041 Z"></path>
                </g>
            </g>
        </g>
    </g>
</svg>