<?xml version="1.0" encoding="UTF-8"?>
<svg width="120px" height="150px" viewBox="0 0 120 150" version="1.1" xmlns="http://www.w3.org/2000/svg" xmlns:xlink="http://www.w3.org/1999/xlink">
    <!-- Generator: Sketch 59.1 (86144) - https://sketch.com -->
    <title>3</title>
    <desc>Created with Sketch.</desc>
    <g id="Design" stroke="none" stroke-width="1" fill="none" fill-rule="evenodd" opacity="0.600000024">
        <g id="Landing" transform="translate(-747.000000, -5110.000000)" fill="#FFFFFF" fill-rule="nonzero">
            <g id="Employer-Copy" transform="translate(1.000000, 4282.000000)">
                <g id="3" transform="translate(739.000000, 787.000000)">
                    <path d="M66.0908527,190.431676 C31.6448629,190.431676 7.14204532,171.255558 7,144.124902 L46.7726893,144.124902 C46.9147347,152.576598 55.0113178,158.613524 66.3749434,158.613524 C77.1867147,158.613524 84.8061164,152.436983 84.8426434,143.582585 L84.8408349,143.27263 C84.9828802,134.46582 76.0340251,128.215826 63.2499464,128.215826 L48.4772332,128.215826 L48.4772332,100.943125 L63.2499464,100.943125 C75.0397078,100.943125 83.2783363,94.6931306 83.136291,85.8863208 C83.2783363,77.4346243 76.3181157,71.3976983 66.3749434,71.3976983 C55.5084765,71.3976983 47.7670066,77.6476923 47.6249613,86.4545021 L9.84090638,86.4545021 C9.9829517,59.8210048 33.4204293,41 66.3749434,41 C98.2967879,41 120.890985,58.4719365 121.20185,82.5964345 L121.204437,83.3295051 C121.346482,99.5936941 108.704448,110.744252 91.3749195,112.590841 L91.3749195,113.727203 C114.578022,116.258451 126.504417,128.604611 126.602798,146.148498 L126.602798,146.681717 C126.744204,172.320897 101.673205,190.431676 66.0908527,190.431676 Z"></path>
                </g>
            </g>
        </g>
    </g>
</svg>