<svg xmlns="http://www.w3.org/2000/svg" xmlns:xlink="http://www.w3.org/1999/xlink" viewBox="0 0 171.07 164.35"><defs><linearGradient id="linear-gradient" x1="85.54" y1="164.35" x2="85.54" y2="65.57" gradientUnits="userSpaceOnUse"><stop offset="0.3" stop-color="#e9ebee"/><stop offset="1" stop-color="#f7f8f9" stop-opacity="0.2"/></linearGradient><linearGradient id="linear-gradient-2" x1="86.94" y1="95.57" x2="101.18" y2="95.57" gradientUnits="userSpaceOnUse"><stop offset="0" stop-color="#f1f3f7"/><stop offset="0.06" stop-color="#f4f6f9"/><stop offset="0.31" stop-color="#fbfcfd"/><stop offset="1" stop-color="#fdfefe"/></linearGradient><linearGradient id="linear-gradient-3" x1="86.95" y1="99.25" x2="101.18" y2="99.25" xlink:href="#linear-gradient-2"/><linearGradient id="linear-gradient-4" x1="45.6" y1="-98.36" x2="18.9" y2="-71.66" gradientTransform="translate(0 189.74)" gradientUnits="userSpaceOnUse"><stop offset="0" stop-color="#ff876c"/><stop offset="1" stop-color="#ff5b35"/></linearGradient><linearGradient id="linear-gradient-5" x1="91.2" y1="-124.69" x2="64.5" y2="-97.98" xlink:href="#linear-gradient-4"/><linearGradient id="linear-gradient-6" x1="136.82" y1="-133.12" x2="110.11" y2="-106.41" gradientTransform="translate(0 189.74)" gradientUnits="userSpaceOnUse"><stop offset="0" stop-color="#9089d5"/><stop offset="1" stop-color="#675dc6"/></linearGradient><linearGradient id="linear-gradient-7" x1="135.82" y1="-163.2" x2="109.11" y2="-136.49" gradientTransform="translate(0 189.74)" gradientUnits="userSpaceOnUse"><stop offset="0" stop-color="#73d2e9"/><stop offset="1" stop-color="#00add8"/></linearGradient><linearGradient id="linear-gradient-8" x1="52.32" y1="-206.02" x2="47.65" y2="-204.04" gradientTransform="matrix(1.06, 0.45, -0.8, 0.6, -166.98, 195.41)" xlink:href="#linear-gradient-4"/><linearGradient id="linear-gradient-9" x1="60.72" y1="-206.02" x2="56.05" y2="-204.04" gradientTransform="matrix(1.06, 0.45, -0.8, 0.6, -167.51, 186.76)" xlink:href="#linear-gradient-4"/><linearGradient id="linear-gradient-10" x1="97.92" y1="-206.02" x2="93.25" y2="-204.04" gradientTransform="matrix(1.06, 0.45, -0.8, 0.6, -169.83, 148.46)" xlink:href="#linear-gradient-4"/><linearGradient id="linear-gradient-11" x1="106.32" y1="-212.02" x2="101.65" y2="-210.04" gradientTransform="matrix(1.06, 0.45, -0.8, 0.6, -175.15, 137.42)" xlink:href="#linear-gradient-7"/><linearGradient id="linear-gradient-12" x1="106.32" y1="-200.02" x2="101.65" y2="-198.04" gradientTransform="matrix(1.06, 0.45, -0.8, 0.6, -165.56, 142.21)" gradientUnits="userSpaceOnUse"><stop offset="0" stop-color="#9d98c5"/><stop offset="1" stop-color="#6561a5"/></linearGradient></defs><title>Asset 131</title><g style="isolation:isolate"><g id="Layer_2" data-name="Layer 2"><g id="Layer_1-2" data-name="Layer 1"><path d="M146,80c33.4,19.29,33.4,50.56,0,69.83s-87.56,19.3-121,0-33.4-50.54,0-69.83S112.61,60.75,146,80Z" style="opacity:0.30000000000000004;fill:url(#linear-gradient)"/><path d="M73,129.88a8.23,8.23,0,0,0,1.19,3.64,14.25,14.25,0,0,0,5.31,4.91c8.7,5,22.78,5,31.48,0s8.69-13.16,0-18.19a29.18,29.18,0,0,0-9.65-3.27h-.11a38.22,38.22,0,0,0-5-.46c-.9,0-1.79,0-2.65,0a31.4,31.4,0,0,0-14,3.7C74.88,122.9,72.71,126.41,73,129.88Z" style="fill:#dee1e8"/><path d="M101.18,93.73v31.53l-14.24,8.23V102a2,2,0,0,1,.9-1.56l12.45-7.19C100.78,92.93,101.18,93.16,101.18,93.73Z" style="fill:#d4d8e0"/><path d="M101.18,76v31.53l-14.24,8.22V84.23a2,2,0,0,1,.9-1.55l12.45-7.19C100.78,75.21,101.18,75.44,101.18,76Z" style="stroke:#b5bbc1;stroke-miterlimit:10;stroke-width:0.5px;opacity:0.5;mix-blend-mode:multiply;fill:url(#linear-gradient-2)"/><path d="M101.18,93.83v3.26L87,105.31v-3.25a2,2,0,0,1,.89-1.56l12.45-7.18C100.78,93,101.18,93.26,101.18,93.83Z" style="stroke:#b5bbc1;stroke-miterlimit:10;stroke-width:0.5px;fill:url(#linear-gradient-3)"/><path d="M33.87,141.24c0,3.88,2.73,5.45,6.1,3.51L143.8,84.8a13.49,13.49,0,0,0,6.09-10.54V2.18c0-1.94-1.35-2.73-3-1.77L36.91,63.89a6.7,6.7,0,0,0-3,5.28Z" style="fill:#dee1e8"/><polygon points="37.67 136.58 146.08 73.98 146.08 5.08 37.67 67.67 37.67 136.58" style="fill:#fff"/><path d="M39.28,108.66l-17.11,9.66c-1.94,1.11-3.52.43-3.52-1.51V101.44a7.29,7.29,0,0,1,3.52-5.54l15.93-9c1.95-1.12,3.53-.44,3.53,1.51V105A4.84,4.84,0,0,1,39.28,108.66Z" style="fill:#ff5b35"/><polygon points="19.24 118.42 21.18 120.37 22.14 118.65 19.24 118.42" style="fill:#ff5b35"/><polygon points="41.09 86.86 43.02 88.8 40.3 89.91 41.09 86.86" style="fill:#ff5b35"/><path d="M41.29,110.67l-17.11,9.66c-1.94,1.11-3.52.43-3.52-1.51V103.45a7.26,7.26,0,0,1,3.52-5.53l15.94-9c1.94-1.11,3.52-.44,3.52,1.51V107A4.82,4.82,0,0,1,41.29,110.67Z" style="fill:url(#linear-gradient-4)"/><path d="M35.12,105.38h0c-.59-.22-1.51.31-2.09,1.21l-.23.36h0a12.72,12.72,0,0,1-3.42-1.45l.23-.36h0c.57-.91.57-1.84,0-2.09l-1.25-.53h0c-.58-.24-1.52.3-2.09,1.21h0l-.69,1.08h0c-.69,1.1-.8,2.24-.26,2.75h0a12.77,12.77,0,0,0,7.76,3.29h0a3.41,3.41,0,0,0,2.6-1.77l.69-1.08h0c.57-.91.57-1.84,0-2.09Z" style="fill:#fff"/><path d="M35.31,95.72h0a8,8,0,0,0-3.84,6.06c0,2.12,1.72,2.85,3.84,1.62a8,8,0,0,0,3.84-6.05h0c0-2.12-1.72-2.85-3.84-1.63Zm-1.57,3.81h0c-.17-.08-.16-.36,0-.63s.44-.43.61-.36l.84.35h0s.15,0,.2-.12h0l.84-1.31h0c.18-.28.46-.43.63-.36s.16.35,0,.62L36,99h0c-.06.09-.06.18,0,.21h0l.84.35h0c.17.07.17.35,0,.63h0c-.18.27-.46.43-.63.36l-.84-.35h0s-.15,0-.2.11h0l-.84,1.31h0c-.17.27-.45.43-.63.36h0c-.17-.07-.17-.35,0-.62h0l.84-1.32h0c.06-.09.06-.18,0-.21h0Z" style="fill:#fff"/><path d="M84.88,82.33,67.77,92c-1.94,1.11-3.52.43-3.52-1.51V75.12a7.26,7.26,0,0,1,3.52-5.54l15.93-9c2-1.11,3.53-.44,3.53,1.51V78.64A4.82,4.82,0,0,1,84.88,82.33Z" style="fill:#ff5b35"/><polygon points="64.75 92.01 66.8 94.05 67.74 92.32 64.75 92.01" style="fill:#ff5b35"/><polygon points="86.67 60.52 88.62 62.47 85.88 63.57 86.67 60.52" style="fill:#ff5b35"/><path d="M86.89,84.34,69.78,94c-1.94,1.11-3.52.44-3.52-1.51V77.13a7.26,7.26,0,0,1,3.52-5.54l15.94-9c1.94-1.11,3.52-.43,3.52,1.51V80.65A4.82,4.82,0,0,1,86.89,84.34Z" style="fill:url(#linear-gradient-5)"/><path d="M80.72,79.05h0c-.59-.22-1.51.31-2.09,1.21l-.23.36h0A12.72,12.72,0,0,1,75,79.17l.23-.36h0c.57-.91.57-1.84,0-2.08L74,76.2h0c-.58-.25-1.52.29-2.09,1.2h0l-.69,1.09h0c-.69,1.09-.8,2.24-.26,2.75h0a12.82,12.82,0,0,0,7.76,3.28h0a3.42,3.42,0,0,0,2.6-1.76L82,81.67h0c.57-.91.57-1.84,0-2.09Z" style="fill:#fff"/><path d="M80.91,69.4h0a8,8,0,0,0-3.84,6c0,2.12,1.72,2.85,3.84,1.63A8,8,0,0,0,84.75,71h0c0-2.12-1.72-2.84-3.84-1.62Zm-1.57,3.8h0c-.17-.08-.16-.36,0-.63s.44-.42.61-.36l.84.36h0s.15,0,.2-.12h0l.84-1.32h0c.18-.27.46-.43.63-.35s.16.35,0,.61l-.84,1.32h0c-.06.09-.06.18,0,.21h0l.84.35h0c.17.08.17.36,0,.63h0c-.18.27-.46.43-.63.36L81,73.91h0c-.05,0-.15,0-.2.12h0L80,75.35h0c-.17.27-.45.43-.63.36h0c-.17-.08-.17-.36,0-.63h0l.84-1.32h0c.06-.09.06-.18,0-.21h0Z" style="fill:#fff"/><path d="M130.5,73.9l-17.11,9.66c-2,1.11-3.53.43-3.53-1.51V66.68a7.25,7.25,0,0,1,3.53-5.53l15.93-9c2-1.11,3.53-.44,3.53,1.51V70.21A4.85,4.85,0,0,1,130.5,73.9Z" style="fill:#675dc6"/><polygon points="110.39 83.6 112.47 85.68 113.35 83.89 110.39 83.6" style="fill:#675dc6"/><polygon points="132.25 52.05 134.23 54.03 131.51 55.15 132.25 52.05" style="fill:#675dc6"/><path d="M132.51,75.91,115.4,85.57c-1.94,1.11-3.52.44-3.52-1.51V68.7a7.26,7.26,0,0,1,3.52-5.54l15.93-9c1.95-1.11,3.53-.43,3.53,1.51V72.22A4.82,4.82,0,0,1,132.51,75.91Z" style="fill:url(#linear-gradient-6)"/><path d="M122.8,71.71h0c.31.13.82-.17,1.14-.66l6.23-9.83h0c.13-.2.13-.41,0-.46a.23.23,0,0,0-.18,0h0l-.19.1L116.93,68.3h0a1.88,1.88,0,0,0-.18.12h0a.64.64,0,0,0-.28.52.18.18,0,0,0,.09.13Z" style="fill:#fff"/><path d="M131,61.34h0a.24.24,0,0,0-.13.1l-4,6.3h0c-.06.1-.06.2,0,.23l3.25,1.37h0c.19.07.19.37,0,.67s-.49.48-.68.41h0L126.22,69h0a.24.24,0,0,0-.23.13h0l-1.37,2.17h0c-.69,1.09-1.81,1.73-2.5,1.44l-1.37-.58h0c-.07,0-.17,0-.23.14l-3.25,5.12h0c-.19.29-.5.46-.68.38s-.18-.38,0-.67l3.25-5.12h0c.06-.1.06-.2,0-.23l-4-1.69h0a.15.15,0,0,0-.13.05h0a.21.21,0,0,0-.08.15v7.72h0c0,.71.58,1,1.29.55l12.87-7.43h0a2.67,2.67,0,0,0,1.29-2V61.41h0A.06.06,0,0,0,131,61.34Z" style="fill:#fff"/><path d="M129.49,43.83l-17.11,9.65c-1.94,1.11-3.52.44-3.52-1.51V36.61a7.26,7.26,0,0,1,3.52-5.54l15.94-9c1.94-1.11,3.52-.43,3.52,1.51V40.13A4.85,4.85,0,0,1,129.49,43.83Z" style="fill:#00add8"/><polygon points="109.42 53.56 111.4 55.54 112.35 53.82 109.42 53.56" style="fill:#00add8"/><polygon points="131.29 22.02 133.21 23.95 130.51 25.07 131.29 22.02" style="fill:#00add8"/><path d="M131.5,45.84l-17.1,9.65c-2,1.12-3.53.44-3.53-1.51V38.62a7.25,7.25,0,0,1,3.53-5.54l15.93-9c1.94-1.12,3.52-.44,3.52,1.51V42.14A4.84,4.84,0,0,1,131.5,45.84Z" style="fill:url(#linear-gradient-7)"/><path d="M124.74,32h0l-4.93,2.84c-2.72,1.58-4.94,5.07-4.94,7.79s2.22,3.67,4.94,2.09l.53-.3V46.8c0,.17.15.23.33.13a.63.63,0,0,0,.23-.23l2.44-4,1.4-.81c2.73-1.58,4.94-5.07,4.94-7.79S127.47,30.45,124.74,32Zm-4.92,9a2.06,2.06,0,0,1-.39.53,2.53,2.53,0,0,1-.58.44l-.23.12-.35.14a3.1,3.1,0,0,1-.46.11v-.73a2.13,2.13,0,0,0,.44,0,1.3,1.3,0,0,0,.46-.17.8.8,0,0,0,.3-.25.53.53,0,0,0,.07-.18.12.12,0,0,0-.12-.13,1,1,0,0,0-.33,0,1.62,1.62,0,0,1-.43,0,.41.41,0,0,1-.29-.13.45.45,0,0,1-.12-.35,1.18,1.18,0,0,1,.12-.5,1.61,1.61,0,0,1,.35-.51,2.81,2.81,0,0,1,.59-.46,3,3,0,0,1,.45-.21,1.64,1.64,0,0,1,.35-.09l.18,0v.69a1.34,1.34,0,0,0-.4,0,1.5,1.5,0,0,0-.47.17.86.86,0,0,0-.24.21.34.34,0,0,0-.08.2.1.1,0,0,0,.08.1.67.67,0,0,0,.26,0,2.85,2.85,0,0,1,.55,0,.53.53,0,0,1,.32.11.46.46,0,0,1,.11.35A1.32,1.32,0,0,1,119.82,41.08Zm4.16-2-.88.51v-1.7l-.8,1.44-.07.05-.8-.53v1.71l-.87.49V38.08l.81-.46.9.58.91-1.63.8-.46Zm2.66-1.91a1.9,1.9,0,0,1-.39.53,2.53,2.53,0,0,1-.58.44l-.23.12a1.8,1.8,0,0,1-.35.14,2.21,2.21,0,0,1-.46.11v-.72a2.12,2.12,0,0,0,.44,0,1.3,1.3,0,0,0,.46-.17.8.8,0,0,0,.3-.25.41.41,0,0,0,.07-.18.12.12,0,0,0-.12-.13,1.36,1.36,0,0,0-.33,0,1.67,1.67,0,0,1-.43,0,.46.46,0,0,1-.29-.13.49.49,0,0,1-.12-.36,1.18,1.18,0,0,1,.12-.5,1.73,1.73,0,0,1,.35-.51,2.48,2.48,0,0,1,.59-.45,2.31,2.31,0,0,1,.45-.22,1.64,1.64,0,0,1,.35-.09l.18,0v.69a1.82,1.82,0,0,0-.4,0,1.12,1.12,0,0,0-.47.17.71.71,0,0,0-.24.2.35.35,0,0,0-.07.2.1.1,0,0,0,.07.11h.26a2.85,2.85,0,0,1,.55,0,.53.53,0,0,1,.32.11.47.47,0,0,1,.11.35A1.32,1.32,0,0,1,126.64,37.14Z" style="fill:#fff"/><ellipse cx="49.98" cy="94.76" rx="3.37" ry="1.91" transform="translate(-55.79 77.74) rotate(-53.05)" style="fill:url(#linear-gradient-8)"/><ellipse cx="58.38" cy="89.91" rx="3.37" ry="1.91" transform="translate(-48.56 82.52) rotate(-53.05)" style="fill:url(#linear-gradient-9)"/><ellipse cx="95.58" cy="68.43" rx="3.37" ry="1.91" transform="translate(-16.56 103.69) rotate(-53.05)" style="fill:url(#linear-gradient-10)"/><ellipse cx="103.98" cy="57.58" rx="3.37" ry="1.91" transform="matrix(0.6, -0.8, 0.8, 0.6, -4.54, 106.07)" style="fill:url(#linear-gradient-11)"/><ellipse cx="103.98" cy="69.58" rx="3.37" ry="1.91" transform="translate(-14.13 110.86) rotate(-53.05)" style="fill:url(#linear-gradient-12)"/></g></g></g></svg>