<svg xmlns="http://www.w3.org/2000/svg" xmlns:xlink="http://www.w3.org/1999/xlink" viewBox="0 0 104.74 125.57"><defs><linearGradient id="linear-gradient" x1="52.37" y1="125.57" x2="52.37" y2="65.09" gradientUnits="userSpaceOnUse"><stop offset="0.3" stop-color="#e9ebee"/><stop offset="1" stop-color="#f7f8f9" stop-opacity="0.2"/></linearGradient><linearGradient id="linear-gradient-2" x1="87.1" y1="-47.38" x2="60.4" y2="-20.67" gradientTransform="translate(0 52.37)" gradientUnits="userSpaceOnUse"><stop offset="0" stop-color="#73d2e9"/><stop offset="1" stop-color="#00add8"/></linearGradient><linearGradient id="linear-gradient-3" x1="97.59" y1="-22.05" x2="70.88" y2="4.65" gradientTransform="translate(0 52.37)" gradientUnits="userSpaceOnUse"><stop offset="0" stop-color="#9089d5"/><stop offset="1" stop-color="#675dc6"/></linearGradient><linearGradient id="linear-gradient-4" x1="51.35" y1="23" x2="24.64" y2="49.71" gradientUnits="userSpaceOnUse"><stop offset="0" stop-color="#facf45"/><stop offset="1" stop-color="#f9be00"/></linearGradient><linearGradient id="linear-gradient-5" x1="45.93" y1="56.8" x2="19.22" y2="83.5" gradientUnits="userSpaceOnUse"><stop offset="0" stop-color="#ff876c"/><stop offset="1" stop-color="#ff5b35"/></linearGradient></defs><title>Asset 129</title><g id="Layer_2" data-name="Layer 2"><g id="Layer_1-2" data-name="Layer 1"><path d="M89.4,74c20.45,11.81,20.45,31,0,42.76s-53.61,11.82-74.06,0S-5.11,85.76,15.34,74,69,62.14,89.4,74Z" style="opacity:0.30000000000000004;fill:url(#linear-gradient)"/><path d="M73.68,96.6l-33.5,19.53c-1.89,1.09-3.47.82-3.77-.57,0-.15,0-.31,0-.46V84.17l0-45.94c0-1.8,1.7-4.29,3.8-5.47L73.69,13.19c2.09-1.22,3.82-.72,3.81,1.1v76.8C77.51,92.88,75.77,95.4,73.68,96.6Z" style="fill:#dee1e8"/><polygon points="72.6 88.44 41.19 106.78 41.19 106.26 41.2 81.05 41.2 37.09 72.59 18.77 72.6 88.44" style="fill:#fff"/><path d="M56.88,100.07a3.13,3.13,0,0,0-1.62,2.33v1.52c0,.76.73,1,1.62.47l1.75-1A3.15,3.15,0,0,0,60.25,101V99.52c0-.77-.75-1-1.62-.47Z" style="fill:#fff"/><path d="M80.78,22.28,63.67,31.93c-2,1.12-3.52.44-3.52-1.51V15.06a7.23,7.23,0,0,1,3.52-5.54L79.6.54c2-1.12,3.53-.44,3.53,1.51V18.58A4.84,4.84,0,0,1,80.78,22.28Z" style="fill:#00add8"/><polygon points="60.75 32.05 62.69 33.99 63.64 32.27 60.75 32.05" style="fill:#00add8"/><polygon points="82.53 0.42 84.48 2.38 81.8 3.52 82.53 0.42" style="fill:#00add8"/><path d="M82.79,24.29,65.68,34c-1.94,1.11-3.52.43-3.52-1.51V17.07a7.29,7.29,0,0,1,3.52-5.54l15.94-9c1.94-1.11,3.52-.44,3.52,1.51V20.6A4.84,4.84,0,0,1,82.79,24.29Z" style="fill:url(#linear-gradient-2)"/><path d="M76.78,8.74l-6.43,3.72h0a4,4,0,0,0-1.94,3h0V27h0c0,1.07.87,1.44,1.94.82l6.43-3.72h0a4,4,0,0,0,1.93-3V9.56h0C78.71,8.49,77.85,8.12,76.78,8.74ZM73.56,25h0c-.35.2-.64.08-.64-.28a1.34,1.34,0,0,1,.64-1c.36-.21.65-.08.65.27h0A1.34,1.34,0,0,1,73.56,25Zm3.87-5.13h0a1.34,1.34,0,0,1-.65,1l-6.43,3.71h0c-.36.21-.65.09-.65-.27h0V15.08h0a1.32,1.32,0,0,1,.65-1l6.43-3.72h0c.36-.21.65-.08.65.27Z" style="fill:#fff"/><path d="M91.26,47.6l-17.1,9.66c-2,1.11-3.53.43-3.53-1.51V40.38a7.28,7.28,0,0,1,3.53-5.54l15.93-9c2-1.11,3.52-.44,3.52,1.51V43.91A4.82,4.82,0,0,1,91.26,47.6Z" style="fill:#675dc6"/><polygon points="71.19 57.34 73.17 59.32 74.12 57.59 71.19 57.34" style="fill:#675dc6"/><polygon points="93.05 25.78 95.05 27.78 92.28 28.85 93.05 25.78" style="fill:#675dc6"/><path d="M93.28,49.61,76.17,59.27c-2,1.11-3.53.44-3.53-1.51V42.4a7.25,7.25,0,0,1,3.53-5.54l15.93-9c2-1.11,3.53-.44,3.53,1.51V45.92A4.85,4.85,0,0,1,93.28,49.61Z" style="fill:url(#linear-gradient-3)"/><path d="M83.56,45.41h0c.32.13.83-.17,1.14-.66l6.24-9.83h0c.12-.2.12-.41,0-.46a.23.23,0,0,0-.18,0h0l-.19.1L77.7,42h0a1,1,0,0,0-.19.12h0a.63.63,0,0,0-.27.52.16.16,0,0,0,.09.13Z" style="fill:#fff"/><path d="M91.79,35h0a.21.21,0,0,0-.13.1l-4,6.3h0c-.07.1-.07.2,0,.23L90.91,43h0c.2.07.2.37,0,.67s-.5.48-.69.41h0L87,42.74h0a.23.23,0,0,0-.23.13h0L85.39,45h0c-.69,1.09-1.81,1.73-2.51,1.44l-1.37-.58h0c-.06,0-.16,0-.22.13L78,51.15h0c-.19.3-.5.47-.68.39s-.18-.38,0-.67l3.24-5.12h0c.07-.1.07-.21,0-.23l-4-1.69h0a.17.17,0,0,0-.13.05h0a.23.23,0,0,0-.07.15v7.72h0c0,.71.58,1,1.29.55l12.87-7.44h0a2.68,2.68,0,0,0,1.29-2V35.11h0A.06.06,0,0,0,91.79,35Z" style="fill:#fff"/><path d="M45,40.28,27.92,49.94c-2,1.11-3.53.43-3.53-1.51V33.07a7.25,7.25,0,0,1,3.53-5.54l15.93-9c1.95-1.11,3.53-.44,3.53,1.51V36.59A4.82,4.82,0,0,1,45,40.28Z" style="fill:#f9be00"/><polygon points="24.87 49.93 26.95 52.01 27.8 50.19 24.87 49.93" style="fill:#f9be00"/><polygon points="46.69 18.34 48.71 20.36 46.04 21.53 46.69 18.34" style="fill:#f9be00"/><path d="M47,42.29,29.93,52c-1.94,1.11-3.52.44-3.52-1.51V35.08a7.26,7.26,0,0,1,3.52-5.54l15.93-9c2-1.11,3.53-.43,3.53,1.51V38.6A4.82,4.82,0,0,1,47,42.29Z" style="fill:url(#linear-gradient-4)"/><path d="M37.23,37.94h0a4,4,0,0,1,1.93-3l4.67-2.7h0A.32.32,0,0,0,44,32V26.64h0c0-.53-.43-.72-1-.41L31.76,32.74h0a2,2,0,0,0-1,1.52h0v9.33h0c0,.53.43.72,1,.41l1.93-1.12v2.26h0c0,.18.14.24.32.13a.69.69,0,0,0,.23-.22l2.48-3.91.35-.21h0a.32.32,0,0,0,.16-.25Zm-1.61-.51-1.93,1.11h0c-.27.15-.48.06-.48-.2a1,1,0,0,1,.48-.77l1.93-1.11h0c.27-.15.48-.06.48.2A1,1,0,0,1,35.62,37.43Zm4.83-6-6.76,3.9h0c-.27.16-.48.06-.48-.2a1,1,0,0,1,.48-.76l6.76-3.91h0c.26-.15.48-.06.48.21A1,1,0,0,1,40.45,31.42Z" style="fill:#fff"/><path d="M45.27,32.33l-6.11,3.53h0a2,2,0,0,0-1,1.53h0v4.18h0c0,.53.44.72,1,.41l2.15-1.24,2.48.43h0a.52.52,0,0,0,.45-.32.46.46,0,0,0,.07-.23V39l1-.56h0a2,2,0,0,0,1-1.52h0V32.74h0C46.24,32.21,45.81,32,45.27,32.33Z" style="fill:#fff"/><path d="M39.6,74.08,22.49,83.74c-1.94,1.11-3.52.43-3.52-1.52V66.86a7.29,7.29,0,0,1,3.52-5.54l15.94-9C40.37,51.22,42,51.9,42,53.85V70.39A4.84,4.84,0,0,1,39.6,74.08Z" style="fill:#ff5b35"/><polygon points="19.55 83.83 21.53 85.81 22.46 84.07 19.55 83.83" style="fill:#ff5b35"/><polygon points="41.41 52.28 43.28 54.17 40.62 55.34 41.41 52.28" style="fill:#ff5b35"/><path d="M41.61,76.09l-17.1,9.66c-2,1.11-3.53.43-3.53-1.51V68.87a7.25,7.25,0,0,1,3.53-5.53l15.93-9c1.94-1.11,3.52-.44,3.52,1.51V72.4A4.82,4.82,0,0,1,41.61,76.09Z" style="fill:url(#linear-gradient-5)"/><path d="M34.85,62.28h0l-4.93,2.85C27.2,66.7,25,70.19,25,72.92S27.2,76.58,29.92,75l.53-.31v2.35c0,.18.15.24.33.14A.88.88,0,0,0,31,77l2.44-4,1.4-.81c2.73-1.58,4.94-5.06,4.94-7.79S37.58,60.71,34.85,62.28Zm-4.92,9a1.77,1.77,0,0,1-.39.53,2.9,2.9,0,0,1-.58.45l-.23.11a1.8,1.8,0,0,1-.35.14,2.21,2.21,0,0,1-.46.11V72a2.12,2.12,0,0,0,.44,0,1.3,1.3,0,0,0,.46-.17.8.8,0,0,0,.3-.25.41.41,0,0,0,.07-.18.12.12,0,0,0-.12-.13,1.36,1.36,0,0,0-.33,0,1.67,1.67,0,0,1-.43,0,.46.46,0,0,1-.29-.13.49.49,0,0,1-.12-.36,1.18,1.18,0,0,1,.12-.5,1.73,1.73,0,0,1,.35-.51,2.48,2.48,0,0,1,.59-.45,2.31,2.31,0,0,1,.45-.22,1.64,1.64,0,0,1,.35-.09.61.61,0,0,1,.18,0v.69a1.34,1.34,0,0,0-.4,0,1.08,1.08,0,0,0-.47.17.71.71,0,0,0-.24.2.37.37,0,0,0-.08.2.11.11,0,0,0,.08.11h.26a4,4,0,0,1,.55,0,.53.53,0,0,1,.32.11.47.47,0,0,1,.11.35A1.32,1.32,0,0,1,29.93,71.33Zm4.16-2-.88.51v-1.7l-.8,1.45-.07,0-.8-.52v1.7l-.87.5V68.34l.81-.47.9.58.91-1.62.8-.47Zm2.66-1.91a1.94,1.94,0,0,1-.39.54,2.86,2.86,0,0,1-.58.44l-.23.12a3,3,0,0,1-.35.13,2.21,2.21,0,0,1-.46.11V68a2.13,2.13,0,0,0,.44,0,1.33,1.33,0,0,0,.46-.18.9.9,0,0,0,.3-.24.53.53,0,0,0,.07-.18.13.13,0,0,0-.12-.14,1,1,0,0,0-.33,0,2.19,2.19,0,0,1-.43,0,.41.41,0,0,1-.29-.13.46.46,0,0,1-.12-.36,1.22,1.22,0,0,1,.12-.5,1.73,1.73,0,0,1,.35-.51,2.48,2.48,0,0,1,.59-.45,2.31,2.31,0,0,1,.45-.22,2.59,2.59,0,0,1,.35-.09.61.61,0,0,1,.18,0v.69a1.34,1.34,0,0,0-.4,0,1.22,1.22,0,0,0-.47.17.71.71,0,0,0-.24.2.37.37,0,0,0-.08.2.1.1,0,0,0,.08.11h.26l.55,0a.61.61,0,0,1,.32.11.49.49,0,0,1,.11.35A1.29,1.29,0,0,1,36.75,67.39Z" style="fill:#fff"/></g></g></svg>