<svg xmlns="http://www.w3.org/2000/svg" xmlns:xlink="http://www.w3.org/1999/xlink" viewBox="0 0 171.07 152.95"><defs><linearGradient id="linear-gradient" x1="85.54" y1="152.95" x2="85.54" y2="54.17" gradientUnits="userSpaceOnUse"><stop offset="0.3" stop-color="#e9ebee"/><stop offset="1" stop-color="#f7f8f9" stop-opacity="0.2"/></linearGradient><linearGradient id="linear-gradient-2" x1="60.6" y1="52" x2="10.77" y2="101.84" gradientUnits="userSpaceOnUse"><stop offset="0" stop-color="#facf45"/><stop offset="1" stop-color="#f9be00"/></linearGradient><linearGradient id="linear-gradient-3" x1="97.96" y1="34.23" x2="66.1" y2="66.09" gradientUnits="userSpaceOnUse"><stop offset="0" stop-color="#73d2e9"/><stop offset="1" stop-color="#00add8"/></linearGradient><linearGradient id="linear-gradient-4" x1="132.76" y1="13.83" x2="100.9" y2="45.69" gradientUnits="userSpaceOnUse"><stop offset="0" stop-color="#ff876c"/><stop offset="1" stop-color="#ff5b35"/></linearGradient></defs><title>Asset 130</title><g id="Layer_2" data-name="Layer 2"><g id="Layer_1-2" data-name="Layer 1"><path d="M146,68.64c33.4,19.29,33.4,50.56,0,69.83s-87.56,19.3-121,0-33.4-50.54,0-69.83S112.61,49.35,146,68.64Z" style="opacity:0.30000000000000004;fill:url(#linear-gradient)"/><path d="M162.44,94.93,113.81,66.8a10.1,10.1,0,0,0-9.15,0L68.11,87.92l-15.49,9-5.17,3-20.74,12A4.49,4.49,0,0,0,25.27,113a.28.28,0,0,1-.06.14s0,0,0,0a1.45,1.45,0,0,0-.12.28,1.13,1.13,0,0,0-.12.28s0,0,0,0c-.35,1.16.27,2.41,1.81,3.3l48.62,28.08a4.88,4.88,0,0,0,4.58,0l74.29-42.88,5.45-3.19,2.79-1.58C163.7,96.84,163.7,95.66,162.44,94.93Z" style="fill:#dee1e8"/><path d="M125.28,111.45a.37.37,0,0,0,0-.68l-13.15-7.54a2.35,2.35,0,0,0-2.4,0l-9.57,5.5-4,2.3-1.31.82L89.39,115a1.67,1.67,0,0,0-.37.32l0,0v0a.07.07,0,0,0,0,.06c-.06,0-.06,0-.06.06h0a.82.82,0,0,0,.49.89l13.14,7.58a1.29,1.29,0,0,0,1.18,0L123.1,112.7l1.41-.81Z" style="fill:#fff"/><path d="M109.66,1.62v58a10,10,0,0,1-4.54,7.91L68.51,88.65,53,97.62l-5.18,3-20.72,12a4.24,4.24,0,0,1-1.77.62h-.23a2.13,2.13,0,0,1-.36,0,.85.85,0,0,1-.26-.05h0c-1.21-.27-2-1.42-2-3.18v-58A5,5,0,0,1,24.87,48L99.17,5l5.43-3.15L107.37.31C108.65-.42,109.66.18,109.66,1.62Z" style="fill:#dee1e8"/><polygon points="106.77 3.82 106.77 59.44 58.33 87.42 25.44 106.4 25.44 50.79 99.47 8.05 106.77 3.82" style="fill:#fff"/><polygon points="37.55 115.87 33.19 118.42 31.94 117.66 36.29 115.15 37.55 115.87" style="fill:#fff"/><polygon points="40.51 119.14 37.49 120.88 34.37 119.1 37.37 117.32 40.51 119.14" style="fill:#fff"/><polygon points="41.92 113.33 38.76 115.15 37.52 114.44 40.61 112.61 41.92 113.33" style="fill:#fff"/><polygon points="46.39 110.75 43.26 112.55 42.06 111.85 45.15 110.03 46.39 110.75" style="fill:#fff"/><polygon points="50.94 108.14 47.77 109.94 46.53 109.21 49.66 107.43 50.94 108.14" style="fill:#fff"/><polygon points="55.41 105.56 52.28 107.35 51.04 106.62 54.17 104.8 55.41 105.56" style="fill:#fff"/><polygon points="59.91 102.93 56.79 104.75 55.55 104.01 58.64 102.25 59.91 102.93" style="fill:#fff"/><polygon points="64.39 100.35 61.26 102.14 60.06 101.41 63.13 99.62 64.39 100.35" style="fill:#fff"/><polygon points="68.92 97.73 65.75 99.59 64.52 98.83 67.69 97.03 68.92 97.73" style="fill:#fff"/><polygon points="73.44 95.15 70.3 96.96 69.02 96.21 72.16 94.43 73.44 95.15" style="fill:#fff"/><polygon points="77.95 92.54 74.81 94.36 73.56 93.65 76.68 91.82 77.95 92.54" style="fill:#fff"/><polygon points="82.44 90.01 79.32 91.75 78.04 91.03 81.18 89.22 82.44 90.01" style="fill:#fff"/><polygon points="88.15 86.61 85.03 88.4 83.79 87.73 86.91 85.9 88.15 86.61" style="fill:#fff"/><polygon points="92.7 84.02 89.52 85.86 88.33 85.11 91.39 83.3 92.7 84.02" style="fill:#fff"/><polygon points="97.11 81.5 93.97 83.3 92.72 82.55 95.84 80.75 97.11 81.5" style="fill:#fff"/><polygon points="102.7 78.21 99.58 80 98.38 79.33 101.51 77.47 102.7 78.21" style="fill:#fff"/><polygon points="107.15 75.67 104.01 77.47 102.73 76.76 105.87 74.98 107.15 75.67" style="fill:#fff"/><polygon points="111.54 73.13 108.39 74.98 107.18 74.24 110.29 72.42 111.54 73.13" style="fill:#fff"/><polygon points="115.91 70.63 112.78 72.41 111.54 71.67 114.66 69.89 115.91 70.63" style="fill:#fff"/><polygon points="46.43 120.98 42.06 123.51 38.94 121.72 43.3 119.2 46.43 120.98" style="fill:#fff"/><polygon points="53.49 122.17 46.6 126.13 43.47 124.32 50.35 120.38 53.49 122.17" style="fill:#fff"/><polygon points="55.81 126.12 51.17 128.8 48.02 126.93 52.69 124.29 55.81 126.12" style="fill:#fff"/><polygon points="44.72 116.7 41.69 118.47 38.54 116.65 41.55 114.88 44.72 116.7" style="fill:#fff"/><polygon points="48.91 114.3 45.87 116 42.75 114.24 45.81 112.47 48.91 114.3" style="fill:#fff"/><polygon points="53.1 111.88 50.07 113.57 46.98 111.81 49.98 110.06 53.1 111.88" style="fill:#fff"/><polygon points="57.3 109.41 54.28 111.18 51.17 109.36 54.21 107.63 57.3 109.41" style="fill:#fff"/><polygon points="61.57 106.99 58.49 108.74 55.37 106.94 58.37 105.2 61.57 106.99" style="fill:#fff"/><polygon points="65.72 104.59 62.71 106.32 59.57 104.5 62.6 102.74 65.72 104.59" style="fill:#fff"/><polygon points="69.92 102.14 66.9 103.9 63.79 102.08 66.83 100.35 69.92 102.14" style="fill:#fff"/><polygon points="74.13 99.71 71.13 101.48 67.97 99.65 71.01 97.9 74.13 99.71" style="fill:#fff"/><polygon points="78.31 97.31 75.33 99.05 72.19 97.23 75.23 95.48 78.31 97.31" style="fill:#fff"/><polygon points="82.53 94.87 79.52 96.57 76.4 94.81 79.39 93.06 82.53 94.87" style="fill:#fff"/><polygon points="58.07 119.54 55.03 121.29 51.89 119.5 54.93 117.76 58.07 119.54" style="fill:#fff"/><polygon points="62.25 117.14 59.18 118.88 56.1 117.05 59.12 115.33 62.25 117.14" style="fill:#fff"/><polygon points="66.49 114.69 63.43 116.47 60.32 114.63 63.31 112.89 66.49 114.69" style="fill:#fff"/><polygon points="70.66 112.27 67.61 114.06 64.49 112.21 67.52 110.47 70.66 112.27" style="fill:#fff"/><polygon points="74.87 109.85 71.82 111.58 68.72 109.79 71.75 108.05 74.87 109.85" style="fill:#fff"/><polygon points="79.05 107.41 76.05 109.17 72.92 107.35 75.95 105.63 79.05 107.41" style="fill:#fff"/><polygon points="83.24 104.98 80.24 106.74 77.14 104.93 80.1 103.21 83.24 104.98" style="fill:#fff"/><polygon points="87.46 102.56 84.48 104.31 81.28 102.49 84.34 100.77 87.46 102.56" style="fill:#fff"/><polygon points="91.67 100.12 88.67 101.86 85.54 100.09 88.55 98.34 91.67 100.12" style="fill:#fff"/><polygon points="95.8 97.73 92.76 99.48 89.64 97.69 92.7 95.95 95.8 97.73" style="fill:#fff"/><polygon points="86.75 92.46 83.75 94.18 80.59 92.39 83.61 90.66 86.75 92.46" style="fill:#fff"/><polygon points="50.87 118.36 47.8 120.11 44.72 118.3 47.7 116.58 50.87 118.36" style="fill:#fff"/><polygon points="55.07 115.94 52.03 117.68 48.91 115.88 51.89 114.15 55.07 115.94" style="fill:#fff"/><polygon points="59.22 113.49 56.2 115.27 53.1 113.46 56.14 111.71 59.22 113.49" style="fill:#fff"/><polygon points="63.43 111.07 60.39 112.84 57.3 111.01 60.32 109.28 63.43 111.07" style="fill:#fff"/><polygon points="67.65 108.66 64.63 110.41 61.54 108.59 64.52 106.87 67.65 108.66" style="fill:#fff"/><polygon points="71.82 106.23 68.86 108 65.69 106.16 68.72 104.44 71.82 106.23" style="fill:#fff"/><polygon points="76.08 103.8 73.01 105.56 69.89 103.75 72.95 102.02 76.08 103.8" style="fill:#fff"/><polygon points="80.24 101.39 77.26 103.13 74.08 101.32 77.14 99.59 80.24 101.39" style="fill:#fff"/><polygon points="84.48 98.96 81.45 100.69 78.31 98.9 81.32 97.17 84.48 98.96" style="fill:#fff"/><polygon points="91.23 95.03 85.65 98.29 82.48 96.45 88.15 93.22 91.23 95.03" style="fill:#fff"/><polygon points="59.95 123.63 56.92 125.4 53.78 123.57 56.83 121.85 59.95 123.63" style="fill:#fff"/><polygon points="58.02 121.17 61.1 122.96 89.39 106.64 86.25 104.83 58.02 121.17" style="fill:#fff"/><polygon points="93.56 104.21 90.6 105.95 87.46 104.16 90.5 102.39 93.56 104.21" style="fill:#fff"/><polygon points="100.38 100.29 94.75 103.56 91.67 101.72 97.24 98.48 100.38 100.29" style="fill:#fff"/><polygon points="108.46 81.52 105.28 83.31 102.16 81.54 105.32 79.67 108.46 81.52" style="fill:#fff"/><polygon points="112.82 78.95 109.7 80.77 106.56 78.97 109.7 77.15 112.82 78.95" style="fill:#fff"/><polygon points="117.25 76.42 114.06 78.23 110.94 76.42 114.09 74.63 117.25 76.42" style="fill:#fff"/><polygon points="121.63 73.88 118.46 75.69 115.33 73.9 118.49 72.08 121.63 73.88" style="fill:#fff"/><polygon points="112.44 83.79 109.27 85.62 106.18 83.81 109.31 81.97 112.44 83.79" style="fill:#fff"/><polygon points="116.86 81.28 113.69 83.12 110.55 81.28 113.72 79.45 116.86 81.28" style="fill:#fff"/><polygon points="121.25 78.74 118.08 80.55 114.96 78.74 118.12 76.94 121.25 78.74" style="fill:#fff"/><polygon points="125.62 76.2 122.45 78.02 119.36 76.2 122.48 74.39 125.62 76.2" style="fill:#fff"/><polygon points="116.43 86.13 113.29 87.92 110.21 86.13 113.33 84.31 116.43 86.13" style="fill:#fff"/><polygon points="120.88 83.58 117.71 85.41 114.56 83.61 117.74 81.81 120.88 83.58" style="fill:#fff"/><polygon points="125.23 81.03 122.07 82.86 118.95 81.08 122.11 79.26 125.23 81.03" style="fill:#fff"/><polygon points="124.97 85.93 117.44 90.33 114.34 88.49 121.86 84.16 124.97 85.93" style="fill:#fff"/><polygon points="129.33 83.43 126.21 85.26 123.07 83.44 126.25 81.62 129.33 83.43" style="fill:#fff"/><polygon points="133.73 80.89 130.6 82.71 123.35 78.53 126.5 76.71 133.73 80.89" style="fill:#fff"/><polygon points="92.56 89.09 89.36 90.92 86.22 89.12 89.42 87.28 92.56 89.09" style="fill:#fff"/><polygon points="96.96 86.52 93.8 88.38 90.7 86.55 93.84 84.72 96.96 86.52" style="fill:#fff"/><polygon points="101.39 83.97 98.21 85.82 95.11 84.02 98.27 82.17 101.39 83.97" style="fill:#fff"/><polygon points="96.65 91.47 93.51 93.31 90.39 91.49 93.56 89.64 96.65 91.47" style="fill:#fff"/><polygon points="101.07 88.91 97.93 90.74 94.78 88.94 97.99 87.09 101.07 88.91" style="fill:#fff"/><polygon points="105.53 86.37 102.34 88.21 99.23 86.4 102.41 84.55 105.53 86.37" style="fill:#fff"/><polygon points="106.25 91.88 103.06 93.73 99.92 91.9 103.12 90.09 106.25 91.88" style="fill:#fff"/><polygon points="105.94 96.82 102.73 98.66 99.61 96.85 102.82 95.02 105.94 96.82" style="fill:#fff"/><polygon points="110.35 94.24 107.18 96.1 104.04 94.3 107.21 92.47 110.35 94.24" style="fill:#fff"/><polygon points="114.78 91.69 111.59 93.55 108.49 91.72 111.63 89.91 114.78 91.69" style="fill:#fff"/><path d="M55.47,75,12.26,99.71c-2.32,1.32-4.2.52-4.2-1.81V79.58c0-2.32,1.88-5.28,4.2-6.61L54.07,49.09c2.32-1.33,4.2-.52,4.2,1.8V70.62A5.74,5.74,0,0,1,55.47,75Z" style="fill:#f9be00"/><polygon points="8.69 99.76 11.16 102.23 12.27 100.17 8.69 99.76" style="fill:#f9be00"/><polygon points="57.59 48.98 59.97 51.36 56.79 52.75 57.59 48.98" style="fill:#f9be00"/><path d="M57.87,77.42,14.66,102.11c-2.32,1.32-4.2.52-4.2-1.81V82c0-2.32,1.88-5.28,4.2-6.61L56.47,51.49c2.32-1.33,4.2-.52,4.2,1.8V73A5.74,5.74,0,0,1,57.87,77.42Z" style="fill:url(#linear-gradient-2)"/><path d="M24.07,74h0c-5.16,3-9.34,9.52-9.34,14.67s4.18,7,9.34,4S33.4,83.19,33.4,78h0c0-5.15-4.18-6.94-9.33-4ZM29.42,85.4h0a.73.73,0,0,1-.43.34c-.81.12-2.56.49-3.11.6h0a.1.1,0,0,1-.13-.11V84.88h0a.35.35,0,0,1,.09-.22h0a4.35,4.35,0,0,0,1-2.61h0a.3.3,0,0,1,.09-.21h0a1.72,1.72,0,0,0,.38-1.08h0a.59.59,0,0,0-.32-.64h0c-.06,0-.08-.08-.06-.17h0a5.5,5.5,0,0,0,.28-2.53c-.22-.75-1.46-.43-2.61.23a6.1,6.1,0,0,0-2.49,2.41h0a.37.37,0,0,1-.18.19h0a1.92,1.92,0,0,0-.75.7,2.69,2.69,0,0,0,0,2.29h0a.3.3,0,0,1-.07.24h0a1.76,1.76,0,0,0-.32,1h0c0,.35.11.59.38.65h0a.09.09,0,0,1,.09.1h0c0,.82.36,1.36,1,1.45h0a.1.1,0,0,1,.1.11v1.36h0a.36.36,0,0,1-.13.25c-.54.51-2.27,2.13-3.1,3h0a.43.43,0,0,1-.43.16h0C15.9,90.18,16,85.44,19,80.93s7.63-7.07,10.45-5.73,2.73,5.79,0,10.2Z" style="fill:#fff"/><polygon points="56.79 59.39 37.24 70.56 37.24 67.69 56.79 56.53 56.79 59.39" style="fill:#fff;opacity:0.5"/><polygon points="50.11 68.15 37.24 75.5 37.24 72.64 50.11 65.28 50.11 68.15" style="fill:#fff;opacity:0.5"/><polygon points="50.11 73.09 37.24 80.45 37.24 77.58 50.11 70.23 50.11 73.09" style="fill:#fff;opacity:0.5"/><path d="M90.42,54.85,70,66.37c-2.32,1.32-4.2.52-4.2-1.81V46.24c0-2.32,1.88-5.28,4.2-6.61L89,28.91c2.33-1.32,4.21-.52,4.21,1.81V50.44A5.8,5.8,0,0,1,90.42,54.85Z" style="fill:#00add8"/><polygon points="66.41 66.39 68.82 68.8 69.97 66.76 66.41 66.39" style="fill:#00add8"/><polygon points="92.53 28.8 94.94 31.21 91.76 32.6 92.53 28.8" style="fill:#00add8"/><path d="M92.82,57.25,72.41,68.77c-2.32,1.32-4.2.52-4.2-1.81V48.64c0-2.32,1.88-5.28,4.2-6.61l19-10.72c2.33-1.32,4.21-.52,4.21,1.81V52.84A5.8,5.8,0,0,1,92.82,57.25Z" style="fill:url(#linear-gradient-3)"/><path d="M81.81,40.69h0c-5.15,3-9.33,9.51-9.33,14.67s4.18,7,9.33,4,9.34-9.51,9.34-14.67h0c0-5.15-4.18-6.94-9.34-4Zm5.36,11.37h0a.77.77,0,0,1-.44.34c-.8.12-2.55.49-3.11.6h0a.11.11,0,0,1-.13-.11V51.54h0a.36.36,0,0,1,.1-.22h0a4.27,4.27,0,0,0,1-2.61h0a.37.37,0,0,1,.1-.21h0a1.7,1.7,0,0,0,.37-1.08h0a.59.59,0,0,0-.31-.64h0c-.06,0-.09-.08-.06-.17h0A5.51,5.51,0,0,0,85,44.08c-.22-.75-1.47-.43-2.61.23a6,6,0,0,0-2.49,2.41h0a.42.42,0,0,1-.18.19h0a1.92,1.92,0,0,0-.75.7,2.69,2.69,0,0,0,0,2.29h0a.3.3,0,0,1-.07.24h0a1.69,1.69,0,0,0-.32,1h0c0,.35.11.59.38.64h0a.11.11,0,0,1,.09.11h0c0,.82.35,1.36,1,1.45h0c.06,0,.09,0,.09.11v1.36h0a.39.39,0,0,1-.12.25c-.54.51-2.27,2.13-3.1,3h0a.43.43,0,0,1-.43.16h0c-2.82-1.34-2.72-6.08.24-10.59s7.63-7.07,10.45-5.73,2.72,5.79,0,10.2Z" style="fill:#fff"/><path d="M125.22,34.45,104.81,46c-2.32,1.32-4.2.52-4.2-1.81V25.84c0-2.32,1.88-5.28,4.2-6.61l19-10.72C126.14,7.19,128,8,128,10.32V30A5.8,5.8,0,0,1,125.22,34.45Z" style="fill:#ff5b35"/><polygon points="101.27 46.05 103.63 48.41 104.77 46.36 101.27 46.05" style="fill:#ff5b35"/><polygon points="127.2 8.28 129.61 10.69 126.43 12.08 127.2 8.28" style="fill:#ff5b35"/><path d="M127.62,36.85,107.21,48.37c-2.32,1.32-4.2.52-4.2-1.81V28.24c0-2.32,1.88-5.28,4.2-6.61l19-10.72c2.33-1.32,4.21-.52,4.21,1.81V32.44A5.8,5.8,0,0,1,127.62,36.85Z" style="fill:url(#linear-gradient-4)"/><path d="M116.61,20.29h0c-5.15,2.95-9.33,9.51-9.33,14.67s4.18,6.95,9.33,4S126,29.45,126,24.29h0c0-5.15-4.18-6.94-9.34-4ZM122,31.66h0a.77.77,0,0,1-.44.34c-.8.12-2.55.49-3.11.6h0a.11.11,0,0,1-.13-.11V31.14h0a.36.36,0,0,1,.1-.22h0a4.27,4.27,0,0,0,1-2.61h0a.37.37,0,0,1,.1-.21h0a1.7,1.7,0,0,0,.37-1.08h0a.59.59,0,0,0-.31-.64h0c-.06,0-.09-.08-.06-.17h0a5.51,5.51,0,0,0,.28-2.53c-.22-.75-1.47-.43-2.61.23a6,6,0,0,0-2.49,2.41h0a.42.42,0,0,1-.18.19h0a1.92,1.92,0,0,0-.75.7,2.69,2.69,0,0,0,0,2.29h0a.3.3,0,0,1-.07.24h0a1.69,1.69,0,0,0-.32,1h0c0,.35.11.59.38.64h0a.11.11,0,0,1,.09.11h0c0,.82.35,1.36,1,1.45h0c.06,0,.09,0,.09.11v1.36h0a.39.39,0,0,1-.12.25c-.54.51-2.27,2.13-3.1,2.95h0a.43.43,0,0,1-.43.16h0c-2.82-1.34-2.72-6.08.24-10.59s7.63-7.07,10.45-5.73,2.72,5.79,0,10.2Z" style="fill:#fff"/></g></g></svg>