<svg xmlns="http://www.w3.org/2000/svg" xmlns:xlink="http://www.w3.org/1999/xlink" viewBox="0 0 699.2 280.03"><defs><linearGradient id="linear-gradient" x1="349.63" y1="205.83" x2="349.63" y2="150.8" gradientUnits="userSpaceOnUse"><stop offset="0" stop-color="#c1c7cf"/><stop offset="0.23" stop-color="#dadde2"/><stop offset="0.49" stop-color="#eef0f2"/><stop offset="0.75" stop-color="#fbfbfc"/><stop offset="1" stop-color="#fff"/></linearGradient><linearGradient id="linear-gradient-2" x1="340.74" y1="166.49" x2="362.53" y2="166.49" gradientTransform="translate(433.74 -213.8) rotate(76.85)" gradientUnits="userSpaceOnUse"><stop offset="0" stop-color="#e9ebee"/><stop offset="0.75" stop-color="#e9ebee" stop-opacity="0.98"/><stop offset="1" stop-color="#f7f8f9" stop-opacity="0.3"/></linearGradient><linearGradient id="linear-gradient-3" x1="355.53" y1="167.28" x2="359.62" y2="167.28" gradientUnits="userSpaceOnUse"><stop offset="0" stop-color="#344b5b"/><stop offset="1" stop-color="#263746"/></linearGradient><linearGradient id="linear-gradient-4" x1="343.07" y1="161.18" x2="350.51" y2="161.18" xlink:href="#linear-gradient-3"/><linearGradient id="linear-gradient-5" x1="1364.86" y1="131.54" x2="1358.82" y2="151.05" gradientTransform="matrix(-1, 0, 0, 1, 1710.87, 0)" xlink:href="#linear-gradient-3"/><linearGradient id="linear-gradient-6" x1="1361.37" y1="132.74" x2="1350.13" y2="155.35" gradientTransform="matrix(-1, 0, 0, 1, 1710.87, 0)" xlink:href="#linear-gradient-3"/><linearGradient id="linear-gradient-7" x1="339.52" y1="111.71" x2="349.61" y2="111.71" gradientUnits="userSpaceOnUse"><stop offset="0" stop-color="#334048"/><stop offset="1" stop-color="#272f37"/></linearGradient><linearGradient id="linear-gradient-8" x1="1358.03" y1="108.37" x2="1361.54" y2="126.33" gradientTransform="matrix(-1, 0, 0, 1, 1710.87, 0)" xlink:href="#linear-gradient-3"/><linearGradient id="linear-gradient-9" x1="1362.28" y1="127.25" x2="1361.92" y2="128.48" gradientTransform="matrix(-1, 0, 0, 1, 1710.87, 0)" gradientUnits="userSpaceOnUse"><stop offset="0" stop-color="#edad8f"/><stop offset="1" stop-color="#efb38e"/></linearGradient><linearGradient id="linear-gradient-10" x1="1352.08" y1="109.07" x2="1356.07" y2="128.5" gradientTransform="matrix(-1, 0, 0, 1, 1710.87, 0)" xlink:href="#linear-gradient-3"/><linearGradient id="linear-gradient-11" x1="1359.85" y1="103.14" x2="1358.81" y2="104.3" gradientTransform="matrix(-1, 0, 0, 1, 1710.87, 0)" gradientUnits="userSpaceOnUse"><stop offset="0" stop-color="#ea996d"/><stop offset="1" stop-color="#efb38e"/></linearGradient><linearGradient id="linear-gradient-12" x1="1363.32" y1="99.74" x2="1362.04" y2="102.89" gradientTransform="matrix(-1, 0, 0, 1, 1710.87, 0)" gradientUnits="userSpaceOnUse"><stop offset="0" stop-color="#ea996d" stop-opacity="0.3"/><stop offset="1" stop-color="#efb38e"/></linearGradient><linearGradient id="linear-gradient-13" x1="345.1" y1="97.86" x2="354.5" y2="97.86" xlink:href="#linear-gradient-3"/><linearGradient id="linear-gradient-14" x1="1367.28" y1="110.53" x2="1369.49" y2="118.8" gradientTransform="matrix(-1, 0, 0, 1, 1710.87, 0)" xlink:href="#linear-gradient-3"/><linearGradient id="linear-gradient-15" x1="344.96" y1="107.87" x2="347.33" y2="107.87" gradientTransform="matrix(1, 0, 0, 1, 0, 0)" xlink:href="#linear-gradient-11"/><linearGradient id="linear-gradient-16" x1="255.09" y1="168.33" x2="295.37" y2="168.33" gradientUnits="userSpaceOnUse"><stop offset="0" stop-color="#9089d5"/><stop offset="1" stop-color="#675dc6"/></linearGradient><linearGradient id="linear-gradient-17" x1="403.89" y1="168.33" x2="444.17" y2="168.33" gradientUnits="userSpaceOnUse"><stop offset="0" stop-color="#f7d47c"/><stop offset="1" stop-color="#f9be00"/></linearGradient><linearGradient id="linear-gradient-18" x1="289.89" y1="128.93" x2="330.17" y2="128.93" gradientUnits="userSpaceOnUse"><stop offset="0" stop-color="#ff876c"/><stop offset="1" stop-color="#ff5b35"/></linearGradient><linearGradient id="linear-gradient-19" x1="289.89" y1="216.33" x2="330.17" y2="216.33" gradientUnits="userSpaceOnUse"><stop offset="0" stop-color="#f9ad5c"/><stop offset="1" stop-color="#f77f00"/></linearGradient><linearGradient id="linear-gradient-20" x1="369.09" y1="216.33" x2="409.37" y2="216.33" gradientUnits="userSpaceOnUse"><stop offset="0" stop-color="#73d2e9"/><stop offset="1" stop-color="#00add8"/></linearGradient><linearGradient id="linear-gradient-21" x1="369.09" y1="128.93" x2="409.37" y2="128.93" gradientUnits="userSpaceOnUse"><stop offset="0" stop-color="#afe259"/><stop offset="1" stop-color="#80bc19"/></linearGradient><linearGradient id="linear-gradient-22" x1="197.74" y1="222.95" x2="0" y2="222.95" gradientUnits="userSpaceOnUse"><stop offset="0.45" stop-color="#73d2e9"/><stop offset="0.55" stop-color="#00add8"/></linearGradient><linearGradient id="linear-gradient-23" x1="5340.68" y1="176.34" x2="5330.8" y2="195.63" gradientTransform="translate(-5236.21)" xlink:href="#linear-gradient-3"/><linearGradient id="linear-gradient-24" x1="5342.81" y1="180.17" x2="5327.64" y2="197.23" gradientTransform="translate(-5236.21)" xlink:href="#linear-gradient-3"/><linearGradient id="linear-gradient-25" x1="85.1" y1="154.61" x2="107.16" y2="154.61" xlink:href="#linear-gradient-3"/><linearGradient id="linear-gradient-26" x1="5395.38" y1="1191.85" x2="5395.19" y2="1191.17" gradientTransform="translate(-5157.53 1789) rotate(-29.7)" xlink:href="#linear-gradient-11"/><linearGradient id="linear-gradient-27" x1="5390.75" y1="1195.24" x2="5381.51" y2="1189.97" gradientTransform="translate(-5157.53 1789) rotate(-29.7)" xlink:href="#linear-gradient-20"/><linearGradient id="linear-gradient-28" x1="5337.2" y1="151.25" x2="5337.2" y2="165.47" gradientTransform="translate(-5236.21)" xlink:href="#linear-gradient-20"/><linearGradient id="linear-gradient-29" x1="5341.43" y1="170.14" x2="5341.47" y2="171.66" gradientTransform="translate(-5236.21)" gradientUnits="userSpaceOnUse"><stop offset="0" stop-color="#efb38e"/><stop offset="1" stop-color="#ea996d"/></linearGradient><linearGradient id="linear-gradient-30" x1="5334.85" y1="155.74" x2="5334.85" y2="165.88" gradientTransform="translate(-5236.21)" xlink:href="#linear-gradient-20"/><linearGradient id="linear-gradient-31" x1="5337.39" y1="153.29" x2="5337.18" y2="154.32" gradientTransform="translate(-5236.21)" xlink:href="#linear-gradient-11"/><linearGradient id="linear-gradient-32" x1="99.33" y1="150.11" x2="105.15" y2="150.11" gradientTransform="matrix(1, 0, 0, 1, 0, 0)" xlink:href="#linear-gradient-11"/><linearGradient id="linear-gradient-33" x1="149.36" y1="210.67" x2="48.79" y2="210.67" gradientTransform="matrix(1, 0, 0, 1, 0, 0)" xlink:href="#linear-gradient-2"/><linearGradient id="linear-gradient-34" x1="158.73" y1="199.33" x2="58.16" y2="199.33" gradientUnits="userSpaceOnUse"><stop offset="0" stop-color="#dee1e8"/><stop offset="1" stop-color="#c1c7ce"/></linearGradient><linearGradient id="linear-gradient-35" x1="121.02" y1="158.26" x2="129.88" y2="173.61" xlink:href="#linear-gradient-34"/><linearGradient id="linear-gradient-36" x1="74.4" y1="89.79" x2="272.14" y2="89.79" gradientUnits="userSpaceOnUse"><stop offset="0.45" stop-color="#f9be00"/><stop offset="0.55" stop-color="#facf45"/></linearGradient><linearGradient id="linear-gradient-37" x1="198.33" y1="102.73" x2="198.33" y2="53.57" gradientUnits="userSpaceOnUse"><stop offset="0" stop-color="#e9ebee" stop-opacity="0.3"/><stop offset="1" stop-color="#f7f8f9"/></linearGradient><linearGradient id="linear-gradient-38" x1="177.75" y1="17.81" x2="180.49" y2="22.7" gradientUnits="userSpaceOnUse"><stop offset="0" stop-color="#facf45"/><stop offset="1" stop-color="#f9be00"/></linearGradient><linearGradient id="linear-gradient-39" x1="187.63" y1="19.61" x2="186.66" y2="17.78" gradientTransform="matrix(1, 0, 0, 1, 0, 0)" xlink:href="#linear-gradient-11"/><linearGradient id="linear-gradient-40" x1="171.39" y1="39.96" x2="165.06" y2="60.41" xlink:href="#linear-gradient-3"/><linearGradient id="linear-gradient-41" x1="167.73" y1="41.22" x2="155.95" y2="64.91" xlink:href="#linear-gradient-3"/><linearGradient id="linear-gradient-42" x1="164.23" y1="15.68" x2="167.91" y2="34.5" xlink:href="#linear-gradient-38"/><linearGradient id="linear-gradient-43" x1="163.06" y1="35.64" x2="163.06" y2="38.44" gradientTransform="matrix(1, 0, 0, 1, 0, 0)" xlink:href="#linear-gradient-11"/><linearGradient id="linear-gradient-44" x1="156.4" y1="19.33" x2="158.58" y2="35.25" xlink:href="#linear-gradient-38"/><linearGradient id="linear-gradient-45" x1="166.13" y1="10.19" x2="165.05" y2="11.4" gradientTransform="matrix(1, 0, 0, 1, 0, 0)" xlink:href="#linear-gradient-11"/><linearGradient id="linear-gradient-46" x1="169.77" y1="6.63" x2="168.43" y2="9.94" gradientTransform="matrix(1, 0, 0, 1, 0, 0)" xlink:href="#linear-gradient-12"/><linearGradient id="linear-gradient-47" x1="162.49" y1="4.66" x2="172.34" y2="4.66" xlink:href="#linear-gradient-3"/><linearGradient id="linear-gradient-48" x1="161.76" y1="107.81" x2="161.76" y2="55.95" xlink:href="#linear-gradient-34"/><linearGradient id="linear-gradient-49" x1="216.23" y1="79.74" x2="216.23" y2="31.65" xlink:href="#linear-gradient-34"/><linearGradient id="linear-gradient-50" x1="187.6" y1="25.42" x2="197.97" y2="43.39" xlink:href="#linear-gradient-34"/><linearGradient id="linear-gradient-51" x1="145.33" y1="71.63" x2="118.69" y2="71.63" gradientUnits="userSpaceOnUse"><stop offset="0.3" stop-color="#e9ebee" stop-opacity="0.4"/><stop offset="1" stop-color="#f7f8f9" stop-opacity="0.2"/></linearGradient><linearGradient id="linear-gradient-52" x1="427.2" y1="89.79" x2="624.94" y2="89.79" gradientUnits="userSpaceOnUse"><stop offset="0.45" stop-color="#827ad0"/><stop offset="0.55" stop-color="#675dc6"/></linearGradient><linearGradient id="linear-gradient-53" x1="489.59" y1="75.12" x2="555.56" y2="75.12" gradientUnits="userSpaceOnUse"><stop offset="0.45" stop-color="#dee1e8"/><stop offset="0.55" stop-color="#ccd0d7"/></linearGradient><linearGradient id="linear-gradient-54" x1="493.55" y1="91.15" x2="504.93" y2="91.15" xlink:href="#linear-gradient-3"/><linearGradient id="linear-gradient-55" x1="502.28" y1="93.96" x2="512.68" y2="93.96" xlink:href="#linear-gradient-3"/><linearGradient id="linear-gradient-56" x1="1221" y1="66.46" x2="1211.02" y2="75.28" gradientTransform="matrix(-1, 0, 0, 1, 1723.86, 0)" xlink:href="#linear-gradient-3"/><linearGradient id="linear-gradient-57" x1="1213.69" y1="69.04" x2="1203.71" y2="77.86" gradientTransform="matrix(-1, 0, 0, 1, 1723.86, 0)" xlink:href="#linear-gradient-3"/><linearGradient id="linear-gradient-58" x1="2097.91" y1="-623.18" x2="2097.98" y2="-611.16" gradientTransform="matrix(-0.35, 0.45, 0.37, 0.3, 1493.72, -689.26)" xlink:href="#linear-gradient-3"/><linearGradient id="linear-gradient-59" x1="1213.2" y1="42.81" x2="1211.55" y2="46.38" gradientTransform="matrix(-1, 0, 0, 1, 1723.86, 0)" xlink:href="#linear-gradient-16"/><linearGradient id="linear-gradient-60" x1="1206.71" y1="40.63" x2="1206.71" y2="57.51" gradientTransform="matrix(-1, 0, 0, 1, 1723.86, 0)" xlink:href="#linear-gradient-16"/><linearGradient id="linear-gradient-61" x1="506.48" y1="53.39" x2="501.39" y2="62.2" xlink:href="#linear-gradient-34"/><linearGradient id="linear-gradient-62" x1="511.44" y1="32.65" x2="517.77" y2="32.65" gradientTransform="matrix(1, 0, 0, 1, 0, 0)" xlink:href="#linear-gradient-11"/><linearGradient id="linear-gradient-63" x1="1210.45" y1="24.76" x2="1207.09" y2="29.87" gradientTransform="matrix(-1, 0, 0, 1, 1723.86, 0)" xlink:href="#linear-gradient-3"/><linearGradient id="linear-gradient-64" x1="1211.77" y1="21.36" x2="1210.71" y2="29.23" gradientTransform="matrix(-1, 0, 0, 1, 1723.86, 0)" xlink:href="#linear-gradient-3"/><linearGradient id="linear-gradient-65" x1="1200.16" y1="41.39" x2="1200.16" y2="54.23" gradientTransform="matrix(-1, 0, 0, 1, 1723.86, 0)" xlink:href="#linear-gradient-16"/><linearGradient id="linear-gradient-66" x1="501.46" y1="222.95" x2="699.2" y2="222.95" gradientUnits="userSpaceOnUse"><stop offset="0.45" stop-color="#ff7859"/><stop offset="0.55" stop-color="#ff5b35"/></linearGradient><linearGradient id="linear-gradient-67" x1="1491.51" y1="183.03" x2="1495.24" y2="189.41" gradientTransform="matrix(-1, 0, 0, 1, 2112.23, 0)" gradientUnits="userSpaceOnUse"><stop offset="0" stop-color="#e78f7e"/><stop offset="1" stop-color="#eca99d"/></linearGradient><linearGradient id="linear-gradient-68" x1="1491.32" y1="188.72" x2="1485.6" y2="185.61" gradientTransform="matrix(-1, 0, 0, 1, 2112.23, 0)" gradientUnits="userSpaceOnUse"><stop offset="0" stop-color="#f0b9a3"/><stop offset="1" stop-color="#eca99d"/></linearGradient><linearGradient id="linear-gradient-69" x1="1495.61" y1="173.83" x2="1488.2" y2="177.09" gradientTransform="matrix(-1, 0, 0, 1, 2112.23, 0)" xlink:href="#linear-gradient-3"/><linearGradient id="linear-gradient-70" x1="1487.19" y1="144.42" x2="1485.18" y2="152.07" gradientTransform="matrix(-1, 0, 0, 1, 2112.23, 0)" xlink:href="#linear-gradient-3"/><linearGradient id="linear-gradient-71" x1="1491.88" y1="144.62" x2="1490.02" y2="149.05" gradientTransform="matrix(-1, 0, 0, 1, 2112.23, 0)" xlink:href="#linear-gradient-3"/><linearGradient id="linear-gradient-72" x1="1508.96" y1="157.09" x2="1508.78" y2="156.42" gradientTransform="matrix(-1, 0, 0, 1, 2112.23, 0)" xlink:href="#linear-gradient-11"/><linearGradient id="linear-gradient-73" x1="1500.17" y1="162.14" x2="1500.17" y2="155.06" gradientTransform="matrix(-1, 0, 0, 1, 2112.23, 0)" xlink:href="#linear-gradient-18"/><linearGradient id="linear-gradient-74" x1="1491.35" y1="155.53" x2="1491.35" y2="172.39" gradientTransform="matrix(-1, 0, 0, 1, 2112.23, 0)" xlink:href="#linear-gradient-18"/><linearGradient id="linear-gradient-75" x1="1491.54" y1="150.88" x2="1491.34" y2="151.89" gradientTransform="matrix(-1, 0, 0, 1, 2112.23, 0)" xlink:href="#linear-gradient-11"/><linearGradient id="linear-gradient-76" x1="616.82" y1="147.77" x2="622.49" y2="147.77" gradientTransform="matrix(1, 0, 0, 1, 0, 0)" xlink:href="#linear-gradient-29"/><linearGradient id="linear-gradient-77" x1="1487.36" y1="170.09" x2="1487.04" y2="170.53" gradientTransform="matrix(-1, 0, 0, 1, 2112.23, 0)" xlink:href="#linear-gradient-29"/><linearGradient id="linear-gradient-78" x1="1483.63" y1="156.15" x2="1483.63" y2="165.25" gradientTransform="matrix(-1, 0, 0, 1, 2112.23, 0)" xlink:href="#linear-gradient-18"/><linearGradient id="linear-gradient-79" x1="576.72" y1="191.78" x2="614.63" y2="191.78" gradientUnits="userSpaceOnUse"><stop offset="0" stop-color="#e9ebee" stop-opacity="0.6"/><stop offset="0.37" stop-color="#f7f8f9" stop-opacity="0.1"/></linearGradient><linearGradient id="linear-gradient-80" x1="604.45" y1="216.05" x2="647.66" y2="216.05" gradientUnits="userSpaceOnUse"><stop offset="0" stop-color="#e9ebee"/><stop offset="0.75" stop-color="#e9ebee" stop-opacity="0.98"/><stop offset="1" stop-color="#f7f8f9" stop-opacity="0.3"/></linearGradient><linearGradient id="linear-gradient-81" x1="590.33" y1="210.76" x2="642.24" y2="210.76" xlink:href="#linear-gradient-34"/></defs><title>Asset 129</title><g style="isolation:isolate"><g id="Layer_2" data-name="Layer 2"><g id="Layer_1-2" data-name="Layer 1"><g id="_2" data-name="2"><path d="M407.83,140.89c32.11,18.55,32.11,48.62,0,67.15s-84.19,18.56-116.32,0-32.12-48.6,0-67.15S375.7,122.34,407.83,140.89Z" style="fill:none;stroke:#fff;stroke-miterlimit:10;stroke-width:2px"/><path d="M542.42,249.06l-18.3,10.57a8.51,8.51,0,0,1-8.51,0L416.68,202" style="fill:none;stroke:#fff;stroke-miterlimit:10;stroke-width:2px"/><path d="M156.6,248.87l18.62,10.76a8.51,8.51,0,0,0,8.51,0L282.67,202" style="fill:none;stroke:#fff;stroke-miterlimit:10;stroke-width:2px"/><line x1="226.68" y1="118.7" x2="279.82" y2="149.38" style="fill:none;stroke:#fff;stroke-miterlimit:10;stroke-width:2px"/><line x1="473.22" y1="118.37" x2="419.52" y2="149.38" style="fill:none;stroke:#fff;stroke-miterlimit:10;stroke-width:2px"/><path d="M383.32,158.86c18.61,10.75,18.61,28.17,0,38.91s-48.77,10.75-67.38,0-18.61-28.16,0-38.91S364.71,148.12,383.32,158.86Z" style="fill:url(#linear-gradient)"/><rect x="301.98" y="170.06" width="4.71" height="8.63" style="fill:#f2f3f5"/><rect x="392.57" y="169.49" width="4.71" height="9.2" style="fill:#f2f3f5"/><path d="M383.32,150.08c18.61,10.75,18.61,28.16,0,38.9s-48.77,10.75-67.38,0-18.61-28.15,0-38.9S364.71,139.33,383.32,150.08Z" style="fill:#fff"/><ellipse cx="351.63" cy="166.49" rx="6.27" ry="11.09" transform="translate(109.49 471.01) rotate(-76.85)" style="opacity:0.30000000000000004;fill:url(#linear-gradient-2)"/><path d="M358.59,162.54a6.21,6.21,0,0,0,.19,1,10.51,10.51,0,0,1,.49,1.54c.25,1.07-.1,2.5.24,4a1.63,1.63,0,0,1-.24,1.63,2.79,2.79,0,0,1-2.1,1.33,1.44,1.44,0,0,1-1-.49,2.42,2.42,0,0,1-.61-1.8,16.62,16.62,0,0,0,.16-2.07c0-.74-.17-1.15-.15-2s.09-2,.1-2.6Z" style="fill-rule:evenodd;fill:url(#linear-gradient-3)"/><path d="M350,158.13a5,5,0,0,1,.48,2.16c-.17.56-.57.79-1,1.17l-.31.07c-.77.42-1.05,1.88-1.77,2.55a5.46,5.46,0,0,1-2.5.91c-1.07.21-2.08-.09-1.8-.93.69-2.08,3.67-4.43,3.73-6.76Z" style="fill-rule:evenodd;fill:url(#linear-gradient-4)"/><path d="M345.56,143.3c.08,4,.95,11.45.82,15.38a2.62,2.62,0,0,0,3.72-.34c.41-3.62.89-8.76.94-10.74a15.41,15.41,0,0,0-.53-4.65c.59-4.37,3.11-10.32,2.51-14.43-.26-1.8-1.44-3.74-1.78-5.23-3,3.66-5.24,1.91-6.47,1.59,0,1.27-.09,1.1,0,2.43.14,4.49.35,9.3.59,14A6.85,6.85,0,0,0,345.56,143.3Z" style="fill-rule:evenodd;fill:url(#linear-gradient-5)"/><path d="M350.78,151.38c.14-1.57.24-2.93.26-3.78a15.41,15.41,0,0,0-.53-4.65c.59-4.37,3.11-10.32,2.51-14.43-.26-1.8-1.44-3.74-1.78-5.23-3,3.66-5.24,1.91-6.47,1.59v.37l3.89,2.88-1-.21c0,5.18.68,9.9.78,15a80,80,0,0,1,2.29,8.36Z" style="fill:#131719;fill-rule:evenodd;opacity:0.5"/><path d="M352.18,146.2c.72,4,2.81,13.66,3.31,17.59,1.28.72,3.18.47,3.63-.58,0-3.61,0-10.12-.27-12.1a25.09,25.09,0,0,0-1.47-5.68c.26-9.32,1.06-11.93-.2-16-.55-1.81-2-3.55-2.58-5-.8,1.22-2,3-4.67,2.74-.26,0-2.46-1.59-3.18-1.77.92,5.55,3.57,12.79,4.86,18.83A7.14,7.14,0,0,0,352.18,146.2Z" style="fill-rule:evenodd;fill:url(#linear-gradient-6)"/><path d="M340.77,119.45a1.72,1.72,0,0,1-1.23-1.91c.34-1.25,2.41-5,3.21-7,.39-1,1.07-3.58,2.26-5.22,1-1.37,2.19-1.92,3.72-1.21,2.48,1.15-.84,8.29-3.34,12.28C344.52,117.8,342.85,120.25,340.77,119.45Z" style="fill-rule:evenodd;fill:url(#linear-gradient-7)"/><path d="M348.07,103.7a2.28,2.28,0,0,0-.82.28c-2,1.09-2.64,4.29-3,7.1a42.63,42.63,0,0,0,0,6.69c.06,1.78-.17,3.42-.09,5.11,0,.49.22,1,.27,1.57a2.68,2.68,0,0,1,.13,1c1,3.74,10.26,4.05,11.61,1.51a8.73,8.73,0,0,1-.24-1.13c.88-.8.37-2.74.51-4.09A10.85,10.85,0,0,1,357,119c1.26-3.11,3-5.5,3.38-7.89.24-1.64-1.86-3.69-4.63-5.35S349.5,103.29,348.07,103.7Z" style="fill-rule:evenodd;fill:url(#linear-gradient-8)"/><path d="M344.48,124.53a1.91,1.91,0,0,1,.13,1c1,3.74,10.26,4.05,11.61,1.51a8.73,8.73,0,0,1-.24-1.13c.88-.8.37-2.74.51-4.09A10.85,10.85,0,0,1,357,119c1-2.5,2.36-4.54,3-6.49l-1.33-1.22-2.66-.8a17,17,0,0,0-1,4.16c-.23,1.74-.33,3.49-.64,5.25C354,124.59,353.31,127.76,344.48,124.53Z" style="fill:#263746;fill-rule:evenodd"/><path d="M349.79,129.68a.93.93,0,0,1-.25.15.24.24,0,0,1-.12,0l-3.43-2.3-.56-.5-4-3.31c-.11-.1-.34-.24-.35-.29s.23-.14.24-.15.14,0,.37.14l3.47,2c.22.13.29.16.36.25l4.25,3.82C349.82,129.56,349.84,129.64,349.79,129.68Z" style="fill:#ff5b35;fill-rule:evenodd"/><path d="M349.56,129.68s.09.23-.2.12l-3.6-2.14-.56-.5-3.93-3.46c-.25-.22-.34-.46.18-.15l3.47,2c.22.13.29.16.36.25Z" style="fill:#ff5b35;fill-rule:evenodd"/><path d="M351.77,124.79a4.94,4.94,0,0,1-.61.3.13.13,0,0,1,0-.06,1,1,0,0,1-.2.14l-.36.14a7.33,7.33,0,0,1-.91.14c-.36.06-1.22.18-1.58.27a9,9,0,0,0-1.51.92l.72.65a.89.89,0,0,1-.47.1c-.65-.07-2.34-.91-2.27-.57a5.62,5.62,0,0,0,.71,1.34,5.14,5.14,0,0,0,1.48,1.27,9.9,9.9,0,0,0,1.77.95c.47.14,2.05-1,2.35-1.34.94-1.12.56-1.7,1.51-2.15Z" style="fill-rule:evenodd;fill:url(#linear-gradient-9)"/><path d="M360.64,110.45c.66,2.86.23,7.5.53,10.84a1.93,1.93,0,0,1,0,.65.66.66,0,0,1,0,.14c-.06.73-.62,1.18-1.31,1.62-1.76,1.14-3.21,2.6-6.37,3.6a3.51,3.51,0,0,1-1,0c-.2.06-.45.2-.66.26a3.11,3.11,0,0,0-1.33-2.22c.21-.11.45-.29.67-.43a2.24,2.24,0,0,1,.41-.58,32.43,32.43,0,0,1,5.31-3.81c-.24-.83-.39-1.69-.56-2.34a38.3,38.3,0,0,1-.77-4c-.08-.52-.13-.79-.19-1.32C354.85,108.85,359.85,107,360.64,110.45Z" style="fill-rule:evenodd;fill:url(#linear-gradient-10)"/><path d="M349.42,105.52c0-.15-.07-.3-.1-.46-.09-.46,0-1.35-.1-2.4l4-1.68a17,17,0,0,0,.84,4.51c0,1.79-4.48,2.59-4.58.49A3.57,3.57,0,0,0,349.42,105.52Z" style="fill:#efb28e;fill-rule:evenodd"/><path d="M349.42,105.52c0-.15-.07-.3-.1-.46-.09-.46,0-1.35-.1-2.4l4-1.68a11,11,0,0,0,.09,1.29c.14,1.48-1.28,4-3.83,3.71A3.57,3.57,0,0,0,349.42,105.52Z" style="fill-rule:evenodd;fill:url(#linear-gradient-11)"/><path d="M349.19,105.42c.48-.32,1.82-1.13,2.25-1.45,1-.7.84-1.6,1.12-3a2.51,2.51,0,0,0,1.27-1.72,4.13,4.13,0,0,0-1.62-3.62,3.59,3.59,0,0,0-3.12-.64,4.16,4.16,0,0,0-3.35,4.2,1.39,1.39,0,0,0,.07.49,7,7,0,0,1,.21.73c.12.59-.28.8-.12,1.52a11.49,11.49,0,0,0,1.37,3.25A3.62,3.62,0,0,0,349.19,105.42Z" style="fill:#efb28e;fill-rule:evenodd"/><path d="M345.85,98.33a7.76,7.76,0,0,0-.11.86,1.39,1.39,0,0,0,.07.49,7,7,0,0,1,.21.73c.12.59-.28.8-.12,1.52a11.55,11.55,0,0,0,.62,1.82,2.11,2.11,0,0,0,3-.5,4.63,4.63,0,0,0,.29-4.62A5.61,5.61,0,0,1,345.85,98.33Z" style="fill-rule:evenodd;fill:url(#linear-gradient-12)"/><path d="M354.47,98.61a11.49,11.49,0,0,1-1.09,3.41c-.47.75-.27-.17-.51-.68s-.79-.43-1-.84a1.26,1.26,0,0,1-.43.8c-.14.08-.43.18-.44-.22,0-1.4-.7-1.5-.49-2.34.16-.63.12-.9,0-1.12-.46.06-.75.53-1.29.76a4.73,4.73,0,0,1-3.18-.3,1.73,1.73,0,0,1-.29-2.88A16.72,16.72,0,0,1,347.69,94a3.59,3.59,0,0,1,4.62.48C354.38,94.94,354.61,96.93,354.47,98.61Z" style="fill-rule:evenodd;fill:url(#linear-gradient-13)"/><path d="M352.27,99.79c.86-.39,1,.64.89,1.27-.06.44-.41.44-.51.79a.82.82,0,0,1-.67.66c-.55,0-.29-.8-.26-1.13C351.61,100.87,351.72,100,352.27,99.79Z" style="fill:#efb28e;fill-rule:evenodd"/><path d="M339.71,116.42a33,33,0,0,1,3.5-6.59h0c.83-1.33.91-1.76.86-2.19a3.55,3.55,0,0,1,.32-2.72,17.77,17.77,0,0,1,2-.87c.34-.12.6-.1,1.32.28s1.08.51.91.67l0,0-.9,1a1,1,0,0,1-.46.37l-.14.31c-.2.49.14,1.3-.26,2l-1.08,1.12c-1.11,2-1.34,4.21-1.94,6.36a3.73,3.73,0,0,1-2,2.26C340.41,118.9,339.66,117.79,339.71,116.42Z" style="fill:#efb28e;fill-rule:evenodd"/><path d="M340.09,114.65a21.83,21.83,0,0,1,2.78-4.81c.15-.17.46-.32.57-.5s.27-.46.38-.68a3.43,3.43,0,0,0,2.05,1.16,6.44,6.44,0,0,0-.3.72,7.93,7.93,0,0,0-.06,1c-.36,2-1,7.21-3.15,8a2.32,2.32,0,0,1-2.12-.08C339,118.4,339.61,115.81,340.09,114.65Z" style="fill-rule:evenodd;fill:url(#linear-gradient-14)"/><path d="M345.66,109.64c1.19-1.28.72-2.3,1.55-2.86l.12-.32-.06,0-1,.56c-.13.07-.22.15-.25.15s0,0,0,0c-.33-.15-.06-.86-.21-.88a1.16,1.16,0,0,1-.83-.23C345,107.25,346.34,108.31,345.66,109.64Z" style="fill-rule:evenodd;fill:url(#linear-gradient-15)"/><path d="M289.47,162.51c7.87,4.54,7.87,11.9,0,16.44s-20.61,4.55-28.48,0-7.87-11.9,0-16.44S281.61,158,289.47,162.51Z" style="fill:#675dc6"/><rect x="255.09" y="168.58" width="40.29" height="2.21" style="fill:#675dc6"/><path d="M289.47,160.11c7.87,4.54,7.87,11.9,0,16.44s-20.61,4.55-28.48,0-7.87-11.9,0-16.44S281.61,155.57,289.47,160.11Z" style="fill:url(#linear-gradient-16)"/><path d="M273.12,169h0c0,.35.41.61,1,.59l12.05-.5h0c.25,0,.46-.13.48-.27a.18.18,0,0,0-.07-.15h0l-.15-.1-11.55-6.67h0l-.19-.09h0a.69.69,0,0,0-.62.08.2.2,0,0,0-.1.15Z" style="fill:#fff"/><path d="M286.31,169.86h0a.17.17,0,0,0-.14-.05l-7.71.32h0c-.12,0-.23.07-.24.14l-.45,3.62h0c0,.21-.33.39-.69.41s-.65-.13-.63-.34v0l.45-3.62h0c0-.07-.08-.12-.2-.12h0l-2.65.11h0c-1.34.06-2.34-.52-2.25-1.29l.19-1.53h0c0-.07-.08-.13-.2-.12l-6.28.26h0c-.36,0-.63-.15-.6-.36s.34-.39.7-.4l6.27-.26h0c.12,0,.23-.07.24-.14l.55-4.45h0s0-.07-.09-.09h0a.25.25,0,0,0-.17,0l-8,4.62h0c-.73.43-.81,1.07-.17,1.44l11.55,6.67h0a2.76,2.76,0,0,0,2.48-.11l8-4.62h0C286.32,169.93,286.34,169.89,286.31,169.86Z" style="fill:#fff"/><path d="M438.27,162.51c7.87,4.54,7.87,11.9,0,16.44s-20.61,4.55-28.48,0-7.87-11.9,0-16.44S430.41,158,438.27,162.51Z" style="fill:#f9be00"/><rect x="403.89" y="168.58" width="40.29" height="2.21" style="fill:#f9be00"/><path d="M438.27,160.11c7.87,4.54,7.87,11.9,0,16.44s-20.61,4.55-28.48,0-7.87-11.9,0-16.44S430.41,155.57,438.27,160.11Z" style="fill:url(#linear-gradient-17)"/><path d="M436,165.08l-6.4-3.7h0a4.6,4.6,0,0,0-4.14.17h0l-13.31,7.69h0c-1.23.7-1.36,1.77-.3,2.39l6.41,3.69h0a4.57,4.57,0,0,0,4.14-.17l13.31-7.68h0C436.93,166.76,437.06,165.69,436,165.08Zm-13.41,8.48h0a.77.77,0,0,1-.69,0l-7-4.07h0c-.18-.1-.16-.28.05-.4h0l11.46-6.61h0a.74.74,0,0,1,.69,0l7,4.06h0c.18.11.16.28,0,.4Z" style="fill:#fff"/><path d="M423.9,165.78h0a1.53,1.53,0,0,0-1.38.05h0l-2.21,1.29h0c-.41.23-.46.59-.1.79a1.53,1.53,0,0,0,1.38,0l2.22-1.29h0C424.21,166.34,424.26,166,423.9,165.78Z" style="fill:#fff"/><path d="M428.39,168.37h0a1.53,1.53,0,0,0-1.38,0h0l-2.22,1.28h0c-.41.24-.45.6-.1.8a1.53,1.53,0,0,0,1.38-.06l2.22-1.28h0C428.7,168.93,428.74,168.57,428.39,168.37Z" style="fill:#fff"/><path d="M428,166h0a1.57,1.57,0,0,0-1.38.06h0l-5.91,3.42h0c-.41.23-.45.59-.1.79a1.53,1.53,0,0,0,1.38-.05l5.92-3.42h0C428.3,166.57,428.35,166.21,428,166Z" style="fill:#fff"/><path d="M324.27,123.1c7.87,4.55,7.87,11.91,0,16.45s-20.61,4.54-28.48,0-7.87-11.9,0-16.45S316.41,118.56,324.27,123.1Z" style="fill:#ff5b35"/><rect x="289.89" y="129.12" width="40.29" height="2.21" style="fill:#ff5b35"/><path d="M324.27,120.7c7.87,4.55,7.87,11.91,0,16.45s-20.61,4.54-28.48,0-7.87-11.9,0-16.45S316.41,116.16,324.27,120.7Z" style="fill:url(#linear-gradient-18)"/><path d="M298.74,128.19c-.34-.19-.3-.54.1-.77l7.91-4.57a1.48,1.48,0,0,1,1.34,0l8.1,4.67c.34.2.3.55-.1.78l-7.91,4.56a1.48,1.48,0,0,1-1.34.06Z" style="fill:#fff"/><path d="M321.55,131h0a.33.33,0,0,0-.29-.18l-5.9-.91h0a.76.76,0,0,0-.49.08l-3.6,2.08h0c-.13.08-.19.19-.15.28l1.58,3.41h0c.07.14.33.2.58.15l.2-.08,7.91-4.57h0c.12-.07.18-.17.16-.26Z" style="fill:#fff"/><path d="M324.27,210.51c7.87,4.54,7.87,11.9,0,16.44s-20.61,4.55-28.48,0-7.87-11.9,0-16.44S316.41,206,324.27,210.51Z" style="fill:#f77f00"/><rect x="289.89" y="216.58" width="40.29" height="2.21" style="fill:#f77f00"/><path d="M324.27,208.11c7.87,4.54,7.87,11.9,0,16.44s-20.61,4.55-28.48,0-7.87-11.9,0-16.44S316.41,203.57,324.27,208.11Z" style="fill:url(#linear-gradient-19)"/><path d="M319.93,214h0l-5.36-3.09c-3-1.72-8.15-1.5-11.58.48s-3.8,5-.83,6.68l.57.34-3,1.7c-.22.13-.25.33,0,.44a.72.72,0,0,0,.38.07l5.88-.33,1.53.88c3,1.71,8.15,1.49,11.58-.48S322.9,215.69,319.93,214Zm-14.43,1.3c-.62-.36-.67-.73-.65-.86s0-.08.13-.11l.68-.13a.19.19,0,0,1,.2.07.87.87,0,0,0,.37.57.7.7,0,0,0,.66,0c.23-.14.24-.33.07-.61a.78.78,0,0,1,.29-1.23,2.28,2.28,0,0,1,2.2,0,1.18,1.18,0,0,1,.61.83c0,.05-.09.1-.15.12l-.67.1c-.09,0-.23,0-.23-.05a.89.89,0,0,0-.36-.59.66.66,0,0,0-.58,0c-.2.12-.21.29,0,.61a.79.79,0,0,1-.29,1.28A2.45,2.45,0,0,1,305.5,215.28Zm5.25,3-.56-.33c-.05,0,0-.07,0-.1l1.48-1.11h0l-2.58.56a.19.19,0,0,1-.15,0l-.08,0a.05.05,0,0,1,0-.08l1-1.49h0l-1.91.86a.23.23,0,0,1-.18,0l-.57-.33c-.05,0-.05-.08,0-.12l4.25-1.82a.17.17,0,0,1,.17,0l.08,0a.06.06,0,0,1,0,.08l-1.27,2h0l3.49-.74a.18.18,0,0,1,.13,0l.08,0a.06.06,0,0,1,0,.1L311,218.23A.2.2,0,0,1,310.75,218.25Zm1.55,1c-.62-.36-.67-.73-.65-.87s0-.08.13-.1l.68-.14a.18.18,0,0,1,.2.08.86.86,0,0,0,.37.56.67.67,0,0,0,.66,0c.23-.13.24-.33.07-.6a.79.79,0,0,1,.29-1.24,2.31,2.31,0,0,1,2.2,0,1.17,1.17,0,0,1,.61.82c0,.06-.09.11-.15.12L316,218c-.09,0-.23,0-.23-.06a.88.88,0,0,0-.36-.58.63.63,0,0,0-.58,0c-.2.12-.21.29,0,.61a.79.79,0,0,1-.29,1.28A2.48,2.48,0,0,1,312.3,219.21Z" style="fill:#fff"/><path d="M403.47,210.51c7.87,4.54,7.87,11.9,0,16.44s-20.61,4.55-28.48,0-7.87-11.9,0-16.44S395.61,206,403.47,210.51Z" style="fill:#00add8"/><rect x="369.09" y="216.53" width="40.29" height="2.21" style="fill:#00add8"/><path d="M403.47,208.11c7.87,4.54,7.87,11.9,0,16.44s-20.61,4.55-28.48,0-7.87-11.9,0-16.44S395.61,203.57,403.47,208.11Z" style="fill:url(#linear-gradient-20)"/><path d="M401.26,215.49l-11.92-6.88h0a2.11,2.11,0,0,0-1.92.08h0l-9.33,5.38h0c-.55.32-.6.81-.12,1.08h0l1.79,1L377,217.78h0c-.19.11-.22.28,0,.37a.52.52,0,0,0,.23.07l6.83.44,5.87,3.38h0a2.11,2.11,0,0,0,1.92-.08l9.29-5.36h0C401.69,216.27,401.75,215.77,401.26,215.49Zm-17.2-1.59h0a1.05,1.05,0,0,1,1,0l7.15,4.13h0c.25.14.21.39-.07.55a1.06,1.06,0,0,1-1,0L384,214.45h0c-.25-.14-.22-.39.07-.55Zm10.17,2.89-7.15-4.12h0c-.24-.15-.21-.4.07-.56a1.09,1.09,0,0,1,1,0l7.15,4.13h0c.25.14.22.39-.06.55A1,1,0,0,1,394.23,216.79Z" style="fill:#fff"/><path d="M403.47,123.1c7.87,4.55,7.87,11.91,0,16.45s-20.61,4.54-28.48,0-7.87-11.9,0-16.45S395.61,118.56,403.47,123.1Z" style="fill:#80bc19"/><rect x="369.09" y="129.01" width="40.29" height="2.21" style="fill:#91cb3e"/><path d="M403.47,120.7c7.87,4.55,7.87,11.91,0,16.45s-20.61,4.54-28.48,0-7.87-11.9,0-16.45S395.61,116.16,403.47,120.7Z" style="fill:url(#linear-gradient-21)"/><path d="M398.62,126.62h0l-5.36-3.09c-3-1.71-8.16-1.5-11.59.48s-3.8,5-.83,6.69l.58.33-2.95,1.71c-.23.13-.25.32-.06.43a.67.67,0,0,0,.38.08l5.89-.34,1.53.88c3,1.71,8.15,1.5,11.58-.48S401.59,128.34,398.62,126.62ZM386,128.91l-.56-.32a.07.07,0,0,1,0-.11l1.49-1.1h0l-2.59.57a.29.29,0,0,1-.14,0l-.09-.05a.06.06,0,0,1,0-.08l1-1.5h0l-1.91.86a.19.19,0,0,1-.18,0l-.56-.32c-.06,0,0-.09,0-.12l4.24-1.83a.2.2,0,0,1,.17,0l.08,0s.05,0,0,.08l-1.28,2h0l3.49-.73a.21.21,0,0,1,.14,0l.07,0s.05.07,0,.1l-3.16,2.45A.22.22,0,0,1,386,128.91Zm4.19,2.42-.56-.33a.06.06,0,0,1,0-.1l1.48-1.11h0l-2.59.57a.2.2,0,0,1-.14,0l-.09-.05a.05.05,0,0,1,0-.08l1-1.49h0l-1.91.86a.19.19,0,0,1-.18,0l-.57-.32c-.05,0-.05-.09,0-.13l4.24-1.82a.17.17,0,0,1,.17,0l.08,0a.06.06,0,0,1,0,.08l-1.27,2h0l3.49-.74a.18.18,0,0,1,.13,0l.08,0a.06.06,0,0,1,0,.1l-3.17,2.45A.2.2,0,0,1,390.19,131.33Zm1.55,1c-.62-.36-.66-.73-.65-.87s0-.08.13-.1l.69-.13c.11,0,.19,0,.19.07a.88.88,0,0,0,.38.57.7.7,0,0,0,.66,0c.23-.14.24-.34.06-.61a.79.79,0,0,1,.29-1.24,2.31,2.31,0,0,1,2.2,0,1.11,1.11,0,0,1,.61.82c0,.06-.09.11-.15.12l-.67.11c-.09,0-.23,0-.23-.06a.9.9,0,0,0-.35-.58.63.63,0,0,0-.58,0c-.21.12-.22.29,0,.61a.79.79,0,0,1-.29,1.28A2.48,2.48,0,0,1,391.74,132.29Z" style="fill:#fff"/><path d="M193.68,217.29c5.41,3.13,5.41,8.19,0,11.32l-85,49.08c-5.41,3.12-14.19,3.12-19.6,0l-85-49.08c-5.41-3.13-5.41-8.19,0-11.32l85-49.08c5.41-3.12,14.19-3.12,19.6,0Z" style="fill:url(#linear-gradient-22)"/><rect y="207.29" width="10.56" height="15.92" style="fill:#00add8"/><rect x="186.87" y="206.88" width="10.87" height="15.91" style="fill:#73d2e9"/><path d="M193.68,201.57c5.41,3.13,5.41,8.19,0,11.32l-85,49.08c-5.41,3.12-14.19,3.12-19.6,0l-85-49.08c-5.41-3.13-5.41-8.19,0-11.32l85-49.08c5.41-3.13,14.19-3.13,19.6,0Z" style="fill:#fff"/><path d="M134.87,258l-.27-.69-2,1.2-.26,1-1.35.81,1.83-6.49,1.57-.94,1.84,4.29Zm-1.91-.86,1.27-.76-.63-1.6Z" style="fill:#fff"/><path d="M138.83,250.24a2.1,2.1,0,0,1,1.87-.34,1.42,1.42,0,0,1,.75,1.47,4.59,4.59,0,0,1-.75,2.38,5.46,5.46,0,0,1-1.87,1.89l-2.16,1.29v-5.39Zm0,4.21a3,3,0,0,0,1-1,2.54,2.54,0,0,0,.4-1.34c0-.45-.13-.74-.4-.85a1.14,1.14,0,0,0-1,.2l-.92.56v3Z" style="fill:#fff"/><path d="M147.53,245v5.39l-1.23.74V248l-1.39,3.12-.14.09-1.4-1.46v3.14l-1.23.74v-5.39l1.23-.74,1.47,1.51,1.46-3.27Z" style="fill:#fff"/><path d="M148.45,244.47l1.24-.74v5.39l-1.24.74Z" style="fill:#fff"/><path d="M150.26,247.55l1.07-1.26c.21.38.59.4,1.13.07s.73-.58.73-.88-.08-.23-.24-.22a3.6,3.6,0,0,0-.88.21,2.36,2.36,0,0,1-1.09.15c-.32-.07-.49-.35-.49-.84a2.59,2.59,0,0,1,.53-1.51,4.12,4.12,0,0,1,1.28-1.22c.88-.53,1.58-.52,2,0l-1,1.23c-.19-.29-.46-.35-.93-.07a1.08,1.08,0,0,0-.58.76.22.22,0,0,0,.18.24,2.27,2.27,0,0,0,.79-.15l.5-.14a1.82,1.82,0,0,1,.45-.06.71.71,0,0,1,.41,0,.79.79,0,0,1,.37.78,2.67,2.67,0,0,1-.55,1.55,5,5,0,0,1-1.45,1.31C151.32,248.25,150.57,248.19,150.26,247.55Z" style="fill:#fff"/><path d="M154.61,244.94l1.07-1.26c.21.37.59.4,1.13.07s.73-.58.73-.88-.08-.24-.24-.22a3.17,3.17,0,0,0-.88.21,2.36,2.36,0,0,1-1.09.15c-.32-.07-.49-.35-.49-.84a2.59,2.59,0,0,1,.53-1.51,4.12,4.12,0,0,1,1.28-1.22c.88-.53,1.58-.52,2,0l-1,1.24c-.19-.3-.46-.35-.93-.07a1,1,0,0,0-.58.76.21.21,0,0,0,.18.23,2.18,2.18,0,0,0,.79-.14l.5-.14a1.82,1.82,0,0,1,.45-.06.63.63,0,0,1,.41.05.79.79,0,0,1,.37.78,2.69,2.69,0,0,1-.55,1.55,5,5,0,0,1-1.45,1.31C155.67,245.64,154.92,245.58,154.61,244.94Z" style="fill:#fff"/><path d="M159.35,237.93l1.23-.74v5.39l-1.23.74Z" style="fill:#fff"/><path d="M164.08,240.59a2.27,2.27,0,0,1-2,.38,1.41,1.41,0,0,1-.82-1.5,4.65,4.65,0,0,1,.82-2.49,6,6,0,0,1,2-2,2.26,2.26,0,0,1,2-.39,1.43,1.43,0,0,1,.82,1.51,4.68,4.68,0,0,1-.82,2.49A6.11,6.11,0,0,1,164.08,240.59Zm0-1.2a3.4,3.4,0,0,0,1.11-1.12,2.71,2.71,0,0,0,.46-1.43c0-.47-.16-.76-.46-.88a1.25,1.25,0,0,0-1.11.22A3.36,3.36,0,0,0,163,237.3a2.69,2.69,0,0,0-.45,1.43c0,.47.15.77.45.89A1.3,1.3,0,0,0,164.08,239.39Z" style="fill:#fff"/><path d="M170.57,231.19l1.24-.74v5.39l-.93.55-2.08-1.67v2.92l-1.23.74V233l.92-.56,2.08,1.68Z" style="fill:#fff"/><path d="M172.38,234.27l1.07-1.26c.21.38.59.4,1.13.07s.73-.58.73-.88-.08-.24-.24-.22a3.6,3.6,0,0,0-.88.21,2.36,2.36,0,0,1-1.09.15c-.32-.07-.49-.35-.49-.84a2.59,2.59,0,0,1,.53-1.51,4.12,4.12,0,0,1,1.28-1.22c.88-.53,1.58-.52,2,0l-1,1.24c-.19-.29-.46-.35-.93-.07a1.08,1.08,0,0,0-.58.76.21.21,0,0,0,.18.23,2,2,0,0,0,.79-.14l.5-.14a1.82,1.82,0,0,1,.45-.06.71.71,0,0,1,.41,0,.79.79,0,0,1,.37.78A2.67,2.67,0,0,1,176,233a5,5,0,0,1-1.45,1.31C173.44,235,172.69,234.91,172.38,234.27Z" style="fill:#fff"/><path d="M110.36,213.87,95.83,205.6c-1.58-.72-3.85-1.3-5.46-.46s-3.89,2.33-5,2.94c-.82.46-3.64,2.16-1.88,3.11,5.17,2.81,10.29,6,15.54,8.84a7.36,7.36,0,0,0,4,.6,10.36,10.36,0,0,0,4.31-1.28l2.57-1.5a3.13,3.13,0,0,0,1.81-2.17C111.78,215,111.33,214.32,110.36,213.87Z" style="fill:#666bab;fill-rule:evenodd;opacity:0.5"/><path d="M95.46,202.26a1.79,1.79,0,0,1-.18.9c-.85,1.22.16,1.12.11,2.86,0,.16.71,2.92.71,2.92s1.68.41,1.81.38,1.14-.41,1.14-.41c-.08-.15-.2-.52-.27-.65a11,11,0,0,1-.92-3.24,8.58,8.58,0,0,1-.2-2.73Z" style="fill:#eca89b;fill-rule:evenodd"/><path d="M99.11,208.89a8.46,8.46,0,0,1,.47,1.11.49.49,0,0,1,0,.45c-.38.55-2.43-.36-3.12-.94-.45-.37-.47-.82-.59-1.37-.19-.83-.22-.93-.45-1.78l-.14,2.34-.19.12a25.74,25.74,0,0,0-.39-3c-.07-.32-.18-.69-.2-.87a1.85,1.85,0,0,1,.85-1.9c-.15.65.42,1.68.68,3A3.46,3.46,0,0,0,99.11,208.89Z" style="fill:#272b63;fill-rule:evenodd"/><path d="M106.52,170.08c-.16.72.57,3.2.39,4.15-.18,3.14-.73,5.79-2.85,12.06,0,.07-1.93,3.91-2.06,4.31-1.31,4.09-3,8.53-4.34,12.66-.52.4-2.08.28-2.28-.69.43-4.13,0-8.2.66-11a11.85,11.85,0,0,1,2.41-4.73c.35-4.05.61-12.19,1.53-15.31Z" style="fill-rule:evenodd;fill:url(#linear-gradient-23)"/><path d="M106.52,170.08c-.16.72-.63,2-.82,3-.59,1.44-1.83,3.42-2.67,5.08a33.69,33.69,0,0,1-1.44,8.42l-1.13,8.62c-.94,2.7-1.92,5.44-2.8,8.06-.52.4-2.08.28-2.28-.69.43-4.13,0-8.2.66-11a11.85,11.85,0,0,1,2.41-4.73c.35-4.05.61-12.19,1.53-15.31Z" style="fill:#263746;fill-rule:evenodd"/><path d="M97.11,206.44a5.73,5.73,0,0,1-.18,1.15,13.13,13.13,0,0,0-.13,2,17.74,17.74,0,0,0,.46,3.65c.11.51.34.72.49,1.42l3,.49c-.29-1.13-.7-3.43-1-5.35l-.57-3.59Z" style="fill:#eca89b;fill-rule:evenodd"/><path d="M97,207.39a5.44,5.44,0,0,0-.4,1.74c0,.82.35,2.1.32,3.12l0,1.61a2.48,2.48,0,0,0,1.27,2.36c1,.7,1.91,1,2.42.74s.68-.85.1-2.6a31.29,31.29,0,0,1-.88-4.47,15.63,15.63,0,0,0,.51,3.6c.1.43.17,1.14-.34,1.21-2.09.3-2.2-.26-2.37-.9A20.81,20.81,0,0,1,97,207.39Z" style="fill:#272b63;fill-rule:evenodd"/><path d="M96.19,172.56c-2.33,2.91-2.39,4.52-1.88,8a74.36,74.36,0,0,1,1.19,9.28,37.53,37.53,0,0,0-.29,7.78c.21,2.42.89,6.58,1.41,9.51.48.91,2.76.52,3.14,0-.11-4.21-.05-7.1.16-10.5s.58-6.37.83-9.63c.21-2.7,1-6.37,1.14-9.28.43-1.38,4.54-5.93,3.69-5.87Z" style="fill-rule:evenodd;fill:url(#linear-gradient-24)"/><path d="M102.77,143.64a2.59,2.59,0,0,1,2.67,1.77,6.58,6.58,0,0,1,.29,3.9c-.79,2.89.61,4.15,1.13,5.5a6,6,0,0,1,.29,2.23c0,1-.63,1.57-1.13,2.5a8.31,8.31,0,0,1-.73,2.56c-1.37,2.74-6,4.07-10.41,3.87-3.55-.17-7-1.42-8.53-2.86s-1.92-5.6.94-6a2.93,2.93,0,0,0,2-.93c.39-.47,0-1.72-.08-3.39s.28-3.3,2.62-3.87a7.58,7.58,0,0,0,2.52-.79c1.63-1.08,1-3.07,2.81-4.24a5.82,5.82,0,0,1,4.67-.34Z" style="fill-rule:evenodd;fill:url(#linear-gradient-25)"/><path d="M103.82,145.16a2.94,2.94,0,0,1-.65,2.13c-1.09,1.54-1.66,1.42-2.26,3.38-1-.66-1.65-.76-1.94-.11-.45,1-.16,1.64-.27,2.71-.17,1.74-2.25-.64-3.88.69s-.5,2.23-1.12,4.08c-.23.69-.41,1.6-1.06,1.91-2,1-2.78,3.35.8,4.55a13.91,13.91,0,0,0,8.15-.37c3.55-1.21,5.75-6.46,4.84-8.95-.38-1-1.39-1.81-1.4-2.61C105,149.8,105.55,148,103.82,145.16Z" style="fill:#263746;fill-rule:evenodd"/><path d="M121,149.83c.52.24.15.83-.08,1s-1,.38-1,.71-2.1.8-2.09.77a3.66,3.66,0,0,1,1.15-1.51C120.16,150.2,120,150.65,121,149.83Z" style="fill-rule:evenodd;fill:url(#linear-gradient-26)"/><path d="M119,153.8c-1.37,1.39-2.69,4.26-4,5.49-.42.39-1.07,1.05-1.69.85-3.23-1-.05-1.89-.28-2.84.82-1.87,3.33-2.64,4.59-4.66a2.75,2.75,0,0,1,.24-.41c.51-.76.92-1,2.51-1a1.77,1.77,0,0,0,1-.34l1.16-.87c.37-.24.67-.28.8-.19a2.64,2.64,0,0,1,.41,1.4h0c0,.17-.19.45-.63.71l-1.5,1.59h-.11C120,153.5,119.41,153.55,119,153.8Z" style="fill:#efb28e;fill-rule:evenodd"/><path d="M112.7,160.73c-2.25-.53-5.48-1.34-7.12-2.49-1.07-.75-2.8-3.57-1.45-4.83.34-.63,2.36,1.06,3.39,1.62a43,43,0,0,0,5.07,2.33c.76-1.48,2.38-2.5,3.73-3.79a1.76,1.76,0,0,1,.71-.43,2.63,2.63,0,0,0,.44-.5,2.67,2.67,0,0,1,1.62,1.28c-.11.11-.34.35-.44.47s-.15.41-.28.62a32.25,32.25,0,0,1-3.66,4.8c-.47.42-1.16,1.19-1.84,1Z" style="fill-rule:evenodd;fill:url(#linear-gradient-27)"/><path d="M112.7,160.73c-2.25-.53-5.48-1.34-7.12-2.49-.93-.64-2.34-2.84-1.84-4.24.48-.34.77-.52,1.13-.46s.94.65,1.92,1.33c1.48,1,3,1.29,4,2.91a5.32,5.32,0,0,0,3.45,2.46,1.53,1.53,0,0,1-1.37.54Z" style="fill:#4cabd2;fill-rule:evenodd;opacity:0.75"/><path d="M96.47,166c1,2.42-.73,3.76-.09,5.42l-.2,1.13c1.9,1.36,8.71,1.46,10.42-1.25l0-1.35a6.5,6.5,0,0,0,0-2.71,33.53,33.53,0,0,1-.29-3.69c0-.4-.12-.65-.15-1.06a3.46,3.46,0,0,0,.52-4.64,11.26,11.26,0,0,1-1.18-2.08,10.13,10.13,0,0,0-.26-1.2,2.31,2.31,0,0,0-.32-.65c-.43-.62-1.13-.69-2.56-.36a15.53,15.53,0,0,0-7.06,3.51c-.94,1-.91,2.12-.36,4.54A25.63,25.63,0,0,0,96.47,166Z" style="fill-rule:evenodd;fill:url(#linear-gradient-28)"/><path d="M96.45,166c1,2.42-.69,3.79,0,5.46l-.2,1.11c1.91,1.48,8.72,1.41,10.43-1.3l0-1.18c0-.05-3.35,3-7.15,1.29-.83-.36-1.58-2.17-.51-5.63.11-.33,1.32-.35,3-1.61-1.27.53-3.66,1.27-3.78-2a6,6,0,0,0-1-3.53c-.36-.48-2.46,2.07-2.14,3.29A30.05,30.05,0,0,0,96.45,166Z" style="fill:#4cabd2;fill-rule:evenodd;opacity:0.75"/><rect x="98.22" y="163.88" width="10.45" height="8.08" rx="0.56" transform="translate(-81.04 237.66) rotate(-79.07)" style="fill:#fff"/><path d="M99.42,167.47l-.83,4.29a24.77,24.77,0,0,0,3.62.36c.23,0,.5-.22.75-.23,1.35.83,1.14.84,3.77.33l.69-3.54a15.88,15.88,0,0,0-3.9.51A10,10,0,0,0,99.42,167.47Z" style="fill:#131719;fill-rule:evenodd;opacity:0.05"/><path d="M107.47,169.17c.27.17.08.91,0,1.34a3.36,3.36,0,0,1-.38,1.22c-.33.37-1.57.32-2.39.34s-1.16-.62-1.67-.57c-.41-.64.07-1.41.36-2C104.6,169.73,106.64,168.82,107.47,169.17Z" style="fill-rule:evenodd;fill:url(#linear-gradient-29)"/><path d="M94.2,158.65c-.89,2.54-.28,6.45-.23,10.13a1.4,1.4,0,0,0,.8,1.36,4.82,4.82,0,0,0,.85.34,20.48,20.48,0,0,0,6.36,1.16,1.37,1.37,0,0,0,.63-.16c.19,0,.48.05.68.05-.3-.07-.18-1.75.28-2-.21,0-.43-.1-.65-.16a.79.79,0,0,0-.43-.28A44.21,44.21,0,0,0,97,167.37a32.51,32.51,0,0,0,1-5.46c.07-2-.49-4.36-1.89-4.66C95.14,157,94.53,157.69,94.2,158.65Z" style="fill-rule:evenodd;fill:url(#linear-gradient-30)"/><path d="M99.8,151.56a7.51,7.51,0,0,1-.28,3.64,2.27,2.27,0,0,0,3.26-.32c-.09-.55-.2-1.06-.26-1.63Z" style="fill:#efb28e;fill-rule:evenodd"/><path d="M99.8,151.56a7,7,0,0,1,.09,1.76c.3,1.21,2.57,2,2.8,1.06-.06-.37-.12-.73-.17-1.13Z" style="fill-rule:evenodd;fill:url(#linear-gradient-31)"/><path d="M104,146.28a4,4,0,0,1,.66,2.77,1.11,1.11,0,0,0,.1.66A2.62,2.62,0,0,1,105,152c-.22.84-.21,1.28-.5,1.56a1.62,1.62,0,0,1-1.1.39,6.58,6.58,0,0,1-2.83-.87c-.56-.31-.54-.52-.78-1.05-.8-.7-.28-1.2,0-1.25.76-.15.88.73,1.34.92C101,150.14,104,147.52,104,146.28Z" style="fill-rule:evenodd;fill:url(#linear-gradient-32)"/><path d="M104.36,146.9a4,4,0,0,1,.32,2.15,1.11,1.11,0,0,0,.1.66A2.62,2.62,0,0,1,105,152c-.1.38-.15.67-.21.91a.72.72,0,0,1-.89.26,1.41,1.41,0,0,1-.71-1.15c0-.44-1-.74-1.15-1.19s.26-.8.52-1A6.46,6.46,0,0,0,104.36,146.9Z" style="fill:#efb28e;fill-rule:evenodd"/><path d="M104,146.28c-.43,1.9-2.91,3.34-2.93,5.4C101.77,149.54,104.17,148.07,104,146.28Z" style="fill:#ea9b6e;fill-rule:evenodd"/><polygon points="133.23 174.38 133.23 153.98 141.96 157.06 133.23 174.38" style="fill:#e9ebee"/><path d="M138.62,181.64c14.33,8.27,14.33,21.68,0,30L100.67,233.5c-14.32,8.27-37.56,8.27-51.88,0l89.83-51.86Z" style="fill:url(#linear-gradient-33)"/><path d="M158.67,163.11l0-2.94A34.33,34.33,0,0,1,144.89,171a35.24,35.24,0,0,1-17.46,2.82l-27,15.57a34.6,34.6,0,0,1-5.06,5c-7.65,6.11-15.8,7.45-25.25,7.45a26.91,26.91,0,0,1-12-3.23v33.71c14.32,8.28,37.56,8.28,51.88,0l38-21.91c6.64-3.83,10.2-8.78,10.68-13.79v-7a45.08,45.08,0,0,1,0,4.65Z" style="fill:url(#linear-gradient-34)"/><path d="M158.73,161.39v.08a10.8,10.8,0,0,1-.19,1.69c-.84,4.67-4.35,9.2-10.55,12.77L110,197.84c-14,8.08-36.57,8.87-51,1.18-.36-.18-.58-.24-.92-.44l15.55-8.79.23,0a41.23,41.23,0,0,0,9.9-.16h0a44.09,44.09,0,0,0,15.61-4.38c1.5-.78,3.55-1.93,5.91-3.26,10.1-5.69,25.68-14.82,25.68-14.82,10.55-6.93,2.41-13,2.3-13.23L148,146C155.35,150.23,158.92,155.82,158.73,161.39Z" style="fill:#dee1e8"/><path d="M109.66,188.24l-.31.17-.18.11-.71.42a2.39,2.39,0,0,1-2.15,0l-.75-.43-.18-.11L103,187c-.35-.2-.49-.46-.44-.72a.86.86,0,0,1,.44-.52l1.2-.7a2.39,2.39,0,0,1,2.15,0l1.94,1.12.28.17h0l1.13.64a2,2,0,0,1,.26.2C110.23,187.53,110.14,188,109.66,188.24Z" style="fill:#c1c7ce"/><path d="M109.66,188l-.38.21-.18.11-.64.38a2.39,2.39,0,0,1-2.15,0l-.67-.39-.18-.1-2.5-1.45a.65.65,0,0,1,0-1.23l1.2-.7c1.59-.87,3.83.61,4.68,1.28l.19.16.14.12C109.75,186.92,110.44,187.5,109.66,188Z" style="fill:#c1c7ce"/><path d="M109.17,186.42a1.52,1.52,0,0,0-.64-.07h0a2.61,2.61,0,0,0-1,.3l-.22.11-.1.05a4.6,4.6,0,0,0-1.59,1.53,1.3,1.3,0,0,0-.08.17l-.18-.11.08-.16a4.65,4.65,0,0,1,1.66-1.6h0l.2-.11a3.46,3.46,0,0,1,.92-.34,2.41,2.41,0,0,1,.59,0l.19.16Z" style="fill:#dee1e8"/><path d="M109.35,188.41l-.18.11a.87.87,0,0,0-.07-.17,3.76,3.76,0,0,0-1.77-1.59l-.21-.12h0l.2-.11.22.13a3.79,3.79,0,0,1,1.73,1.59C109.31,188.3,109.33,188.36,109.35,188.41Z" style="fill:#dee1e8"/><path d="M131.3,179.37a1.8,1.8,0,0,1-.29.9,3.54,3.54,0,0,1-1.31,1.22,8.64,8.64,0,0,1-7.8,0,4.64,4.64,0,0,1-.79-.59c-1.31-1.22-1-2.85.79-3.91a7,7,0,0,1,2.39-.81h0a8.67,8.67,0,0,1,1.25-.12,4.68,4.68,0,0,1,.65,0,8.31,8.31,0,0,1,3,.69l.44.23A2.64,2.64,0,0,1,131.3,179.37Z" style="fill:#c1c7ce"/><path d="M128.12,176.35a9.17,9.17,0,0,0-1.9-.28,4.68,4.68,0,0,0-.65,0,8.67,8.67,0,0,0-1.25.12h0a7,7,0,0,0-2.39.81c-1.84,1.06-2.1,2.69-.79,3.91h4.3l1.39-1.5C127.21,178.37,127.66,177.36,128.12,176.35Z" style="fill:#e9ebee;opacity:0.25"/><path d="M110.91,183.48l.46.26.23-.44Z" style="fill:#9caac6"/><path d="M139.67,148.37v17.84a3.28,3.28,0,0,1-1.51,2.6l-.13.09-24.88,14.36-.7.41a1,1,0,0,1-1.23,0,1.2,1.2,0,0,1-.28-.83V164.94a1.61,1.61,0,0,1,.28-.83,1.54,1.54,0,0,1,.48-.47l27.22-15.71C139.33,147.69,139.67,147.89,139.67,148.37Z" style="fill:url(#linear-gradient-35)"/><path d="M129.08,168.51a.76.76,0,0,1-.34.6l-3.56,2c-.19.11-.34,0-.34-.19v-2.42a.76.76,0,0,1,.34-.6l3.56-2c.19-.11.34,0,.34.2Z" style="fill:#dee1e8"/><path d="M128.94,171.06v7.81l-3.53,2v-7.8a.48.48,0,0,1,.22-.39l3.08-1.78A.14.14,0,0,1,128.94,171.06Z" style="fill:#dee1e8"/><path d="M268.08,84.13c5.41,3.13,5.41,8.19,0,11.31l-85,49.09c-5.41,3.12-14.19,3.12-19.6,0l-85-49.08c-5.41-3.13-5.41-8.19,0-11.32l85-49.08c5.41-3.13,14.19-3.13,19.6,0Z" style="fill:url(#linear-gradient-36)"/><rect x="74.4" y="73.21" width="10.56" height="16.58" style="fill:#f9be00"/><rect x="261.27" y="73.72" width="10.87" height="15.91" style="fill:#facf45"/><path d="M268.08,67.74c5.41,3.12,5.41,8.19,0,11.31l-85,49.09c-5.41,3.12-14.19,3.12-19.6,0l-85-49.09c-5.41-3.12-5.41-8.19,0-11.31l85-49.09c5.41-3.12,14.19-3.12,19.6,0Z" style="fill:#fff"/><path d="M192.56,132.7l1.06-1.23c.22.38.6.41,1.14.1s.73-.57.73-.86-.08-.24-.24-.24a3.43,3.43,0,0,0-.88.2,2.43,2.43,0,0,1-1.09.12c-.32-.07-.5-.36-.5-.85a2.56,2.56,0,0,1,.54-1.5,4,4,0,0,1,1.28-1.19c.88-.51,1.57-.48,2,.08l-1,1.21c-.19-.3-.46-.36-.93-.08a1,1,0,0,0-.58.74.22.22,0,0,0,.18.24,2.33,2.33,0,0,0,.79-.13l.5-.13a1.81,1.81,0,0,1,.45-.05.79.79,0,0,1,.41.06.84.84,0,0,1,.37.79,2.62,2.62,0,0,1-.55,1.54,4.72,4.72,0,0,1-1.45,1.27C193.62,133.43,192.87,133.35,192.56,132.7Z" style="fill:#fff"/><path d="M200.76,123.8V125l-1.38.8V130l-1.24.71V126.5l-1.38.8v-1.19Z" style="fill:#fff"/><path d="M201.26,123.51l1.23-.71v3.55c0,.5.29.59.85.26a1.43,1.43,0,0,0,.85-1.24v-3.55l1.23-.71v3.65a2.92,2.92,0,0,1-.58,1.69,4.66,4.66,0,0,1-1.5,1.36,2,2,0,0,1-1.49.37c-.4-.11-.59-.45-.59-1Z" style="fill:#fff"/><path d="M208.46,119.36a2,2,0,0,1,1.87-.3,1.45,1.45,0,0,1,.75,1.48,4.47,4.47,0,0,1-.75,2.36,5.25,5.25,0,0,1-1.87,1.85L206.3,126v-5.4Zm0,4.2a2.9,2.9,0,0,0,1-1,2.48,2.48,0,0,0,.4-1.33c0-.46-.13-.75-.4-.87a1.15,1.15,0,0,0-1,.18l-.92.54v3Z" style="fill:#fff"/><path d="M213,120.94l2.16-1.24v1.18l-3.39,2v-5.39l3.35-1.94v1.19L213,117.92v.89l1.93-1.11v1.17L213,120Z" style="fill:#fff"/><path d="M218.85,113.36l1.24-.72V118l-.93.53-2.08-1.73v2.93l-1.23.71v-5.39l.93-.53,2.07,1.72Z" style="fill:#fff"/><path d="M224.63,110v1.19l-1.39.8v4.21l-1.23.71v-4.21l-1.39.8v-1.18Z" style="fill:#fff"/><path d="M226.82,112.92l1.06-1.23c.22.38.6.41,1.14.1s.73-.57.73-.86-.08-.24-.24-.24a3.43,3.43,0,0,0-.88.2,2.43,2.43,0,0,1-1.09.12c-.32-.07-.5-.36-.5-.85a2.56,2.56,0,0,1,.54-1.5,4,4,0,0,1,1.28-1.19c.88-.51,1.57-.48,2,.08l-1,1.21c-.19-.29-.46-.36-.93-.08a1,1,0,0,0-.58.74.22.22,0,0,0,.18.24,2.33,2.33,0,0,0,.79-.13l.5-.13a1.81,1.81,0,0,1,.45-.05.79.79,0,0,1,.41.06.84.84,0,0,1,.37.79,2.62,2.62,0,0,1-.55,1.54A4.72,4.72,0,0,1,229,113C227.88,113.65,227.13,113.57,226.82,112.92Z" style="fill:#fff"/><path d="M232.79,109.52l2.16-1.25v1.19l-3.39,2V106l3.35-1.93v1.18l-2.12,1.23v.89l1.92-1.11v1.17l-1.92,1.11Z" style="fill:#fff"/><path d="M238.47,107.42l-1-1.18-.58.34v1.77l-1.23.71v-5.39l2.15-1.25a1.47,1.47,0,0,1,1.31-.22,1,1,0,0,1,.54,1,3.52,3.52,0,0,1-1,2.14l1.15,1.32Zm-1.6-3.31v1.39l.92-.54a1.32,1.32,0,0,0,.62-1c0-.39-.28-.53-.62-.33Z" style="fill:#fff"/><path d="M241.59,105.62l-1.76-4.38,1.35-.77,1.19,3.27,1.2-4.65,1.35-.78-1.76,6.41Z" style="fill:#fff"/><path d="M245.38,98l1.23-.71v5.4l-1.23.71Z" style="fill:#fff"/><path d="M248.09,101.17a1.5,1.5,0,0,1-.79-1.54,4.57,4.57,0,0,1,.79-2.45,5.82,5.82,0,0,1,2-2c1-.56,1.85-.59,2.32-.09l-1.07,1.23c-.24-.29-.7-.26-1.25.06a3.16,3.16,0,0,0-1.14,1.1,2.58,2.58,0,0,0-.43,1.41c0,.48.14.79.43.92a1.27,1.27,0,0,0,1.14-.23,3,3,0,0,0,1.25-1.38h1.07a5.86,5.86,0,0,1-2.32,2.58A2.24,2.24,0,0,1,248.09,101.17Z" style="fill:#fff"/><path d="M254.22,97.14l2.16-1.24v1.18L253,99V93.65l3.35-1.94V92.9l-2.12,1.22V95l1.93-1.12v1.18l-1.93,1.11Z" style="fill:#fff"/><path d="M256.8,95.62l1.06-1.23q.33.56,1.14.09c.48-.28.73-.57.73-.86s-.08-.24-.24-.23a2.91,2.91,0,0,0-.88.19,2.17,2.17,0,0,1-1.09.12c-.32-.07-.5-.36-.5-.85a2.58,2.58,0,0,1,.54-1.5,3.87,3.87,0,0,1,1.28-1.18c.88-.52,1.57-.49,2,.07l-1,1.21c-.2-.29-.47-.35-.93-.08a1,1,0,0,0-.58.74.22.22,0,0,0,.18.24,2.33,2.33,0,0,0,.79-.13l.5-.13a1.81,1.81,0,0,1,.45,0,.79.79,0,0,1,.41.06.84.84,0,0,1,.37.79,2.62,2.62,0,0,1-.55,1.54A4.72,4.72,0,0,1,259,95.7C257.86,96.34,257.11,96.26,256.8,95.62Z" style="fill:#fff"/><polygon points="171.82 102.73 171.97 69.8 190.35 53.57 224.84 73.48 175.59 102.73 171.82 102.73" style="opacity:0;fill:url(#linear-gradient-37)"/><path d="M176.9,20.89a34.43,34.43,0,0,1,7-2.61c.22-.06,1.76-.45,2-.52s.63-.27.72-.32a3.78,3.78,0,0,0,1,2.55c-.11,0-.67.34-.78.39s-.42.57-.55.72c-1.27,1.46-5.35,3.7-8.56,4.93h0a2.19,2.19,0,0,1-2.54-.52c-.36-.25-.72-.53-.95-.68-1.83-1.19-5.23-5.49-7.9-12.29a8.51,8.51,0,0,1,2.22-1.3,3,3,0,0,1,2.76.38,9.74,9.74,0,0,1,2.48,4.13c.54,1.46,2,3.29,3.1,5Z" style="fill-rule:evenodd;fill:url(#linear-gradient-38)"/><path d="M175.13,25.51c-.36-.25-.72-.53-.95-.68-1.83-1.19-5.23-5.49-7.9-12.29,2.7-3.09,6.42.61,7.42,3.34a60,60,0,0,1,3.17,10.34A1.8,1.8,0,0,1,175.13,25.51Z" style="fill:#f9be00;fill-rule:evenodd"/><path d="M188.58,16l.48-.79a.37.37,0,0,1,.46-.14c.65.34.49,1.56-.36,2.2,1,0,1.37.28,1.41.74.08.71-.06,3.38-.52,3.57a5,5,0,0,1-2.59,0c-.26-.22,0-.4-.33-.77-.11-.12-.6-.12-1-.42A2.56,2.56,0,0,1,185.9,18a2,2,0,0,1,.22-1C186.72,16.12,188,17,188.58,16Z" style="fill:#efb28e;fill-rule:evenodd"/><path d="M188.35,18c.24.06.18.15.52.18a1.86,1.86,0,0,1-.72.33c-.38-.12-.52-.14-.67.09a4.85,4.85,0,0,0-.23,2.49c-.16-.36-1.1-.29-1.33-.87s-.3-1.72,0-2a1,1,0,0,0,.94.38C187.41,18.46,188.19,17.93,188.35,18Z" style="fill-rule:evenodd;fill:url(#linear-gradient-39)"/><path d="M158.21,72.45a6.77,6.77,0,0,1-.2,1,12.54,12.54,0,0,0-.52,1.62c-.26,1.12.1,2.62-.25,4.21a1.73,1.73,0,0,0,.25,1.71,2.94,2.94,0,0,0,2.21,1.4,1.54,1.54,0,0,0,1.07-.52,2.58,2.58,0,0,0,.64-1.89,15.78,15.78,0,0,1-.17-2.16c0-.78.17-1.21.15-2.06s-.09-2.15-.1-2.73Z" style="fill:#161939;fill-rule:evenodd"/><path d="M167.17,67.83a5.39,5.39,0,0,0-.5,2.26c.18.58.6.82,1.06,1.23l.32.07c.81.44,1.11,2,1.86,2.67a5.82,5.82,0,0,0,2.62,1c1.12.22,2.18-.1,1.89-1-.72-2.18-3.84-4.65-3.91-7.08Z" style="fill:#161939;fill-rule:evenodd"/><path d="M171.86,52.28c-.08,4.18-1,12-.85,16.12a2.74,2.74,0,0,1-3.9-.36c-.44-3.79-.94-9.17-1-11.25a16,16,0,0,1,.55-4.88c-.62-4.57-3.26-10.81-2.63-15.11.28-1.89,1.51-3.93,1.87-5.49,3.12,3.84,5.49,2,6.78,1.67,0,1.33.09,1.15.05,2.54-.14,4.72-.36,9.75-.62,14.64A6.78,6.78,0,0,1,171.86,52.28Z" style="fill-rule:evenodd;fill:url(#linear-gradient-40)"/><path d="M166.39,60.76c-.15-1.65-.25-3.08-.27-4a16,16,0,0,1,.55-4.88c-.62-4.57-3.26-10.81-2.63-15.11.28-1.89,1.51-3.93,1.87-5.49,3.12,3.84,5.49,2,6.78,1.67v.39l-4.08,3,1-.23c0,5.43-.71,10.38-.81,15.74a80.51,80.51,0,0,0-2.41,8.76Z" style="fill:#131719;fill-rule:evenodd;opacity:0.5"/><path d="M164.92,55.32c-.75,4.18-2.94,14.32-3.46,18.44-1.35.75-3.33.49-3.81-.61,0-3.79,0-10.6.28-12.68a26.5,26.5,0,0,1,1.54-6c-.27-9.76-1.1-12.5.21-16.8.58-1.89,2.1-3.71,2.71-5.27.84,1.28,2.13,3.11,4.89,2.88.27,0,2.58-1.67,3.34-1.86-1,5.81-3.75,13.4-5.1,19.74A7.36,7.36,0,0,1,164.92,55.32Z" style="fill-rule:evenodd;fill:url(#linear-gradient-41)"/><path d="M169.23,10.78a2.5,2.5,0,0,1,.86.29c2.06,1.15,2.77,4.51,3.1,7.45a44.28,44.28,0,0,1,0,7c-.06,1.86.18,3.58.09,5.35,0,.52-.22,1.09-.27,1.64a2.81,2.81,0,0,0-.14,1.1c-1,3.93-10.76,4.25-12.17,1.6a8.4,8.4,0,0,0,.25-1.19c-.92-.84-.39-2.87-.53-4.29a11.78,11.78,0,0,0-.58-2.93c-1.32-3.26-3.17-5.77-3.54-8.27-.25-1.72,2-3.87,4.86-5.61S167.73,10.35,169.23,10.78Z" style="fill-rule:evenodd;fill:url(#linear-gradient-42)"/><path d="M173,32.62a2,2,0,0,0-.13,1c-1,3.93-10.76,4.25-12.17,1.6a8.4,8.4,0,0,0,.25-1.19c-.92-.84-.39-2.87-.53-4.29a11.78,11.78,0,0,0-.58-2.93c-1.07-2.63-2.47-4.77-3.17-6.81l1.39-1.27,2.79-.85a17.77,17.77,0,0,1,1.07,4.37c.25,1.82.35,3.66.68,5.5C163,32.67,163.74,36,173,32.62Z" style="fill:#f9be00;fill-rule:evenodd"/><path d="M161.09,34.88c.45.24,1.26.44,1.59.61.17.09,1.39.75,2.08,1.15s1,1.1,1.46,1.84a5.1,5.1,0,0,1,.57,1.35c.06.32-.72,1-1.07.94-.8-.13-1.67-1-1.88-1.14-1.83-.8-2.68-.83-3.37-1.52-.29-.3-.52-1.2-1.13-2l1-1.05Z" style="fill-rule:evenodd;fill:url(#linear-gradient-43)"/><path d="M156.86,17.17c-1.63,2.6-2.8,7.35-4.25,10.56a1.86,1.86,0,0,0-.18.68c-.27.8.15,1.46.7,2.17A23.1,23.1,0,0,0,158.35,36a1.74,1.74,0,0,0,.73.22c.17.12.42.36.61.49-.24-.27,1-1.8,1.58-1.74l-.51-.58a1.62,1.62,0,0,0-.17-.67,28.24,28.24,0,0,0-3.69-4.89c.65-.84,1.2-1.82,1.65-2.51a39.51,39.51,0,0,0,2.15-3.72c.26-.49.4-.74.64-1.24C163.15,17.57,158.83,14,156.86,17.17Z" style="fill-rule:evenodd;fill:url(#linear-gradient-44)"/><path d="M167.82,12.69c0-.16.07-.32.1-.48.1-.48,0-1.42.1-2.52l-4.16-1.76a17.85,17.85,0,0,1-.89,4.73c.05,1.87,4.7,2.71,4.8.51A3.91,3.91,0,0,1,167.82,12.69Z" style="fill:#efb28e;fill-rule:evenodd"/><path d="M167.82,12.69c0-.16.07-.32.1-.48.1-.48,0-1.42.1-2.52l-4.16-1.76c0,.53-.05,1-.1,1.35-.15,1.55,1.34,4.25,4,3.89A3.91,3.91,0,0,1,167.82,12.69Z" style="fill-rule:evenodd;fill:url(#linear-gradient-45)"/><path d="M168.06,12.58c-.51-.33-1.91-1.18-2.37-1.52-1-.73-.88-1.67-1.17-3.14a2.64,2.64,0,0,1-1.33-1.8,4.35,4.35,0,0,1,1.7-3.8,3.8,3.8,0,0,1,3.28-.67,4.37,4.37,0,0,1,3.5,4.4,1.26,1.26,0,0,1-.07.51,6.65,6.65,0,0,0-.22.77c-.13.62.29.84.12,1.6a11.5,11.5,0,0,1-1.43,3.4A3.65,3.65,0,0,1,168.06,12.58Z" style="fill:#efb28e;fill-rule:evenodd"/><path d="M171.55,5.15a6.5,6.5,0,0,1,.12.9,1.26,1.26,0,0,1-.07.51,6.65,6.65,0,0,0-.22.77c-.13.62.29.84.12,1.6a13.27,13.27,0,0,1-.64,1.9,2.2,2.2,0,0,1-3.09-.52,4.85,4.85,0,0,1-.31-4.84A5.89,5.89,0,0,0,171.55,5.15Z" style="fill-rule:evenodd;fill:url(#linear-gradient-46)"/><path d="M162.52,5.45A11.72,11.72,0,0,0,163.67,9c.49.78.27-.18.53-.71s.83-.46,1-.88a1.33,1.33,0,0,0,.45.84c.15.08.44.19.46-.24,0-1.46.73-1.57.51-2.45-.16-.65-.12-.94,0-1.18.48.07.78.56,1.35.8a4.86,4.86,0,0,0,3.33-.31,1.8,1.8,0,0,0,.3-3,16.48,16.48,0,0,0-2-1.23,3.77,3.77,0,0,0-4.84.51C162.62,1.6,162.38,3.68,162.52,5.45Z" style="fill-rule:evenodd;fill:url(#linear-gradient-47)"/><path d="M164.83,6.68c-.9-.41-1,.67-.93,1.34.06.46.43.46.53.83a.86.86,0,0,0,.71.68c.57,0,.3-.84.26-1.18C165.52,7.81,165.41,6.94,164.83,6.68Z" style="fill:#efb28e;fill-rule:evenodd"/><polygon points="165 56.69 144.54 55.95 144.5 87.88 179.02 107.81 179.02 64.78 165 56.69" style="fill:url(#linear-gradient-48)"/><polygon points="213.49 32.6 197.47 31.65 197.47 58.37 234.98 79.74 234.98 44.1 213.49 32.6" style="fill:url(#linear-gradient-49)"/><polygon points="144.68 55.75 179.16 75.65 234.71 43.84 200.23 23.93 144.68 55.75" style="fill:#dee1e8"/><path d="M172,50.93l-.37.21-.18.11-.65.38a2.39,2.39,0,0,1-2.15,0l-.67-.39-.18-.1-2.49-1.45a.65.65,0,0,1,0-1.24l1.19-.69c1.59-.87,3.84.6,4.69,1.28l.19.16.13.12C172.11,49.82,172.8,50.39,172,50.93Z" style="fill:#c1c7ce"/><path d="M171.52,49.32a1.5,1.5,0,0,0-.63-.07h0a2.44,2.44,0,0,0-1,.3,1.51,1.51,0,0,0-.22.11l-.09.05a4.63,4.63,0,0,0-1.6,1.53l-.08.16-.18-.1.08-.16a4.65,4.65,0,0,1,1.66-1.6h0l.2-.11a3.52,3.52,0,0,1,.93-.34,2,2,0,0,1,.59,0l.19.16Z" style="fill:#dee1e8"/><path d="M171.7,51.31l-.18.1a.76.76,0,0,0-.06-.16,3.74,3.74,0,0,0-1.78-1.59,1.13,1.13,0,0,0-.21-.12h0l.2-.11.22.13a3.82,3.82,0,0,1,1.74,1.59Z" style="fill:#dee1e8"/><path d="M199.64,50.15a2.36,2.36,0,0,1-.34,1.05,4.2,4.2,0,0,1-1.54,1.42,10,10,0,0,1-9.12,0,5.06,5.06,0,0,1-.94-.68c-1.53-1.44-1.22-3.34.94-4.58a8.23,8.23,0,0,1,2.79-1h0a11.65,11.65,0,0,1,1.46-.13,6.43,6.43,0,0,1,.76,0,9.53,9.53,0,0,1,3.56.81,4.11,4.11,0,0,1,.51.27A3.09,3.09,0,0,1,199.64,50.15Z" style="fill:#c1c7ce"/><path d="M195.91,46.61a10.17,10.17,0,0,0-2.22-.33,6.43,6.43,0,0,0-.76,0,11.65,11.65,0,0,0-1.46.13h0a8.23,8.23,0,0,0-2.79,1c-2.16,1.24-2.47,3.14-.94,4.58h5l1.63-1.76C194.84,49,195.37,47.79,195.91,46.61Z" style="fill:#e9ebee;opacity:0.25"/><path d="M175.77,55l.54.31.26-.51Z" style="fill:#9caac6"/><path d="M209.43,13.85V34.74a3.84,3.84,0,0,1-1.76,3l-.16.1L178.39,54.7l-.82.47a1.12,1.12,0,0,1-1.45,0,1.4,1.4,0,0,1-.32-1V33.25a2,2,0,0,1,.32-1,2,2,0,0,1,.57-.56l31.87-18.39C209,13.05,209.43,13.28,209.43,13.85Z" style="fill:url(#linear-gradient-50)"/><path d="M197,37.43a.91.91,0,0,1-.4.7l-4.16,2.4c-.23.13-.41,0-.41-.23V37.48a.88.88,0,0,1,.41-.71l4.16-2.4c.22-.13.4,0,.4.23Z" style="fill:#dee1e8"/><path d="M196.87,40.42v9.13l-4.13,2.39V42.8a.55.55,0,0,1,.26-.45l3.6-2.09C196.75,40.18,196.87,40.25,196.87,40.42Z" style="fill:#dee1e8"/><polygon points="145.33 87.89 118.69 72.81 145.33 55.38 145.33 87.89" style="opacity:0.6000000000000001;fill:url(#linear-gradient-51)"/><path d="M620.88,84.13c5.41,3.13,5.41,8.19,0,11.31l-85,49.09c-5.41,3.12-14.19,3.12-19.6,0l-85-49.08c-5.41-3.13-5.41-8.19,0-11.32l85-49.08c5.41-3.13,14.19-3.13,19.6,0Z" style="fill:url(#linear-gradient-52)"/><rect x="427.2" y="73.4" width="10.56" height="16.39" style="fill:#827ad0"/><rect x="614.07" y="73.72" width="10.87" height="15.91" style="fill:#675dc6"/><path d="M620.88,67.74c5.41,3.12,5.41,8.19,0,11.31l-85,49.09c-5.41,3.12-14.19,3.12-19.6,0l-85-49.09c-5.41-3.12-5.41-8.19,0-11.31l85-49.09c5.41-3.12,14.19-3.12,19.6,0Z" style="fill:#fff"/><path d="M437.56,92.14h1.07a2.47,2.47,0,0,0,1.13,1.4c.49.28.73.28.73,0a.71.71,0,0,0-.24-.5,7.68,7.68,0,0,0-.88-.83,6.49,6.49,0,0,1-1.09-1.14,2.43,2.43,0,0,1-.49-1.41c0-.51.18-.8.53-.89a1.77,1.77,0,0,1,1.28.29,4.61,4.61,0,0,1,2,2.36h-1a2,2,0,0,0-.93-1.16c-.37-.21-.58-.15-.58.08a.77.77,0,0,0,.19.45,5.52,5.52,0,0,0,.78.78l.5.45a5,5,0,0,1,.45.46,3.51,3.51,0,0,1,.42.55,2.46,2.46,0,0,1,.36,1.21c0,.52-.18.81-.55.9a2.19,2.19,0,0,1-1.45-.4A4.66,4.66,0,0,1,437.56,92.14Z" style="fill:#fff"/><path d="M445.77,92.71v1.18l-1.39-.8V97.3l-1.23-.71V92.38l-1.39-.8V90.39Z" style="fill:#fff"/><path d="M446.26,93l1.24.71v3.54a1.45,1.45,0,0,0,.84,1.25c.57.32.85.23.85-.27V94.69l1.23.71v3.65c0,.56-.19.91-.58,1a2,2,0,0,1-1.5-.36,4.66,4.66,0,0,1-1.49-1.37,2.91,2.91,0,0,1-.59-1.68Z" style="fill:#fff"/><path d="M453.46,97.15A5.28,5.28,0,0,1,455.33,99a4.44,4.44,0,0,1,.75,2.35,1.46,1.46,0,0,1-.75,1.49,2,2,0,0,1-1.87-.3l-2.15-1.25V95.91Zm0,4.21a1.18,1.18,0,0,0,1,.19c.27-.12.4-.42.4-.87a2.45,2.45,0,0,0-.4-1.33,2.87,2.87,0,0,0-1-1l-.92-.53v3Z" style="fill:#fff"/><path d="M458,104l2.15,1.25v1.18l-3.39-2v-5.4l3.35,1.94v1.18L458,101v.89l1.92,1.12v1.17L458,103Z" style="fill:#fff"/><path d="M463.86,103.15l1.23.72v5.39l-.92-.53-2.08-4.13v2.92l-1.24-.71v-5.39l.93.53,2.08,4.13Z" style="fill:#fff"/><path d="M469.63,106.49v1.18l-1.38-.8v4.21l-1.24-.71v-4.21l-1.38-.8v-1.19Z" style="fill:#fff"/><path d="M475.52,115.28l-.27-1-2-1.16-.27.69-1.35-.77,1.84-4.34,1.57.91,1.83,6.45Zm-1.9-3.1,1.26.73-.63-2.35Z" style="fill:#fff"/><path d="M477.7,115.85a4.65,4.65,0,0,1-.79-2.47,1.47,1.47,0,0,1,.79-1.53,2.21,2.21,0,0,1,2,.35,5.91,5.91,0,0,1,2.31,2.58H481a3,3,0,0,0-1.25-1.38,1.28,1.28,0,0,0-1.15-.22c-.28.12-.42.43-.42.92a2.62,2.62,0,0,0,.42,1.4,3.31,3.31,0,0,0,1.15,1.11c.55.31,1,.33,1.25,0l1.06,1.23c-.46.51-1.33.48-2.31-.08A5.88,5.88,0,0,1,477.7,115.85Z" style="fill:#fff"/><path d="M483.08,119a4.62,4.62,0,0,1-.79-2.46,1.5,1.5,0,0,1,.79-1.54,2.27,2.27,0,0,1,2,.35,5.93,5.93,0,0,1,2.31,2.59h-1.06a3,3,0,0,0-1.25-1.38,1.32,1.32,0,0,0-1.15-.23c-.28.13-.42.44-.42.92a2.66,2.66,0,0,0,.42,1.41,3.19,3.19,0,0,0,1.15,1.1c.55.32,1,.34,1.25.06L487.4,121c-.46.5-1.33.48-2.31-.09A5.71,5.71,0,0,1,483.08,119Z" style="fill:#fff"/><path d="M490.47,124a5.7,5.7,0,0,1-2-2,4.53,4.53,0,0,1-.82-2.46,1.46,1.46,0,0,1,.82-1.53,2.25,2.25,0,0,1,2,.34,5.81,5.81,0,0,1,2,2,4.54,4.54,0,0,1,.82,2.47,1.45,1.45,0,0,1-.82,1.52A2.27,2.27,0,0,1,490.47,124Zm0-1.2a1.28,1.28,0,0,0,1.12.2q.45-.19.45-.9a2.6,2.6,0,0,0-.45-1.41,3.18,3.18,0,0,0-1.12-1.1,1.28,1.28,0,0,0-1.12-.2q-.45.2-.45.9a2.6,2.6,0,0,0,.45,1.41A3.27,3.27,0,0,0,490.47,122.82Z" style="fill:#fff"/><path d="M493.89,120.49l1.23.71v3.55A1.43,1.43,0,0,0,496,126c.56.33.85.24.85-.26v-3.55l1.23.71v3.66c0,.56-.19.9-.59,1a2.06,2.06,0,0,1-1.49-.36,4.81,4.81,0,0,1-1.5-1.37,2.92,2.92,0,0,1-.58-1.69Z" style="fill:#fff"/><path d="M501.94,125.14l1.23.71v5.39l-.92-.53-2.08-4.13v2.93l-1.24-.71v-5.4l.93.54,2.08,4.13Z" style="fill:#fff"/><path d="M507.71,128.47v1.19l-1.39-.8v4.21l-1.23-.72v-4.2l-1.38-.8v-1.19Z" style="fill:#fff"/><path d="M507.82,132.71h1.07a2.5,2.5,0,0,0,1.13,1.41c.49.27.73.27.73,0a.75.75,0,0,0-.24-.51,7.49,7.49,0,0,0-.87-.82,6.54,6.54,0,0,1-1.1-1.14,2.42,2.42,0,0,1-.49-1.42c0-.5.17-.79.53-.89a1.77,1.77,0,0,1,1.28.29,4.65,4.65,0,0,1,2,2.36h-1a2,2,0,0,0-.93-1.16c-.37-.22-.58-.15-.58.07a.77.77,0,0,0,.19.45,5.52,5.52,0,0,0,.78.78l.5.45c.12.11.27.27.45.47a4,4,0,0,1,.42.54,2.53,2.53,0,0,1,.36,1.22c0,.51-.18.8-.55.89a2.18,2.18,0,0,1-1.45-.39A4.66,4.66,0,0,1,507.82,132.71Z" style="fill:#fff"/><path d="M491.26,77.81l26.8,15.47a8.7,8.7,0,0,0,5,.92,7.59,7.59,0,0,0,3.11-.92l1-.59L553.88,77.1c2.24-1.28,2.24-3.38,0-4.66L527.1,57A9,9,0,0,0,519,57L491.26,73.14C489,74.43,489,76.53,491.26,77.81Z" style="fill:url(#linear-gradient-53)"/><rect x="546.04" y="61.1" width="9.52" height="13.47" style="fill:#ccd0d7"/><rect x="489.6" y="62.2" width="12.2" height="13.56" style="fill:#dee1e8"/><path d="M491.26,59.47c-2.22,1.3-2.22,3.38,0,4.67l26.8,15.46a8.86,8.86,0,0,0,8.08,0l27.74-16.17c2.24-1.29,2.24-3.38,0-4.66L527.1,43.29a9,9,0,0,0-8.09,0Z" style="fill:#dee1e8"/><path d="M500,86.93a4.21,4.21,0,0,1-.77,1.88,21.7,21.7,0,0,1-4.86,4.37c-1,.7-1.19,1.36-.19,2,.79.47,2.71.08,3.91-.2,2.26-.54,2.45-1.46,3.22-1.81l.59.13A6.17,6.17,0,0,0,504.64,92a14,14,0,0,0,.28-1.75c.07-1.91-.23-1.72-.75-3.21C502.44,87.2,501.76,86.87,500,86.93Z" style="fill-rule:evenodd;fill:url(#linear-gradient-54)"/><path d="M507.12,89.67a4.24,4.24,0,0,1-.37,2,21.8,21.8,0,0,1-3.86,5.26c-.81.89-.88,1.58.23,2,.86.31,2.67-.47,3.78-1,2.09-1,2.1-1.93,2.78-2.43h.6a5.94,5.94,0,0,0,2.4-1.78,12.61,12.61,0,0,0-.08-1.77c-.33-1.88-.58-1.63-1.39-3C509.54,89.43,508.8,89.24,507.12,89.67Z" style="fill-rule:evenodd;fill:url(#linear-gradient-55)"/><path d="M513.84,52.68a4.55,4.55,0,0,0-.51.56l-.68.69h0c-4,2.19-10.16,8.73-13.39,11.76a3.87,3.87,0,0,0-.54.65,2.56,2.56,0,0,0-.59,1.5c.35,6,1.16,13.4,1.23,19.2.87,1.53,4.32,1,5.19-.14-.17-4.06,1.67-13.62-.06-17a116,116,0,0,0,12-8.22h0l-1-3.9-1-3.31-.45-1.93-.22.18Z" style="fill-rule:evenodd;fill:url(#linear-gradient-56)"/><path d="M521.15,55.26a4.55,4.55,0,0,0-.51.56l-.68.69h0c-4,2.19-10.17,8.73-13.39,11.76a4.32,4.32,0,0,0-.54.65,2.56,2.56,0,0,0-.59,1.5c.35,6,1.16,13.4,1.23,19.2.87,1.53,4.32,1,5.19-.14-.17-4.06,1.67-13.62-.06-17a116,116,0,0,0,12-8.22h0l-1-3.9-.95-3.31-.45-1.92-.22.17Z" style="fill-rule:evenodd;fill:url(#linear-gradient-57)"/><path d="M511.8,72.52c2.45-1.12,4.3-1.74,5.87-2.64,5.05-2.88,7.15-6,7.36-8.84.24-3.21-1.95-5.81-4.42-4.3a37.26,37.26,0,0,0-7.14,6.53" style="fill-rule:evenodd;fill:url(#linear-gradient-58)"/><path d="M513.53,42.2c-1.93,1-5.36,4.37-7.75,5.75l-.44.18a2,2,0,0,0-.58.54c-.85.75-1.34,1-2.09,1.66l-.77,1.88.46,1.91a1.33,1.33,0,0,0,.77.92l.62.11c.17,0,.31,0,.34,0a.13.13,0,0,0,.07,0,.46.46,0,0,0,.11-.28c.18-.53,0-1.3.31-2.1.65-.42,1.48-.6,1.78-1.28a10.35,10.35,0,0,0,.26-1.08c1.89-1.47,8.3-3.34,9.87-4.74a1.78,1.78,0,0,0,.69-1c.05-.25.49-2.06.53-2.5-.12-2.19-2.41-.23-4.19-1.85Z" style="fill:#efb28e;fill-rule:evenodd"/><path d="M513.53,42.2c-1.93,1-5.42,4.23-7.81,5.61a3.21,3.21,0,0,0,1.33,2.5c1.89-1.47,7.87-3.3,9.44-4.7a1.78,1.78,0,0,0,.69-1c.05-.25.49-2.06.53-2.5-.12-2.19-2.41-.23-4.19-1.85Z" style="fill-rule:evenodd;fill:url(#linear-gradient-59)"/><path d="M522,35.87c-.79-.35-2.54-1.55-4.28-2.33-2.15-1-4.32-1.5-5.25-1.3a4.83,4.83,0,0,0-3.71,3c-.84,2,.33,4.71.86,8.25a21.27,21.27,0,0,0,.91,3.25,21.68,21.68,0,0,1,1.05,8.8c.93,2.4,5.08,5,8.74,5.4h0l.3,0a7.61,7.61,0,0,0,2.15-.11,3.84,3.84,0,0,0,1.63-.67,1.58,1.58,0,0,0,.15-.12l.13-.1a1.72,1.72,0,0,0,.26-.45,3,3,0,0,0,.24-.69c.76-3.46.8-11,.47-16.25C525.43,39.13,525.65,37.52,522,35.87Z" style="fill-rule:evenodd;fill:url(#linear-gradient-60)"/><path d="M512.68,56.78a2,2,0,0,1,.14,1c1,3.92,10.75,4.25,12.17,1.59a4.12,4.12,0,0,0,.18-.56,38.77,38.77,0,0,0,.54-4.81c.11-1.07-.18-2.26.14-3,1.06-2.63-2.14-6-1.44-8.09l-3.18-4.52-1.33,2.3c-.59,1.44,2.22,5.24,2.41,6.7.22,1.75,1.11,2.71.78,4.55C522.7,56.84,521.94,60.16,512.68,56.78Z" style="fill:#675dc6;fill-rule:evenodd;opacity:0.5"/><path d="M496.59,58.65l8.66-5a1.8,1.8,0,0,1,1.63,0l6.52,3.77L516.16,59l.92.53,3.69,2.13a1,1,0,0,1,.26.22s0,0,0,0v0a26803588427.75,26803588427.75,0,0,1,0,.1h0c.07.2,0,.42-.32.58l-8.66,5a.89.89,0,0,1-.81,0L498.05,60l-1-.56-.49-.29A.25.25,0,0,1,496.59,58.65Z" style="fill:#fff"/><path d="M522.69,50.27c-.07,0-5.54,2.62-5.64,2.68s-.43.3-.59.38c-1.33.67-2.67,1-2.94,1.17a15.87,15.87,0,0,0-2.06,2c-.2.34-.39.61-1,1.69-.29.52.44.54.52.5.4-.24.59-1,1.07-1.53a6.74,6.74,0,0,1,1.15-.89,10.08,10.08,0,0,0-1,1.15,7.34,7.34,0,0,0-.56,1.51c-.12.47.32.65.46.47a15.1,15.1,0,0,0,.84-1.6c.51-.35.73-.6,1.31-1L513.4,58l-.58,1.44c-.19.52.28.66.52.36a10,10,0,0,0,.72-1.36c.3-.26.71-.74,1.13-1.16l-.48,1a7,7,0,0,0-.58,1.08c-.09.27.17.52.5.13a11.83,11.83,0,0,0,.74-.95,6,6,0,0,1,1.44-1.37c.53-.51,1.17-1.36,1.74-1.81.05,0,6.35-1.89,6.39-1.93Z" style="fill:#efb28e;fill-rule:evenodd"/><path d="M511.78,56.92V67.25c0,.32-.14.52-.35.57h-.15a.72.72,0,0,1-.32-.11l-2.58-1.49-1.11-.64-.92-.53-2.76-1.59-6.52-3.77a1.79,1.79,0,0,1-.81-1.41V48c0-.26.18-.36.4-.23l.49.28,1,.56,1.27.74,12,6.91A.92.92,0,0,1,511.78,56.92Z" style="fill:url(#linear-gradient-61)"/><path d="M501.6,58.23a.54.54,0,0,0,.25.42l2.52,1.46c.13.07.24,0,.24-.14V58.26a.56.56,0,0,0-.24-.43l-2.52-1.45c-.14-.08-.25,0-.25.14Z" style="fill:#dee1e8"/><path d="M512.49,34.76l-.25-.49c-.23-.5-.36-1.55-.8-2.71l4.35-2,.92-.52a7.84,7.84,0,0,0,1,4.37c.24,1.66-3,2.41-4.76,2.83C512.8,35.85,512.72,35.26,512.49,34.76Z" style="fill-rule:evenodd;fill:url(#linear-gradient-62)"/><path d="M513,36.26c-.09-.24-.14-.73-.24-1.16s-.43-1.32-.44-1.56c-.38.1-.63,2.3-1.07,3.23A2.37,2.37,0,0,1,513,36.26Z" style="fill:#fff;fill-rule:evenodd"/><path d="M517.65,33.08c-.06,1.64-2.82,2.77-4.67,3.18.45.54,1,1.22,1,1.76,1.28-.36,3.46-1,4.34-2.6A1.61,1.61,0,0,0,517.65,33.08Z" style="fill:#fff;fill-rule:evenodd"/><path d="M513,34.11c.48-.38,1.69-1.16,2.13-1.54.95-.81.75-1.75.93-3.25a2.67,2.67,0,0,0,1.21-1.92,4.41,4.41,0,0,0-2-3.7,3.85,3.85,0,0,0-3.36-.42c-2.36.71-3.3,2.07-3.27,4.16a5.38,5.38,0,0,0,.19,1c.16.41.28.47.37.76a1.37,1.37,0,0,1,0,.72c-.17.72,1,3.9,1.48,4.2A2.31,2.31,0,0,0,513,34.11Z" style="fill:#efb28e;fill-rule:evenodd"/><path d="M510.62,27c.53-.39,2.5-1.84,3.35-2.53s1.81-1.44,2.7-1A4.84,4.84,0,0,1,518,26.61a7.09,7.09,0,0,1-1.55,3.8c-.34.49-.58-1.27-.77-1.62-.12.66-.3,1-.49,1s-.28.17-.41-.63c-.21-1.21-.82-1.31-.67-2.16.11-.67-.3-.52-.48-.75C512.7,26.48,512,27.06,510.62,27Z" style="fill-rule:evenodd;fill:url(#linear-gradient-63)"/><path d="M516,28c.88-.48,1.07.6,1,1.28,0,.46-.39.49-.47.87a.87.87,0,0,1-.66.75c-.57.08-.36-.83-.36-1.17C515.36,29.2,515.41,28.32,516,28Z" style="fill:#e7b38c;fill-rule:evenodd"/><path d="M516.75,23.52a20.07,20.07,0,0,0-2.35,1.93c-1.29,1-2.81,1.82-4.08,1.7a2.62,2.62,0,0,1-1.69-.76C506.28,22,515,19.73,516.75,23.52Z" style="fill-rule:evenodd;fill:url(#linear-gradient-64)"/><path d="M518.46,55.45a3.58,3.58,0,0,1-1.5-2.51c1.09-.81,6.69-3.75,8-3.82-1-1.74-1.81-2.53-3.07-4.78s-2.29-4.46-.23-6.49c1.47-1.46,3.19-.75,4.13.91a30.21,30.21,0,0,1,1.49,3.06c.79,1.82,1.94,4.75,2.62,6.93.15.5.38.9.46,1.31.29,1.43-.46,1.82-2,2.71C526.51,53.82,519.58,55.16,518.46,55.45Z" style="fill-rule:evenodd;fill:url(#linear-gradient-65)"/><path d="M695.14,217.29c5.42,3.13,5.42,8.19,0,11.32l-85,49.08c-5.41,3.12-14.19,3.12-19.6,0l-85-49.08c-5.41-3.13-5.41-8.19,0-11.32l85-49.08c5.41-3.12,14.19-3.12,19.6,0Z" style="fill:url(#linear-gradient-66)"/><rect x="501.46" y="207.29" width="10.56" height="15.92" style="fill:#ff7859"/><rect x="688.33" y="206.88" width="10.87" height="15.91" style="fill:#ff5b35"/><path d="M695.14,201.57c5.42,3.13,5.42,8.19,0,11.32l-85,49.08c-5.41,3.12-14.19,3.12-19.6,0l-85-49.08c-5.41-3.13-5.41-8.19,0-11.32l85-49.08c5.41-3.13,14.19-3.13,19.6,0Z" style="fill:#fff"/><path d="M517.73,230.05a4.56,4.56,0,0,1-.8-2.46,1.49,1.49,0,0,1,.8-1.54,2.27,2.27,0,0,1,2,.35,5.93,5.93,0,0,1,2.31,2.59H521a3,3,0,0,0-1.24-1.38,1.3,1.3,0,0,0-1.15-.23c-.29.13-.42.44-.42.92a2.57,2.57,0,0,0,.42,1.41,3.12,3.12,0,0,0,1.15,1.1c.54.32,1,.34,1.24.06l1.07,1.23c-.46.5-1.33.48-2.31-.09A5.71,5.71,0,0,1,517.73,230.05Z" style="fill:#fff"/><path d="M526.05,235.55l-.27-1-2-1.16-.27.69-1.35-.78L524,229l1.57.91,1.84,6.45Zm-1.9-3.1,1.26.73-.63-2.35Z" style="fill:#fff"/><path d="M530.69,238.23l-1-2.36-.58-.34v1.78l-1.23-.72V231.2l2.15,1.25a3.67,3.67,0,0,1,1.31,1.29,3,3,0,0,1,.54,1.62.89.89,0,0,1-1,1L532,239Zm-1.6-5.16v1.38l.92.54c.34.19.62,0,.62-.34a1.35,1.35,0,0,0-.62-1.05Z" style="fill:#fff"/><path d="M533.82,238.85,536,240.1v1.18l-3.39-1.95v-5.4l3.35,1.94v1.18l-2.12-1.22v.9l1.93,1.11V239l-1.93-1.11Z" style="fill:#fff"/><path d="M537.9,241.21l2.16,1.24v1.19l-3.39-2v-5.39l3.35,1.93v1.19l-2.12-1.22v.89l1.93,1.11v1.17l-1.93-1.11Z" style="fill:#fff"/><path d="M543.59,245.68l-1-2.36L542,243v1.77l-1.23-.71v-5.39l2.16,1.24a3.78,3.78,0,0,1,1.31,1.3,3,3,0,0,1,.54,1.62.9.9,0,0,1-1,1l1.15,2.64ZM542,240.51v1.39l.93.53c.34.2.62.06.62-.33a1.32,1.32,0,0,0-.62-1Z" style="fill:#fff"/><path d="M547.14,246.5h1.07a2.44,2.44,0,0,0,1.13,1.4c.48.28.73.28.73,0a.77.77,0,0,0-.24-.5,8.67,8.67,0,0,0-.88-.83,6.49,6.49,0,0,1-1.09-1.14,2.37,2.37,0,0,1-.49-1.41c0-.5.17-.79.53-.89a1.78,1.78,0,0,1,1.28.29,4.61,4.61,0,0,1,2,2.36h-1a2.06,2.06,0,0,0-.93-1.17c-.37-.21-.58-.15-.58.08a.82.82,0,0,0,.18.45,5.74,5.74,0,0,0,.79.78l.5.45c.11.11.27.26.45.47a2.85,2.85,0,0,1,.41.54,2.4,2.4,0,0,1,.37,1.21c0,.52-.18.81-.55.9a2.19,2.19,0,0,1-1.45-.4A4.59,4.59,0,0,1,547.14,246.5Z" style="fill:#fff"/><path d="M553.11,250l2.16,1.24v1.19l-3.39-2v-5.39l3.35,1.93v1.19L553.11,247v.89L555,249v1.17L553.11,249Z" style="fill:#fff"/><path d="M558.79,254.46l-1-2.36-.59-.34v1.77l-1.23-.71v-5.4l2.15,1.25a3.81,3.81,0,0,1,1.32,1.3,3,3,0,0,1,.53,1.62.9.9,0,0,1-1,1l1.15,2.64Zm-1.6-5.17v1.39l.92.53c.34.2.62.06.62-.33a1.32,1.32,0,0,0-.62-1Z" style="fill:#fff"/><path d="M561.91,256.26l-1.76-6.41,1.35.77,1.2,4.66,1.19-3.28,1.35.78-1.76,4.38Z" style="fill:#fff"/><path d="M565.7,253.05l1.23.71v5.39l-1.23-.71Z" style="fill:#fff"/><path d="M568.42,259.32a4.59,4.59,0,0,1-.8-2.47,1.46,1.46,0,0,1,.8-1.53,2.24,2.24,0,0,1,2,.35,6,6,0,0,1,2.31,2.58h-1.07a3,3,0,0,0-1.24-1.39,1.29,1.29,0,0,0-1.15-.22c-.29.13-.43.43-.43.92a2.55,2.55,0,0,0,.43,1.4,3.22,3.22,0,0,0,1.15,1.11c.54.31,1,.33,1.24.05l1.07,1.24c-.47.5-1.34.47-2.31-.09A5.79,5.79,0,0,1,568.42,259.32Z" style="fill:#fff"/><path d="M574.54,262.36l2.16,1.25v1.18l-3.39-2v-5.4l3.35,1.94v1.18l-2.12-1.22v.9l1.93,1.11v1.17l-1.93-1.11Z" style="fill:#fff"/><path d="M577.12,263.81h1.06a2.53,2.53,0,0,0,1.14,1.4c.48.28.73.28.73,0a.75.75,0,0,0-.24-.5,8.67,8.67,0,0,0-.88-.83,6.49,6.49,0,0,1-1.09-1.14,2.37,2.37,0,0,1-.49-1.41c0-.51.17-.8.53-.89a1.73,1.73,0,0,1,1.28.29,4.66,4.66,0,0,1,2,2.36h-1a2.08,2.08,0,0,0-.93-1.16c-.37-.21-.58-.15-.58.08a.82.82,0,0,0,.18.45,5.74,5.74,0,0,0,.79.78l.5.45c.11.1.27.26.45.46a3.21,3.21,0,0,1,.41.54,2.54,2.54,0,0,1,.37,1.22c0,.52-.18.81-.55.9a2.19,2.19,0,0,1-1.45-.4A4.62,4.62,0,0,1,577.12,263.81Z" style="fill:#fff"/><path d="M636.1,209.48l-15.53-8.85c-1.69-.77-4.12-1.39-5.84-.49s-4.16,2.49-5.31,3.14c-.86.5-3.88,2.31-2,3.33,5.53,3,11,6.39,16.62,9.45a8,8,0,0,0,4.24.65,11.33,11.33,0,0,0,4.6-1.37l2.76-1.61a3.34,3.34,0,0,0,1.92-2.32C637.63,210.65,637.14,210,636.1,209.48Z" style="fill:#558cc6;fill-rule:evenodd;opacity:0.5;mix-blend-mode:multiply"/><path d="M615.45,167.92c-.07.67,0,1.71,0,4.26,0,1.8.21,4.95.4,7.66.07,1.12.23,2.11.33,3,.07.63.35,1.26.44,1.87.68,4.64,1.57,8.85,2.09,14.44a10,10,0,0,1,0,3.23c0,.25-.17.5-.2.75a11.89,11.89,0,0,1-.76,3.49c-.07.15-.18.55-.27.71,0,0,1.11.38,1.25.4s1.91-.47,1.91-.47.67-3,.66-3.15c-.12-2,1.24-1.6,0-3.07-.11-.19-.08-.2-.08-.42,0-1.93.34-4.73.59-7.24.7-7.15-.49-6.64-.76-10.06.49-4.12,1.49-10,1.39-15Z" style="fill-rule:evenodd;fill:url(#linear-gradient-67)"/><path d="M618,206.06c-.2.35-.4.86-.58,1.24a7.06,7.06,0,0,0-.45,1.2.55.55,0,0,0,0,.48c.43.58,2.59-.48,3.31-1.12a2.21,2.21,0,0,0,.59-1.49c.16-.9.19-1,.41-1.92l.24,2.5.21.12a28.42,28.42,0,0,1,.3-3.23c.07-.34.17-.74.19-.93a2,2,0,0,0-1-2c.19.68-.3,1.8-.53,3.21s-1,3.08-1.69,3.22a2.77,2.77,0,0,1-1.2-.47C617.73,206.8,617.87,206.38,618,206.06Z" style="fill:#2d3680;fill-rule:evenodd"/><path d="M624.19,165.76c.73,2.38,2.19,4.56,2.47,6.42a22.15,22.15,0,0,1-.23,6.47c-.24,1.9-1.21,6.21-1,7.84.31,2.39,1.18,3.81,1.46,6.61a74.15,74.15,0,0,1-.25,8.65A5.21,5.21,0,0,0,627,204a9.49,9.49,0,0,1,.2,1.12,17.07,17.07,0,0,1,.08,3.37c0,.48-.22.71-.26,1.36l-2.66.84c.06-.56.14-1.42.18-2.37s0-1.77,0-2.62a14.57,14.57,0,0,0-.1-3.11c-.71-3.81-1.82-7.15-2.57-10.28-.39-1.64-.51-3.09-1.08-5.43a16.67,16.67,0,0,1-.49-2.88c-.15-2.6-.65-5.73-.66-8.4-2.15-3.11-3.55-4.64-4.13-6.26a7.23,7.23,0,0,1,.26-2.33Z" style="fill-rule:evenodd;fill:url(#linear-gradient-68)"/><path d="M626.73,203.11a5.4,5.4,0,0,1,.56,1.54c.12.75-.07,2,.08,2.88l.24,1.46a2.31,2.31,0,0,1-.88,2.3c-.8.76-1.62,1.13-2.12,1s-.72-.7-.4-2.36a28.4,28.4,0,0,0,.32-4.17,14.35,14.35,0,0,1,0,3.34c0,.41-.07,1.05.4,1.06,1.94,0,2-.5,2.05-1.11A19.34,19.34,0,0,0,626.73,203.11Z" style="fill:#2d3680;fill-rule:evenodd"/><path d="M624.19,165.76c.73,2.38,2.19,4.56,2.47,6.42.44,2.8-.06,5-.82,11.12a6.55,6.55,0,0,0,.17,2.24c.45,2.13-1.64,2.72-4.12,1.94-3-1-5.83-3.23-6-4.27-.34-3-1.19-8.64-1.14-11.19a15.78,15.78,0,0,1,.7-4.1l0-.66C615.56,166.73,623.11,165.92,624.19,165.76Z" style="fill-rule:evenodd;fill:url(#linear-gradient-69)"/><path d="M629.56,153.29c-5.56,3-7.88-2.73-8.46-7-.25-1.85-.18-3.63.62-4.74a4.16,4.16,0,0,1,3.64-1.58c3,.11,4.62,3,3.89,5.95S627.15,151.94,629.56,153.29Z" style="fill-rule:evenodd;fill:url(#linear-gradient-70)"/><path d="M622.22,141.64c1.51-.78,3.69,1,3,3.36A4.23,4.23,0,0,0,622.22,141.64Z" style="fill:#fff;fill-rule:evenodd"/><path d="M622.4,141.43c-5.34-1.76-9.14,6.48-3,9C625.2,152.9,628.32,143.4,622.4,141.43Z" style="fill-rule:evenodd;fill:url(#linear-gradient-71)"/><path d="M601.5,156.22c-.32.46.28.78.55.79.42.06,1-.16,1.19.12s2.16-.34,2.14-.36a3.56,3.56,0,0,0-1.71-.72C602.39,156.13,602.77,156.42,601.5,156.22Z" style="fill-rule:evenodd;fill:url(#linear-gradient-72)"/><path d="M605.1,158.64c1.83.51,4.34,2.31,6.09,2.7.55.13,1.41.37,1.84-.1,2.25-2.43-.87-1.63-1.14-2.55-1.59-1.18-4.09-.62-6.14-1.72a3.52,3.52,0,0,0-.4-.24c-.8-.4-1.25-.37-2.64.33a1.6,1.6,0,0,1-1,.17l-1.4-.18c-.43,0-.7.09-.77.23a2.57,2.57,0,0,0,.33,1.39h0c.05.16.37.29.87.29l2.05.63.09-.05C604.13,158.84,604.65,158.61,605.1,158.64Z" style="fill:#efb28e;fill-rule:evenodd"/><path d="M613.82,161.45c1.65-1.54,4-3.78,4.84-5.55.54-1.15.65-4.39-1.11-4.8-.59-.37-1.49,2-2.09,3a42,42,0,0,1-3.18,4.43c-1.36-.88-3.23-1-5-1.41a1.72,1.72,0,0,0-.81,0,2.59,2.59,0,0,1-.61-.21,2.59,2.59,0,0,0-.75,1.87l.6.19c.21.07.32.27.53.38a32.07,32.07,0,0,0,5.43,2.31c.6.13,1.56.44,2-.07Z" style="fill-rule:evenodd;fill:url(#linear-gradient-73)"/><path d="M613.82,161.45c.55-.51,1.17-1.1,1.79-1.72a3.42,3.42,0,0,1-.34-4.39,11.29,11.29,0,0,0,1.15-2,9.42,9.42,0,0,1,.26-1.17,1.79,1.79,0,0,1,.19-.45,15.9,15.9,0,0,0-.87,1.94c-.75,1.59-1.9,2.52-2,4.4a5.22,5.22,0,0,1-1.73,3.76,1.51,1.51,0,0,0,1.42-.21Z" style="fill:#ff5b35;fill-rule:evenodd"/><path d="M625.29,163.3c-1,2.36.71,3.67.09,5.29l.19,1.1c-1.86,1.34-8.51,1.44-10.18-1.21l0-1.32a6.22,6.22,0,0,1,0-2.65,32,32,0,0,0,.28-3.6c0-.4.11-.64.15-1a3.37,3.37,0,0,1-.51-4.53,11.29,11.29,0,0,0,1.15-2,9.42,9.42,0,0,1,.26-1.17,1.9,1.9,0,0,1,.31-.64c.42-.6,1.11-.67,2.5-.35a15.14,15.14,0,0,1,6.89,3.42c.92,1,.89,2.08.36,4.44A24.76,24.76,0,0,1,625.29,163.3Z" style="fill-rule:evenodd;fill:url(#linear-gradient-74)"/><path d="M625.31,163.29c-1,2.36.67,3.71.05,5.33l.19,1.09c-1.86,1.44-8.51,1.37-10.18-1.27l0-1.16s3.26,2.9,7,1.26c.81-.35,1.54-2.12.49-5.49-.1-.32-1.28-.34-3-1.58,1.24.52,3.58,1.24,3.69-1.91a5.76,5.76,0,0,1,1-3.45c.35-.47,2.4,2,2.09,3.22A29.48,29.48,0,0,1,625.31,163.29Z" style="fill:#ff5b35;fill-rule:evenodd"/><path d="M618.22,152.31a20.13,20.13,0,0,0,0,5.45c1.14-1.36,5.32-3.43,4.82-4.6C622.47,151.82,618.58,151.14,618.22,152.31Z" style="fill:#efb28e;fill-rule:evenodd"/><path d="M622,149.18a7.3,7.3,0,0,0,.27,3.56,2.21,2.21,0,0,1-3.18-.31c.09-.54.19-1,.25-1.59Z" style="fill:#efb28e;fill-rule:evenodd"/><path d="M622,149.18a6.7,6.7,0,0,0-.09,1.72c-.3,1.19-2.51,2-2.74,1,.07-.36.13-.72.17-1.1Z" style="fill-rule:evenodd;fill:url(#linear-gradient-75)"/><path d="M617.92,144a3.91,3.91,0,0,0-.65,2.71,1.15,1.15,0,0,1-.09.64,2.55,2.55,0,0,0-.2,2.22c.23.82.21,1.24.49,1.52a1.62,1.62,0,0,0,1.08.38,6.4,6.4,0,0,0,2.76-.85c.56-.3.53-.51.77-1,.77-.67.27-1.17,0-1.22-.75-.14-.87.72-1.31.91C620.85,147.8,618,145.24,617.92,144Z" style="fill-rule:evenodd;fill:url(#linear-gradient-76)"/><path d="M617.59,144.64a3.8,3.8,0,0,0-.32,2.1,1.15,1.15,0,0,1-.09.64,2.55,2.55,0,0,0-.2,2.22c.1.36.16.65.21.88a.7.7,0,0,0,.87.26,1.36,1.36,0,0,0,.69-1.12c.06-.44,1-.72,1.13-1.17s-.26-.77-.51-1A6.2,6.2,0,0,1,617.59,144.64Z" style="fill:#efb28e;fill-rule:evenodd"/><path d="M617.92,144c.41,1.86,2.84,3.26,2.86,5.28C620.12,147.21,617.76,145.78,617.92,144Z" style="fill:#ea9b6e;fill-rule:evenodd"/><path d="M626.51,168c-.33.2-.93.4-1.18.54s-1,.64-1.52,1a3.7,3.7,0,0,0-1,1.47,3.66,3.66,0,0,0-.36,1.05c0,.25.59.72.85.66.6-.13,1.22-.87,1.38-.95,1.34-.7,2-.77,2.47-1.32.21-.24.34-.93.77-1.56l-.83-.74Z" style="fill-rule:evenodd;fill:url(#linear-gradient-77)"/><path d="M626.51,154.56c2.18.91,4,5.18,6,7.72a1.2,1.2,0,0,1,.19,1.37,3.38,3.38,0,0,1-.39.7,17.75,17.75,0,0,1-3.72,4.27,1.16,1.16,0,0,1-.51.25c-.13.1-.31.29-.44.4.17-.22-.83-1.29-1.29-1.22.12-.15.24-.3.36-.47a.63.63,0,0,1,.13-.43,37.56,37.56,0,0,1,2.7-4,25.46,25.46,0,0,1-4.27-4.16C623.25,156.53,624.84,153.87,626.51,154.56Z" style="fill-rule:evenodd;fill:url(#linear-gradient-78)"/><polygon points="576.72 170.3 577.2 170.03 614.63 191.64 576.72 213.52 576.72 170.3" style="fill:url(#linear-gradient-79)"/><polygon points="566.46 191.28 566.46 192 566.94 192.27 566.94 191.56 566.46 191.28" style="fill:#d5dbe5"/><path d="M585.37,190.65a.43.43,0,0,0,.43-.43v-2.43c.06-17.41.25-70.39-14.67-79.46a.42.42,0,0,0-.59.14.43.43,0,0,0,.14.6c9.62,5.85,14.42,32.33,14.25,78.72v2.43A.44.44,0,0,0,585.37,190.65Z" style="fill:#ccd0d7"/><polygon points="540.96 194.5 575.36 214.36 577.09 213.35 542.69 193.48 540.96 194.5" style="fill:#d4d8e0"/><polygon points="542.94 193.65 576.82 213.21 586.39 116.86 552.51 97.3 542.94 193.65" style="fill:#dee1e8"/><path d="M604.45,202.88l7.63-4.41,31,17.89c6.13,3.54,6.13,9.28,0,12.82L641,230.41l-15.18,3.23-21.32-9.92Z" style="fill:url(#linear-gradient-80)"/><path d="M642.17,196.44l.07,33.26-6.34,4.75a27.33,27.33,0,0,1-27.31,0l-3.43-2L594,226a7.45,7.45,0,0,1-3.71-6.42v-36.2h1.12Z" style="fill:url(#linear-gradient-81)"/><path d="M594.41,176.24a8.29,8.29,0,0,0,0,14.35L609,199a28.2,28.2,0,0,0,28.17,0l4.78-2.75-41.08-23.72Z" style="fill:#dee1e8"/><polygon points="614.5 196.82 622.18 201.26 632.12 195.52 624.44 191.09 614.5 196.82" style="fill:#fff"/><polygon points="604.83 191.15 612.5 195.58 622.44 189.85 614.76 185.41 604.83 191.15" style="fill:#fff"/><polygon points="594.61 185.48 602.28 189.91 612.22 184.18 604.54 179.74 594.61 185.48" style="fill:#fff"/></g></g></g></g></svg>