<?xml version="1.0" encoding="UTF-8"?>
<svg width="36px" height="31px" viewBox="0 0 36 31" version="1.1" xmlns="http://www.w3.org/2000/svg" xmlns:xlink="http://www.w3.org/1999/xlink">
    <!-- Generator: Sketch 59.1 (86144) - https://sketch.com -->
    <title>icon-19</title>
    <desc>Created with Sketch.</desc>
    <defs>
        <linearGradient x1="99.2399574%" y1="14.0744929%" x2="0%" y2="86.4800347%" id="linearGradient-1">
            <stop stop-color="#FBD55B" offset="0.0448690878%"></stop>
            <stop stop-color="#F9BE00" offset="100%"></stop>
        </linearGradient>
    </defs>
    <g id="Design" stroke="none" stroke-width="1" fill="none" fill-rule="evenodd">
        <g id="Communication" transform="translate(-265.000000, -2653.000000)" fill="url(#linearGradient-1)" fill-rule="nonzero">
            <g id="Industry" transform="translate(0.000000, 1938.000000)">
                <g id="Group-11">
                    <g id="text-copy" transform="translate(265.000000, 100.000000)">
                        <g id="3" transform="translate(0.000000, 615.000000)">
                            <path d="M36,4.5 C36,2.01471863 33.9852814,0 31.5,0 L4.5,0 C2.01471863,0 0,2.01471863 0,4.5 L0,26.25 C0,28.7352814 2.01471863,30.75 4.5,30.75 L31.5,30.75 C33.9852814,30.75 36,28.7352814 36,26.25 L36,4.5 Z M14.481,3 C14.7358575,2.5376211 15.2220354,2.25045693 15.75,2.25045693 C16.2779646,2.25045693 16.7641425,2.5376211 17.019,3 C17.1633096,3.22409127 17.2432226,3.48354882 17.25,3.75 C17.2432226,4.01645118 17.1633096,4.27590873 17.019,4.5 C16.7641425,4.9623789 16.2779646,5.24954307 15.75,5.24954307 C15.2220354,5.24954307 14.7358575,4.9623789 14.481,4.5 C14.3366904,4.27590873 14.2567774,4.01645118 14.25,3.75 C14.2567774,3.48354882 14.3366904,3.22409127 14.481,3 L14.481,3 Z M9.231,3 C9.48585747,2.5376211 9.97203544,2.25045693 10.5,2.25045693 C11.0279646,2.25045693 11.5141425,2.5376211 11.769,3 C11.9133096,3.22409127 11.9932226,3.48354882 12,3.75 C11.9932226,4.01645118 11.9133096,4.27590873 11.769,4.5 C11.5141425,4.9623789 11.0279646,5.24954307 10.5,5.24954307 C9.97203544,5.24954307 9.48585747,4.9623789 9.231,4.5 C9.08669037,4.27590873 9.00677745,4.01645118 9,3.75 C9.00677745,3.48354882 9.08669037,3.22409127 9.231,3 Z M18.2685,10.5 C19.3324821,10.4731007 20.2181378,11.311155 20.25,12.375 L20.25,12.375 L20.25,22.875 C20.2189504,23.9392091 19.3328008,24.7777307 18.2685,24.75 L18.2685,24.75 L7.9815,24.75 C6.91719924,24.7777307 6.03104963,23.9392091 6,22.875 L6,22.875 L6,12.375 C6.03186216,11.311155 6.91751794,10.4731007 7.9815,10.5 L7.9815,10.5 Z M29.625,21.75 C30.2463203,21.75 30.75,22.2536797 30.75,22.875 C30.75,23.4963203 30.2463203,24 29.625,24 L29.625,24 L23.625,24 C23.0036797,24 22.5,23.4963203 22.5,22.875 C22.5,22.2536797 23.0036797,21.75 23.625,21.75 L23.625,21.75 Z M17.625,12.75 L8.625,12.75 C8.41789322,12.75 8.25,12.9178932 8.25,13.125 L8.25,13.125 L8.25,22.125 C8.25,22.3321068 8.41789322,22.5000012 8.625,22.5000012 L8.625,22.5000012 L9.2115,22.5000012 C9.38058138,22.5004301 9.52886269,22.3872195 9.573,22.224 C9.9220422,20.5078237 11.3773458,19.2381205 13.125,19.125 C14.8726542,19.2381205 16.3279578,20.5078237 16.677,22.224 C16.7211373,22.3872195 16.8694186,22.5004301 17.0385,22.5000012 L17.0385,22.5000012 L17.625,22.5000012 C17.8321068,22.5000012 18,22.3321068 18,22.125 L18,22.125 L18,13.125 C18,12.9178932 17.8321068,12.75 17.625,12.75 L17.625,12.75 Z M13.125,14.625 C14.3676407,14.625 15.375,15.6323593 15.375,16.875 C15.375,18.1176407 14.3676407,19.125 13.125,19.125 C11.8823593,19.125 10.875,18.1176407 10.875,16.875 C10.875,15.6323593 11.8823593,14.625 13.125,14.625 Z M29.625,16.5 C30.2463203,16.5 30.75,17.0036797 30.75,17.625 C30.75,18.2463203 30.2463203,18.75 29.625,18.75 L29.625,18.75 L23.625,18.75 C23.0036797,18.75 22.5,18.2463203 22.5,17.625 C22.5,17.0036797 23.0036797,16.5 23.625,16.5 L23.625,16.5 Z M29.625,11.25 C30.2463203,11.25 30.75,11.7536797 30.75,12.375 C30.75,12.9963203 30.2463203,13.5 29.625,13.5 L29.625,13.5 L23.625,13.5 C23.0036797,13.5 22.5,12.9963203 22.5,12.375 C22.5,11.7536797 23.0036797,11.25 23.625,11.25 L23.625,11.25 Z M5.25,2.25 C5.77640773,2.25607064 6.25982209,2.54177652 6.519,3 C6.66330963,3.22409127 6.74322255,3.48354882 6.75,3.75 C6.74322255,4.01645118 6.66330963,4.27590873 6.519,4.5 C6.26414253,4.9623789 5.77796456,5.24954307 5.25,5.24954307 C4.72203544,5.24954307 4.23585747,4.9623789 3.981,4.5 C3.83669037,4.27590873 3.75677745,4.01645118 3.75,3.75 C3.75103367,3.59133077 3.77777127,3.43423405 3.82885339,3.28473852 L3.888,3.138 C4.12829288,2.60027675 4.66103622,2.25293748 5.25,2.25 Z" id="icon-19"></path>
                        </g>
                    </g>
                </g>
            </g>
        </g>
    </g>
</svg>