<?xml version="1.0" encoding="UTF-8"?>
<svg width="30px" height="36px" viewBox="0 0 30 36" version="1.1" xmlns="http://www.w3.org/2000/svg" xmlns:xlink="http://www.w3.org/1999/xlink">
    <!-- Generator: Sketch 59.1 (86144) - https://sketch.com -->
    <title>icon-10</title>
    <desc>Created with Sketch.</desc>
    <defs>
        <linearGradient x1="84.7222222%" y1="0%" x2="15.2777778%" y2="100%" id="linearGradient-1">
            <stop stop-color="#F69882" offset="0%"></stop>
            <stop stop-color="#FF5B35" offset="100%"></stop>
        </linearGradient>
    </defs>
    <g id="Design" stroke="none" stroke-width="1" fill="none" fill-rule="evenodd">
        <g id="Communication" transform="translate(-1025.000000, -1125.000000)" fill="url(#linearGradient-1)" fill-rule="nonzero">
            <g id="features-communication" transform="translate(0.000000, 975.000000)">
                <g id="Group-3" transform="translate(265.000000, 150.000000)">
                    <g id="2" transform="translate(760.000000, 0.000000)">
                        <path d="M20.508,2.84217094e-14 C21.303585,2.84217094e-14 22.066515,0.3163515 22.629,0.879 L29.121,7.37099992 C29.6836485,7.93347742 30,8.69641492 30,9.49199992 L30,33 C30,34.6568545 28.6568536,36 27,36 L3,36 C1.40231839,36 0.0963390689,34.7510789 0.00509269064,33.1762727 L1.90070182e-13,33 L1.90070182e-13,33 L1.90070182e-13,3 C1.90070182e-13,1.343145 1.343145,2.84217094e-14 3,2.84217094e-14 L20.508,2.84217094e-14 Z M10.1578571,12.4323233 C9.42119292,11.8198653 8.32627632,11.8581439 7.63439152,12.5471592 L7.63439152,12.5471592 L6.76268695,13.4197319 L6.63031497,13.5635971 C5.91523987,14.4007367 5.7968977,15.5985243 6.33526133,16.5597269 L6.33526133,16.5597269 L6.43139524,16.718116 L6.79047169,17.2487642 C9.21540769,20.7630124 12.259722,23.8066527 15.7745245,26.2307069 L15.7745245,26.2307069 L16.2809795,26.5735372 L16.4480275,26.67336 C17.465284,27.2319243 18.7391793,27.065069 19.578915,26.2421996 L19.578915,26.2421996 L20.4513687,25.3696272 L20.5665136,25.2436035 C21.1806193,24.5073905 21.1422377,23.4108473 20.4513689,22.7196756 L20.4513689,22.7196756 L18.864609,21.1289524 L18.7372233,21.0173367 C17.994645,20.4220529 16.9138131,20.4592581 16.2135186,21.1289524 L16.2135186,21.1289524 L15.9249517,21.4168134 L15.3416587,20.916638 C13.9937769,19.7349048 12.738374,18.4511024 11.5866674,17.07644 L11.5866674,17.07644 L11.8759864,16.788581 L11.9906404,16.6622819 C12.6021286,15.9247081 12.5639105,14.8300718 11.8759863,14.1371301 L11.8759863,14.1371301 L10.2839829,12.5471592 Z M21.5952618,14.0212174 C21.4091905,13.9631927 21.1964614,14.0265903 21.0908852,14.1819139 C21.0511853,14.2403213 21.0302412,14.3071864 21.0303035,14.3753241 L21.0303035,14.3753241 L21.0303035,14.8440289 L21.0219693,14.8805171 C21.0058696,14.9141621 20.9681791,14.9377699 20.9242506,14.9377699 L20.9242506,14.9377699 L16.6363177,14.9377699 L16.5331037,14.9451314 C16.2307602,14.9887212 16,15.2206485 16,15.5002157 C16,15.8108459 16.2848892,16.0626615 16.6363177,16.0626615 L16.6363177,16.0626615 L20.9242505,16.0626615 L20.9653991,16.0698524 C21.0033752,16.0838911 21.0301275,16.1169779 21.0303035,16.1556511 L21.0303035,16.1556511 L21.0303035,16.6250361 L21.038922,16.7006044 C21.0784781,16.8714692 21.2495152,17 21.4545153,17 C21.5314584,17 21.6069528,16.9815025 21.6729152,16.9464882 L21.6729152,16.9464882 L23.7939742,15.8215965 L23.8628508,15.7761854 C24.0082598,15.6582966 24.044955,15.462532 23.9394856,15.3071535 C23.9036599,15.254374 23.8536858,15.2102018 23.7940434,15.1784967 L23.7940434,15.1784967 L21.6729844,14.0536051 Z M16.2272992,9 C16.1599739,9 16.0939163,9.01849968 16.0361992,9.05351827 L16.0361992,9.05351827 L14.1802726,10.1785451 L14.1200056,10.2239616 C13.9927727,10.3418646 13.9606644,10.5376527 14.0529501,10.6930498 C14.0842976,10.7458357 14.1280249,10.7900132 14.1802726,10.8216838 L14.1802726,10.8216838 L16.0361991,11.9467106 L16.0964495,11.9760694 L16.0964495,11.9760694 L16.160673,11.9939784 L16.2272992,12 L16.302106,11.9923812 C16.4712489,11.957413 16.5984845,11.8062139 16.5984845,11.6249911 L16.5984845,11.6249911 L16.5984845,11.15623 L16.6057769,11.1197374 C16.6198642,11.0860883 16.6528434,11.0624777 16.6912808,11.0624777 L16.6912808,11.0624777 L20.443222,11.0624777 L20.5335343,11.0551154 C20.7980848,11.0115203 21,10.7795651 21,10.4999644 C21,10.1892968 20.750722,9.93745098 20.443222,9.93745098 L20.443222,9.93745098 L16.6912808,9.93745098 L16.6551603,9.93008345 C16.6329563,9.9205952 16.6151684,9.90262403 16.6057769,9.88019132 L16.6057769,9.88019132 L16.5984845,9.84369875 L16.5984845,9.37500892 L16.5909433,9.29943151 C16.5563317,9.12854623 16.4066742,9 16.2272992,9 Z" id="icon-10"></path>
                    </g>
                </g>
            </g>
        </g>
    </g>
</svg>