<?xml version="1.0" encoding="UTF-8"?>
<svg width="36px" height="36px" viewBox="0 0 36 36" version="1.1" xmlns="http://www.w3.org/2000/svg" xmlns:xlink="http://www.w3.org/1999/xlink">
    <!-- Generator: Sketch 59.1 (86144) - https://sketch.com -->
    <title>icon-14</title>
    <desc>Created with Sketch.</desc>
    <defs>
        <linearGradient x1="100%" y1="0%" x2="0%" y2="100%" id="linearGradient-1">
            <stop stop-color="#F69882" offset="0%"></stop>
            <stop stop-color="#FF5B35" offset="100%"></stop>
        </linearGradient>
    </defs>
    <g id="Design" stroke="none" stroke-width="1" fill="none" fill-rule="evenodd">
        <g id="Communication" transform="translate(-265.000000, -1607.000000)" fill="url(#linearGradient-1)" fill-rule="nonzero">
            <g id="features-communication" transform="translate(0.000000, 975.000000)">
                <g id="Group-3" transform="translate(265.000000, 150.000000)">
                    <g id="6" transform="translate(0.000000, 482.000000)">
                        <path d="M26.2499999,16.5000005 L26.5277687,16.5042177 C31.6892679,16.654794 35.8455558,20.8113554 35.9958004,25.9728641 L35.9999999,26.2503178 L35.9962541,26.5229076 C35.8517332,31.7814952 31.5435075,36.0000005 26.2499999,36.0000005 C20.8652249,36.0000005 16.4999999,31.6347755 16.4999999,26.2500005 C16.4999999,20.8652255 20.8652249,16.5000005 26.2499999,16.5000005 Z M27.4810525,21.0291259 L27.4364975,21.06887 L23.1234786,26.4299331 C23.0436403,26.529216 23.0000795,26.6527756 23.0000003,26.7801775 C22.9998278,27.0582573 23.2025704,27.289077 23.4683653,27.3325999 L23.559107,27.3399785 L24.7839387,27.3399785 C24.9641757,27.3399785 25.1145527,27.467826 25.1493308,27.6377817 L25.1569082,27.712948 L25.1569082,31.6291274 C25.1568657,31.688509 25.1849487,31.7430556 25.2305003,31.7777071 L25.28148,31.805169 L25.311977,31.8131153 L25.3433929,31.8156185 L25.3981069,31.8073942 C25.4214811,31.8001983 25.4432669,31.7884342 25.4621417,31.772713 L25.4881051,31.7462398 L29.8011239,26.3851769 C29.8809623,26.2858939 29.9245231,26.1623344 29.9246023,26.0349325 C29.9247747,25.7568526 29.7220322,25.526033 29.4562373,25.48251 L29.3654956,25.4751314 L28.1406639,25.4751314 C27.960427,25.4751314 27.8100499,25.347284 27.7752719,25.1773282 L27.7676944,25.102162 L27.7676944,21.1859825 C27.7675417,21.1300162 27.7422616,21.0770778 27.6988316,21.0417784 C27.6348933,20.9898102 27.5469371,20.9871791 27.4810525,21.0291259 Z M16.5,9.76996262e-14 C25.5975002,9.76996262e-14 33,6.057 33,13.5 C32.9991992,14.2094505 32.930384,14.9171865 32.7945002,15.6135 L32.7945002,15.6135 L32.7734468,15.6824372 C32.737046,15.7706922 32.6683741,15.8429871 32.5800001,15.8835005 L32.5800001,15.8835005 L32.5121364,15.9065677 C32.4197531,15.9283444 32.3214961,15.9142933 32.2380001,15.8655005 L32.2380001,15.8655005 L31.8942547,15.6729334 C30.1615029,14.7395905 28.2222376,14.2496745 26.2500001,14.2500005 L26.2500001,14.2500005 C19.6285495,14.2582732 14.2622079,19.6226332 14.2514845,26.2440382 L14.2514845,26.2440382 L14.2514846,26.4135009 C14.2578496,26.5269369 14.2126493,26.6371818 14.1284846,26.7135009 L14.1284846,26.7135009 L14.0627272,26.7616399 C13.9925055,26.8020433 13.9102747,26.8188042 13.8284846,26.8080009 L13.8284846,26.8080009 L13.3148919,26.7327744 C12.6315659,26.623501 11.9543312,26.4783891 11.2859996,26.2980039 L11.2859996,26.2980039 L2.53799999,29.941504 C2.36485199,30.0134661 2.17102799,30.0179598 1.99472999,29.9540991 C1.60527944,29.8130271 1.40392844,29.3829546 1.54499999,28.9935036 L1.54499999,28.9935036 L1.545,28.9935036 L3.985485,22.2809886 C1.4991945,20.0315586 0.0562353,16.8523686 1.88293825e-13,13.4999886 C1.88293825e-13,6.057 7.40250019,9.76996262e-14 16.5,9.76996262e-14 Z" id="icon-14"></path>
                    </g>
                </g>
            </g>
        </g>
    </g>
</svg>