<?xml version="1.0" encoding="UTF-8"?>
<svg width="37px" height="37px" viewBox="0 0 37 37" version="1.1" xmlns="http://www.w3.org/2000/svg" xmlns:xlink="http://www.w3.org/1999/xlink">
    <!-- Generator: Sketch 59.1 (86144) - https://sketch.com -->
    <title>icon-23</title>
    <desc>Created with Sketch.</desc>
    <defs>
        <linearGradient x1="99.4628977%" y1="0.537102304%" x2="0%" y2="100%" id="linearGradient-1">
            <stop stop-color="#9F97C9" offset="0.0448690878%"></stop>
            <stop stop-color="#675FAA" offset="100%"></stop>
        </linearGradient>
    </defs>
    <g id="Design" stroke="none" stroke-width="1" fill="none" fill-rule="evenodd">
        <g id="Communication" transform="translate(-836.000000, -3829.000000)" fill="url(#linearGradient-1)" fill-rule="nonzero">
            <g id="Industry" transform="translate(0.000000, 1938.000000)">
                <g id="text-copy-2" transform="translate(0.000000, 1226.000000)">
                    <g id="Group-8" transform="translate(836.000000, 149.000000)">
                        <g id="3" transform="translate(0.000000, 516.000000)">
                            <path d="M26.75,17 C32.1320352,17.0066118 36.4933882,21.3679648 36.5,26.75 C36.5,32.1347763 32.1347763,36.5 26.75,36.5 C21.3652237,36.5 17,32.1347763 17,26.75 C17,21.3652237 21.3652237,17 26.75,17 Z M26.75,19.889 C22.9607743,19.889 19.889,22.9607743 19.889,26.75 C19.889,30.5392257 22.9607743,33.611 26.75,33.611 C30.5375122,33.6068665 33.6068665,30.5375122 33.611,26.75 C33.611,22.9607743 30.5392257,19.889 26.75,19.889 Z M2.25,0 L19.1895,0 C19.7195629,0 20.2303159,0.187237632 20.6335145,0.524898141 L20.7795,0.6585 L26.3415,6.2205 C26.716191,6.59543119 26.945061,7.08894728 26.9912951,7.6128039 L27,7.8105 L27,13.9245 C26.9975564,14.1270274 26.8335357,14.2903813 26.631,14.292 C18.4365,14.445 14.25,19.731 14.25,26.25 C14.2478197,28.4290117 14.8428726,30.5669483 15.9705,32.4315 C16.0434817,32.5450589 16.0486305,32.6894059 15.9839252,32.807876 C15.9321609,32.9026521 15.8423001,32.9687458 15.7393122,32.9913922 L15.66,33 L2.25,33 C1.05913601,33 0.084355084,32.0748384 0.00519081254,30.9040488 L0,30.75 L0,2.25 C0,1.05913601 0.925161591,0.084355084 2.09595119,0.00519081254 L2.25,0 L19.1895,0 Z M26.75,21.3335 C27.3082494,21.3335 27.7678466,21.7558805 27.8266451,22.2984952 L27.833,22.4165 L27.833,25.3055 C27.833,25.4801946 27.9569157,25.6259471 28.1216451,25.6596556 L28.1945,25.667 L29.639,25.667 C30.2371244,25.667 30.722,26.1518756 30.722,26.75 C30.722,27.3082494 30.2996195,27.7678466 29.7570048,27.8266451 L29.639,27.833 L26.75,27.833 C26.4627705,27.833 26.1873053,27.7188985 25.9842034,27.5157966 C25.810116,27.3417093 25.7014168,27.114457 25.6739126,26.8722014 L25.667,26.75 L25.667,22.4165 C25.667,21.8183756 26.1518756,21.3335 26.75,21.3335 Z M13.1582111,13.5 L7.15821109,13.5 C6.32978397,13.5 5.65821109,14.1715729 5.65821109,15 C5.65821109,15.7796961 6.25309918,16.4204487 7.01375108,16.4931334 L7.15821109,16.5 L12.0512111,16.5 C12.1698179,16.5024845 12.2820347,16.4463761 12.3512111,16.35 C12.8798542,15.6025546 13.4917861,14.9176539 14.1752111,14.3085 C14.2305654,14.2485341 14.2572274,14.1675287 14.2483099,14.0864085 C14.2393925,14.0052883 14.1957701,13.9320091 14.1287111,13.8855 C13.8658905,13.6384397 13.518923,13.5006179 13.1582111,13.5 Z M16.5,6.75 L6,6.75 C5.17157288,6.75 4.5,7.42157288 4.5,8.25 C4.5,9.02969612 5.09488808,9.67044868 5.85553999,9.74313342 L6,9.75 L16.5,9.75 C17.3284271,9.75 18,9.07842712 18,8.25 C18,7.42157288 17.3284271,6.75 16.5,6.75 Z" id="icon-23"></path>
                        </g>
                    </g>
                </g>
            </g>
        </g>
    </g>
</svg>