<?xml version="1.0" encoding="UTF-8"?>
<svg width="36px" height="36px" viewBox="0 0 36 36" version="1.1" xmlns="http://www.w3.org/2000/svg" xmlns:xlink="http://www.w3.org/1999/xlink">
    <!-- Generator: Sketch 59.1 (86144) - https://sketch.com -->
    <title>icon-13</title>
    <desc>Created with Sketch.</desc>
    <defs>
        <linearGradient x1="99.3290735%" y1="0.670926525%" x2="0%" y2="100%" id="linearGradient-1">
            <stop stop-color="#FBD55B" offset="0.0448690878%"></stop>
            <stop stop-color="#F9BE00" offset="100%"></stop>
        </linearGradient>
    </defs>
    <g id="Design" stroke="none" stroke-width="1" fill="none" fill-rule="evenodd">
        <g id="Communication" transform="translate(-1025.000000, -1381.000000)" fill="url(#linearGradient-1)" fill-rule="nonzero">
            <g id="features-communication" transform="translate(0.000000, 975.000000)">
                <g id="Group-3" transform="translate(265.000000, 150.000000)">
                    <g id="5" transform="translate(760.000000, 256.000000)">
                        <path d="M8.25,12.749 L8.50209439,12.7540418 C12.9397006,12.8919328 16.4951195,16.5300167 16.5,20.9999778 L16.5,20.9999778 L16.5,26.2499928 C16.5,26.6642131 16.1642129,27.0000001 15.7499999,27.0000001 L15.7499999,27.0000001 L13.0349999,27.0000001 C12.8413244,27.0016396 12.6807622,27.1505026 12.6644999,27.3435001 L12.6644999,27.3435001 L12,35.3130001 C11.9671739,35.7024301 11.6408084,36.0013811 11.2499999,36.0000048 L11.2499999,36.0000048 L5.24999997,36.0000048 C4.85919147,36.0013816 4.53282552,35.7024301 4.5,35.3130001 L4.5,35.3130001 L3.83849998,27.3435001 C3.82213498,27.1493604 3.65982748,27.0000908 3.46499998,27.0000001 L3.46499998,27.0000001 L0.75,27.0000001 L0.75,27.0000001 L0.648229561,26.9931535 C0.282154354,26.9434909 8.8817842e-15,26.6296948 8.8817842e-15,26.2499928 L8.8817842e-15,26.2499928 L8.8817842e-15,21 C0.004965,16.4457 3.6957,12.7549603 8.25,12.7499928 L8.25,12.749 Z M34.5,-7.10542736e-15 L34.6444751,0.00686657772 C35.4051273,0.079551318 36.000015,0.72030385 36.000015,1.5 L36.000015,1.5 L36.000015,16.5 C36.000015,17.3284278 35.3284425,18 34.500015,18 C33.6715875,18 33.0000151,17.3284278 33.000015,16.5 L33.000015,16.5 L33.000015,15.6794926 C32.9993475,15.5061901 32.8804635,15.3557283 32.712015,15.3149926 L32.712015,15.3149926 L30.360015,14.7569926 C30.3350408,14.7511534 30.3097412,14.7479252 30.284496,14.7472415 L30.2093038,14.7527575 C30.159791,14.761435 30.1120152,14.7800242 30.069015,14.8079926 L30.069015,14.8079926 L30.0095008,14.8561131 C29.9555368,14.9098219 29.918886,14.9792923 29.905515,15.0554926 L29.905515,15.0554926 L29.8621646,15.2678876 C29.3961408,17.3014723 27.580184,18.7574339 25.474755,18.7512423 C22.99611,18.7439175 20.9927033,16.7286525 21.000015,14.2500075 L21.000015,14.2500075 L21.000015,12.8309996 C20.999709,12.6570731 20.879853,12.5061838 20.710506,12.4665326 L20.710506,12.4665326 L19.153506,12.0960326 C19.1285817,12.0901286 19.1036418,12.0868621 19.0789817,12.0860541 L19.0061358,12.0908259 C18.8633033,12.1144035 18.7411699,12.2200354 18.703506,12.3690326 L18.703506,12.3690326 L18.6640415,12.4990723 C18.4541672,13.0928054 17.8909965,13.4977488 17.2515675,13.4984111 C16.423134,13.4992691 15.7508657,12.8283911 15.7500011,11.9999651 L15.7500011,11.9999651 L15.7500011,6 C15.7479991,5.31039067 16.2164431,4.70826217 16.8853696,4.54062517 C17.0271768,4.50508735 17.1693298,4.49102363 17.3083972,4.49637781 L17.446309,4.50812846 C18.0383681,4.58643599 18.5510073,5.01649797 18.7050046,5.63099917 L18.7050046,5.63099917 L18.7305804,5.70170484 C18.8053042,5.85741688 18.9805339,5.94532652 19.1550045,5.90399905 L19.1550045,5.90399905 L32.7120046,2.68499905 C32.8804523,2.64426205 32.9993337,2.49379855 33.0000001,2.32049605 L33.0000001,2.32049605 L33,1.5 L33,1.5 L33.0068666,1.35553993 C33.0795513,0.594887751 33.7203036,-7.10542736e-15 34.5,-7.10542736e-15 L34.5,-7.10542736e-15 Z M24.3752596,13.3457688 L24.2996784,13.353335 C24.1287724,13.3881839 24.0001252,13.5392912 24.0000001,13.7205094 L24.0000001,13.7205094 L24.0000001,14.25 C24.0000001,15.0784275 24.6715726,15.75 25.5000001,15.75 L25.5000001,15.75 L25.6444602,15.7431334 C26.4051124,15.6704487 27.0000001,15.0296965 27.0000001,14.25 L27.0000001,14.25 L26.9928265,14.1778685 C26.9646664,14.0374793 26.8561176,13.9234287 26.7119916,13.8914983 L26.7119916,13.8914983 L24.4619915,13.3559982 C24.4335779,13.3492221 24.40447,13.3457688 24.3752596,13.3457688 L24.3752596,13.3457688 Z M11.9623051,2.287695 C14.0125651,4.337955 14.0125651,7.66206 11.9623051,9.71232 C11.0250434,10.6495817 9.82157407,11.1583809 8.59528695,11.2387176 L8.36515014,11.2487597 L8.36515014,11.2487597 L8.13483507,11.2487597 C6.82988468,11.2203072 5.53352067,10.7081606 4.5376801,9.71232 C2.4874201,7.66206 2.4874201,4.337955 4.5376801,2.287695 C6.5879401,0.237435 9.9120451,0.237435 11.9623051,2.287695 Z" id="icon-13"></path>
                    </g>
                </g>
            </g>
        </g>
    </g>
</svg>