<?xml version="1.0" encoding="UTF-8"?>
<svg width="37px" height="37px" viewBox="0 0 37 37" version="1.1" xmlns="http://www.w3.org/2000/svg" xmlns:xlink="http://www.w3.org/1999/xlink">
    <!-- Generator: Sketch 59.1 (86144) - https://sketch.com -->
    <title>icon-17</title>
    <desc>Created with Sketch.</desc>
    <defs>
        <linearGradient x1="100%" y1="0%" x2="0%" y2="100%" id="linearGradient-1">
            <stop stop-color="#5DCAE5" offset="0%"></stop>
            <stop stop-color="#0AADD7" offset="100%"></stop>
        </linearGradient>
    </defs>
    <g id="Design" stroke="none" stroke-width="1" fill="none" fill-rule="evenodd">
        <g id="Communication" transform="translate(-265.000000, -2351.000000)" fill="url(#linearGradient-1)" fill-rule="nonzero">
            <g id="Industry" transform="translate(0.000000, 1938.000000)">
                <g id="Group-11">
                    <g id="text-copy" transform="translate(265.000000, 100.000000)">
                        <g id="1" transform="translate(0.000000, 313.000000)">
                            <path d="M26.75,17 C32.1323631,17.0058214 36.4941786,21.3676369 36.5,26.75 C36.5,32.1347763 32.1347763,36.5 26.75,36.5 C21.3652237,36.5 17,32.1347763 17,26.75 C17,21.3652237 21.3652237,17 26.75,17 Z M2.25,0 L19.1895,0 C19.7195629,0 20.2303159,0.187237632 20.6335145,0.524898141 L20.7795,0.6585 L26.3415,6.2205 C26.716191,6.59543119 26.945061,7.08894728 26.9912951,7.6128039 L27,7.8105 L27,13.9245 C26.9975564,14.1270274 26.8335357,14.2903813 26.631,14.292 C18.4365,14.445 14.25,19.731 14.25,26.25 C14.2478197,28.4290117 14.8428726,30.5669483 15.9705,32.4315 C16.0434817,32.5450589 16.0486305,32.6894059 15.9839252,32.807876 C15.9321609,32.9026521 15.8423001,32.9687458 15.7393122,32.9913922 L15.66,33 L2.25,33 C1.05913601,33 0.084355084,32.0748384 0.00519081254,30.9040488 L0,30.75 L0,2.25 C0,1.05913601 0.925161591,0.084355084 2.09595119,0.00519081254 L2.25,0 L19.1895,0 Z M26.75,27.7800348 C24.6036171,27.7800348 22.6494572,29.0170888 21.7311875,30.957125 C21.6414618,31.145872 21.6547188,31.3674327 21.7663109,31.544134 C21.877903,31.7208352 22.0722617,31.8280248 22.28125,31.828125 L22.28125,31.828125 L31.21875,31.828125 C31.4279193,31.828125 31.6224484,31.7207695 31.733875,31.54375 C31.8455698,31.3672093 31.8587637,31.1456751 31.7688125,30.957125 C30.8505428,29.0170888 28.8963829,27.7800348 26.75,27.7800348 Z M26.75,20.534375 C25.089694,20.534375 23.74375,21.880319 23.74375,23.540625 C23.74375,25.200931 25.089694,26.546875 26.75,26.546875 C28.410306,26.546875 29.75625,25.200931 29.75625,23.540625 C29.75625,21.880319 28.410306,20.534375 26.75,20.534375 Z M13.1582111,13.5 L7.15821109,13.5 C6.32978397,13.5 5.65821109,14.1715729 5.65821109,15 C5.65821109,15.7796961 6.25309918,16.4204487 7.01375108,16.4931334 L7.15821109,16.5 L12.0512111,16.5 C12.1698179,16.5024845 12.2820347,16.4463761 12.3512111,16.35 C12.8798542,15.6025546 13.4917861,14.9176539 14.1752111,14.3085 C14.2305654,14.2485341 14.2572274,14.1675287 14.2483099,14.0864085 C14.2393925,14.0052883 14.1957701,13.9320091 14.1287111,13.8855 C13.8658905,13.6384397 13.518923,13.5006179 13.1582111,13.5 Z M16.5,6.75 L6,6.75 C5.17157288,6.75 4.5,7.42157288 4.5,8.25 C4.5,9.02969612 5.09488808,9.67044868 5.85553999,9.74313342 L6,9.75 L16.5,9.75 C17.3284271,9.75 18,9.07842712 18,8.25 C18,7.42157288 17.3284271,6.75 16.5,6.75 Z" id="icon-17"></path>
                        </g>
                    </g>
                </g>
            </g>
        </g>
    </g>
</svg>