<?xml version="1.0" encoding="UTF-8"?>
<svg width="33px" height="36px" viewBox="0 0 33 36" version="1.1" xmlns="http://www.w3.org/2000/svg" xmlns:xlink="http://www.w3.org/1999/xlink">
    <!-- Generator: Sketch 59.1 (86144) - https://sketch.com -->
    <title>icon-16</title>
    <desc>Created with Sketch.</desc>
    <defs>
        <linearGradient x1="91.5625738%" y1="0.537102304%" x2="7.98611111%" y2="100%" id="linearGradient-1">
            <stop stop-color="#9F97C9" offset="0.0448690878%"></stop>
            <stop stop-color="#675FAA" offset="100%"></stop>
        </linearGradient>
    </defs>
    <g id="Design" stroke="none" stroke-width="1" fill="none" fill-rule="evenodd">
        <g id="Communication" transform="translate(-1027.000000, -1607.000000)" fill="url(#linearGradient-1)" fill-rule="nonzero">
            <g id="features-communication" transform="translate(0.000000, 975.000000)">
                <g id="Group-3" transform="translate(265.000000, 150.000000)">
                    <g id="8" transform="translate(760.000000, 482.000000)">
                        <path d="M19.9500157,23.3416828 C21.8647381,20.1060805 26.0398931,19.0352933 29.2755015,20.9500157 C32.5111038,22.8647382 33.581891,27.0398932 31.6671686,30.2755016 L31.6671686,30.2755016 L31.6219184,30.3689371 C31.5360721,30.5926133 31.5876734,30.8502956 31.7618027,31.0239733 L31.7618027,31.0239733 L34.6401605,33.9023311 C35.1199465,34.3822622 35.1199465,35.1602299 34.6401604,35.6401611 L34.6401604,35.6401611 L34.5403771,35.7297206 C34.057825,36.1178141 33.3502662,36.0879608 32.9023305,35.6401604 L32.9023305,35.6401604 L30.0239728,32.7618027 C29.8254841,32.5627983 29.517275,32.5238294 29.2755015,32.6671684 L29.2755015,32.6671684 L29.0358489,32.8025461 C26.9412462,33.9306938 24.4006021,33.8855679 22.3416827,32.6671687 C19.1060805,30.7524463 18.0352933,26.5772912 19.9500157,23.3416828 Z M26,23 C23.7908672,23 22,24.7908555 22,27 L22,27 C22.0006234,29.2107761 23.7914902,31.0006253 26,31 L26,31 L26.1996399,30.9951047 C28.3160261,30.8910792 30,29.1422006 30,27 C30,24.7908668 28.2091446,23 26,23 Z M4.52972973,1.13686838e-12 L19.2932325,1.13686838e-12 C19.8970171,1.13686838e-12 20.4785024,0.214691518 20.9345303,0.601286401 L21.0817515,0.736459459 L26.5555679,6.17519992 C26.9829732,6.59949106 27.2418447,7.16004195 27.2893449,7.75415663 L27.297291,7.95329708 L27.2978446,17.5889897 C26.9037752,17.5391817 26.5021825,17.5135135 26.0945946,17.5135135 C20.8478895,17.5135135 16.5945946,21.7668084 16.5945946,27.0135135 C16.5945946,28.1173551 16.7828579,29.1772254 17.1290272,30.1627672 L4.52972973,30.1621656 C3.18848443,30.1621656 2.09103119,29.1250516 2.00538092,27.8139133 L2,27.648649 L2,2.51351351 C2,1.18086594 3.04380227,0.0904476537 4.36339923,0.00534642679 L4.52972973,1.13686838e-12 L19.2932325,1.13686838e-12 Z M19.0756694,7.64189546 L17.8108045,7.64189546 C17.4932751,7.64189546 17.2304005,7.87440377 17.1852293,8.17741679 L17.1783721,8.27027384 L17.1783721,14.5540576 C17.1783721,14.8695516 17.4123804,15.1307411 17.7173484,15.1756228 L17.8108045,15.182436 L19.0756694,15.182436 C19.3931987,15.182436 19.6560734,14.9499277 19.7012446,14.6469147 L19.7081018,14.5540576 L19.7081018,8.27027384 C19.7081018,7.92323051 19.4249517,7.64189546 19.0756694,7.64189546 Z M14.6486423,5.12838195 L13.3837775,5.12838195 C13.0662481,5.12838195 12.8033734,5.36089026 12.7582022,5.66390328 L12.751345,5.75676032 L12.751345,14.5540576 C12.751345,14.8695516 12.9853534,15.1307411 13.2903213,15.1756228 L13.3837774,15.182436 L14.6486423,15.182436 C14.9661717,15.182436 15.2290464,14.9499277 15.2742176,14.6469147 L15.2810748,14.5540576 L15.2810748,5.75676032 C15.2810748,5.409717 14.9979246,5.12838195 14.6486423,5.12838195 Z M10.2216153,10.7837874 L8.95675047,10.7837874 C8.6392211,10.7837874 8.3763464,11.0162957 8.33117521,11.3193087 L8.324318,11.4121657 L8.324318,14.5540576 C8.324318,14.8695516 8.55832637,15.1307411 8.86329431,15.1756228 L8.95675044,15.182436 L10.2216153,15.182436 C10.5391447,15.182436 10.8020194,14.9499277 10.8471905,14.6469147 L10.8540477,14.5540576 L10.8540477,11.4121657 C10.8540477,11.0651224 10.5708976,10.7837874 10.2216153,10.7837874 Z" id="icon-16"></path>
                    </g>
                </g>
            </g>
        </g>
    </g>
</svg>