<?xml version="1.0" encoding="UTF-8"?>
<svg width="33px" height="37px" viewBox="0 0 33 37" version="1.1" xmlns="http://www.w3.org/2000/svg" xmlns:xlink="http://www.w3.org/1999/xlink">
    <!-- Generator: Sketch 59.1 (86144) - https://sketch.com -->
    <title>icon-menu-1</title>
    <desc>Created with Sketch.</desc>
    <defs>
        <linearGradient x1="88.7165349%" y1="0.715494575%" x2="10.7213925%" y2="100%" id="linearGradient-1">
            <stop stop-color="#FBD55B" offset="0.0448690878%"></stop>
            <stop stop-color="#F9BE00" offset="100%"></stop>
        </linearGradient>
    </defs>
    <g id="Design" stroke="none" stroke-width="1" fill="none" fill-rule="evenodd">
        <g id="Inquiry" transform="translate(-317.000000, -1646.000000)" fill="url(#linearGradient-1)" fill-rule="nonzero">
            <path d="M330.516883,1665.81183 C333.197214,1661.92682 338.519497,1660.95022 342.404514,1663.63056 C346.28953,1666.31089 347.266121,1671.63317 344.58579,1675.51819 L344.58579,1675.51819 L348.641359,1679.57376 C349.218737,1680.17156 349.218737,1681.11932 348.641359,1681.71712 C348.049483,1682.32993 347.072895,1682.34691 346.460083,1681.75503 L346.460083,1681.75503 L342.404514,1677.69946 C339.482976,1679.71508 335.619696,1679.71508 332.698159,1677.69946 C328.813143,1675.01913 327.836551,1669.69685 330.516883,1665.81183 Z M318.502033,1646 L335.904582,1646 C336.253122,1646 336.589147,1646.12127 336.856371,1646.3403 L336.966519,1646.4401 L342.094459,1651.56803 C342.340951,1651.81445 342.49303,1652.13771 342.527198,1652.48153 L342.534554,1652.62997 L342.535069,1660.51521 C341.035742,1659.78138 339.350164,1659.36944 337.568374,1659.36944 C331.418225,1659.36944 326.414333,1664.27724 326.259463,1670.39007 L326.255768,1670.68205 L326.259786,1670.97389 C326.368478,1675.0867 328.669493,1678.65304 332.037075,1680.54716 L318.502033,1680.54675 C317.718569,1680.54675 317.075205,1679.94691 317.006138,1679.18143 L317,1679.04472 L317,1647.50203 C317,1646.71857 317.599838,1646.07521 318.365317,1646.00614 L318.502033,1646 L335.904582,1646 Z M337.568374,1665.23811 C334.561777,1665.23811 332.12444,1667.67545 332.12444,1670.68205 L332.12444,1670.68205 L332.129001,1670.9009 C332.24697,1673.80459 334.636478,1676.12267 337.568375,1676.12598 L337.568375,1676.12598 L337.787326,1676.12166 C340.692417,1676.00675 343.012309,1673.61532 343.012309,1670.68205 C343.012309,1667.67545 340.574972,1665.23811 337.568374,1665.23811 Z M325.886504,1657.64909 L321.833223,1657.64909 C321.335764,1657.64909 320.932494,1658.05236 320.932494,1658.54981 C320.932494,1659.00901 321.276109,1659.38794 321.720237,1659.44353 L321.833223,1659.45054 L325.886504,1659.45054 C326.383963,1659.45054 326.787233,1659.04727 326.787233,1658.54981 C326.787233,1658.05236 326.383963,1657.64909 325.886504,1657.64909 Z M329.939785,1654.04617 L321.833223,1654.04617 C321.335764,1654.04617 320.932494,1654.44944 320.932494,1654.9469 C320.932494,1655.40609 321.276109,1655.78503 321.720237,1655.84061 L321.833223,1655.84763 L329.939785,1655.84763 C330.437244,1655.84763 330.840514,1655.44436 330.840514,1654.9469 C330.840514,1654.44944 330.437244,1654.04617 329.939785,1654.04617 Z M329.939785,1650.44325 L321.833223,1650.44325 C321.335764,1650.44325 320.932494,1650.84652 320.932494,1651.34398 C320.932494,1651.80317 321.276109,1652.18211 321.720237,1652.23769 L321.833223,1652.24471 L329.939785,1652.24471 C330.437244,1652.24471 330.840514,1651.84144 330.840514,1651.34398 C330.840514,1650.84652 330.437244,1650.44325 329.939785,1650.44325 Z" id="icon-menu-1"></path>
        </g>
    </g>
</svg>