<?xml version="1.0" encoding="UTF-8"?>
<svg width="20px" height="20px" viewBox="0 0 20 20" version="1.1" xmlns="http://www.w3.org/2000/svg" xmlns:xlink="http://www.w3.org/1999/xlink">
    <!-- Generator: Sketch 59.1 (86144) - https://sketch.com -->
    <title>icon-phone-footer</title>
    <desc>Created with Sketch.</desc>
    <g id="Symbols" stroke="none" stroke-width="1" fill="none" fill-rule="evenodd">
        <g id="Footer" transform="translate(-266.000000, -796.000000)" fill="#FFFFFF">
            <g transform="translate(265.000000, 497.000000)" id="icon-phone-footer">
                <path d="M19.4741527,312.74198 L17.4308202,310.697814 C16.516854,309.782173 15.0336713,309.780814 14.11803,310.694774 C14.1170159,310.695786 14.1160027,310.6968 14.1149905,310.697814 L13.698324,311.11448 C11.6447836,309.393856 9.7479094,307.494474 8.03000176,305.438658 L8.44666826,305.021991 C9.36018458,304.105792 9.36018458,302.623192 8.44666824,301.706993 L6.39916073,299.665318 C5.47058608,298.778227 4.00857,298.778227 3.07999537,299.665319 L1.96332915,300.786985 C0.857346258,301.900926 0.683479661,303.63755 1.54666265,304.94865 C4.8759096,309.96517 9.17495788,314.26506 14.1908225,317.595309 C15.5057134,318.450125 17.2379044,318.276907 18.3574873,317.178642 L19.4783201,316.056976 C20.3935031,315.143851 20.3951698,313.661719 19.4820507,312.746544 C19.4808086,312.745299 19.4795651,312.744055 19.4783202,312.742813 L19.4741527,312.74198 Z"></path>
            </g>
        </g>
    </g>
</svg>