<?xml version="1.0" encoding="UTF-8"?>
<svg width="36px" height="36px" viewBox="0 0 36 36" version="1.1" xmlns="http://www.w3.org/2000/svg" xmlns:xlink="http://www.w3.org/1999/xlink">
    <!-- Generator: Sketch 59.1 (86144) - https://sketch.com -->
    <title>Shape</title>
    <desc>Created with Sketch.</desc>
    <defs>
        <linearGradient x1="100%" y1="0%" x2="0%" y2="100%" id="linearGradient-1">
            <stop stop-color="#5DCAE5" offset="0%"></stop>
            <stop stop-color="#0AADD7" offset="100%"></stop>
        </linearGradient>
    </defs>
    <g id="Design" stroke="none" stroke-width="1" fill="none" fill-rule="evenodd">
        <g id="Landing" transform="translate(-720.000000, -2459.000000)" fill="url(#linearGradient-1)" fill-rule="nonzero">
            <g id="Dynamic" transform="translate(1.000000, 2135.000000)">
                <g id="Group-3" transform="translate(264.000000, 120.000000)">
                    <g id="Group-4-Copy-2" transform="translate(455.000000, 204.000000)">
                        <g id="Notes-Book-Text-Alternate">
                            <path d="M33.4285687,0 L29.1428544,0 L29.1428544,0 C28.9061612,0 28.7142829,0.191878286 28.7142829,0.428571429 C28.7142829,0.428571429 28.7142829,0.428571429 28.7142829,0.428571429 L28.7142829,2.69314286 L28.7142829,2.69314701 C28.7137392,2.82817101 28.7773678,2.95542587 28.8857149,3.03600244 L28.8857148,3.03600238 C30.0544977,3.84272638 30.3480057,5.44419666 29.5412817,6.61297952 C28.7345577,7.78176238 27.1330874,8.07527038 25.9643045,7.26854638 C24.7955217,6.46182238 24.5020137,4.86035209 25.3087377,3.69156923 C25.494496,3.4224418 25.7298828,3.19121723 26.0022794,3.01028809 L26.0022794,3.01028809 C26.1001065,2.93798226 26.152295,2.81925324 26.1394222,2.69828809 L26.1394222,0.428573808 L26.1394222,0.428573808 C26.1394222,0.191880665 25.947544,0 25.7108508,0 L19.7142794,0 L19.7142794,0 C19.4775862,0 19.2857079,0.191880665 19.2857079,0.428573808 C19.2857079,0.428573808 19.2857079,0.428573808 19.2857079,0.428573808 L19.2857079,2.67257381 L19.2857079,2.67257408 C19.2810078,2.82679705 19.3570186,2.97232208 19.4862794,3.05657408 L19.4862793,3.05657407 C20.6448468,3.87790035 20.9182359,5.48292264 20.0969096,6.64148835 C19.2755833,7.80005578 17.6705611,8.07344492 16.5119953,7.25211864 C15.3534279,6.43079235 15.0800388,4.82577007 15.9013651,3.66720435 C16.0690308,3.43069464 16.2754856,3.22423978 16.5119953,3.05657407 L16.5119954,3.05657405 C16.641569,2.97977679 16.7190794,2.83854948 16.7142811,2.68800262 L16.7142811,0.428574049 L16.7142811,0.428574049 C16.7142811,0.191880906 16.5224028,0 16.2857097,0 C16.2857096,0 16.2857095,0 16.2857095,0 L10.2857095,0 L10.2857094,0 C10.0490163,0 9.85713802,0.191880906 9.85713802,0.428574049 C9.85713802,0.428574049 9.85713802,0.428574049 9.85713802,0.428574049 L9.85713802,2.67600262 L9.85713801,2.67600284 C9.85156795,2.82600352 9.92426069,2.96814284 10.049138,3.05143141 L10.0491381,3.05143144 C11.2130386,3.86518402 11.4968901,5.46838573 10.6831375,6.63228287 C9.86938492,7.79618344 8.2661832,8.08003487 7.10228606,7.2662823 C5.93838549,6.45252973 5.65453406,4.84932802 6.46828663,3.68543087 C6.64086035,3.43859944 6.85545463,3.22400516 7.10228606,3.05143144 L7.10228606,3.05143145 C7.21698429,2.97507219 7.2858432,2.84636516 7.28571463,2.7085743 L7.28571463,0.428574304 L7.28571463,0.428574304 C7.28571463,0.191881161 7.09383634,0 6.8571432,0 C6.85714312,0 6.85714305,0 6.85714297,0 L2.57142868,0 L2.57142857,0 C1.151268,0 0,1.15127088 0,2.57143145 C0,2.57143145 0,2.57143145 0,2.57143145 L0,33.4285743 L0,33.4285739 C0,34.8487345 1.151268,36 2.57142857,36 L33.4285714,36 L33.4285713,36 C34.8487319,36 36,34.8487345 36,33.4285739 L36,2.57143106 L36,2.57143106 C36,1.15127049 34.8487319,0 33.4285713,0 L33.4285687,0 Z M23.9999972,29.5714286 L6.8571401,29.5714286 L6.85714004,29.5714286 C6.1470589,29.5714286 5.57142576,28.9957954 5.57142576,28.2857143 C5.57142576,27.5756331 6.1470589,27 6.85714004,27 L23.9999972,27 L23.9999971,27 C24.7100783,27 25.2857114,27.5756331 25.2857114,28.2857143 C25.2857114,28.9957954 24.7100783,29.5714286 23.9999971,29.5714286 L23.9999972,29.5714286 Z M29.1428544,22.7142857 L6.8571401,22.7142857 L6.85714004,22.7142857 C6.1470589,22.7142857 5.57142576,22.1386526 5.57142576,21.4285714 C5.57142576,20.7184903 6.1470589,20.1428571 6.85714004,20.1428571 L29.1428543,20.1428571 L29.1428543,20.1428571 C29.8529354,20.1428571 30.4285686,20.7184903 30.4285686,21.4285714 C30.4285686,22.1386526 29.8529354,22.7142857 29.1428543,22.7142857 L29.1428544,22.7142857 Z M29.1428544,15.8571429 L6.8571401,15.8571429 L6.85714004,15.8571429 C6.1470589,15.8571429 5.57142576,15.2815097 5.57142576,14.5714286 C5.57142576,13.8613474 6.1470589,13.2857143 6.85714004,13.2857143 L29.1428543,13.2857143 L29.1428543,13.2857143 C29.8529354,13.2857143 30.4285686,13.8613474 30.4285686,14.5714286 C30.4285686,15.2815097 29.8529354,15.8571429 29.1428543,15.8571429 L29.1428544,15.8571429 Z" id="Shape"></path>
                        </g>
                    </g>
                </g>
            </g>
        </g>
    </g>
</svg>