<svg xmlns="http://www.w3.org/2000/svg" xmlns:xlink="http://www.w3.org/1999/xlink" viewBox="0 0 89.06 65.48"><defs><linearGradient id="linear-gradient" x1="8.96" y1="21.57" x2="11.21" y2="21.57" gradientUnits="userSpaceOnUse"><stop offset="0" stop-color="#facf45"/><stop offset="1" stop-color="#f9be00"/></linearGradient><linearGradient id="linear-gradient-2" x1="8.96" y1="28.77" x2="11.21" y2="28.77" gradientUnits="userSpaceOnUse"><stop offset="0" stop-color="#ff876c"/><stop offset="1" stop-color="#ff5b35"/></linearGradient><linearGradient id="linear-gradient-3" x1="8.96" y1="35.97" x2="11.21" y2="35.97" gradientUnits="userSpaceOnUse"><stop offset="0" stop-color="#73d2e9"/><stop offset="1" stop-color="#00add8"/></linearGradient><linearGradient id="linear-gradient-4" x1="8.96" y1="43.17" x2="11.21" y2="43.17" xlink:href="#linear-gradient"/><linearGradient id="linear-gradient-5" x1="55.28" y1="15.44" x2="35.37" y2="35.35" xlink:href="#linear-gradient-3"/><linearGradient id="linear-gradient-6" x1="55.28" y1="29.84" x2="35.37" y2="49.75" xlink:href="#linear-gradient"/><linearGradient id="linear-gradient-7" x1="55.28" y1="44.24" x2="35.37" y2="64.15" xlink:href="#linear-gradient-2"/><linearGradient id="linear-gradient-8" x1="84.6" y1="22.03" x2="77.87" y2="28.76" xlink:href="#linear-gradient-3"/><linearGradient id="linear-gradient-9" x1="78.17" y1="27.43" x2="75.04" y2="30.56" xlink:href="#linear-gradient"/><linearGradient id="linear-gradient-10" x1="74.14" y1="25.63" x2="69.81" y2="29.96" xlink:href="#linear-gradient-2"/></defs><title>Asset 133</title><g id="Layer_2" data-name="Layer 2"><g id="Layer_1-2" data-name="Layer 1"><rect width="89.06" height="65.48" rx="4.25" style="fill:#fff"/><path d="M84.81,0H4.25A4.25,4.25,0,0,0,0,4.25V7.81H89.06V4.25A4.25,4.25,0,0,0,84.81,0Z" style="fill:#dee1e8"/><circle cx="5.77" cy="3.91" r="1.42" style="fill:#fff"/><circle cx="10.57" cy="3.91" r="1.42" style="fill:#fff"/><circle cx="15.37" cy="3.91" r="1.42" style="fill:#fff"/><rect x="7.43" y="14.08" width="11.34" height="2.14" style="fill:#dee1e8;opacity:0.5"/><rect x="7.43" y="21.57" width="11.34" height="3.34" style="fill:#dee1e8;opacity:0.5"/><rect x="7.43" y="58.19" width="11.34" height="2.14" style="fill:#dee1e8;opacity:0.5"/><rect x="70.27" y="58.19" width="11.34" height="2.14" style="fill:#dee1e8;opacity:0.5"/><rect x="70.27" y="14.08" width="12.54" height="2.14" style="fill:#dee1e8;opacity:0.5"/><circle cx="10.09" cy="21.57" r="1.13" style="fill:url(#linear-gradient)"/><rect x="7.43" y="28.77" width="11.34" height="3.34" style="fill:#dee1e8;opacity:0.5"/><circle cx="10.09" cy="28.77" r="1.13" style="fill:url(#linear-gradient-2)"/><rect x="7.43" y="35.97" width="11.34" height="3.34" style="fill:#dee1e8;opacity:0.5"/><circle cx="10.09" cy="35.97" r="1.13" style="fill:url(#linear-gradient-3)"/><rect x="7.43" y="43.17" width="11.34" height="3.34" style="fill:#dee1e8;opacity:0.5"/><circle cx="10.09" cy="43.17" r="1.13" style="fill:url(#linear-gradient-4)"/><rect x="30.44" y="14.08" width="11.34" height="2.14" style="fill:#dee1e8;opacity:0.5"/><rect x="30.44" y="20.37" width="29.76" height="10.06" style="fill:url(#linear-gradient-5)"/><rect x="30.44" y="34.77" width="29.76" height="10.06" style="fill:url(#linear-gradient-6)"/><rect x="30.44" y="49.17" width="29.76" height="10.06" style="fill:url(#linear-gradient-7)"/><rect x="79.53" y="20.37" width="3.4" height="10.06" style="fill:url(#linear-gradient-8)"/><rect x="74.9" y="27.57" width="3.4" height="2.86" style="fill:url(#linear-gradient-9)"/><rect x="70.27" y="25.17" width="3.4" height="5.26" style="fill:url(#linear-gradient-10)"/><rect x="70.33" y="33.29" width="3.4" height="3.51" style="fill:#dee1e8;opacity:0.5"/><rect x="74.93" y="33.29" width="3.4" height="3.51" style="fill:#dee1e8;opacity:0.5"/><rect x="79.53" y="33.29" width="3.4" height="3.51" style="fill:#dee1e8;opacity:0.5"/><rect x="70.33" y="38.09" width="3.4" height="3.51" style="fill:#dee1e8;opacity:0.5"/><rect x="74.93" y="38.09" width="3.4" height="3.51" style="fill:#dee1e8;opacity:0.5"/><rect x="79.53" y="38.09" width="3.4" height="3.51" style="fill:#dee1e8;opacity:0.5"/><rect x="32.84" y="22.48" width="11.34" height="2.14" style="fill:#fff"/><rect x="32.84" y="26.08" width="24.54" height="2.14" style="fill:#fff;opacity:0.5"/><rect x="32.84" y="40.48" width="24.54" height="2.14" style="fill:#fff;opacity:0.5"/><rect x="32.84" y="54.88" width="24.54" height="2.14" style="fill:#fff;opacity:0.5"/><rect x="32.84" y="36.88" width="11.34" height="2.14" style="fill:#fff"/><rect x="32.84" y="51.28" width="11.34" height="2.14" style="fill:#fff"/></g></g></svg>