<?xml version="1.0" encoding="UTF-8"?>
<svg width="36px" height="36px" viewBox="0 0 36 36" version="1.1" xmlns="http://www.w3.org/2000/svg" xmlns:xlink="http://www.w3.org/1999/xlink">
    <!-- Generator: Sketch 59.1 (86144) - https://sketch.com -->
    <title>icon-41</title>
    <desc>Created with Sketch.</desc>
    <defs>
        <linearGradient x1="100%" y1="0%" x2="0%" y2="100%" id="linearGradient-1">
            <stop stop-color="#F69882" offset="0%"></stop>
            <stop stop-color="#FF5B35" offset="100%"></stop>
        </linearGradient>
    </defs>
    <g id="Design" stroke="none" stroke-width="1" fill="none" fill-rule="evenodd">
        <g id="Paperless-Admissions" transform="translate(-925.000000, -2597.000000)" fill="url(#linearGradient-1)" fill-rule="nonzero">
            <g id="Industry" transform="translate(-396.000000, 1973.000000)">
                <path d="M1347.62834,639.086106 C1348.80532,639.086106 1349.84256,639.858903 1350.17895,640.986449 L1350.17895,640.986449 L1350.8151,643.074319 C1350.91627,643.417526 1351.26776,643.622173 1351.61629,643.54079 L1351.61629,643.54079 L1353.73179,643.050321 C1354.87627,642.79091 1356.05624,643.307458 1356.64173,644.324184 C1357.22722,645.34091 1357.08151,646.620401 1356.2824,647.479547 L1356.2824,647.479547 L1354.80005,649.075448 C1354.55705,649.341291 1354.55705,649.748546 1354.80005,650.01439 L1354.80005,650.01439 L1356.2839,651.610291 C1357.08301,652.469437 1357.22872,653.748928 1356.64323,654.765654 C1356.05774,655.78238 1354.87777,656.298928 1353.73329,656.039517 L1353.73329,656.039517 L1351.61629,655.549047 C1351.26838,655.469356 1350.91838,655.673517 1350.8166,656.015518 L1350.8166,656.015518 L1350.18045,658.103389 C1349.84228,659.229159 1348.80563,660 1347.62984,660 C1346.45405,660 1345.41741,659.229159 1345.07923,658.103389 L1345.07923,658.103389 L1344.44308,656.015518 C1344.34128,655.672809 1343.9903,655.468461 1343.64189,655.549047 L1343.64189,655.549047 L1341.52639,656.039517 C1340.38192,656.298928 1339.20195,655.78238 1338.61646,654.765654 C1338.03096,653.748928 1338.17667,652.469437 1338.97578,651.610291 L1338.97578,651.610291 L1340.45813,650.01289 C1340.70113,649.747047 1340.70113,649.339791 1340.45813,649.073948 L1340.45813,649.073948 L1338.97578,647.478047 C1338.17667,646.618901 1338.03096,645.33941 1338.61646,644.322684 C1339.20195,643.305958 1340.38192,642.78941 1341.52639,643.048821 L1341.52639,643.048821 L1343.64189,643.54079 C1343.98963,643.616471 1344.33734,643.412996 1344.44158,643.072819 L1344.44158,643.072819 L1345.07773,640.986449 C1345.41413,639.858903 1346.45136,639.086106 1347.62834,639.086106 Z M1323.25054,624 L1340.19407,624 C1340.72426,624 1341.23513,624.187226 1341.63843,624.524866 L1341.78445,624.658459 L1347.34777,630.218615 C1347.72321,630.594176 1347.95215,631.088703 1347.99792,631.61348 L1348.00643,631.811516 L1348.00643,636.449229 C1348.0054,636.556685 1347.95794,636.658446 1347.87626,636.728309 C1347.79459,636.798172 1347.68668,636.829311 1347.58033,636.813707 C1345.40511,636.776637 1343.48539,638.228374 1342.92922,640.330989 C1342.78669,640.881455 1342.62015,640.981949 1342.03651,640.858956 C1339.69594,640.279493 1337.28657,641.515193 1336.39216,643.753777 C1335.66107,645.612024 1336.08209,647.725876 1337.46942,649.162442 C1337.46942,649.162442 1337.87902,649.489422 1337.67497,649.712908 C1336.70677,650.72777 1336.14279,652.061279 1336.08909,653.462676 C1336.04295,654.519478 1336.37071,655.558749 1337.01481,656.397995 C1337.10522,656.510411 1337.12181,656.665186 1337.05729,656.794201 C1337.00566,656.897413 1336.9097,656.968997 1336.79955,656.991124 L1336.71474,656.998168 L1323.25054,656.998168 C1322.05939,656.998168 1321.08438,656.07287 1321.00519,654.902137 L1321,654.748097 L1321,626.249861 C1321,625.05907 1321.92538,624.08435 1323.09645,624.00519 L1323.25054,624 L1340.19407,624 Z M1347.62834,645.045197 C1345.14247,645.045197 1343.12727,647.059791 1343.12727,649.544919 C1343.12727,652.030046 1345.14247,654.04464 1347.62834,654.04464 C1350.11421,654.04464 1352.12941,652.030046 1352.12941,649.544919 C1352.12941,647.059791 1350.11421,645.045197 1347.62834,645.045197 Z M1347.62834,647.295058 C1348.87128,647.295058 1349.87888,648.302355 1349.87888,649.544919 C1349.87888,650.787483 1348.87128,651.79478 1347.62834,651.79478 C1346.3854,651.79478 1345.3778,650.787483 1345.3778,649.544919 C1345.3778,648.302355 1346.3854,647.295058 1347.62834,647.295058 Z M1334.18878,637.280428 L1327.93729,637.280428 C1327.07414,637.280428 1326.37442,637.97994 1326.37442,638.842831 C1326.37442,639.657784 1326.99855,640.327007 1327.79504,640.39885 L1327.93729,640.405235 L1333.03538,640.405235 C1333.15896,640.407822 1333.27588,640.34938 1333.34795,640.248994 C1333.89875,639.470453 1334.53633,638.757059 1335.2484,638.122563 C1335.30608,638.060103 1335.33386,637.975727 1335.32457,637.891232 C1335.31528,637.806737 1335.26982,637.73041 1335.19996,637.681966 C1334.92612,637.424627 1334.56461,637.281072 1334.18878,637.280428 Z M1337.67064,630.249613 L1326.73053,630.249613 C1325.86738,630.249613 1325.16766,630.949125 1325.16766,631.812016 C1325.16766,632.62697 1325.79179,633.296192 1326.58828,633.368035 L1326.73053,633.37442 L1337.67064,633.37442 C1338.53379,633.37442 1339.23351,632.674908 1339.23351,631.812016 C1339.23351,630.949125 1338.53379,630.249613 1337.67064,630.249613 Z" id="icon-41"></path>
            </g>
        </g>
    </g>
</svg>