<?xml version="1.0" encoding="UTF-8"?>
<svg width="36px" height="36px" viewBox="0 0 36 36" version="1.1" xmlns="http://www.w3.org/2000/svg" xmlns:xlink="http://www.w3.org/1999/xlink">
    <!-- Generator: Sketch 59.1 (86144) - https://sketch.com -->
    <title>icon-34</title>
    <desc>Created with Sketch.</desc>
    <defs>
        <linearGradient x1="100%" y1="0%" x2="0%" y2="100%" id="linearGradient-1">
            <stop stop-color="#5DCAE5" offset="0%"></stop>
            <stop stop-color="#0AADD7" offset="100%"></stop>
        </linearGradient>
    </defs>
    <g id="Design" stroke="none" stroke-width="1" fill="none" fill-rule="evenodd">
        <g id="Paperless-Admissions" transform="translate(-265.000000, -1432.000000)" fill="url(#linearGradient-1)" fill-rule="nonzero">
            <g id="features-paperless" transform="translate(265.000000, 1203.000000)">
                <g id="Group-3">
                    <g id="3" transform="translate(0.000000, 229.000000)">
                        <path d="M0.375,24.75 L35.625,24.75 C35.8062182,24.75 35.9574139,24.8785435 35.9923813,25.0494245 L36,25.125 L36,27.0015004 C36,28.1923642 35.0748379,29.1671455 33.9040484,29.2463096 L33.7499997,29.2515004 L19.8749995,29.2515004 C19.6937813,29.2515004 19.542586,29.3800438 19.5076187,29.5509249 L19.5,29.6265004 L19.5,32.6265003 C19.4991949,32.6999549 19.520229,32.7714068 19.5596194,32.8321497 L19.6049995,32.8890003 L19.662169,32.9360336 C19.7029767,32.9633753 19.748741,32.9825084 19.796866,32.9923476 L19.8704996,33.0000004 L24.7499996,33.0000004 C25.5784271,33.0000004 26.2499996,33.6715729 26.2499996,34.5000004 C26.2499996,35.2796968 25.6551118,35.9204491 24.8944596,35.9931338 L24.7499996,36.0000004 L11.2499996,36.0000004 C10.4215721,36.0000004 9.74999967,35.3284279 9.74999963,34.5000004 C9.74999963,33.7203039 10.3448874,33.0795517 11.1055396,33.0068669 L11.2499996,33.0000004 L16.1249997,33.0000004 C16.3062179,33.0000004 16.4574139,32.8714569 16.4923813,32.7005759 L16.5,32.6250004 L16.5,29.6250004 C16.4992908,29.5500844 16.4763625,29.4776627 16.4349439,29.4165361 L16.3875,29.3595004 L16.330734,29.3126776 C16.2901739,29.2855088 16.2446243,29.2666161 16.1967417,29.2571012 L16.1235,29.25 L2.25,29.25 C1.05913619,29.25 0.084355099,28.3248385 0.00519081348,27.1540491 L1.27897692e-13,27.0000003 L1.27897692e-13,25.125 L0.00761867871,25.0494245 C0.0375907354,24.902955 0.152955038,24.7875907 0.299424501,24.7576187 L0.375,24.75 L35.625,24.75 Z M33.7500001,-7.81597009e-14 L33.9040488,0.00519081376 C35.0216205,0.0807567268 35.9153869,0.972370225 35.9943294,2.08901271 L36,2.25000006 L36,22.1250001 C36,22.3062182 35.8714565,22.4574139 35.7005755,22.4923813 L35.625,22.5 L0.375000016,22.5 C0.193781829,22.5 0.0425860945,22.3714566 0.0076186951,22.2005756 L1.6391823e-08,22.1250001 L1.6391823e-08,2.25 L0.00519082987,2.09595121 C0.0807567387,0.978379465 0.972370189,0.08461311 2.08901267,0.00567065574 L2.25000002,-7.81597009e-14 L33.7500001,-7.81597009e-14 Z M14.4120629,6.49567762 L14.3206,6.6087308 L14.3206,6.6087308 L9.76279226,12.8305638 L7.52258957,10.5451167 C6.93127728,9.96130975 5.98895127,9.97805194 5.41784099,10.5825122 C4.8607197,11.1721682 4.8607197,12.1070059 5.41784096,12.6966573 L7.87238717,15.2012198 C8.95016729,16.2813553 10.6804552,16.2638386 11.7371015,15.1620956 C11.8171967,15.0785817 11.8920833,14.9900085 11.9613168,14.8969001 L16.7022109,8.43465388 C17.1954589,7.76236725 17.0621735,6.8086237 16.4045095,6.30441025 C15.7855317,5.82985499 14.9226584,5.922631 14.4120629,6.49567762 Z M28.5647266,6.33392545 L28.4514971,6.43620347 C28.4512718,6.43642854 28.4510467,6.43665369 28.4508216,6.4368789 L26.3443258,8.54337477 C26.1505528,8.7376382 25.8359866,8.73803585 25.6417239,8.54426287 C25.6414275,8.54396721 25.6411315,8.54367118 25.6408358,8.54337478 L23.53434,6.4368789 C22.9425319,5.86474469 21.9989688,5.88069245 21.4268306,6.47250153 C20.8687026,7.0498225 20.8682714,7.96552818 21.4258542,8.54336583 L23.5343374,10.651849 C23.7276237,10.8457408 23.7276237,11.1594608 23.5343374,11.3533518 L21.4179051,13.4697841 C20.8463293,14.0621327 20.8631674,15.0056799 21.4555152,15.5772537 C22.0333628,16.1348372 22.9490685,16.134406 23.5263795,15.5762772 L25.6328753,13.4697813 C25.8266483,13.2755179 26.1412145,13.2751202 26.3354771,13.4688932 C26.3357735,13.4691888 26.3360696,13.4694849 26.3363652,13.4697813 L28.4428612,15.5762772 C29.0346693,16.1484114 29.9782324,16.1324637 30.5503706,15.5406544 C31.1084986,14.9633334 31.1089298,14.0476278 30.5513467,13.4697901 L28.4428636,11.361307 C28.2495773,11.1674151 28.2495773,10.8536951 28.4428636,10.6598041 L30.5592958,8.55132095 C31.1431827,7.97266256 31.1474235,7.03023221 30.5687646,6.4463354 L30.5640408,6.44159034 L30.5593045,6.43687884 C30.0138035,5.89102751 29.1502874,5.85664631 28.5647266,6.33392545 Z" id="icon-34"></path>
                    </g>
                </g>
            </g>
        </g>
    </g>
</svg>