<?xml version="1.0" encoding="UTF-8"?>
<svg width="34px" height="36px" viewBox="0 0 34 36" version="1.1" xmlns="http://www.w3.org/2000/svg" xmlns:xlink="http://www.w3.org/1999/xlink">
    <!-- Generator: Sketch 59.1 (86144) - https://sketch.com -->
    <title>icon-21</title>
    <desc>Created with Sketch.</desc>
    <defs>
        <linearGradient x1="95.3095709%" y1="0%" x2="4.69042914%" y2="100%" id="linearGradient-1">
            <stop stop-color="#F69882" offset="0%"></stop>
            <stop stop-color="#FF5B35" offset="100%"></stop>
        </linearGradient>
    </defs>
    <g id="Design" stroke="none" stroke-width="1" fill="none" fill-rule="evenodd">
        <g id="Communication" transform="translate(-836.000000, -3539.000000)" fill="url(#linearGradient-1)" fill-rule="nonzero">
            <g id="Industry" transform="translate(0.000000, 1938.000000)">
                <g id="text-copy-2" transform="translate(0.000000, 1226.000000)">
                    <g id="Group-8" transform="translate(836.000000, 149.000000)">
                        <g id="1" transform="translate(0.000000, 226.000000)">
                            <path d="M18.8084819,31.3982883 C18.9408359,31.3584567 19.0843706,31.3946601 19.182,31.4925 L19.182,31.4925 L21.759,34.0695 C21.8560197,34.1674113 21.8915045,34.3106555 21.8514086,34.4425334 C21.8113128,34.5744112 21.7021003,34.673662 21.567,34.701 L21.567,34.701 L18.897,35.235 C18.8487757,35.2461886 18.7994992,35.2522224 18.75,35.253 C18.524758,35.253046 18.3114212,35.1518581 18.1689478,34.9774009 C18.0264745,34.8029438 17.9699516,34.5736912 18.015,34.353 L18.015,34.353 L18.549,31.683 C18.5764148,31.5475283 18.6761279,31.43812 18.8084819,31.3982883 Z M1.5,0 L18.879,0 C19.2270682,0 19.5626387,0.121103452 19.829501,0.339844459 L19.9395,0.4395 L25.0605,5.5605 C25.3066586,5.80658421 25.4585318,6.1294067 25.4926539,6.47275696 L25.5,6.621 L25.5,20.1975 C25.5,20.3563229 25.4495702,20.5099519 25.3576141,20.6370164 L25.281,20.727 L17.379,28.629 C17.0125193,28.9954493 16.7481282,29.4496463 16.609931,29.9465553 L16.5585,30.162 L15.8085,33.912 C15.7466989,34.2200179 15.4968956,34.450194 15.1930862,34.4928697 L15.09,34.5 L1.5,34.5 C0.720303883,34.5 0.0795513218,33.9051119 0.00686657806,33.14446 L0,33 L0,1.5 C0,0.720303883 0.594888083,0.0795513218 1.35553999,0.00686657806 L1.5,0 L18.879,0 Z M27.4657633,22.0793196 L31.1723524,25.786038 C31.2699817,25.8836708 31.269979,26.041962 31.1723462,26.1395914 L23.7384029,33.5732752 C23.6407701,33.6709046 23.4824789,33.6709019 23.3848495,33.5732691 L19.6782604,29.8665506 C19.5806311,29.7689179 19.5806338,29.6106266 19.6782666,29.5129972 L27.1122099,22.0793134 C27.2098427,21.981684 27.368134,21.9816868 27.4657633,22.0793196 Z M28.7205,20.475 C29.8500841,19.4122825 31.6194787,19.4387694 32.716747,20.5348218 C33.8140154,21.6308741 33.8424643,23.4002382 32.781,24.531 L32.781,24.531 L32.673,24.6375 C32.6029033,24.7079406 32.5076252,24.7475428 32.40825,24.7475428 C32.3088748,24.7475428 32.2135967,24.7079406 32.1435,24.6375 L32.1435,24.6375 L28.6125,21.111 C28.4666059,20.9646488 28.4666059,20.7278512 28.6125,20.5815 L28.6125,20.5815 Z M10.43,12.923 L10.43,12.9215 L8.3675,15.4985 C8.32850535,15.5543959 8.26465372,15.5877052 8.1965,15.5877052 C8.12834628,15.5877052 8.06449465,15.5543959 8.0255,15.4985 L6.854,14.327 C6.4141052,13.8879336 5.70156638,13.8886052 5.2625,14.3285 C4.82343362,14.7683948 4.8241052,15.4809336 5.264,15.92 L7.514,18.17 C7.72483481,18.3807685 8.01088183,18.4989653 8.309,18.4985014 L8.3705,18.4985014 C8.69036771,18.4812718 8.98772265,18.3285023 9.188,18.0785 L12.188,14.3285 C12.5761181,13.8430417 12.4972083,13.1348681 12.01175,12.74675 C11.5262917,12.3586319 10.8181181,12.4375417 10.43,12.923 Z M18.809,15.4985 L15.059,15.4985 C14.4376797,15.4985 13.934,16.0021797 13.934,16.6235 C13.934,17.2448203 14.4376797,17.7485 15.059,17.7485 L18.809,17.7485 C19.4303203,17.7485 19.934,17.2448203 19.934,16.6235 C19.934,16.0021797 19.4303203,15.4985 18.809,15.4985 Z M10.43,4.673 L10.43,4.6715 L8.3675,7.2485 C8.32850535,7.30439585 8.26465372,7.3377052 8.1965,7.3377052 C8.12834628,7.3377052 8.06449465,7.30439585 8.0255,7.2485 L6.854,6.0785 C6.4123735,5.65235966 5.71070342,5.65878559 5.27695556,6.09294264 C4.8432077,6.5270997 4.83744342,7.22877553 5.264,7.67 L7.514,9.92 C7.72483481,10.1307685 8.01088183,10.2489653 8.309,10.2485014 L8.3705,10.2485014 C8.69036771,10.2312718 8.98772265,10.0785023 9.188,9.8285 L12.188,6.0785 C12.5761181,5.5930417 12.4972083,4.88486812 12.01175,4.49675002 C11.5262917,4.10863192 10.8181181,4.18754172 10.43,4.673 Z M18.809,7.2485 L15.059,7.2485 C14.4376797,7.2485 13.934,7.75217966 13.934,8.3735 C13.934,8.99482034 14.4376797,9.4985 15.059,9.4985 L18.809,9.4985 C19.4303203,9.4985 19.934,8.99482034 19.934,8.3735 C19.934,7.75217966 19.4303203,7.2485 18.809,7.2485 Z" id="icon-21"></path>
                        </g>
                    </g>
                </g>
            </g>
        </g>
    </g>
</svg>