<?xml version="1.0" encoding="UTF-8"?>
<svg width="37px" height="37px" viewBox="0 0 37 37" version="1.1" xmlns="http://www.w3.org/2000/svg" xmlns:xlink="http://www.w3.org/1999/xlink">
    <!-- Generator: Sketch 59.1 (86144) - https://sketch.com -->
    <title>icon-22</title>
    <desc>Created with Sketch.</desc>
    <defs>
        <linearGradient x1="100%" y1="0%" x2="0%" y2="100%" id="linearGradient-1">
            <stop stop-color="#5DCAE5" offset="0%"></stop>
            <stop stop-color="#0AADD7" offset="100%"></stop>
        </linearGradient>
    </defs>
    <g id="Design" stroke="none" stroke-width="1" fill="none" fill-rule="evenodd">
        <g id="Communication" transform="translate(-836.000000, -3684.000000)" fill="url(#linearGradient-1)" fill-rule="nonzero">
            <g id="Industry" transform="translate(0.000000, 1938.000000)">
                <g id="text-copy-2" transform="translate(0.000000, 1226.000000)">
                    <g id="Group-8" transform="translate(836.000000, 149.000000)">
                        <g id="2" transform="translate(0.000000, 371.000000)">
                            <path d="M26.75,17 C32.1320352,17.0066118 36.4933882,21.3679648 36.5,26.75 C36.5,32.1347763 32.1347763,36.5 26.75,36.5 C21.3652237,36.5 17,32.1347763 17,26.75 C17,21.3652237 21.3652237,17 26.75,17 Z M2.25,0 L19.1895,0 C19.7195629,0 20.2303159,0.187237632 20.6335145,0.524898141 L20.7795,0.6585 L26.3415,6.2205 C26.716191,6.59543119 26.945061,7.08894728 26.9912951,7.6128039 L27,7.8105 L27,13.9245 C26.9975564,14.1270274 26.8335357,14.2903813 26.631,14.292 C18.4365,14.445 14.25,19.731 14.25,26.25 C14.2478197,28.4290117 14.8428726,30.5669483 15.9705,32.4315 C16.0434817,32.5450589 16.0486305,32.6894059 15.9839252,32.807876 C15.9321609,32.9026521 15.8423001,32.9687458 15.7393122,32.9913922 L15.66,33 L2.25,33 C1.05913601,33 0.084355084,32.0748384 0.00519081254,30.9040488 L0,30.75 L0,2.25 C0,1.05913601 0.925161591,0.084355084 2.09595119,0.00519081254 L2.25,0 L19.1895,0 Z M30.8955672,23.0080771 C30.496529,22.9600009 30.1021543,23.1284609 29.861,23.45 L29.861,23.45 L25.7735,28.9145 C25.7085529,29.0017174 25.6089443,29.0564474 25.5005,29.0645 C25.3893316,29.0755713 25.2791028,29.0358889 25.2005,28.9565 L25.2005,28.9565 L23.2505,27.0065 C22.8072354,26.5934617 22.1164854,26.6056492 21.6880673,27.0340673 C21.2596492,27.4624854 21.2474617,28.1532354 21.6605,28.5965 L21.6605,28.5965 L23.9105,30.8465 C24.3280036,31.2707621 24.8977657,31.5105483 25.493,31.5125 L25.493,31.5125 L25.6595,31.5125 C26.3154034,31.4679042 26.9192564,31.1388291 27.311,30.611 L27.311,30.611 L31.661,24.8 C31.9021543,24.478461 31.953451,24.0526924 31.7955672,23.6830771 C31.6376834,23.3134619 31.2946053,23.0561533 30.8955672,23.0080771 Z M13.1582111,13.5 L7.15821109,13.5 C6.32978397,13.5 5.65821109,14.1715729 5.65821109,15 C5.65821109,15.7796961 6.25309918,16.4204487 7.01375108,16.4931334 L7.15821109,16.5 L12.0512111,16.5 C12.1698179,16.5024845 12.2820347,16.4463761 12.3512111,16.35 C12.8798542,15.6025546 13.4917861,14.9176539 14.1752111,14.3085 C14.2305654,14.2485341 14.2572274,14.1675287 14.2483099,14.0864085 C14.2393925,14.0052883 14.1957701,13.9320091 14.1287111,13.8855 C13.8658905,13.6384397 13.518923,13.5006179 13.1582111,13.5 Z M16.5,6.75 L6,6.75 C5.17157288,6.75 4.5,7.42157288 4.5,8.25 C4.5,9.02969612 5.09488808,9.67044868 5.85553999,9.74313342 L6,9.75 L16.5,9.75 C17.3284271,9.75 18,9.07842712 18,8.25 C18,7.42157288 17.3284271,6.75 16.5,6.75 Z" id="icon-22"></path>
                        </g>
                    </g>
                </g>
            </g>
        </g>
    </g>
</svg>