<?xml version="1.0" encoding="UTF-8"?>
<svg width="35px" height="32px" viewBox="0 0 35 32" version="1.1" xmlns="http://www.w3.org/2000/svg" xmlns:xlink="http://www.w3.org/1999/xlink">
    <!-- Generator: Sketch 59.1 (86144) - https://sketch.com -->
    <title>Shape</title>
    <desc>Created with Sketch.</desc>
    <defs>
        <linearGradient x1="99.4628977%" y1="8.76462585%" x2="0%" y2="91.6831363%" id="linearGradient-1">
            <stop stop-color="#9F97C9" offset="0.0448690878%"></stop>
            <stop stop-color="#675FAA" offset="100%"></stop>
        </linearGradient>
    </defs>
    <g id="Design" stroke="none" stroke-width="1" fill="none" fill-rule="evenodd">
        <g id="Landing" transform="translate(-1055.000000, -2463.000000)" fill="url(#linearGradient-1)" fill-rule="nonzero">
            <g id="Dynamic" transform="translate(1.000000, 2135.000000)">
                <g id="Group-3" transform="translate(264.000000, 120.000000)">
                    <g id="Group-4-Copy-3" transform="translate(790.000000, 208.000000)">
                        <path d="M32.2500001,0 L2.25000011,0 L2.25000001,0 C1.00735951,0 0,1.00736521 0,2.25000571 C0,2.25000571 0,2.25000571 0,2.25000571 L0,22.5780057 L0,22.5780037 C0.008633415,23.7866482 0.9954315,24.7594537 2.20407,24.7508137 C2.2193796,24.7507044 2.2346877,24.7504344 2.24999175,24.7500038 L6.74999175,24.7500038 L6.74999175,30.7500038 L6.74999175,30.7500113 C6.74984869,31.1642243 7.08551925,31.5002708 7.49973225,31.5002708 C7.65262275,31.5002708 7.80187725,31.4536487 7.92749775,31.3665 L17.4839977,24.75 L32.2499977,24.75 L32.2499976,24.75 C33.4926381,24.7500001 34.5,23.7426405 34.5,22.5 L34.5,2.25 L34.5,2.25 C34.5,1.0073595 33.4926381,0 32.2499976,0 L32.2500001,0 Z M8.25000011,13.5000057 L8.25000001,13.5000057 C9.49264051,13.5000057 10.5,14.5073652 10.5,15.7500057 C10.5,16.9926462 9.49264051,18.0000057 8.25000001,18.0000057 C7.00735951,18.0000057 6.00000001,16.9926462 6.00000001,15.7500057 L6.00000001,15.750006 C6.00000001,14.5073655 7.00735951,13.5000057 8.25000001,13.5000057 C8.25000004,13.5000057 8.25000008,13.5000057 8.25000011,13.5000057 L8.25000011,13.5000057 Z M6.00000011,9.00000571 L6.00000011,9.00000605 C6.00000011,7.75736555 7.00735961,6.75000605 8.25000011,6.75000605 C9.49264061,6.75000605 10.5000001,7.75736555 10.5000001,9.00000605 C10.5000001,10.2426466 9.49264061,11.2500061 8.25000011,11.2500061 L8.25000021,11.2500061 C7.00735971,11.2500061 6.00000011,10.2426466 6.00000011,9.00000605 C6.00000011,9.00000594 6.00000011,9.00000583 6.00000011,9.00000571 L6.00000011,9.00000571 Z M14.625,15.7500057 L14.625,15.7500059 C14.625,15.1286849 15.1286791,14.6250059 15.7500001,14.6250059 L27.7500001,14.6250059 L27.7500001,14.6250059 C28.3713211,14.6250059 28.8750001,15.1286849 28.8750001,15.7500059 C28.8750001,16.3713269 28.3713211,16.8750059 27.7500001,16.8750059 L15.7500001,16.8750059 L15.75,16.8750059 C15.128679,16.8750059 14.625,16.3713269 14.625,15.7500059 C14.625,15.7500059 14.625,15.7500059 14.625,15.7500059 L14.625,15.7500057 Z M27.7500001,10.1250057 L15.7500001,10.1250057 L15.7500001,10.1250057 C15.1286791,10.1250057 14.6250001,9.62132671 14.6250001,9.00000571 C14.6250001,8.37868471 15.1286791,7.87500571 15.7500001,7.87500571 L27.7500001,7.87500571 L27.7500001,7.87500571 C28.3713211,7.87500571 28.8750001,8.37868471 28.8750001,9.00000571 C28.8750001,9.62132671 28.3713211,10.1250057 27.7500001,10.1250057 L27.7500001,10.1250057 Z" id="Shape"></path>
                    </g>
                </g>
            </g>
        </g>
    </g>
</svg>