<?xml version="1.0" encoding="UTF-8"?>
<svg width="36px" height="37px" viewBox="0 0 36 37" version="1.1" xmlns="http://www.w3.org/2000/svg" xmlns:xlink="http://www.w3.org/1999/xlink">
    <!-- Generator: Sketch 59.1 (86144) - https://sketch.com -->
    <title>icon-menu-2</title>
    <desc>Created with Sketch.</desc>
    <defs>
        <linearGradient x1="96.7005966%" y1="0%" x2="3.2994034%" y2="100%" id="linearGradient-1">
            <stop stop-color="#F69882" offset="0%"></stop>
            <stop stop-color="#FF5B35" offset="100%"></stop>
        </linearGradient>
    </defs>
    <g id="Design" stroke="none" stroke-width="1" fill="none" fill-rule="evenodd">
        <g id="Inquiry" transform="translate(-436.000000, -1640.000000)" fill="url(#linearGradient-1)" fill-rule="nonzero">
            <path d="M442.812081,1643.89262 L442.812081,1646.81208 L439.649329,1646.81208 C439.246235,1646.81208 438.919463,1647.13885 438.919463,1647.54195 L438.919463,1647.54195 L438.919463,1665.05872 C438.919463,1665.46182 439.246235,1665.78859 439.649329,1665.78859 L439.649329,1665.78859 L467.384228,1665.78859 C467.787322,1665.78859 468.114094,1665.46182 468.114094,1665.05872 L468.114094,1665.05872 L468.114094,1647.54195 C468.114094,1647.13885 467.787322,1646.81208 467.384228,1646.81208 L467.384228,1646.81208 L464.221477,1646.81208 L464.221477,1643.89262 L468.84396,1643.89262 C470.053241,1643.89262 471.033557,1644.87293 471.033557,1646.08221 L471.033557,1646.08221 L471.033557,1669.43792 C471.033557,1670.6472 470.053241,1671.62752 468.84396,1671.62752 L468.84396,1671.62752 L456.947,1671.627 L459.827063,1675.10119 C459.961077,1675.29237 459.994283,1675.53388 459.921783,1675.75111 L459.876702,1675.85735 C459.750852,1676.09892 459.500958,1676.25031 459.228573,1676.25 L459.228573,1676.25 L447.435402,1676.25 C447.163016,1676.25031 446.913122,1676.09892 446.787273,1675.85735 C446.661423,1675.61578 446.680562,1675.32424 446.836912,1675.10119 L446.836912,1675.10119 L449.718,1671.627 L438.189597,1671.62752 C437.032894,1671.62752 436.085678,1670.73059 436.005498,1669.59429 L436,1669.43792 L436,1646.08221 C436,1644.87293 436.980316,1643.89262 438.189597,1643.89262 L438.189597,1643.89262 L442.812081,1643.89262 Z M456.732859,1640 C457.197395,1640 457.642868,1640.18472 457.971295,1640.51324 L457.971295,1640.51324 L461.761926,1644.30387 C462.090452,1644.6323 462.275168,1645.07777 462.275168,1645.54231 L462.275168,1645.54231 L462.275168,1659.26846 C462.275168,1660.23588 461.490915,1661.02013 460.52349,1661.02013 L460.52349,1661.02013 L446.510067,1661.02013 C445.542642,1661.02013 444.758389,1660.23588 444.758389,1659.26846 L444.758389,1659.26846 L444.758389,1641.75168 C444.758389,1640.78425 445.542642,1640 446.510067,1640 L446.510067,1640 Z M452.64094,1655.32718 L448.699664,1655.32718 C448.215952,1655.32718 447.823826,1655.71931 447.823826,1656.20302 C447.823826,1656.68673 448.215952,1657.07886 448.699664,1657.07886 L448.699664,1657.07886 L452.64094,1657.07886 C453.124652,1657.07886 453.516779,1656.68673 453.516779,1656.20302 C453.516779,1655.71931 453.124652,1655.32718 452.64094,1655.32718 L452.64094,1655.32718 Z M456.582215,1651.82383 L448.699664,1651.82383 C448.215952,1651.82383 447.823826,1652.21595 447.823826,1652.69966 C447.823826,1653.18338 448.215952,1653.5755 448.699664,1653.5755 L448.699664,1653.5755 L456.582215,1653.5755 C457.065927,1653.5755 457.458054,1653.18338 457.458054,1652.69966 C457.458054,1652.21595 457.065927,1651.82383 456.582215,1651.82383 L456.582215,1651.82383 Z M456.582215,1648.32047 L448.699664,1648.32047 C448.215952,1648.32047 447.823826,1648.7126 447.823826,1649.19631 C447.823826,1649.68002 448.215952,1650.07215 448.699664,1650.07215 L448.699664,1650.07215 L456.582215,1650.07215 C457.065927,1650.07215 457.458054,1649.68002 457.458054,1649.19631 C457.458054,1648.7126 457.065927,1648.32047 456.582215,1648.32047 L456.582215,1648.32047 Z" id="icon-menu-2"></path>
        </g>
    </g>
</svg>