<?xml version="1.0" encoding="UTF-8"?>
<svg width="36px" height="36px" viewBox="0 0 36 36" version="1.1" xmlns="http://www.w3.org/2000/svg" xmlns:xlink="http://www.w3.org/1999/xlink">
    <!-- Generator: Sketch 59.1 (86144) - https://sketch.com -->
    <title>icon-14</title>
    <desc>Created with Sketch.</desc>
    <defs>
        <linearGradient x1="99.9958278%" y1="0%" x2="0.00417215057%" y2="100%" id="linearGradient-1">
            <stop stop-color="#F69882" offset="0%"></stop>
            <stop stop-color="#FF5B35" offset="100%"></stop>
        </linearGradient>
    </defs>
    <g id="Design" stroke="none" stroke-width="1" fill="none" fill-rule="evenodd">
        <g id="Inquiry" transform="translate(-265.000000, -1646.000000)" fill="url(#linearGradient-1)" fill-rule="nonzero">
            <g id="Dynamic" transform="translate(0.000000, 922.000000)">
                <g id="Group-3" transform="translate(265.000000, 150.000000)">
                    <g id="6" transform="translate(0.000000, 574.000000)">
                        <g id="Notes-Book-Text-Alternate">
                            <path d="M17.9368652,20.0593648 C20.5431302,16.2817048 25.7183402,15.3320998 29.4960002,17.9383648 C33.2736602,20.5446298 34.2232652,25.7198398 31.6170002,29.4974998 L31.6170002,29.4974998 L35.5605002,33.4410052 C36.1219232,34.0222852 36.1219232,34.9438507 35.5605002,35.5251352 C34.9849802,36.1210123 34.0353782,36.1375183 33.4395002,35.5619998 L33.4395002,35.5619998 L29.4960002,31.6184998 C26.6551952,33.5784148 22.8986702,33.5784148 20.0578652,31.6184998 C16.2802052,29.0122348 15.3306002,23.8370248 17.9368652,20.0593648 Z M24.7935002,19.5015007 C21.8699852,19.5015007 19.5000002,21.8714857 19.5000002,24.7950007 L19.5000002,24.7950007 L19.5046533,25.0130947 C19.6220493,27.8340749 21.9444042,30.0852774 24.7935004,30.0885007 L24.7935004,30.0885007 L25.0116975,30.0840853 C27.8340332,29.9696555 30.0870002,27.6454278 30.0870002,24.7950007 C30.0870002,21.8714857 27.7170152,19.5015007 24.7935002,19.5015007 Z M20.6956525,-6.03961325e-14 C21.3259777,-6.03961325e-14 21.8444159,0.459090395 21.9067585,1.04739021 L21.9130438,1.16667522 L21.9130438,3.20834148 L21.9210818,3.27521744 C21.9473679,3.38259193 22.0355631,3.46710793 22.1476075,3.49229731 L22.2173916,3.5 L25.5652174,3.5 C26.8538824,3.5 27.9087173,4.45943057 27.9943829,5.67358335 L28,5.83333773 L28.0009282,14.2699607 C26.9861712,13.9611149 25.9092344,13.7950007 24.7935002,13.7950007 C18.8148074,13.7950007 13.9501353,18.564773 13.7972076,24.5065936 L13.7935002,24.7950007 L13.797526,25.0832718 C13.8246917,26.0958074 13.9885112,27.0742472 14.2712126,28.0008197 L2.43478262,28 C1.14611761,28 0.0912827479,27.0405739 0.00561710814,25.8264215 L-5.15143483e-14,25.6666671 L-5.15143483e-14,5.83333808 L0.00561710814,5.67358383 C0.0875581549,4.51222118 1.05622492,3.58391038 2.26808238,3.50538309 L2.43478262,3.5 L4.26086969,3.5 L4.35960317,3.507635 C4.61668648,3.54782122 4.81966587,3.74234651 4.86159853,3.98871871 L4.86956534,4.08333843 L4.86956534,6.70834958 L4.87667924,6.81810779 C4.92832492,7.21359682 5.2553942,7.52703813 5.66807849,7.57653192 L5.78260882,7.5833494 L5.8971392,7.57653192 C6.30982349,7.52703815 6.63689277,7.21359682 6.68853845,6.8181078 L6.69565235,6.70834958 L6.69565235,1.16668401 L6.7019376,1.04738152 C6.76428017,0.459082673 7.28271838,-6.03961325e-14 7.91304365,-6.03961325e-14 C8.54336893,-6.03961325e-14 9.06180714,0.459082673 9.12414971,1.04738152 L9.13043496,1.16666644 L9.13043496,3.20950815 C9.13100992,3.34718812 9.23105757,3.46226787 9.36518301,3.492338 L9.43478279,3.5 L17.0434785,3.5 C17.3460341,3.5 17.5970331,3.71155232 17.6442073,3.98872151 L17.6521741,4.08334131 L17.6521741,6.70834079 L17.659288,6.81809901 C17.7109337,7.21358803 18.038003,7.52702935 18.4506873,7.57652313 L18.5652176,7.58334062 L18.679748,7.57652313 C19.0924323,7.52702936 19.4195016,7.21358803 19.4711473,6.81809901 L19.4782611,6.70834079 L19.4782611,1.16667522 C19.4782611,0.52234285 20.0233055,-6.03961325e-14 20.6956525,-6.03961325e-14 Z" id="icon-14"></path>
                        </g>
                    </g>
                </g>
            </g>
        </g>
    </g>
</svg>