<?xml version="1.0" encoding="UTF-8"?>
<svg width="36px" height="31px" viewBox="0 0 36 31" version="1.1" xmlns="http://www.w3.org/2000/svg" xmlns:xlink="http://www.w3.org/1999/xlink">
    <!-- Generator: Sketch 59.1 (86144) - https://sketch.com -->
    <title>icon-9</title>
    <desc>Created with Sketch.</desc>
    <defs>
        <linearGradient x1="99.2845054%" y1="14.041989%" x2="0%" y2="86.4800363%" id="linearGradient-1">
            <stop stop-color="#FBD55B" offset="0.0448690878%"></stop>
            <stop stop-color="#F9BE00" offset="100%"></stop>
        </linearGradient>
    </defs>
    <g id="Design" stroke="none" stroke-width="1" fill="none" fill-rule="evenodd">
        <g id="Inquiry" transform="translate(-645.000000, -1077.000000)" fill="url(#linearGradient-1)" fill-rule="nonzero">
            <g id="Dynamic" transform="translate(0.000000, 922.000000)">
                <g id="Group-3" transform="translate(265.000000, 150.000000)">
                    <g id="1" transform="translate(380.000000, 5.000000)">
                        <path d="M31.5,-1.03028697e-13 C33.9852752,-1.03028697e-13 36,2.014725 36,4.5 L36,4.5 L36,26.2500007 C36,28.7352757 33.9852748,30.7500007 31.5,30.7500007 L31.5,30.7500007 L4.5,30.7500007 C2.014725,30.7500007 0,28.7352757 0,26.2500007 L0,26.2500007 L0,4.5 L0,4.5 L0.00489800466,4.28816481 C0.115511265,1.90124253 2.08573286,-1.03028697e-13 4.5,-1.03028697e-13 L4.5,-1.03028697e-13 Z M18.117256,9.37646516 C16.0548582,9.33198645 14.345387,10.9000379 14.2990167,12.8788163 L14.3006051,13.0912785 L14.3006051,13.0912785 L14.315313,13.3032797 C14.1689878,15.0688737 14.7268494,16.8218987 15.8761085,18.2079562 C16.2362921,18.591934 16.3683594,20.2238397 15.5572793,20.5118231 C12.6616607,21.5559672 10.3353986,22.3061503 9.6597919,23.352251 L9.5915719,23.4697328 C9.45741753,23.7304048 9.34054371,23.9988343 9.24160948,24.2734166 L9.14867948,24.5499904 C9.04185024,24.8882442 9.24104402,25.2455432 9.59359157,25.348041 C9.65609089,25.3662117 9.72103278,25.3755418 9.7863378,25.3755418 L26.4548329,25.3755418 C26.6297876,25.3755418 26.7962333,25.3096815 26.9197529,25.1944721 L26.9884434,25.1195512 C27.0933427,24.9839377 27.1372864,24.8152764 27.1135671,24.6505858 L27.0911625,24.5525446 C26.975294,24.1812035 26.8271426,23.8198496 26.6482702,23.472287 C26.0759785,22.3638711 23.6854268,21.5971954 20.6825631,20.5207776 C19.912037,20.2447615 19.9927015,18.7604761 20.3115066,18.2835246 L20.363734,18.2169106 C21.4495019,16.9049552 22.0058136,15.2652398 21.9377124,13.5977624 L21.9191935,13.3032732 C22.1171638,11.3331343 20.6130465,9.58204188 18.5596547,9.39210086 L18.3386964,9.37798908 L18.3386964,9.37798908 L18.117256,9.37646516 Z M16.4494502,2.43045741 C15.7486082,2.04415791 14.8672997,2.29915041 14.4810002,2.99999991 L14.4810002,2.99999991 L14.4022129,3.13847151 C14.3076512,3.32815378 14.2554223,3.53683906 14.2500002,3.74999986 L14.2500002,3.74999986 C14.2567772,4.01645178 14.3366906,4.27590978 14.4810002,4.50000078 L14.4810002,4.50000078 L14.5679738,4.63864671 C14.6938936,4.81623878 14.8586567,4.96377789 15.0505427,5.06954337 C15.7513847,5.45584287 16.6326932,5.20085037 17.0189927,4.50000087 L17.0189927,4.50000087 L17.0977809,4.36152925 C17.1923421,4.17184698 17.2445721,3.9631617 17.2500002,3.7500009 L17.2500002,3.7500009 C17.2432157,3.4835489 17.1633023,3.2240909 17.0189927,2.9999999 L17.0189927,2.9999999 L16.9320192,2.86135407 C16.8060994,2.683762 16.6413362,2.53622289 16.4494502,2.43045741 Z M11.1994502,2.43045741 C10.4986082,2.04415791 9.61729975,2.29915041 9.23100025,2.99999991 L9.23100025,2.99999991 L9.15221207,3.13847021 C9.05765107,3.32815248 9.00542227,3.53683776 9.00000017,3.74999856 L9.00000017,3.74999856 L9.01277282,3.90880446 C9.04131838,4.1188203 9.11555249,4.32072798 9.23100017,4.50000078 L9.23100017,4.50000078 L9.31797381,4.63864671 C9.4438936,4.81623877 9.60865672,4.96377789 9.80054272,5.06954337 C10.5013847,5.45584287 11.3826932,5.20085037 11.7689927,4.50000087 L11.7689927,4.50000087 L11.8477809,4.36152925 C11.9423421,4.17184697 11.9945721,3.96316169 12.0000002,3.75000089 L12.0000002,3.75000089 C11.9932157,3.48354889 11.9133023,3.22409089 11.7689927,2.99999989 L11.7689927,2.99999989 L11.6820192,2.86135407 C11.5560994,2.683762 11.3913362,2.53622289 11.1994502,2.43045741 Z M5.25000754,2.25000011 L5.1040727,2.25782029 C4.57427605,2.31214921 4.10826827,2.64508736 3.88800015,3.13800011 L3.88800015,3.13800011 L3.82886108,3.28474054 C3.77777884,3.43423608 3.7510412,3.59133268 3.75000754,3.75000011 L3.75000754,3.75000011 L3.76278019,3.90880498 C3.79132575,4.11882049 3.86555986,4.32072817 3.98100754,4.50000097 L3.98100754,4.50000097 L4.06798119,4.63864691 C4.19390098,4.81623897 4.3586641,4.96377809 4.5505501,5.06954357 C5.2513921,5.45584307 6.1327006,5.20085057 6.5190001,4.50000107 L6.5190001,4.50000107 L6.59778827,4.36152944 C6.6923495,4.17184713 6.74457947,3.9631617 6.75000754,3.75000011 L6.75000754,3.75000011 L6.73723127,3.59119566 C6.70868191,3.38118058 6.63444779,3.1792729 6.51900011,3.0000001 L6.51900011,3.0000001 L6.44289191,2.87938795 C6.17157366,2.49214154 5.72855262,2.25551886 5.25000754,2.25000011 L5.25000754,2.25000011 Z" id="icon-9"></path>
                    </g>
                </g>
            </g>
        </g>
    </g>
</svg>