<?xml version="1.0" encoding="UTF-8"?>
<svg width="36px" height="36px" viewBox="0 0 36 36" version="1.1" xmlns="http://www.w3.org/2000/svg" xmlns:xlink="http://www.w3.org/1999/xlink">
    <!-- Generator: Sketch 59.1 (86144) - https://sketch.com -->
    <title>Combined Shape</title>
    <desc>Created with Sketch.</desc>
    <defs>
        <linearGradient x1="100%" y1="0.0854739038%" x2="0%" y2="99.9145261%" id="linearGradient-1">
            <stop stop-color="#F69882" offset="0%"></stop>
            <stop stop-color="#FF5B35" offset="100%"></stop>
        </linearGradient>
    </defs>
    <g id="Design" stroke="none" stroke-width="1" fill="none" fill-rule="evenodd">
        <g id="Landing" transform="translate(-265.000000, -3958.000000)" fill="url(#linearGradient-1)" fill-rule="nonzero">
            <g id="Paperless" transform="translate(0.000000, 3319.000000)">
                <g id="Group-2" transform="translate(264.000000, 120.000000)">
                    <g id="2" transform="translate(1.000000, 519.000000)">
                        <path d="M21.6750002,5.22071724 C21.7712387,5.22259959 21.8631005,5.26127034 21.9317102,5.32878309 C22.0799226,5.47462659 22.0818434,5.71300479 21.9360005,5.86121709 L21.9360005,5.86121709 L13.1055005,14.6932171 C12.817532,14.9812276 12.590966,15.3246496 12.4395005,15.7027171 L12.4395005,15.7027171 L10.3200007,21.0022166 C9.87439566,22.1165516 10.1357737,23.3892146 10.9845007,24.2377166 L10.9845007,24.2377166 L11.1393455,24.379721 C11.9868179,25.1047517 13.170632,25.3105747 14.2200009,24.9007168 L14.2200009,24.9007168 L19.5225011,22.7752168 C19.9005116,22.6251808 20.2436216,22.3989943 20.5305011,22.1107168 L20.5305011,22.1107168 L29.3610048,13.2862132 C29.4310323,13.2167983 29.5255814,13.1777571 29.6241828,13.1775418 C29.8312893,13.1770888 29.9995481,13.3446148 30,13.5517213 L30,13.5517213 L30,30.5482165 C29.9991753,33.1295965 27.9058803,35.221545 25.3245003,35.2207172 L25.3245003,35.2207172 L4.6755,35.2207172 C2.093295,35.2207172 8.17124146e-14,33.1274218 8.17124146e-14,30.5452168 L8.17124146e-14,30.5452168 L8.17124146e-14,9.89771724 C8.17124146e-14,7.31468724 2.09397,5.22071724 4.677,5.22071724 L4.677,5.22071724 Z M26.416501,4.56071687 C26.713873,4.27899738 27.179629,4.27899738 27.477001,4.56071688 L27.477001,4.56071688 L30.6600009,7.74521696 C30.9527874,8.03809196 30.9527874,8.51284196 30.6600009,8.80571696 L30.6600009,8.80571696 L18.9390009,20.5252169 C18.8671614,20.5972318 18.7814228,20.6538803 18.6870009,20.6917169 L18.6870009,20.6917169 L13.3845009,22.8127169 C13.1056194,22.9168139 12.7917909,22.8527669 12.5760009,22.6477169 L12.5760009,22.6477169 L12.5031697,22.563415 C12.3496101,22.3563931 12.3116703,22.081817 12.4095009,21.8377169 L12.4095009,21.8377169 L14.5305009,16.5337169 C14.5685945,16.4394299 14.6252108,16.3537402 14.6970009,16.2817169 L14.6970009,16.2817169 Z M30.1305011,0.849716917 C31.3175561,-0.283238988 33.1854446,-0.283238988 34.3725011,0.849717012 L34.3725011,0.849717012 L34.5074171,0.993695844 C35.5417731,2.17197296 35.496801,3.96707696 34.3725009,5.09171696 L34.3725009,5.09171696 L32.7854936,6.68320962 C32.7580469,6.70492587 32.7289601,6.72448437 32.6984936,6.74170962 L32.6984936,6.74170962 L32.6075619,6.80428715 C32.324758,6.96873762 31.9597451,6.92412255 31.7249936,6.68320965 L31.7249936,6.68320965 L28.5388886,3.50160465 C28.3977974,3.36089415 28.3185011,3.16982265 28.3185011,2.97055815 L28.3185011,2.97055815 L28.331153,2.8534937 C28.3530975,2.73803175 28.4025348,2.62891676 28.4760011,2.53571692 L28.4760011,2.53571692 L28.5058146,2.48734253 L28.5058146,2.48734253 L28.5390011,2.44121691 Z" id="Combined-Shape"></path>
                    </g>
                </g>
            </g>
        </g>
    </g>
</svg>