<?xml version="1.0" encoding="UTF-8"?>
<svg width="36px" height="36px" viewBox="0 0 36 36" version="1.1" xmlns="http://www.w3.org/2000/svg" xmlns:xlink="http://www.w3.org/1999/xlink">
    <!-- Generator: Sketch 59.1 (86144) - https://sketch.com -->
    <title>Shape</title>
    <desc>Created with Sketch.</desc>
    <defs>
        <linearGradient x1="99.4628977%" y1="0.537102304%" x2="0%" y2="100%" id="linearGradient-1">
            <stop stop-color="#FBD55B" offset="0.0448690878%"></stop>
            <stop stop-color="#F9BE00" offset="100%"></stop>
        </linearGradient>
    </defs>
    <g id="Design" stroke="none" stroke-width="1" fill="none" fill-rule="evenodd">
        <g id="Landing" transform="translate(-264.000000, -3711.000000)" fill="url(#linearGradient-1)" fill-rule="nonzero">
            <g id="Paperless" transform="translate(0.000000, 3319.000000)">
                <g id="Group-2" transform="translate(264.000000, 120.000000)">
                    <g id="1" transform="translate(-0.000000, 272.000000)">
                        <path d="M32.2500002,0 L3.75000016,0 L3.75,0 C1.678935,0 0,1.678935 0,3.75 C0,3.75 0,3.75 0,3.75 L0,32.25 L0,32.2500004 C0,34.3210654 1.678935,36 3.75,36 L32.25,36 L32.2499999,36 C34.3210649,36 36,34.3210654 36,32.2500004 L36,3.7500004 L36,3.7500004 C36,1.6789354 34.3210649,0 32.2499999,0 L32.2500002,0 Z M27.7500002,14.25 L21.0000001,14.25 L21.0000001,14.25 C20.1715726,14.25 19.5000001,13.5784275 19.5000001,12.75 C19.5000001,11.9215725 20.1715726,11.25 21.0000001,11.25 L27.7500001,11.25 L27.7500002,11.25 C28.5784277,11.25 29.2500002,11.9215725 29.2500002,12.75 C29.2500002,13.5784275 28.5784277,14.25 27.7500002,14.25 L27.7500002,14.25 Z M29.2500002,26.25 L29.2500002,26.25 C29.2500002,27.0784275 28.5784277,27.75 27.7500002,27.75 L21.0000001,27.75 L21.0000001,27.75 C20.1715726,27.75 19.5000001,27.0784275 19.5000001,26.25 C19.5000001,25.4215725 20.1715726,24.75 21.0000001,24.75 L27.7500001,24.75 L27.7500001,24.75 C28.5784276,24.75 29.2500002,25.4215725 29.2500002,26.25 L29.2500002,26.25 Z M16.9500002,8.4 L12.4500002,14.4 L12.4500002,14.4 C12.1898762,14.7492495 11.7908147,14.9682135 11.3565002,15 L11.2500002,15 L11.2500002,15 C10.8522077,15 10.4707397,14.8418235 10.1895002,14.5605 L7.9395002,12.3105 L7.9395003,12.3105001 C7.3533888,11.7248026 7.3530528,10.7748601 7.93875012,10.1887501 C8.52444762,9.6026386 9.47439012,9.6023026 10.0605001,10.1879999 L11.0880001,11.2154999 L14.5500001,6.59999988 L14.5500002,6.59999979 C15.0470567,5.93725779 15.9872582,5.80294329 16.6500002,6.29999979 C17.3127422,6.79705629 17.4470567,7.73725779 16.9500002,8.39999979 L16.9500002,8.4 Z M16.9500002,23.4 L12.4500002,29.4 L12.4500002,29.4 C11.9304047,30.0642585 10.9707002,30.1815315 10.3064402,29.661936 C10.2657701,29.6301231 10.2267399,29.5962678 10.1894999,29.5605008 L7.93949986,27.3105008 L7.93949983,27.3105007 C7.36398133,26.7146227 7.38048733,25.7650207 7.97636458,25.1895007 C8.55764908,24.6280777 9.47921458,24.6280777 10.0604946,25.1895008 L11.0879946,26.2170008 L14.5499946,21.6000008 L14.5499946,21.6000007 C15.0470511,20.9372587 15.9872526,20.8029442 16.6499946,21.3000007 C17.3127366,21.7970572 17.4470511,22.7372587 16.9499946,23.4000007 L16.9500002,23.4 Z" id="Shape"></path>
                    </g>
                </g>
            </g>
        </g>
    </g>
</svg>