<?xml version="1.0" encoding="UTF-8"?>
<svg width="36px" height="31px" viewBox="0 0 36 31" version="1.1" xmlns="http://www.w3.org/2000/svg" xmlns:xlink="http://www.w3.org/1999/xlink">
    <!-- Generator: Sketch 59.1 (86144) - https://sketch.com -->
    <title>icon-15</title>
    <desc>Created with Sketch.</desc>
    <defs>
        <linearGradient x1="100%" y1="13.5199637%" x2="0%" y2="86.4800363%" id="linearGradient-1">
            <stop stop-color="#5DCAE5" offset="0%"></stop>
            <stop stop-color="#0AADD7" offset="100%"></stop>
        </linearGradient>
    </defs>
    <g id="Design" stroke="none" stroke-width="1" fill="none" fill-rule="evenodd">
        <g id="Inquiry" transform="translate(-645.000000, -1651.000000)" fill="url(#linearGradient-1)" fill-rule="nonzero">
            <g id="Dynamic" transform="translate(0.000000, 922.000000)">
                <g id="Group-3" transform="translate(265.000000, 150.000000)">
                    <g id="7" transform="translate(380.000000, 579.000000)">
                        <path d="M36,4.5 L36,4.5 C36,2.014725 33.9852752,-1.77635684e-15 31.5,-1.77635684e-15 L4.5,-1.77635684e-15 L4.5,-1.77635684e-15 C2.014725,-1.77635684e-15 0,2.014725 0,4.5 C0,4.5 0,4.5 0,4.5 L0,26.25 L0,26.2500007 C0,28.7352757 2.014725,30.7500007 4.5,30.7500007 L31.5,30.7500007 L31.5,30.7500007 C33.9852748,30.7500007 36,28.7352757 36,26.2500007 L36,4.5 Z M14.4810002,3 L14.4810002,2.99999991 C14.8672997,2.29915041 15.7486082,2.04415791 16.4494502,2.43045741 C16.6893077,2.56266426 16.8867857,2.76014241 17.0189927,2.99999991 L17.0189927,2.9999999 C17.1633023,3.2240909 17.2432157,3.4835489 17.2500002,3.7499999 L17.2500002,3.7500009 C17.2432151,4.0164519 17.163302,4.2759099 17.0189927,4.5000009 L17.0189927,4.50000087 C16.6326932,5.20085037 15.7513847,5.45584287 15.0505427,5.06954337 C14.8106852,4.93733652 14.6132072,4.73985837 14.4810002,4.50000087 L14.4810002,4.50000078 C14.3366906,4.27590978 14.2567772,4.01645178 14.2500002,3.75000078 L14.2500002,3.74999986 C14.2567778,3.48354886 14.336691,3.22409086 14.4810017,2.99999986 L14.4810002,3 Z M9.2310002,3 L9.23100025,2.99999991 C9.61729975,2.29915041 10.4986082,2.04415791 11.1994502,2.43045741 C11.4393077,2.56266426 11.6367857,2.76014241 11.7689927,2.99999991 L11.7689927,2.99999989 C11.9133023,3.22409089 11.9932157,3.48354889 12.0000002,3.74999989 L12.0000002,3.75000089 C11.9932151,4.01645189 11.913302,4.27590989 11.7689927,4.50000089 L11.7689927,4.50000087 C11.3826932,5.20085037 10.5013847,5.45584287 9.80054272,5.06954337 C9.56068522,4.93733652 9.36320722,4.73985837 9.23100022,4.50000087 L9.23100017,4.50000078 C9.08669057,4.27590978 9.00677717,4.01645178 9.00000017,3.74999928 L9.00000017,3.74999856 C9.00677779,3.48354756 9.08669089,3.22408956 9.23100019,2.99999856 L9.2310002,3 Z M15.0000002,16.5 C15.8284202,16.5 16.5000002,17.17158 16.5000002,18 L16.5000002,24.75 C16.5000002,25.57842 15.8284202,26.25 15.0000002,26.25 L7.5000002,26.25 C6.6715802,26.25 6.0000002,25.57842 6.0000002,24.75 L6.0000002,18 C6.0000002,17.17158 6.6715802,16.5 7.5000002,16.5 L15.0000002,16.5 Z M28.8750001,21.75 C29.4963211,21.75 30.0000001,22.253679 30.0000001,22.875 C30.0000001,23.496321 29.4963211,24 28.8750001,24 L28.8750001,24 L19.8750001,24 C19.2536791,24 18.7500001,23.496321 18.7500001,22.875 C18.7500001,22.253679 19.2536791,21.75 19.8750001,21.75 L19.8750001,21.75 Z M28.8750001,16.5 C29.4963211,16.5 30.0000001,17.003679 30.0000001,17.625 C30.0000001,18.246321 29.4963211,18.75 28.8750001,18.75 L28.8750001,18.75 L19.8750001,18.75 C19.2536791,18.75 18.7500001,18.246321 18.7500001,17.625 C18.7500001,17.003679 19.2536791,16.5 19.8750001,16.5 L19.8750001,16.5 Z M29.2500002,9.75 C29.6642102,9.75 30.0000002,10.08579 30.0000002,10.5 L30.0000002,13.5 C30.0000002,13.91421 29.6642102,14.25 29.2500002,14.25 L6.7500002,14.25 C6.3357902,14.25 6.0000002,13.91421 6.0000002,13.5 L6.0000002,10.5 C6.0000002,10.08579 6.3357902,9.75 6.7500002,9.75 L29.2500002,9.75 Z M5.25000754,2.25000011 C5.72855262,2.25551886 6.17157366,2.49214154 6.44289191,2.87938795 L6.51900011,3.0000001 C6.63444779,3.1792729 6.70868191,3.38118058 6.73723127,3.59119566 L6.75000754,3.75000011 C6.74457947,3.9631617 6.6923495,4.17184713 6.59778827,4.36152944 L6.5190001,4.50000107 C6.1327006,5.20085057 5.2513921,5.45584307 4.5505501,5.06954357 C4.3586641,4.96377809 4.19390098,4.81623897 4.06798119,4.63864691 L3.98100754,4.50000097 C3.86555986,4.32072817 3.79132575,4.11882049 3.76278019,3.90880498 L3.75000754,3.75000011 C3.7510412,3.59133268 3.77777884,3.43423608 3.82886108,3.28474054 L3.88800015,3.13800011 C4.10826827,2.64508736 4.57427605,2.31214921 5.1040727,2.25782029 L5.25000754,2.25000011 Z" id="icon-15"></path>
                    </g>
                </g>
            </g>
        </g>
    </g>
</svg>