<?xml version="1.0" encoding="UTF-8"?>
<svg width="36px" height="37px" viewBox="0 0 36 37" version="1.1" xmlns="http://www.w3.org/2000/svg" xmlns:xlink="http://www.w3.org/1999/xlink">
    <!-- Generator: Sketch 59.1 (86144) - https://sketch.com -->
    <title>icon-menu-3</title>
    <desc>Created with Sketch.</desc>
    <defs>
        <linearGradient x1="96.9753798%" y1="0%" x2="3.02462018%" y2="100%" id="linearGradient-1">
            <stop stop-color="#5DCAE5" offset="0%"></stop>
            <stop stop-color="#0AADD7" offset="100%"></stop>
        </linearGradient>
    </defs>
    <g id="Design" stroke="none" stroke-width="1" fill="none" fill-rule="evenodd">
        <g id="Inquiry" transform="translate(-379.000000, -1646.000000)" fill="url(#linearGradient-1)" fill-rule="nonzero">
            <path d="M388.972973,1652.98889 C389.174482,1652.98889 389.337838,1653.15685 389.337838,1653.36403 L389.337838,1653.36403 L389.337838,1656.36514 C389.337838,1656.57233 389.174482,1656.74028 388.972973,1656.74028 L388.972973,1656.74028 L383.5,1656.74028 C382.693963,1656.74028 382.040541,1657.4121 382.040541,1658.24084 L382.040541,1658.24084 L382.040541,1674.74695 C382.040541,1675.57568 382.693963,1676.2475 383.5,1676.2475 L383.5,1676.2475 L393.716216,1676.2475 C394.522253,1676.2475 395.175676,1675.57568 395.175676,1674.74695 L395.175676,1674.74695 L395.175676,1670.62042 C395.175676,1670.41324 395.339031,1670.24528 395.540541,1670.24528 L395.540541,1670.24528 L397.72973,1670.24528 C397.931239,1670.24528 398.094595,1670.41324 398.094595,1670.62042 L398.094595,1670.62042 L398.094595,1679.24861 C398.094595,1681.32045 396.461039,1683 394.445946,1683 L394.445946,1683 L382.77027,1683 C381.802588,1683 380.87454,1682.60477 380.190286,1681.90124 C379.506032,1681.19772 379.121622,1680.24354 379.121622,1679.24861 L379.121622,1679.24861 L379.121622,1656.74028 C379.121622,1654.66845 380.755177,1652.98889 382.77027,1652.98889 L382.77027,1652.98889 Z M413.054054,1646.48649 C413.860091,1646.48649 414.513514,1647.15831 414.513514,1647.98704 L414.513514,1647.98704 L414.513514,1661.49204 C414.513514,1662.32077 413.860091,1662.9926 413.054054,1662.9926 L413.054054,1662.9926 L403.476108,1662.9926 L397.277297,1667.40523 C397.128529,1667.51134 396.934755,1667.52373 396.774349,1667.43738 C396.613943,1667.35103 396.513449,1667.18024 396.513514,1666.99408 L396.513514,1666.99408 L396.513514,1662.9926 L393.594595,1662.9926 C393.213088,1663.00363 392.84333,1662.85626 392.56874,1662.58372 C392.29415,1662.31119 392.137862,1661.93645 392.135135,1661.54406 L392.135135,1661.54406 L392.135135,1647.98704 C392.135135,1647.15831 392.788557,1646.48649 393.594595,1646.48649 L393.594595,1646.48649 Z M409.162162,1656.2401 L397.486486,1656.2401 C397.083468,1656.2401 396.756757,1656.57601 396.756757,1656.99037 C396.756757,1657.40474 397.083468,1657.74065 397.486486,1657.74065 L397.486486,1657.74065 L409.162162,1657.74065 C409.565181,1657.74065 409.891892,1657.40474 409.891892,1656.99037 C409.891892,1656.57601 409.565181,1656.2401 409.162162,1656.2401 L409.162162,1656.2401 Z M409.162162,1651.73843 L397.486486,1651.73843 C397.083468,1651.73843 396.756757,1652.07434 396.756757,1652.48871 C396.756757,1652.90307 397.083468,1653.23899 397.486486,1653.23899 L397.486486,1653.23899 L409.162162,1653.23899 C409.565181,1653.23899 409.891892,1652.90307 409.891892,1652.48871 C409.891892,1652.07434 409.565181,1651.73843 409.162162,1651.73843 L409.162162,1651.73843 Z" id="icon-menu-3"></path>
        </g>
    </g>
</svg>