<?xml version="1.0" encoding="UTF-8"?>
<svg width="30px" height="36px" viewBox="0 0 30 36" version="1.1" xmlns="http://www.w3.org/2000/svg" xmlns:xlink="http://www.w3.org/1999/xlink">
    <!-- Generator: Sketch 59.1 (86144) - https://sketch.com -->
    <title>icon-9</title>
    <desc>Created with Sketch.</desc>
    <defs>
        <linearGradient x1="84.225351%" y1="0.715494575%" x2="15.2777778%" y2="100%" id="linearGradient-1">
            <stop stop-color="#FBD55B" offset="0.0448690878%"></stop>
            <stop stop-color="#F9BE00" offset="100%"></stop>
        </linearGradient>
    </defs>
    <g id="Design" stroke="none" stroke-width="1" fill="none" fill-rule="evenodd">
        <g id="Communication" transform="translate(-646.000000, -1125.000000)" fill="url(#linearGradient-1)" fill-rule="nonzero">
            <g id="features-communication" transform="translate(0.000000, 975.000000)">
                <g id="Group-3" transform="translate(265.000000, 150.000000)">
                    <g id="1" transform="translate(380.000000, 0.000000)">
                        <path d="M30.121,7.37099991 L23.629,0.878999907 L23.6290001,0.879 C23.0665226,0.3163515 22.3035851,0 21.5080001,0 L4,0 L4,0 C2.343145,0 1,1.3431465 1,3 L1,33 L1,33 C1,34.6568555 2.3431465,36 4,36 L28,36 L28,36 C29.6568549,36 31,34.6568555 31,33 L31,9.49200045 L31,9.49264116 C31,8.69705616 30.6839814,7.93405116 30.1214529,7.37144616 L30.121,7.37099991 Z M16.750006,28.4999999 L16.750006,28.5000617 C16.750006,29.3284892 16.0784275,30.0000617 15.250006,30.0000617 C14.9948545,30.0000617 14.743927,29.9349795 14.520946,29.8109702 L10.204006,26.4105002 L10.204006,26.4105002 C10.071862,26.3065626 9.90862754,26.2500377 9.74050604,26.2500002 L7.75000598,26.2500002 L7.75000598,26.2500002 C6.92157848,26.2500002 6.25000598,25.5784277 6.25000598,24.7500002 C6.25000598,24.7500002 6.25000598,24.7500002 6.25000598,24.7500002 L6.25000598,21.7500002 L6.25000598,21.7500004 C6.25000598,20.9215729 6.92157848,20.2500004 7.75000598,20.2500004 L9.74050598,20.2500004 L9.74050601,20.2500004 C9.90862751,20.2499623 10.071862,20.193438 10.204006,20.0895004 L14.521006,16.6890004 L14.521006,16.6890004 C15.245017,16.2863854 16.158331,16.5469275 16.560946,17.2709389 C16.6849464,17.4939244 16.750006,17.7448564 16.750006,18.0000004 L16.750006,28.4999999 Z M20.6365,25.3499999 L20.6365001,25.3499998 C20.1970196,25.7894803 19.4844806,25.7894803 19.0450001,25.35 C18.6055196,24.9105195 18.6055196,24.1979805 19.045,23.7585 L19.045,23.7585 C19.4844805,23.3193015 19.4847085,22.6069905 19.0455098,22.16751 C19.0453399,22.16734 19.04517,22.16717 19.045,22.1670002 L19.045,22.1670002 C18.6055195,21.7275197 18.6055195,21.0149807 19.045,20.5755002 C19.4844805,20.1360197 20.1970195,20.1360197 20.6365,20.5755002 L20.6365001,20.5755002 C21.9547106,21.8940377 21.9547106,24.0314702 20.6364999,25.3500002 L20.6365,25.3499999 Z M23.818,28.5314999 L23.8180001,28.5314998 C23.3785196,28.9709803 22.6659806,28.9709803 22.2265001,28.5315 C21.7870196,28.0920195 21.7870196,27.3794805 22.2265,26.94 L22.2264998,26.9400001 C24.4215548,24.7445551 24.4215548,21.1854451 22.2265001,18.9900001 L22.2265001,18.9900001 C21.7870196,18.5505196 21.7870196,17.8379806 22.2265002,17.3985001 C22.6659807,16.9590196 23.3785197,16.9590196 23.8180002,17.3985001 L23.8180007,17.3985007 C26.8935407,20.4737257 26.8937957,25.4598907 23.8185678,28.5354307 C23.8183784,28.5356201 23.818189,28.5358095 23.8179996,28.5359989 L23.818,28.5314999 Z" id="icon-9"></path>
                    </g>
                </g>
            </g>
        </g>
    </g>
</svg>