<?xml version="1.0" encoding="UTF-8"?>
<svg width="24px" height="24px" viewBox="0 0 24 24" version="1.1" xmlns="http://www.w3.org/2000/svg" xmlns:xlink="http://www.w3.org/1999/xlink">
    <!-- Generator: Sketch 59.1 (86144) - https://sketch.com -->
    <title>Facebook</title>
    <desc>Created with Sketch.</desc>
    <g id="Symbols" stroke="none" stroke-width="1" fill="none" fill-rule="evenodd">
        <g id="Footer" transform="translate(-1231.000000, -508.000000)" fill="#FFFFFF">
            <g transform="translate(265.000000, 497.000000)" id="Group-2">
                <g transform="translate(966.000000, 11.000000)">
                    <path d="M12.8191875,24 L1.3246875,24 C0.592875,24 0,23.40675 0,22.6753125 L0,1.3246875 C0,0.592875 0.592875,0 1.3246875,0 L22.6755,0 C23.4069375,0 24,0.592875 24,1.3246875 L24,22.6753125 C24,23.4069375 23.4069375,24 22.6755,24 L16.559625,24 L16.559625,14.7058125 L19.67925,14.7058125 L20.1463125,11.0836875 L16.559625,11.0836875 L16.559625,8.77125 C16.559625,7.7225625 16.8508125,7.008 18.3545625,7.008 L20.2725,7.00725 L20.2725,3.767625 C19.9408125,3.7235625 18.8023125,3.6249375 17.477625,3.6249375 C14.7121875,3.6249375 12.819,5.313 12.819,8.41275 L12.819,11.083875 L9.6915,11.083875 L9.6915,14.706 L12.8191875,14.706 L12.8191875,24 Z" id="Facebook"></path>
                </g>
            </g>
        </g>
    </g>
</svg>