<svg xmlns="http://www.w3.org/2000/svg" xmlns:xlink="http://www.w3.org/1999/xlink" viewBox="0 0 89.06 65.48"><defs><clipPath id="clip-path"><rect width="89.06" height="65.48" rx="4.25" style="fill:#fff"/></clipPath><linearGradient id="linear-gradient" x1="65.09" y1="43.62" x2="23.68" y2="85.03" gradientUnits="userSpaceOnUse"><stop offset="0" stop-color="#73d2e9"/><stop offset="1" stop-color="#00add8"/></linearGradient><linearGradient id="linear-gradient-2" x1="65.09" y1="11.22" x2="23.68" y2="52.63" xlink:href="#linear-gradient"/><linearGradient id="linear-gradient-3" x1="65.09" y1="22.02" x2="23.68" y2="63.43" gradientUnits="userSpaceOnUse"><stop offset="0" stop-color="#facf45"/><stop offset="1" stop-color="#f9be00"/></linearGradient><linearGradient id="linear-gradient-4" x1="65.09" y1="32.82" x2="23.68" y2="74.23" gradientUnits="userSpaceOnUse"><stop offset="0" stop-color="#ff876c"/><stop offset="1" stop-color="#ff5b35"/></linearGradient></defs><title>Asset 132</title><g id="Layer_2" data-name="Layer 2"><g id="Layer_1-2" data-name="Layer 1"><rect width="89.06" height="65.48" rx="4.25" style="fill:#fff"/><g style="clip-path:url(#clip-path)"><rect x="7.19" y="60.11" width="74.4" height="8.43" style="fill:url(#linear-gradient)"/><rect x="10.57" y="62.69" width="14.31" height="3.18" style="fill:#fff"/><rect x="28.57" y="62.69" width="49.11" height="3.18" style="fill:#fff;opacity:0.5"/></g><path d="M84.81,0H4.25A4.25,4.25,0,0,0,0,4.25V7.81H89.06V4.25A4.25,4.25,0,0,0,84.81,0Z" style="fill:#dee1e8"/><circle cx="5.77" cy="3.91" r="1.42" style="fill:#fff"/><circle cx="10.57" cy="3.91" r="1.42" style="fill:#fff"/><circle cx="15.37" cy="3.91" r="1.42" style="fill:#fff"/><rect x="7.19" y="14.51" width="13.2" height="2.43" style="fill:#dee1e8;opacity:0.5"/><rect x="7.19" y="21.71" width="74.4" height="2.43" style="fill:#dee1e8;opacity:0.5"/><rect x="27.59" y="14.51" width="13.2" height="2.43" style="fill:#dee1e8;opacity:0.5"/><rect x="47.99" y="14.51" width="13.2" height="2.43" style="fill:#dee1e8;opacity:0.5"/><rect x="68.39" y="14.51" width="13.2" height="2.43" style="fill:#dee1e8;opacity:0.5"/><rect x="7.19" y="27.71" width="74.4" height="8.43" style="fill:url(#linear-gradient-2)"/><rect x="10.57" y="30.29" width="14.31" height="3.18" style="fill:#fff"/><rect x="28.57" y="30.29" width="49.11" height="3.18" style="fill:#fff;opacity:0.5"/><rect x="7.19" y="38.51" width="74.4" height="8.43" style="fill:url(#linear-gradient-3)"/><rect x="10.57" y="41.09" width="14.31" height="3.18" style="fill:#fff"/><rect x="28.57" y="41.09" width="49.11" height="3.18" style="fill:#fff;opacity:0.5"/><rect x="7.19" y="49.31" width="74.4" height="8.43" style="fill:url(#linear-gradient-4)"/><rect x="10.57" y="51.89" width="14.31" height="3.18" style="fill:#fff"/><rect x="28.57" y="51.89" width="49.11" height="3.18" style="fill:#fff;opacity:0.5"/></g></g></svg>
