<?xml version="1.0" encoding="UTF-8"?>
<svg width="36px" height="36px" viewBox="0 0 36 36" version="1.1" xmlns="http://www.w3.org/2000/svg" xmlns:xlink="http://www.w3.org/1999/xlink">
    <!-- Generator: Sketch 59.1 (86144) - https://sketch.com -->
    <title>icon-12</title>
    <desc>Created with Sketch.</desc>
    <defs>
        <linearGradient x1="99.4628977%" y1="0.537102304%" x2="0%" y2="100%" id="linearGradient-1">
            <stop stop-color="#9F97C9" offset="0.0448690878%"></stop>
            <stop stop-color="#675FAA" offset="100%"></stop>
        </linearGradient>
    </defs>
    <g id="Design" stroke="none" stroke-width="1" fill="none" fill-rule="evenodd">
        <g id="Inquiry" transform="translate(-645.000000, -1360.000000)" fill="url(#linearGradient-1)" fill-rule="nonzero">
            <g id="Dynamic" transform="translate(0.000000, 922.000000)">
                <g id="Group-3" transform="translate(265.000000, 150.000000)">
                    <g id="4" transform="translate(380.000000, 288.000000)">
                        <path d="M6,0 C2.7011715,0 0,2.7011715 0,6 C0,9.2988285 2.7011715,12 6,12 C9.2988285,12 12,9.2988285 12,6 C12,2.7011715 9.2988285,0 6,0 Z M30,0 L24,6 L30,12 L36,6 L30,0 Z M18,1.5 L18,4.5 L13.5,4.5 L13.5,7.5 L18,7.5 L18,10.5 L23.25,6 L18,1.5 Z M6,2.390625 C7.9511715,2.390625 9.609375,4.0488285 9.609375,6 C9.609375,7.9511715 7.9511715,9.609375 6,9.609375 C4.0488285,9.609375 2.390625,7.9511715 2.390625,6 C2.390625,4.0488285 4.0488285,2.390625 6,2.390625 Z M6,12.75 L1.5,18 L4.5,18 L4.5,22.5 L7.5,22.5 L7.5,18 L10.5,18 L6,12.75 Z M28.5,13.5 L28.5,18 L25.5,18 L30,23.25 L34.5,18 L31.5,18 L31.5,13.5 L28.5,13.5 Z M0,24 L0,36 L12,36 L12,24 L0,24 Z M30,24 C26.6835945,24 24,26.6835945 24,30 C24,33.316407 26.6835945,36 30,36 C33.316407,36 36,33.316407 36,30 C36,26.6835945 33.316407,24 30,24 Z" id="icon-12"></path>
                    </g>
                </g>
            </g>
        </g>
    </g>
</svg>