<?xml version="1.0" encoding="UTF-8"?>
<svg width="31px" height="36px" viewBox="0 0 31 36" version="1.1" xmlns="http://www.w3.org/2000/svg" xmlns:xlink="http://www.w3.org/1999/xlink">
    <!-- Generator: Sketch 59.1 (86144) - https://sketch.com -->
    <title>Combined Shape</title>
    <desc>Created with Sketch.</desc>
    <defs>
        <linearGradient x1="85.6776425%" y1="0%" x2="14.3223575%" y2="100%" id="linearGradient-1">
            <stop stop-color="#F69882" offset="0%"></stop>
            <stop stop-color="#FF5B35" offset="100%"></stop>
        </linearGradient>
    </defs>
    <g id="Design" stroke="none" stroke-width="1" fill="none" fill-rule="evenodd">
        <g id="Landing" transform="translate(-722.000000, -2258.000000)" fill="url(#linearGradient-1)" fill-rule="nonzero">
            <g id="Dynamic" transform="translate(1.000000, 2135.000000)">
                <g id="Group-3" transform="translate(264.000000, 120.000000)">
                    <g id="Group-4" transform="translate(455.000000, 3.000000)">
                        <path d="M31.8961064,28.0160502 C31.9994322,27.9508366 32.1301165,27.9472352 32.2368766,28.0066589 L32.2368766,28.0066589 L32.2958219,28.0482784 C32.3673983,28.1113399 32.4098056,28.2028163 32.4099446,28.3004699 L32.4099446,28.3004699 L32.4099446,33.9875773 L32.4099446,33.9875773 L32.4044248,34.137767 C32.3276015,35.1790545 31.4584327,36 30.3975222,36 L30.3975222,36 L18.3229879,36 L18.3229879,36 L18.1727983,35.9944802 C17.1315103,35.9176568 16.3105593,35.0484881 16.3105593,33.9875776 L16.3105593,33.9875776 L16.3105593,28.3004722 C16.3101811,28.2366225 16.3281034,28.1739999 16.3622098,28.120021 C16.4607608,27.9640493 16.6670904,27.9174999 16.8230625,28.0160501 L16.8230625,28.0160501 L22.7597086,32.1455409 C23.7395705,32.7538212 24.9796037,32.7538212 25.9594602,32.145541 L25.9594602,32.145541 Z M26.1490688,-6.39488462e-14 L26.3187605,0.00527892401 C27.7216086,0.092824441 28.8322986,1.2583183 28.8322986,2.68322946 L28.8322986,2.68322946 L28.832,21.4667584 L16.6563899,21.465839 L16.5049319,21.4712287 C15.4043399,21.5498336 14.5356017,22.4784421 14.5356017,23.6124229 L14.5356017,23.6124229 L14.5348275,23.8202622 C14.533056,24.3214716 14.5286228,25.663754 14.5237551,27.131227 L14.5237551,27.131227 L14.5217394,27.169002 L14.521,32.1987584 L4.68322998,32.1987584 L4.51353822,32.1934794 C3.11068996,32.1059338 2,30.9404384 2,29.5155285 L2,29.5155285 L2,2.68322986 L2.00527893,2.51353807 C2.09282457,1.11068958 3.25831999,-6.39488462e-14 4.68322986,-6.39488462e-14 L4.68322986,-6.39488462e-14 L26.1490688,-6.39488462e-14 Z M30.3975225,23.2546588 C31.5089526,23.2546588 32.4099449,24.1556512 32.4099449,25.2670812 L32.4099449,25.2670812 L32.4031107,25.3004233 C32.395005,25.32146 32.3801123,25.3395828 32.3603053,25.351603 L32.3603053,25.351603 L24.8901934,30.4390069 C24.5635437,30.6416619 24.1502592,30.6416619 23.8236095,30.439007 L23.8236095,30.439007 L16.3575223,25.3516031 C16.3280843,25.3336579 16.31025,25.3015563 16.3105615,25.2670814 L16.3105615,25.2670814 L16.3160814,25.1168918 C16.3929051,24.0756043 17.2620776,23.2546588 18.3229881,23.2546588 L18.3229881,23.2546588 Z M20.1118015,11.403727 L8.03726723,11.403727 L7.90806069,11.4098685 C7.22772576,11.4748785 6.69565224,12.0479737 6.69565224,12.7453419 C6.69565224,13.4862957 7.29631337,14.0869569 8.03726717,14.0869569 L8.03726717,14.0869569 L20.1118016,14.0869569 C20.8527553,14.0869569 21.4534165,13.4862957 21.4534165,12.7453419 C21.4534165,12.0043881 20.8527553,11.403727 20.1118015,11.403727 L20.1118015,11.403727 Z M14.0745343,6.03726728 L8.03726723,6.03726728 L7.90806069,6.04340881 C7.22772576,6.10841873 6.69565224,6.68151392 6.69565224,7.37888221 C6.69565224,8.11983601 7.29631337,8.72049714 8.03726717,8.72049714 L8.03726717,8.72049714 L14.0745344,8.72049714 C14.8154881,8.72049714 15.4161492,8.11983601 15.4161492,7.37888221 C15.4161492,6.63792841 14.8154881,6.03726728 14.0745343,6.03726728 L14.0745343,6.03726728 Z" id="Combined-Shape"></path>
                    </g>
                </g>
            </g>
        </g>
    </g>
</svg>