<?xml version="1.0" encoding="UTF-8"?>
<svg width="36px" height="35px" viewBox="0 0 36 35" version="1.1" xmlns="http://www.w3.org/2000/svg" xmlns:xlink="http://www.w3.org/1999/xlink">
    <!-- Generator: Sketch 59.1 (86144) - https://sketch.com -->
    <title>icon-18</title>
    <desc>Created with Sketch.</desc>
    <defs>
        <linearGradient x1="99.4628977%" y1="4.57313476%" x2="0%" y2="95.9201415%" id="linearGradient-1">
            <stop stop-color="#9F97C9" offset="0.0448690878%"></stop>
            <stop stop-color="#675FAA" offset="100%"></stop>
        </linearGradient>
    </defs>
    <g id="Design" stroke="none" stroke-width="1" fill="none" fill-rule="evenodd">
        <g id="Communication" transform="translate(-1124.000000, -2351.000000)" fill="url(#linearGradient-1)" fill-rule="nonzero">
            <g id="Industry" transform="translate(0.000000, 1938.000000)">
                <g id="Group-11">
                    <g id="text-copy" transform="translate(265.000000, 100.000000)">
                        <g id="2" transform="translate(859.000000, 313.000000)">
                            <path d="M20.9445,29.25 C21.1680677,29.2503779 21.379811,29.3504747 21.522,29.523 L21.522,29.523 L24.669,33.3195 C24.8296625,33.5486971 24.8493295,33.8482871 24.7200084,34.0965206 C24.5906873,34.344754 24.3338994,34.5003205 24.054,34.5000005 L24.054,34.5000005 L11.9355,34.5000005 C11.6558702,34.4997609 11.3995941,34.3439784 11.2706456,34.0958551 C11.1416972,33.8477317 11.1614923,33.5484764 11.322,33.3195 L11.322,33.3195 L14.472,29.5215 C14.6144786,29.349535 14.8261793,29.25 15.0495,29.25 L15.0495,29.25 Z M2.25,0 L33.75,0 C34.940864,0 35.9156449,0.925161591 35.9948092,2.09595119 L36,2.25 L36,25.5 C36,26.690864 35.0748384,27.6656449 33.9040488,27.7448092 L33.75,27.75 L2.25,27.75 C1.05913601,27.75 0.084355084,26.8248384 0.00519081254,25.6540488 L0,25.5 L0,2.25 C0,1.05913601 0.925161591,0.084355084 2.09595119,0.00519081254 L2.25,0 L33.75,0 Z M22.599549,15.5626949 L22.5982713,15.5626949 L17.9116544,17.2237096 C17.7739953,17.2723247 17.6238381,17.2723247 17.486179,17.2237096 L12.8059506,15.5626949 C12.6103943,15.4938661 12.3935984,15.52421 12.2244539,15.6440841 C12.0553094,15.7639583 11.9548506,15.9584556 11.9549998,16.165771 L11.9549998,19.3600301 C11.9553465,19.6307961 12.1263447,19.8719343 12.381753,19.9618285 L16.2148639,21.3161944 C17.1778262,21.6551796 18.2276734,21.6551796 19.1906357,21.3161944 L23.0237466,19.9618285 C23.2791549,19.8719343 23.4501531,19.6307961 23.4504998,19.3600301 L23.4504998,16.165771 C23.4506491,15.9584556 23.3501902,15.7639583 23.1810457,15.6440841 C23.0119012,15.52421 22.7951053,15.4938661 22.599549,15.5626949 Z M17.451938,6.63629426 L7.88547614,10.4341796 C7.62062387,10.5395888 7.44903294,10.798337 7.45483528,11.0833324 L7.45483528,16.4132183 C7.45483528,16.9792981 7.91388366,17.4381964 8.47996342,17.4381964 C9.04604317,17.4381964 9.50494148,16.9792981 9.50494148,16.4132183 L9.50494148,13.2426195 C9.5052248,13.0211154 9.6128591,12.8134902 9.79370803,12.6855926 C9.97455696,12.5576949 10.2061816,12.5253937 10.415122,12.5989333 L17.4724376,15.0903133 C17.5450373,15.1171419 17.6219037,15.1305704 17.6992994,15.1299458 C17.7766753,15.1303323 17.8534995,15.1169112 17.9261612,15.0903133 L27.4926231,11.7147189 C27.7619935,11.6202949 27.9442909,11.3683828 27.9499003,11.082995 C27.9552557,10.7976071 27.7827678,10.5388795 27.5172226,10.4341796 L27.5226891,10.4341796 L17.9562272,6.63629426 C17.7942791,6.57199797 17.6138862,6.57199797 17.451938,6.63629426 Z" id="icon-18"></path>
                        </g>
                    </g>
                </g>
            </g>
        </g>
    </g>
</svg>