<?xml version="1.0" encoding="UTF-8"?>
<svg width="36px" height="36px" viewBox="0 0 36 36" version="1.1" xmlns="http://www.w3.org/2000/svg" xmlns:xlink="http://www.w3.org/1999/xlink">
    <!-- Generator: Sketch 59.1 (86144) - https://sketch.com -->
    <title>icon-13</title>
    <desc>Created with Sketch.</desc>
    <defs>
        <linearGradient x1="99.2310594%" y1="0.760042627%" x2="0.00903535817%" y2="100%" id="linearGradient-1">
            <stop stop-color="#FBD55B" offset="0.0448690878%"></stop>
            <stop stop-color="#F9BE00" offset="100%"></stop>
        </linearGradient>
    </defs>
    <g id="Design" stroke="none" stroke-width="1" fill="none" fill-rule="evenodd">
        <g id="Inquiry" transform="translate(-1026.000000, -1359.000000)" fill="url(#linearGradient-1)" fill-rule="nonzero">
            <g id="Dynamic" transform="translate(0.000000, 922.000000)">
                <g id="Group-3" transform="translate(265.000000, 150.000000)">
                    <g id="5" transform="translate(760.000000, 286.000000)">
                        <path d="M6.91385009,8.851142 L7.1219188,8.85527535 C8.92113335,8.93014177 10.6046442,10.0159325 11.35612,11.78338 C12.396625,14.23063 11.256235,17.057995 8.80900001,18.0985 L8.80900001,18.0985 L8.74227152,18.1358974 C8.6389732,18.2083823 8.57691428,18.329025 8.581,18.4585 L8.581,18.4585 L8.59164747,18.5340618 C8.62181,18.6562562 8.71217375,18.7572124 8.8345,18.799 L8.8345,18.799 L9.06421571,18.8827665 C11.3361334,19.7643853 12.8471908,21.9539439 12.8500019,24.4075181 L12.8500019,24.4075181 L12.8500019,28.852752 L12.8500019,28.852752 L12.8432511,28.9538484 C12.7942837,29.3147984 12.4848799,29.593002 12.1105004,29.5930013 L12.1105004,29.5930013 L10.7875004,29.5930013 C10.5946199,29.5931483 10.4341181,29.7412538 10.4185004,29.9335013 L10.4185004,29.9335013 L9.88450043,36.3220012 C9.85253243,36.7050727 9.53240393,37.000002 9.14800043,37.000002 L9.14800043,37.000002 L4.70350043,37.000002 C4.31852093,37.0005547 3.99751628,36.7056472 3.96550043,36.3220012 L3.96550043,36.3220012 L3.43300044,29.9335014 C3.41664294,29.7410192 3.25567644,29.5930866 3.06250044,29.5930014 L3.06250044,29.5930014 L1.74100045,29.5930014 L1.74100045,29.5930014 L1.64045103,29.586237 C1.27876806,29.5371706 1.00000045,29.2271413 1.00000045,28.8520014 L1.00000045,28.8520014 L1.00000045,24.4075013 C1.00382545,21.8724263 2.61686545,19.6194698 5.01550045,18.7990013 L5.01550045,18.7990013 L5.08753421,18.7656839 C5.15526206,18.7251513 5.20910467,18.6638717 5.24036651,18.58993 C5.32101851,18.3991705 5.23175801,18.1791506 5.04100001,18.0985 L5.04100001,18.0985 L4.8148488,17.9953807 C3.77454345,17.4882139 2.94888981,16.6215484 2.49388001,15.55138 C1.45337501,13.10413 2.59376501,10.276765 5.04100001,9.23625997 C5.65281251,8.97613372 6.2883822,8.85231341 6.91385009,8.851142 Z M31.0638516,8.85114203 L31.2719203,8.85527538 C33.0711349,8.9301418 34.7546457,10.0159325 35.5061215,11.78338 C36.5466265,14.23063 35.4062365,17.057995 32.9590015,18.0985 L32.9590015,18.0985 L32.8895796,18.1369664 C32.8249774,18.1823157 32.7757329,18.2473474 32.74993,18.3233665 C32.6833615,18.519484 32.7883825,18.7324326 32.9845,18.799 L32.9845,18.799 L33.2141639,18.8828406 C35.4855452,19.7651234 36.9963108,21.9542236 37.000003,24.407522 L37.000003,24.407522 L37.000003,28.8519992 C37.000003,29.2612382 36.6682524,29.5929932 36.2590134,29.5929992 L36.2590134,29.5929992 L34.9375134,29.5929992 C34.7443374,29.5930847 34.5833709,29.7410162 34.5670134,29.9334992 L34.5670134,29.9334992 L34.0345135,36.3219991 C34.0024975,36.7056451 33.681493,37.0005518 33.2965135,36.9999998 L33.2965135,36.9999998 L28.8520135,36.9999998 C28.46761,36.9999998 28.1474819,36.7050706 28.1155135,36.3219991 L28.1155135,36.3219991 L27.5815135,29.9334993 C27.5658955,29.7412525 27.405394,29.5931468 27.2125135,29.5929993 L27.2125135,29.5929993 L25.8887627,29.5929989 L25.8887627,29.5929989 L25.7876799,29.5860451 C25.4268284,29.5363517 25.1492477,29.2263908 25.1499999,28.8520113 L25.1499999,28.8520113 L25.1499999,24.4075 C25.1531515,21.87268 26.7656815,19.619596 29.1640015,18.799 L29.1640015,18.799 L29.2361489,18.7658313 C29.3040017,18.7254307 29.358001,18.6642318 29.3894215,18.5903125 C29.4704395,18.3997105 29.3816035,18.1795183 29.1910015,18.0985 L29.1910015,18.0985 L28.9648503,17.9953808 C27.924545,17.4882139 27.0988913,16.6215484 26.6438815,15.55138 C25.6033765,13.10413 26.7437665,10.276765 29.1910015,9.23626 C29.802814,8.97613375 30.4383837,8.85231344 31.0638516,8.85114203 Z M19.048211,0.997029811 L19.2454446,1.00415732 C20.688064,1.09142452 22.0388044,1.94534399 22.6937802,3.34671993 C23.6464752,5.38508493 22.7663652,7.80980793 20.7280002,8.76249993 L20.7280002,8.76249993 L20.6633865,8.80047608 C20.6032103,8.8445263 20.5571014,8.9059711 20.5318615,8.97736 C20.4631015,9.171841 20.565019,9.38524 20.7595,9.454 L20.7595,9.454 L20.9770175,9.53819411 C22.9093535,10.3362524 24.1826816,12.2232957 24.1854976,14.3291366 L24.1854976,14.3291366 L24.1854976,16.5550003 C24.1854976,16.9642438 23.8537409,17.2960003 23.4444974,17.2960003 L23.4444974,17.2960003 L22.2174974,17.2960003 C22.0287869,17.2955473 21.8698891,17.4370063 21.8484974,17.6245003 L21.8484974,17.6245003 L21.2169974,23.3050002 C21.1756979,23.6797797 20.8590449,23.9635002 20.4819974,23.9635002 L20.4819974,23.9635002 L17.5179975,23.9635002 C17.140638,23.9635002 16.8235111,23.6800137 16.7814975,23.3050002 L16.7814975,23.3050002 L16.1514975,17.6245002 C16.1314785,17.4369012 15.9726585,17.2949351 15.7839975,17.2960002 L15.7839975,17.2960002 L14.5554975,17.2960002 L14.5554975,17.2960002 L14.4554672,17.288176 C14.0957129,17.235775 13.8189523,16.9282767 13.8145005,16.5549972 L13.8145005,16.5549972 L13.8145005,14.3304998 C13.8186405,12.1448498 15.1904955,10.1955923 17.2465005,9.45399981 L17.2465005,9.45399981 L17.3142983,9.42205522 C17.3782299,9.3836582 17.4297342,9.3266599 17.4613602,9.25786143 C17.5475172,9.07043793 17.4654237,8.84865678 17.2780002,8.76249993 L17.2780002,8.76249993 L17.0652362,8.65537543 C16.2985795,8.24085011 15.6830178,7.59007293 15.3122202,6.79671993 C14.3595252,4.75835493 15.2396352,2.33363193 17.2780002,1.38093993 C17.8512903,1.11299446 18.455142,0.990026727 19.048211,0.997029811 Z" id="icon-13"></path>
                    </g>
                </g>
            </g>
        </g>
    </g>
</svg>