<?xml version="1.0" encoding="UTF-8"?>
<svg width="20px" height="14px" viewBox="0 0 20 14" version="1.1" xmlns="http://www.w3.org/2000/svg" xmlns:xlink="http://www.w3.org/1999/xlink">
    <!-- Generator: Sketch 59.1 (86144) - https://sketch.com -->
    <title>icon-support</title>
    <desc>Created with Sketch.</desc>
    <g id="Symbols" stroke="none" stroke-width="1" fill="none" fill-rule="evenodd">
        <g id="Footer" transform="translate(-266.000000, -847.000000)" fill="#FFFFFF" fill-rule="nonzero">
            <g transform="translate(265.000000, 497.000000)" id="icon-support">
                <path d="M20.8627241,351.515375 L20.9066586,351.52667 C20.9633264,351.550036 21.0002179,351.605373 21,351.66667 L21,351.66667 L21,361.666666 C21,362.58714 20.2538006,363.333332 19.333326,363.333332 L19.333326,363.333332 L2.666666,363.333332 C1.74619137,363.333332 1,362.58714 1,361.666666 L1,361.666666 L1,351.66667 C1.0006675,351.60605 1.03737099,351.55165 1.09333329,351.528337 C1.15026327,351.503655 1.21651399,351.516574 1.25999989,351.560837 L1.25999989,351.560837 L6.42666449,356.727501 C6.50781305,356.809093 6.50781305,356.94091 6.42666449,357.022501 L6.42666449,357.022501 L2.22416618,361.225 C1.99012184,361.467088 1.98994101,361.851078 2.22375675,362.093391 C2.46343915,362.341784 2.85910399,362.348845 3.10749806,362.109162 L3.10749806,362.109162 L7.30999638,357.906664 C7.39158801,357.825515 7.52340471,357.825515 7.60499625,357.906664 L7.60499625,357.906664 L9.38082887,359.679163 C10.2756785,360.573513 11.7259779,360.573513 12.6208275,359.679163 L12.6208275,359.679163 L14.3951796,357.904811 L14.3951796,357.904811 L14.4494878,357.865641 C14.5275652,357.826687 14.6249882,357.839827 14.6899933,357.904997 L14.6899933,357.904997 L18.8924916,362.107495 L18.8924916,362.107495 L18.9078534,362.122843 C19.1562458,362.362526 19.5519115,362.355466 19.7915947,362.107071 C20.0312784,361.858679 20.0242176,361.463013 19.7758235,361.22333 L19.7758235,361.22333 L15.5733252,357.020832 C15.4921766,356.93924 15.4921766,356.807423 15.5733252,356.725832 L15.5733252,356.725832 L20.7399898,351.559167 C20.7837064,351.515335 20.8496745,351.502471 20.9066586,351.52667 Z M19.3333245,349.999994 C19.413367,349.999994 19.4933029,350.005833 19.5724902,350.017501 C19.6616235,350.030455 19.7441594,350.071941 19.8077318,350.135746 C19.9701535,350.298761 19.9696718,350.562579 19.8066569,350.725001 L19.8066569,350.725001 L11.7349934,358.796664 C11.3277936,359.202672 10.6688589,359.202672 10.2616606,358.796664 L10.2616606,358.796664 L2.19166637,350.725001 C2.12786198,350.661428 2.08637483,350.578893 2.07342142,350.489759 C2.04032644,350.262033 2.19810637,350.050596 2.42583299,350.017501 C2.50557046,350.005752 2.5860661,349.999903 2.66666455,349.999994 L2.66666455,349.999994 Z"></path>
            </g>
        </g>
    </g>
</svg>