<?xml version="1.0" encoding="UTF-8"?>
<svg width="24px" height="22px" viewBox="0 0 24 22" version="1.1" xmlns="http://www.w3.org/2000/svg" xmlns:xlink="http://www.w3.org/1999/xlink">
    <!-- Generator: Sketch 59.1 (86144) - https://sketch.com -->
    <title>LinkedIn_1_</title>
    <desc>Created with Sketch.</desc>
    <g id="Symbols" stroke="none" stroke-width="1" fill="none" fill-rule="evenodd">
        <g id="Footer" transform="translate(-1351.000000, -510.000000)" fill="#FFFFFF" fill-rule="nonzero">
            <g transform="translate(265.000000, 497.000000)" id="Group-2">
                <g transform="translate(966.000000, 11.000000)">
                    <path d="M120.6,8.975 L125.25,8.975 L125.25,23.825 L120.6,23.825 L120.6,8.975 Z M122.85,7.1 L122.85,7.1 C121.125,7.1 120,5.975 120,4.55 C120,3.05 121.125,2 122.85,2 C124.575,2 125.625,3.125 125.7,4.55 C125.7,5.975 124.575,7.1 122.85,7.1 Z M144,23.75 L138.675,23.75 L138.675,16.1 C138.675,14.075 137.85,12.725 136.05,12.725 C134.625,12.725 133.875,13.625 133.5,14.525 C133.35,14.825 133.35,15.275 133.35,15.725 L133.35,23.75 L128.1,23.75 C128.1,23.75 128.175,10.175 128.1,8.9 L133.35,8.9 L133.35,11.225 C133.65,10.175 135.375,8.75 138,8.75 C141.3,8.75 143.925,10.85 143.925,15.5 L144,23.75 L144,23.75 Z" id="LinkedIn_1_"></path>
                </g>
            </g>
        </g>
    </g>
</svg>