<?xml version="1.0" encoding="UTF-8"?>
<svg width="36px" height="36px" viewBox="0 0 36 36" version="1.1" xmlns="http://www.w3.org/2000/svg" xmlns:xlink="http://www.w3.org/1999/xlink">
    <!-- Generator: Sketch 59.1 (86144) - https://sketch.com -->
    <title>Combined Shape</title>
    <desc>Created with Sketch.</desc>
    <defs>
        <linearGradient x1="100%" y1="0%" x2="0%" y2="100%" id="linearGradient-1">
            <stop stop-color="#5DCAE5" offset="0%"></stop>
            <stop stop-color="#0AADD7" offset="100%"></stop>
        </linearGradient>
    </defs>
    <g id="Design" stroke="none" stroke-width="1" fill="none" fill-rule="evenodd">
        <g id="Landing" transform="translate(-1078.000000, -3711.000000)" fill="url(#linearGradient-1)" fill-rule="nonzero">
            <g id="Paperless" transform="translate(0.000000, 3319.000000)">
                <g id="Group-2" transform="translate(264.000000, 120.000000)">
                    <g id="3" transform="translate(811.000000, 272.000000)">
                        <path d="M35.9999949,19.4999971 C37.6568483,19.4999971 38.9999949,20.8431425 38.9999949,22.4999971 L38.9999949,22.4999971 L38.9999949,32.9999971 C38.9999949,34.6568525 37.6568498,35.9999971 35.9999949,35.9999971 L35.9999949,35.9999971 L20.9999949,35.9999971 C19.3431414,35.9999971 17.9999949,34.6568525 17.9999949,32.9999971 L17.9999949,32.9999971 L17.9999949,22.4999971 L17.9999949,22.4999971 L18.0050876,22.3237244 C18.096334,20.7489177 19.4023133,19.4999971 20.9999949,19.4999971 L20.9999949,19.4999971 Z M35.6249951,28.1249971 L21.3749951,28.1249971 C21.1678886,28.1249971 20.9999951,28.2928906 20.9999951,28.4999971 L20.9999951,28.4999971 L20.9999951,32.6249971 C20.9999951,32.8321037 21.1678886,32.9999972 21.3749951,32.9999972 L21.3749951,32.9999972 L35.6249951,32.9999972 C35.8321016,32.9999972 35.9999951,32.8321037 35.9999951,32.6249971 L35.9999951,32.6249971 L35.9999951,28.4999972 L35.9999951,28.4999972 L35.9923764,28.4244216 C35.957409,28.2535406 35.8062133,28.1249971 35.6249951,28.1249971 L35.6249951,28.1249971 Z M32.999995,29.6249971 C33.6213161,29.6249971 34.1249951,30.1286761 34.1249951,30.7499971 L34.1249951,30.7499971 L34.1183937,30.8725783 C34.057315,31.4362367 33.5798946,31.8749971 32.999995,31.8749971 L32.999995,31.8749971 L31.124995,31.8749971 C30.503674,31.8749971 29.999995,31.3713181 29.999995,30.7499971 C29.999995,30.1286761 30.503674,29.6249971 31.124995,29.6249971 L31.124995,29.6249971 Z M7.5,0 L27.749995,0 C30.1642622,0 32.1344838,1.90124253 32.245097,4.28816481 L32.249995,4.5 L32.249995,17.2485 C32.2470047,17.2608211 32.2470047,17.2736788 32.249995,17.286 C32.250713,17.2949856 32.250713,17.3040142 32.249995,17.3129999 C32.2473885,17.4339434 32.2378731,17.5546393 32.2214951,17.6744977 C32.2007513,17.8345867 32.0806267,17.9599718 31.9281305,17.9920234 L31.8494951,18 L21,18 C18.5857281,18 16.615511,19.9012404 16.504898,22.2881646 L16.5,22.5 L16.5,26.6250012 C16.5,26.8062193 16.3714565,26.9574142 16.2005754,26.9923814 L16.1249999,27 L10.5,27 C9.67157242,27 9,26.3284287 9,25.5 C9,24.7203046 9.59488768,24.0795514 10.3555399,24.0068666 L10.5,24 L13.875,24 C14.0562182,24 14.2074139,23.8714574 14.2423813,23.7005766 L14.25,23.6250012 L14.25,22.1250012 C14.25,21.943783 14.1214565,21.7925872 13.9505755,21.7576198 L13.875,21.7500012 L7.5,21.7500012 C5.08573286,21.7500012 3.11551127,19.8487586 3.004898,17.4618357 L3,17.2500005 L3,4.5 C3,2.08573331 4.90124253,0.115511291 7.28816481,0.00489800579 L7.5,0 L27.749995,0 Z M35.6249951,22.4999971 L21.374995,22.4999971 C21.1678885,22.4999971 20.999995,22.6678906 20.999995,22.8749971 L20.999995,22.8749971 L20.999995,23.9999971 L20.999995,23.9999971 L21.0076137,24.0755726 C21.0425811,24.2464536 21.1937769,24.3749971 21.374995,24.3749971 L21.374995,24.3749971 L35.6249951,24.3749971 C35.8321016,24.3749971 35.999995,24.2071036 35.999995,23.9999971 L35.999995,23.9999971 L35.999995,22.8749971 C35.999995,22.6678906 35.8321016,22.4999971 35.6249951,22.4999971 L35.6249951,22.4999971 Z M18.0690003,4 C17.5347767,4 17.101704,4.43307274 17.101704,4.96729631 L17.101704,5.17236312 C17.1014307,5.31934269 17.0025418,5.44784993 16.8605299,5.48576537 C15.5431626,5.8168967 14.7436471,7.15326813 15.0747848,8.47064832 C15.2679165,9.23900273 15.819345,9.86728231 16.556154,10.1584514 L18.862178,11.0818989 C19.065345,11.1613716 19.1986294,11.3577099 19.1975074,11.5758649 C19.1975074,11.8700442 18.9590288,12.1085227 18.6648495,12.1085227 L16.3923481,12.1085227 C15.8581245,12.1085227 15.4250517,12.5415955 15.4250517,13.075819 C15.4250518,13.6100426 15.8581245,14.0431153 16.392348,14.0431153 L16.7792666,14.0431153 C16.9573406,14.0431153 17.1016986,14.1874733 17.1016986,14.3655474 L17.1016986,14.4725949 C17.1016987,15.0068186 17.5347727,15.4398913 18.068995,15.4398913 C18.6032185,15.4398913 19.0362913,15.0068173 19.0362913,14.472595 L19.0362913,14.2649488 C19.0359462,14.1176008 19.1359118,13.9889259 19.2787653,13.9528329 C20.5959007,13.6178555 21.3921016,12.278559 21.0571205,10.9614239 C20.862828,10.1974636 20.314304,9.57282488 19.5818517,9.28143654 L17.2745276,8.35928201 C16.9987798,8.25678988 16.8583297,7.95016598 16.9608218,7.67441947 C17.0400431,7.46128024 17.2458286,7.32193282 17.4731458,7.32749929 L19.7456472,7.32749929 C20.2798708,7.32749931 20.7129435,6.89442655 20.7129435,6.36020299 C20.7129435,5.82597942 20.2798708,5.39290668 19.7456472,5.39290668 L19.3587287,5.39290668 C19.1806546,5.39290667 19.0362966,5.24854867 19.0362966,5.07047458 L19.0362966,4.96729631 C19.0362966,4.43307274 18.6032238,4 18.0690003,4 Z" id="Combined-Shape"></path>
                    </g>
                </g>
            </g>
        </g>
    </g>
</svg>