<?xml version="1.0" encoding="UTF-8"?>
<svg width="36px" height="36px" viewBox="0 0 36 36" version="1.1" xmlns="http://www.w3.org/2000/svg" xmlns:xlink="http://www.w3.org/1999/xlink">
    <!-- Generator: Sketch 59.1 (86144) - https://sketch.com -->
    <title>icon-35</title>
    <desc>Created with Sketch.</desc>
    <defs>
        <linearGradient x1="99.4522736%" y1="0.537102304%" x2="0.0107395025%" y2="100%" id="linearGradient-1">
            <stop stop-color="#9F97C9" offset="0.0448690878%"></stop>
            <stop stop-color="#675FAA" offset="100%"></stop>
        </linearGradient>
    </defs>
    <g id="Design" stroke="none" stroke-width="1" fill="none" fill-rule="evenodd">
        <g id="Paperless-Admissions" transform="translate(-645.000000, -1432.000000)" fill="url(#linearGradient-1)" fill-rule="nonzero">
            <g id="features-paperless" transform="translate(265.000000, 1203.000000)">
                <g id="Group-3">
                    <g id="4" transform="translate(380.000000, 229.000000)">
                        <path d="M25.3679101,16.7205857 C26.3206051,16.2309377 27.4898521,16.6063097 27.9795001,17.5590002 L27.9795001,17.5590002 L27.9990001,17.5995 L30.0150001,22.2735 C30.0743761,22.411183 30.2100598,22.5002622 30.3600001,22.5 L30.3600001,22.5 L34.11,22.5 C34.874535,22.4802405 35.572251,22.933458 35.865,23.64 L35.865,23.64 L35.9189928,23.7949128 C36.1225259,24.4716958 35.9321191,25.2119869 35.415,25.707 L35.415,25.707 L32.0954958,28.6710003 C31.9743435,28.7784033 31.9361846,28.951633 32.0009958,29.1000003 L32.0009958,29.1000003 L33.8444958,33.3195003 C34.1777313,34.0707693 33.9859608,34.9513398 33.3704958,35.4960003 L33.3704958,35.4960003 L33.2432984,35.6034074 C32.6325183,36.0754115 31.7904684,36.1371641 31.1129958,35.7450003 L31.1129958,35.7450003 L26.4434957,33.1155002 C26.3294687,33.0510656 26.1900225,33.0510656 26.0759957,33.1155002 L26.0759957,33.1155002 L21.4064957,35.7450002 C20.6801657,36.1654232 19.7648147,36.0645287 19.1474957,35.4960002 L19.1474957,35.4960002 L19.0301061,35.3827008 C18.5089598,34.8343505 18.363175,34.0203401 18.6749956,33.3195001 L18.6749956,33.3195001 L20.5094956,29.0970002 C20.5751611,28.9489997 20.5375538,28.7755225 20.4164956,28.6680002 L20.4164956,28.6680002 L17.0969956,25.7100003 C16.5408467,25.1764953 16.3629661,24.3594243 16.6469956,23.6430003 L16.6469956,23.6430003 L16.7107455,23.5051054 C17.0324793,22.8779133 17.6869744,22.4834015 18.4004956,22.5000001 L18.4004956,22.5000001 L22.1504957,22.5000001 C22.3000097,22.5000571 22.435151,22.4109471 22.4939957,22.2735001 L22.4939957,22.2735001 L24.5099956,17.5995002 L24.5294956,17.5590002 C24.7145941,17.1988592 25.0077706,16.9056842 25.3679101,16.7205857 Z M19.2000037,2.6658071e-06 C19.7944597,0.00211466581 20.3639227,0.239390666 20.7840037,0.660002666 L20.7840037,0.660002666 L20.7840036,0.660002589 L26.3414586,6.22045759 C26.7638376,6.64168459 27.0008483,7.21392559 27.0000036,7.81044259 L27.0000036,7.81044259 L27.0000036,13.1010003 C26.999624,13.1236063 26.9972134,13.1461327 26.9927965,13.1683063 C26.952175,13.3722348 26.753929,13.5046213 26.5499995,13.4639998 L26.5499995,13.4639998 L26.3215256,13.4595792 C24.4233883,13.4656629 22.6803154,14.5390383 21.8249995,16.2479998 L21.8249995,16.2479998 L21.7871245,16.3276874 L21.7871245,16.3276874 L21.7514995,16.4084999 L20.5139995,19.2734999 C20.4545275,19.4104211 20.3197773,19.4992738 20.1704995,19.5000027 L20.1704995,19.5000027 L18.3884995,19.5000027 C16.4105545,19.4851349 14.6214445,20.6719499 13.8659995,22.5000027 L13.8659995,22.5000027 L13.7843718,22.7213457 C13.1503698,24.574791 13.6692256,26.6386958 15.1244996,27.9719996 L15.1244996,27.9719996 L16.7925036,29.4630029 C16.9129012,29.5654934 16.9534929,29.7339176 16.8930036,29.8800029 L16.8930036,29.8800029 L16.8264007,30.0386185 C16.5332965,30.7376035 15.9386574,32.1672721 15.7185036,32.7585029 C15.6646731,32.9047171 15.5248056,33.0013634 15.3690036,33.0000171 L15.3690036,33.0000171 L2.25000357,33.0000171 C1.00736307,33.0000171 3.57350643e-06,31.9926434 3.57350643e-06,30.7500029 L3.57350643e-06,30.7500029 L3.57350643e-06,2.25000267 C3.57350643e-06,1.00736217 1.00736307,2.6658071e-06 2.25000357,2.6658071e-06 L2.25000357,2.6658071e-06 Z M13.7439215,12.5000017 L7.74392153,12.5000017 C6.91549403,12.5000017 6.24392153,13.1715742 6.24392153,14.0000017 C6.24392153,14.8284292 6.91549403,15.5000017 7.74392153,15.5000017 L13.7439215,15.5000017 C14.572349,15.5000017 15.2439215,14.8284292 15.2439215,14.0000017 C15.2439215,13.1715742 14.572349,12.5000017 13.7439215,12.5000017 Z M17.4939215,5.75000174 L6.99392153,5.75000174 C6.16549403,5.75000174 5.49392153,6.42157424 5.49392153,7.25000174 C5.49392153,8.07842924 6.16549403,8.75000174 6.99392153,8.75000174 L17.4939215,8.75000174 C18.273618,8.75000174 18.9143703,8.15511399 18.987055,7.39446181 L18.9939215,7.25000174 C18.9939215,6.42157424 18.3223491,5.75000174 17.4939215,5.75000174 Z" id="icon-35"></path>
                    </g>
                </g>
            </g>
        </g>
    </g>
</svg>