<?xml version="1.0" encoding="UTF-8"?>
<svg width="35px" height="36px" viewBox="0 0 35 36" version="1.1" xmlns="http://www.w3.org/2000/svg" xmlns:xlink="http://www.w3.org/1999/xlink">
    <!-- Generator: Sketch 59.1 (86144) - https://sketch.com -->
    <title>icon-10</title>
    <desc>Created with Sketch.</desc>
    <defs>
        <linearGradient x1="95.9201389%" y1="0%" x2="4.07986111%" y2="100%" id="linearGradient-1">
            <stop stop-color="#F69882" offset="0%"></stop>
            <stop stop-color="#FF5B35" offset="100%"></stop>
        </linearGradient>
    </defs>
    <g id="Design" stroke="none" stroke-width="1" fill="none" fill-rule="evenodd">
        <g id="Inquiry" transform="translate(-1026.000000, -1072.000000)" fill="url(#linearGradient-1)" fill-rule="nonzero">
            <g id="Dynamic" transform="translate(0.000000, 922.000000)">
                <g id="Group-3" transform="translate(265.000000, 150.000000)">
                    <g id="2" transform="translate(760.000000, 0.000000)">
                        <path d="M26.5,0 C27.3284224,0 28,0.671583664 28,1.500011 L28,1.500011 L28,4.12501048 L28,4.12501048 L28.0076185,4.20058596 C28.0425849,4.37146697 28.1937766,4.5000104 28.3749947,4.5000104 L28.3749947,4.5000104 L32.5,4.5 C34.1568483,4.5 35.5,5.84315098 35.5,7.5 L35.5,7.5 L35.5,33 C35.5,34.6568553 34.1568483,36 32.5,36 L32.5,36 L4,36 C2.34314473,36 1,34.6568553 1,33 L1,33 L1,7.5 L1,7.5 L1.00509269,7.32372793 C1.09633905,5.74892664 2.40231814,4.5 4,4.5 L4,4.5 L6.24999909,4.5 L6.24999909,4.5 L6.35176953,4.50684676 C6.71784481,4.55651018 7,4.87031138 7,5.25000655 L7,5.25000655 L7,8.62502088 C7,9.24634176 7.50367784,9.75002066 8.12499872,9.75002066 C8.74631959,9.75002066 9.24999849,9.24634176 9.24999849,8.62502088 L9.24999849,8.62502088 L9.24999849,1.5000223 L9.24999849,1.5000223 L9.25686507,1.35553991 C9.32954976,0.594887633 9.97030188,0 10.7499982,0 C11.5784255,0 12.2499979,0.671572367 12.2499979,1.5 L12.2499979,1.5 L12.2499979,4.12651048 C12.2508244,4.33303044 12.4184749,4.50001204 12.6249978,4.5000104 L12.6249978,4.5000104 L22,4.5000104 C22.4142089,4.5000104 22.7499958,4.83579734 22.7499958,5.25001026 L22.7499958,5.25001026 L22.7499958,8.62500959 C22.7499958,9.24633046 23.2536747,9.75000936 23.8749956,9.75000936 C24.4963165,9.75000936 25,9.24633046 25,8.62500959 L25,8.62500959 L25,1.500011 C25,0.671583664 25.6715678,0 26.5,0 Z M12.344498,16.995008 L9.81249843,19.0200076 C9.16549756,19.5377745 9.06073158,20.4820063 9.57849848,21.1290072 C10.0962654,21.776008 11.0404972,21.880774 11.6874981,21.3630071 L12.9999978,20.3130073 L12.9999978,28.5000059 C12.9999979,29.3284333 13.6715702,30.0000056 14.4999975,30.0000056 C15.3284248,30.0000056 15.9999973,29.3284333 15.9999973,28.5000059 L15.9999973,18.7500213 C15.9959186,17.9462493 15.5667365,17.2095432 14.8804459,16.8074504 L14.7294975,16.726508 C13.9491482,16.3491261 13.0214028,16.4535696 12.344498,16.995008 Z M24.2499967,16.499998 L19.7499967,16.499998 C18.921569,16.499998 18.2499967,17.1715804 18.2499967,17.999998 C18.2499967,18.8284351 18.921569,19.499998 19.7499967,19.499998 L23.0679957,19.499998 L19.1499966,27.8640057 C18.8187726,28.569638 19.0847994,29.4022481 19.742198,29.7913794 L19.8699964,29.8590053 C20.6203203,30.1970062 21.5034661,29.8782783 21.864996,29.1390054 L26.3244952,19.6380072 C26.8149306,18.496242 26.2869223,17.1730877 25.1451564,16.6826478 C24.862399,16.5611921 24.5577325,16.4990314 24.2499967,16.499998 Z" id="icon-10"></path>
                    </g>
                </g>
            </g>
        </g>
    </g>
</svg>