<?xml version="1.0" encoding="UTF-8"?>
<svg width="31px" height="36px" viewBox="0 0 31 36" version="1.1" xmlns="http://www.w3.org/2000/svg" xmlns:xlink="http://www.w3.org/1999/xlink">
    <!-- Generator: Sketch 59.1 (86144) - https://sketch.com -->
    <title>icon-15</title>
    <desc>Created with Sketch.</desc>
    <defs>
        <linearGradient x1="85.6776425%" y1="0%" x2="14.3223575%" y2="100%" id="linearGradient-1">
            <stop stop-color="#5DCAE5" offset="0%"></stop>
            <stop stop-color="#0AADD7" offset="100%"></stop>
        </linearGradient>
    </defs>
    <g id="Design" stroke="none" stroke-width="1" fill="none" fill-rule="evenodd">
        <g id="Communication" transform="translate(-645.000000, -1608.000000)" fill="url(#linearGradient-1)" fill-rule="nonzero">
            <g id="features-communication" transform="translate(0.000000, 975.000000)">
                <g id="Group-3" transform="translate(265.000000, 150.000000)">
                    <g id="7" transform="translate(380.000000, 483.000000)">
                        <path d="M29.8961064,28.0160502 C29.9994322,27.9508366 30.1301165,27.9472352 30.2368766,28.0066589 L30.2368766,28.0066589 L30.2958219,28.0482784 C30.3673983,28.1113399 30.4098056,28.2028163 30.4099446,28.3004699 L30.4099446,28.3004699 L30.4099446,33.9875773 L30.4099446,33.9875773 L30.4044248,34.137767 C30.3276015,35.1790545 29.4584327,36 28.3975222,36 L28.3975222,36 L16.3229879,36 L16.3229879,36 L16.1727983,35.9944802 C15.1315103,35.9176568 14.3105593,35.0484881 14.3105593,33.9875776 L14.3105593,33.9875776 L14.3105593,28.3004722 C14.3101811,28.2366225 14.3281034,28.1739999 14.3622098,28.120021 C14.4607608,27.9640493 14.6670904,27.9174999 14.8230625,28.0160501 L14.8230625,28.0160501 L20.7597086,32.1455409 C21.7395705,32.7538212 22.9796037,32.7538212 23.9594602,32.145541 L23.9594602,32.145541 Z M24.1490688,-6.39488462e-14 L24.3187605,0.00527892401 C25.7216086,0.092824441 26.8322986,1.2583183 26.8322986,2.68322946 L26.8322986,2.68322946 L26.832,21.4667584 L14.6563899,21.465839 L14.5049319,21.4712287 C13.4043399,21.5498336 12.5356017,22.4784421 12.5356017,23.6124229 L12.5356017,23.6124229 L12.5348275,23.8202622 C12.533056,24.3214716 12.5286228,25.663754 12.5237551,27.131227 L12.5237551,27.131227 L12.5217394,27.169002 L12.521,32.1987584 L2.68322998,32.1987584 L2.51353822,32.1934794 C1.11068996,32.1059338 3.90798505e-14,30.9404384 3.90798505e-14,29.5155285 L3.90798505e-14,29.5155285 L3.90798505e-14,2.68322986 L0.00527893149,2.51353807 C0.0928245708,1.11068958 1.25831999,-6.39488462e-14 2.68322986,-6.39488462e-14 L2.68322986,-6.39488462e-14 L24.1490688,-6.39488462e-14 Z M28.3975225,23.2546588 C29.5089526,23.2546588 30.4099449,24.1556512 30.4099449,25.2670812 L30.4099449,25.2670812 L30.4031107,25.3004233 C30.395005,25.32146 30.3801123,25.3395828 30.3603053,25.351603 L30.3603053,25.351603 L22.8901934,30.4390069 C22.5635437,30.6416619 22.1502592,30.6416619 21.8236095,30.439007 L21.8236095,30.439007 L14.3575223,25.3516031 C14.3280843,25.3336579 14.31025,25.3015563 14.3105615,25.2670814 L14.3105615,25.2670814 L14.3160814,25.1168918 C14.3929051,24.0756043 15.2620776,23.2546588 16.3229881,23.2546588 L16.3229881,23.2546588 Z M18.1118015,11.403727 L6.03726723,11.403727 L5.90806069,11.4098685 C5.22772576,11.4748785 4.69565224,12.0479737 4.69565224,12.7453419 C4.69565224,13.4862957 5.29631337,14.0869569 6.03726717,14.0869569 L6.03726717,14.0869569 L18.1118016,14.0869569 C18.8527553,14.0869569 19.4534165,13.4862957 19.4534165,12.7453419 C19.4534165,12.0043881 18.8527553,11.403727 18.1118015,11.403727 L18.1118015,11.403727 Z M12.0745343,6.03726728 L6.03726723,6.03726728 L5.90806069,6.04340881 C5.22772576,6.10841873 4.69565224,6.68151392 4.69565224,7.37888221 C4.69565224,8.11983601 5.29631337,8.72049714 6.03726717,8.72049714 L6.03726717,8.72049714 L12.0745344,8.72049714 C12.8154881,8.72049714 13.4161492,8.11983601 13.4161492,7.37888221 C13.4161492,6.63792841 12.8154881,6.03726728 12.0745343,6.03726728 L12.0745343,6.03726728 Z" id="icon-15"></path>
                    </g>
                </g>
            </g>
        </g>
    </g>
</svg>