<?xml version="1.0" encoding="UTF-8"?>
<svg width="30px" height="36px" viewBox="0 0 30 36" version="1.1" xmlns="http://www.w3.org/2000/svg" xmlns:xlink="http://www.w3.org/1999/xlink">
    <!-- Generator: Sketch 59.1 (86144) - https://sketch.com -->
    <title>icon-11</title>
    <desc>Created with Sketch.</desc>
    <defs>
        <linearGradient x1="83.0078125%" y1="0%" x2="16.9921875%" y2="100%" id="linearGradient-1">
            <stop stop-color="#5DCAE5" offset="0%"></stop>
            <stop stop-color="#0AADD7" offset="100%"></stop>
        </linearGradient>
    </defs>
    <g id="Design" stroke="none" stroke-width="1" fill="none" fill-rule="evenodd">
        <g id="Inquiry" transform="translate(-265.000000, -1360.000000)" fill="url(#linearGradient-1)" fill-rule="nonzero">
            <g id="Dynamic" transform="translate(0.000000, 922.000000)">
                <g id="Group-3" transform="translate(265.000000, 150.000000)">
                    <g id="3" transform="translate(0.000000, 288.000000)">
                        <path d="M26.8500002,6.06000001 L26.8500002,6.06 C26.5013027,5.9888229 26.2506392,5.6823885 26.2500002,5.3265 L26.2500002,3 L26.2500002,3 C26.2500002,1.343145 24.9068537,0 23.2500002,0 L4.5,0 L4.5,0 C2.014725,0 0,2.014725 0,4.5 C0,4.5 0,4.5 0,4.5 L0,31.5 L0,31.5 C0,33.9852743 2.014725,36 4.5,36 L26.25,36 L26.2499999,36 C27.9068549,36 29.2499999,34.6568543 29.2499999,33 L29.2499999,9 L29.2499999,8.99938689 C29.2499999,7.57358139 28.2464564,6.34474689 26.8493999,6.05988189 L26.8500002,6.06000001 Z M12.2415002,23.76 L12.2415001,23.7599998 C11.0234086,22.2860698 10.4167801,20.4012148 10.5465001,18.4934998 L10.5465001,18.4934996 C10.4002708,16.1112896 12.2128951,14.0615696 14.5951051,13.9153496 C14.7299032,13.9071956 14.8650151,13.9051242 14.9999956,13.9095031 L14.9999953,13.9095031 C17.3854453,13.8322691 19.3818403,15.7034431 19.4590753,18.0888931 C19.4633939,18.222277 19.4615316,18.3557896 19.4534943,18.4890001 L19.4534947,18.4890053 C19.5813454,20.4118103 18.9641767,22.3100453 17.7299947,23.7900053 L17.7299946,23.7900056 C17.6132397,24.1329791 17.627668,24.5070446 17.7704947,24.8400056 C20.8619947,25.9440056 22.5704947,26.7510056 23.2484947,28.0665056 L23.2484949,28.0665058 C23.6025729,28.7645008 23.8512729,29.5111078 23.9864949,30.2820058 L23.9864949,30.2820059 C24.027211,30.5004374 23.9689777,30.7256789 23.8274949,30.8970059 L23.8274949,30.8970058 C23.6847276,31.0684108 23.4730689,31.1673688 23.2499949,31.1670068 L6.74999493,31.1670068 L6.74999489,31.1670068 C6.52692089,31.1673681 6.31526189,31.0684108 6.17249489,30.8970058 L6.17249489,30.8970058 C6.03101189,30.7256788 5.97277889,30.5004373 6.01349489,30.2820058 L6.01349459,30.2820075 C6.14871584,29.511111 6.39741659,28.7645025 6.75149309,28.0665075 C7.43099309,26.7510075 9.13799309,25.9440075 12.2519931,24.8280075 L12.2519932,24.8280073 C12.3807959,24.4814308 12.3770582,24.0994918 12.2414974,23.7555028 L12.2415002,23.76 Z M4.50000014,3.00000001 L22.8750002,3.00000001 L22.8750002,3.00000001 C23.0821067,3.00000001 23.2500002,3.16789351 23.2500002,3.37500001 L23.2500002,5.62500001 L23.2500002,5.62500003 C23.2500002,5.83210653 23.0821067,6.00000001 22.8750002,6.00000001 C22.8750002,6.00000001 22.8750002,6.00000001 22.8750002,6.00000001 L4.50000014,6.00000001 L4.50000014,6.00000001 C3.67157264,6.00000001 3.00000014,5.32842753 3.00000014,4.50000001 C3.00000014,3.67157253 3.67157264,3.00000001 4.50000014,3.00000001 L4.50000014,3.00000001 Z" id="icon-11"></path>
                    </g>
                </g>
            </g>
        </g>
    </g>
</svg>