<?xml version="1.0" encoding="UTF-8"?>
<svg width="24px" height="24px" viewBox="0 0 24 24" version="1.1" xmlns="http://www.w3.org/2000/svg" xmlns:xlink="http://www.w3.org/1999/xlink">
    <!-- Generator: Sketch 58 (84663) - https://sketch.com -->
    <title>Path</title>
    <desc>Created with Sketch.</desc>
    <g id="Symbols" stroke="none" stroke-width="1" fill="none" fill-rule="evenodd">
        <g id="Menu" transform="translate(-1223.000000, -33.000000)" fill="#263746">
            <g id="contact">
                <g transform="translate(1223.000000, 33.000000)">
                    <path d="M22.777,16.629 C22.429,17.059 21.799,17.125 21.371,16.777 C20.941,16.43 20.875,15.8 21.223,15.37 C21.709,14.77 22,13.51 22,12 C22,6.486 17.514,2 12,2 C6.486,2 2,6.486 2,12 C2,17.514 6.486,22 12,22 C13.915,22 15.777,21.457 17.383,20.428 C17.447,20.391 17.89,20.134 17.946,19.721 C17.994,19.362 17.745,18.875 17.268,18.336 L17.171,18.445 C17.152,18.467 17.121,18.499 17.1,18.519 C16.89,18.729 16.48,18.999 15.817,18.999 C13.942,18.999 11.031,16.752 9.109,14.828 C6.445,12.165 3.901,8.488 5.5,6.886 L7.335,5.251 C7.535,5.074 7.798,4.983 8.064,5.001 C8.331,5.018 8.58,5.142 8.755,5.344 L11.119,8.072 C11.384,8.377 11.439,8.812 11.258,9.173 L10.49,10.71 L13.288,13.51 L14.825,12.741 C15.186,12.559 15.62,12.613 15.925,12.877 L18.653,15.229 C18.855,15.403 18.979,15.651 18.998,15.917 C19.016,16.183 18.927,16.446 18.751,16.647 L18.592,16.828 C19.618,17.915 20.079,18.992 19.922,20.03 C19.712,21.419 18.523,22.083 18.389,22.155 C16.533,23.347 14.298,24 12,24 C5.383,24 0,18.617 0,12 C0,5.383 5.383,0 12,0 C18.617,0 24,5.383 24,12 C24,13.423 23.788,15.381 22.777,16.629 Z" id="Path"></path>
                </g>
            </g>
        </g>
    </g>
</svg>