<?xml version="1.0" encoding="UTF-8"?>
<svg width="36px" height="36px" viewBox="0 0 36 36" version="1.1" xmlns="http://www.w3.org/2000/svg" xmlns:xlink="http://www.w3.org/1999/xlink">
    <!-- Generator: Sketch 59.1 (86144) - https://sketch.com -->
    <title>icon-42</title>
    <desc>Created with Sketch.</desc>
    <defs>
        <linearGradient x1="99.2845054%" y1="0.715494575%" x2="0%" y2="100%" id="linearGradient-1">
            <stop stop-color="#FBD55B" offset="0.0448690878%"></stop>
            <stop stop-color="#F9BE00" offset="100%"></stop>
        </linearGradient>
    </defs>
    <g id="Design" stroke="none" stroke-width="1" fill="none" fill-rule="evenodd">
        <g id="Paperless-Admissions" transform="translate(-1215.000000, -2597.000000)" fill="url(#linearGradient-1)" fill-rule="nonzero">
            <g id="Industry" transform="translate(-396.000000, 1973.000000)">
                <path d="M1637.25,640.5 C1642.63204,640.506612 1646.99339,644.867965 1647,650.25 C1647,655.634776 1642.63478,660 1637.25,660 C1631.86522,660 1627.5,655.634776 1627.5,650.25 C1627.5,644.865224 1631.86522,640.5 1637.25,640.5 Z M1641.40007,646.511077 C1641.00103,646.463001 1640.60665,646.631461 1640.3655,646.953 L1640.3655,646.953 L1636.2675,652.4175 C1636.20233,652.504627 1636.10253,652.559153 1635.994,652.566925 C1635.88547,652.574697 1635.77892,652.53495 1635.702,652.458 L1635.702,652.458 L1633.752,650.508 C1633.31078,650.081443 1632.6091,650.087208 1632.17494,650.520956 C1631.74079,650.954703 1631.73436,651.656374 1632.1605,652.098 L1632.1605,652.098 L1634.4105,654.348 C1634.83046,654.770078 1635.40059,655.008489 1635.996,655.011 L1635.996,655.011 L1636.1595,655.011 C1636.8123,654.965732 1637.41253,654.63684 1637.802,654.111 L1637.802,654.111 L1642.1595,648.3 C1642.40665,647.981461 1642.45795,647.555692 1642.30007,647.186077 C1642.14218,646.816462 1641.79911,646.559153 1641.40007,646.511077 Z M1621.323,624 C1622.17483,624.000313 1622.95345,624.48165 1623.3345,625.2435 L1623.3345,625.2435 L1624.7565,628.086 C1624.88366,628.339756 1625.14317,628.5 1625.427,628.5 L1625.427,628.5 L1640.25,628.5 C1641.49264,628.5 1642.5,629.507359 1642.5,630.75 L1642.5,630.75 L1642.5,638.9025 C1642.50041,639.02775 1642.43675,639.144513 1642.33125,639.212013 C1642.22574,639.279512 1642.09304,639.288373 1641.9795,639.2355 C1640.48722,638.586291 1638.87739,638.250846 1637.25,638.25 C1630.62567,638.25744 1625.25744,643.625667 1625.25,650.25 C1625.27082,650.444302 1625.20678,650.638138 1625.07432,650.781806 C1624.94186,650.925474 1624.75385,651.005003 1624.5585,651.000223 L1624.5585,651.000223 L1613.25,651.000223 C1612.00736,651.000223 1611,649.992641 1611,648.75 L1611,648.75 L1611,626.25 C1611,625.007359 1612.00736,624 1613.25,624 L1613.25,624 Z" id="icon-42"></path>
            </g>
        </g>
    </g>
</svg>