<?xml version="1.0" encoding="UTF-8"?>
<svg width="36px" height="36px" viewBox="0 0 36 36" version="1.1" xmlns="http://www.w3.org/2000/svg" xmlns:xlink="http://www.w3.org/1999/xlink">
    <!-- Generator: Sketch 59.1 (86144) - https://sketch.com -->
    <title>icon-12</title>
    <desc>Created with Sketch.</desc>
    <defs>
        <linearGradient x1="99.4628977%" y1="1.05786385%" x2="0%" y2="99.4735837%" id="linearGradient-1">
            <stop stop-color="#9F97C9" offset="0.0448690878%"></stop>
            <stop stop-color="#675FAA" offset="100%"></stop>
        </linearGradient>
    </defs>
    <g id="Design" stroke="none" stroke-width="1" fill="none" fill-rule="evenodd">
        <g id="Communication" transform="translate(-645.000000, -1381.000000)" fill="url(#linearGradient-1)" fill-rule="nonzero">
            <g id="features-communication" transform="translate(0.000000, 975.000000)">
                <g id="Group-3" transform="translate(265.000000, 150.000000)">
                    <g id="4" transform="translate(380.000000, 256.000000)">
                        <path d="M3.27082932,6.88350385 C4.73691432,5.42369786 7.10724882,5.42369786 8.57332932,6.88350386 L8.57332932,6.88350386 L11.7593293,10.0650039 C13.2170221,11.5331289 13.2170221,13.9023804 11.7593296,15.3705039 L11.7593296,15.3705039 L11.1803295,15.946504 C13.8144495,19.090129 16.7196195,21.996289 19.8623295,24.631504 L19.8623295,24.631504 L20.4398246,24.0554999 C21.9237296,22.6366291 24.2614151,22.6366291 25.7453246,24.0555001 L25.7453246,24.0555001 L28.920831,27.2385051 C30.3847633,28.7028801 30.3847633,31.0766301 28.9208308,32.5410051 L28.9208308,32.5410051 L27.1748309,34.287005 C25.4009459,36.025025 22.6589759,36.30047 20.5748309,34.950005 L20.5748309,34.950005 L19.8670713,34.4736844 C12.3507091,29.3487643 5.89633422,22.8141885 0.863330584,15.2295048 L0.863330584,15.2295048 L0.732344587,15.0192572 C-0.481096646,12.9664375 -0.166401213,10.3383294 1.52632879,8.62950439 L1.52632879,8.62950439 Z M30.175095,9.42446587 C30.4164121,9.0102694 30.9376386,8.87622881 31.3392933,9.12507846 L31.3392933,9.12507846 L35.581273,11.7499149 C35.7006963,11.8238041 35.8006443,11.9268727 35.8722959,12.0500249 C36.1133686,12.4643675 35.9830728,13.0017915 35.581273,13.2503918 L35.581273,13.2503918 L31.339155,15.875139 C31.2072302,15.9568393 31.0562413,16 30.9023551,16 C30.4337835,16 30.0539316,15.6082871 30.0539315,15.1250843 L30.0539315,15.1250843 L30.0539315,14.0298525 C30.0534624,13.9095359 29.9584992,13.8123927 29.8418256,13.8128769 L29.8418256,13.8128769 L21.26596,13.8128769 C20.5631029,13.8128769 19.9933246,13.2253071 19.9933246,12.5005033 C19.9933246,11.7756995 20.5631029,11.1881298 21.26596,11.1881297 L21.26596,11.1881297 L29.8418257,11.1881297 C29.9589684,11.1881297 30.0539316,11.0902013 30.0539316,10.9694008 L30.0539316,10.9694008 L30.0539316,9.87575615 C30.0538069,9.71676822 30.0956951,9.56074975 30.175095,9.42446587 Z M20.7661085,0 C21.2053944,0 21.5615056,0.391759939 21.5615056,0.875020804 L21.5615056,0.875020804 L21.5615056,1.96863041 L21.5615056,1.96863041 L21.5686087,2.02678415 C21.5917592,2.11937158 21.6688371,2.18738561 21.7603548,2.18738561 L21.7603548,2.18738561 L29.8002289,2.18738561 C30.4591573,2.18738561 30.9933246,2.77502596 30.9933246,3.49991682 C30.9933246,4.22480768 30.4591573,4.81244805 29.8002289,4.81244802 L29.8002289,4.81244802 L21.7603549,4.81244802 C21.6505336,4.81244802 21.5615056,4.91038823 21.5615056,5.03120322 L21.5615056,5.03120322 L21.5615056,6.1249792 C21.5615056,6.60824006 21.2053944,7 20.7661085,7 L20.7661085,7 L20.6586796,6.99210247 C20.5522254,6.97626023 20.4494051,6.93679927 20.3566085,6.87565803 L20.3566085,6.87565803 L16.3796229,4.25059563 C16.2676636,4.1766975 16.1739623,4.07361655 16.106789,3.9504495 C15.8807832,3.53605714 16.0029356,2.99856862 16.3796229,2.74993845 L16.3796229,2.74993845 L20.3566086,0.124875969 C20.4802881,0.0431659138 20.6218401,0 20.7661085,0 Z" id="icon-12"></path>
                    </g>
                </g>
            </g>
        </g>
    </g>
</svg>