<svg xmlns="http://www.w3.org/2000/svg" xmlns:xlink="http://www.w3.org/1999/xlink" viewBox="0 0 89.06 65.48"><defs><clipPath id="clip-path"><rect width="89.06" height="65.48" rx="4.25" style="fill:#fff"/></clipPath><linearGradient id="linear-gradient" x1="23.39" y1="25.18" x2="9.8" y2="38.77" gradientUnits="userSpaceOnUse"><stop offset="0" stop-color="#73d2e9"/><stop offset="1" stop-color="#00add8"/></linearGradient><linearGradient id="linear-gradient-2" x1="50.99" y1="25.18" x2="37.4" y2="38.77" gradientUnits="userSpaceOnUse"><stop offset="0" stop-color="#facf45"/><stop offset="1" stop-color="#f9be00"/></linearGradient><linearGradient id="linear-gradient-3" x1="78.59" y1="25.18" x2="65" y2="38.77" gradientUnits="userSpaceOnUse"><stop offset="0" stop-color="#ff876c"/><stop offset="1" stop-color="#ff5b35"/></linearGradient><linearGradient id="linear-gradient-4" x1="78.59" y1="56.38" x2="65" y2="69.97" xlink:href="#linear-gradient-3"/><linearGradient id="linear-gradient-5" x1="50.99" y1="56.38" x2="37.4" y2="69.97" xlink:href="#linear-gradient-2"/><linearGradient id="linear-gradient-6" x1="23.39" y1="56.38" x2="9.8" y2="69.97" xlink:href="#linear-gradient"/></defs><title>Asset 134</title><g id="Layer_2" data-name="Layer 2"><g id="Layer_1-2" data-name="Layer 1"><rect width="89.06" height="65.48" rx="4.25" style="fill:#fff"/><g style="clip-path:url(#clip-path)"><circle cx="16.59" cy="31.98" r="9.61" style="fill:url(#linear-gradient)"/><path d="M16.59,32v-9.6A9.57,9.57,0,0,0,9.8,25.18h0c-.22.23-.44.46-.64.71l-.2.27c-.12.16-.25.32-.36.49L8.4,27c-.1.16-.2.32-.29.48L8,27.79c-.09.17-.17.35-.25.53s-.07.19-.1.28-.15.4-.22.61,0,.15,0,.23a5,5,0,0,0-.17.69l0,.15A10.54,10.54,0,0,0,7,32H7A9.6,9.6,0,0,0,9.8,38.77L16.6,32Z" style="fill:#eef0f3"/><circle cx="16.59" cy="31.98" r="6.05" style="fill:#fff"/><circle cx="44.19" cy="31.98" r="9.61" style="fill:url(#linear-gradient-2)"/><path d="M34.59,32a9.6,9.6,0,0,1,9.6-9.61V32Z" style="fill:#eef0f3"/><circle cx="44.19" cy="31.98" r="6.05" style="fill:#fff"/><circle cx="71.79" cy="31.98" r="9.61" style="fill:url(#linear-gradient-3)"/><path d="M71.79,22.37c-.32,0-.63,0-.94.05-.14,0-.28,0-.42.06l-.51.07-.48.12-.44.11-.45.16-.43.16-.42.19-.44.21-.38.23-.42.26c-.14.09-.28.2-.41.3l-.35.26c-.24.2-.47.41-.7.63L71.79,32V22.37Z" style="fill:#eef0f3"/><circle cx="71.79" cy="31.98" r="6.05" style="fill:#fff"/><circle cx="71.79" cy="63.18" r="9.61" style="fill:url(#linear-gradient-4)"/><path d="M71.79,63.17v-9.6A9.57,9.57,0,0,0,65,56.38h0c-.22.23-.44.46-.64.71l-.2.27c-.12.16-.25.32-.36.49l-.2.33c-.1.16-.2.32-.29.48l-.15.33c-.09.17-.17.35-.25.53s-.07.19-.1.28-.15.4-.22.61,0,.15-.05.23a5,5,0,0,0-.17.69l0,.15a10.54,10.54,0,0,0-.15,1.7h0A9.6,9.6,0,0,0,65,70l6.8-6.8Z" style="fill:#eef0f3"/><circle cx="71.79" cy="63.18" r="6.05" style="fill:#fff"/><circle cx="44.19" cy="63.18" r="9.61" style="fill:url(#linear-gradient-5)"/><path d="M34.59,63.18a9.61,9.61,0,0,0,9.6,9.61V53.57A9.6,9.6,0,0,0,34.59,63.18Z" style="fill:#eef0f3"/><circle cx="44.19" cy="63.18" r="6.05" style="fill:#fff"/><circle cx="16.59" cy="63.18" r="9.61" style="fill:url(#linear-gradient-6)"/><path d="M16.59,53.57c-.32,0-.63,0-.94,0l-.42.06-.51.07-.48.12L13.8,54l-.45.16-.43.16-.42.19-.44.21-.38.23-.42.26c-.14.09-.28.2-.41.3l-.35.26c-.24.2-.47.41-.7.63l6.79,6.8V53.57Z" style="fill:#eef0f3"/><circle cx="16.59" cy="63.18" r="6.05" style="fill:#fff"/></g><path d="M84.81,0H4.25A4.25,4.25,0,0,0,0,4.25V7.81H89.06V4.25A4.25,4.25,0,0,0,84.81,0Z" style="fill:#dee1e8"/><circle cx="5.77" cy="3.91" r="1.42" style="fill:#fff"/><circle cx="10.57" cy="3.91" r="1.42" style="fill:#fff"/><circle cx="15.37" cy="3.91" r="1.42" style="fill:#fff"/><rect x="10.93" y="15.28" width="11.34" height="2.14" style="fill:#dee1e8;opacity:0.5"/><rect x="38.14" y="15.28" width="11.34" height="2.14" style="fill:#dee1e8;opacity:0.5"/><rect x="66.13" y="15.28" width="11.34" height="2.14" style="fill:#dee1e8;opacity:0.5"/><rect x="10.93" y="46.48" width="11.34" height="2.14" style="fill:#dee1e8;opacity:0.5"/><rect x="38.14" y="46.48" width="11.34" height="2.14" style="fill:#dee1e8;opacity:0.5"/><rect x="66.13" y="46.48" width="11.34" height="2.14" style="fill:#dee1e8;opacity:0.5"/></g></g></svg>
