<?xml version="1.0" encoding="UTF-8"?>
<svg width="36px" height="36px" viewBox="0 0 36 36" version="1.1" xmlns="http://www.w3.org/2000/svg" xmlns:xlink="http://www.w3.org/1999/xlink">
    <!-- Generator: Sketch 59.1 (86144) - https://sketch.com -->
    <title>icon-16</title>
    <desc>Created with Sketch.</desc>
    <defs>
        <linearGradient x1="99.3453442%" y1="0.492454176%" x2="0.163815045%" y2="100%" id="linearGradient-1">
            <stop stop-color="#9F97C9" offset="0.0448690878%"></stop>
            <stop stop-color="#675FAA" offset="100%"></stop>
        </linearGradient>
    </defs>
    <g id="Design" stroke="none" stroke-width="1" fill="none" fill-rule="evenodd">
        <g id="Inquiry" transform="translate(-1025.000000, -1646.000000)" fill="url(#linearGradient-1)" fill-rule="nonzero">
            <g id="Dynamic" transform="translate(0.000000, 922.000000)">
                <g id="Group-3" transform="translate(265.000000, 150.000000)">
                    <g id="8" transform="translate(760.000000, 574.000000)">
                        <path d="M15.6910313,4.48647276 L15.7928026,4.49331938 C16.1588778,4.54298188 16.4410321,4.85677751 16.4410321,5.23647276 L16.4410321,5.23647276 L16.4410321,19.4864728 C16.4660836,19.7621758 16.5743731,20.0237443 16.7515321,20.2364728 L16.7515321,20.2364728 L26.8285323,30.3134729 C27.1213187,30.6063479 27.1213187,31.0810979 26.8285322,31.3739729 L26.8285322,31.3739729 L26.5443515,31.655546 C23.6700199,34.4309068 19.8288887,35.9914264 15.8230323,36.000114 L15.8230323,36.000114 L15.5053898,35.9983016 C6.94909166,35.8648323 0.0362862709,28.9053181 0.000140115144,20.3092228 C-0.0361686802,11.6070178 6.98881132,4.52292396 15.6910313,4.48647276 L15.6910313,4.48647276 Z M20.8305189,17.9918725 L20.9410327,17.9999729 L35.1910334,17.9999723 C35.6052464,17.9999723 35.941092,18.3357593 35.941092,18.7499723 L35.941092,18.7499723 L35.9369845,19.1538802 C35.8439551,23.1870818 34.196006,27.0349367 31.3285334,29.8874722 L31.3285334,29.8874722 L31.2444216,29.9600646 C30.9508425,30.1778396 30.5342826,30.1536424 30.2680326,29.8874729 L30.2680326,29.8874729 L20.1910327,19.8104729 C19.9063589,19.5902234 19.7595406,19.2357404 19.8051172,18.8787089 C19.8761362,18.3223784 20.3847022,17.928955 20.9410327,17.9999729 Z M20.1910626,0 L20.5087448,0.00367372424 C28.6421605,0.182207707 35.1812562,6.82599096 35.1910326,15 C35.1910326,15.4141859 34.8552456,15.7499729 34.4410326,15.7499729 L34.4410326,15.7499729 L20.9035836,15.7515001 C20.0959671,15.7498591 19.4418992,15.0951391 19.4410626,14.2875211 L19.4410626,14.2875211 L19.4410626,0.75 C19.4410626,0.335787 19.7768496,0 20.1910626,0 L20.1910626,0 Z" id="icon-16"></path>
                    </g>
                </g>
            </g>
        </g>
    </g>
</svg>