<?xml version="1.0" encoding="UTF-8"?>
<svg width="36px" height="36px" viewBox="0 0 36 36" version="1.1" xmlns="http://www.w3.org/2000/svg" xmlns:xlink="http://www.w3.org/1999/xlink">
    <!-- Generator: Sketch 59.1 (86144) - https://sketch.com -->
    <title>icon-40</title>
    <desc>Created with Sketch.</desc>
    <defs>
        <linearGradient x1="100%" y1="0%" x2="0%" y2="100%" id="linearGradient-1">
            <stop stop-color="#5DCAE5" offset="0%"></stop>
            <stop stop-color="#0AADD7" offset="100%"></stop>
        </linearGradient>
    </defs>
    <g id="Design" stroke="none" stroke-width="1" fill="none" fill-rule="evenodd">
        <g id="Paperless-Admissions" transform="translate(-925.000000, -2383.000000)" fill="url(#linearGradient-1)" fill-rule="nonzero">
            <g id="Industry" transform="translate(-396.000000, 1973.000000)">
                <path d="M1332.2425,418.25 C1333.89935,418.25 1335.2425,419.593146 1335.2425,421.25 L1335.2425,421.25 L1335.2425,429.434 L1342.861,432.1685 C1343.74921,432.504398 1344.31236,433.382652 1344.247,434.33 C1344.24661,434.386046 1344.24007,434.44188 1344.2275,434.4965 L1344.2275,434.4965 L1341.9475,444.5165 C1341.63886,445.396999 1340.81197,445.990031 1339.879,446.000002 L1339.879,446.000002 L1330.3,446.000002 C1329.49502,446.000984 1328.75411,445.561159 1328.3695,444.854 L1328.3695,444.854 L1322.767,434.6945 C1322.3951,434.007924 1322.41236,433.176214 1322.81241,432.505655 C1323.21247,431.835096 1323.93617,431.424852 1324.717,431.426 L1324.717,431.426 L1326.202,431.3975 C1326.89712,431.392616 1327.55778,431.699819 1328.002,432.2345 L1328.002,432.2345 L1329.2425,433.9415 L1329.2425,421.25 C1329.2425,419.593146 1330.58565,418.25 1332.2425,418.25 Z M1354,410 C1355.65685,410 1357,411.343146 1357,413 L1357,413 L1357,425.75 C1357,427.406854 1355.65685,428.75 1354,428.75 L1354,428.75 L1339.75,428.75 C1338.92157,428.75 1338.25,428.078427 1338.25,427.25 C1338.25,426.421573 1338.92157,425.75 1339.75,425.75 L1339.75,425.75 L1353.25,425.75 C1353.66421,425.75 1354,425.414214 1354,425 L1354,425 L1354,413.75 C1354,413.335786 1353.66421,413 1353.25,413 L1353.25,413 L1324.75,413 C1324.33579,413 1324,413.335786 1324,413.75 L1324,413.75 L1324,425 C1324,425.414214 1324.33579,425.75 1324.75,425.75 L1324.75,425.75 L1325.5,425.75 C1326.32843,425.75 1327,426.421573 1327,427.25 C1327,428.078427 1326.32843,428.75 1325.5,428.75 L1325.5,428.75 L1324,428.75 C1322.34315,428.75 1321,427.406854 1321,425.75 L1321,425.75 L1321,413 C1321,411.343146 1322.34315,410 1324,410 L1324,410 Z M1349.128,415.763 C1349.46816,415.318085 1350.02785,415.099726 1350.57944,415.196731 C1351.13102,415.293735 1351.58263,415.689945 1351.75058,416.224219 C1351.91854,416.758494 1351.77487,417.341837 1351.378,417.737 L1351.378,417.737 L1346.128,423.737 C1345.84296,424.060926 1345.43147,424.245333 1345,424.242555 C1344.60299,424.245899 1344.22113,424.090343 1343.9395,423.8105 L1343.9395,423.8105 L1340.9395,420.8105 C1340.37104,420.221932 1340.37917,419.286373 1340.95777,418.707772 C1341.53637,418.129171 1342.47193,418.121042 1343.0605,418.6895 L1343.0605,418.6895 L1344.928,420.563 Z" id="icon-40"></path>
            </g>
        </g>
    </g>
</svg>