<?xml version="1.0" encoding="UTF-8"?>
<svg width="36px" height="34px" viewBox="0 0 36 34" version="1.1" xmlns="http://www.w3.org/2000/svg" xmlns:xlink="http://www.w3.org/1999/xlink">
    <!-- Generator: Sketch 59.1 (86144) - https://sketch.com -->
    <title>Group 13</title>
    <desc>Created with Sketch.</desc>
    <defs>
        <linearGradient x1="99.2845054%" y1="7.62838692%" x2="0%" y2="92.9867488%" id="linearGradient-1">
            <stop stop-color="#FBD55B" offset="0.0448690878%"></stop>
            <stop stop-color="#F9BE00" offset="100%"></stop>
        </linearGradient>
    </defs>
    <g id="Design" stroke="none" stroke-width="1" fill="none" fill-rule="evenodd">
        <g id="Landing" transform="translate(-1055.000000, -2262.000000)">
            <g id="Dynamic" transform="translate(1.000000, 2135.000000)">
                <g id="Group-3" transform="translate(264.000000, 120.000000)">
                    <g id="Group-4-Copy" transform="translate(790.000000, 7.000000)">
                        <g id="Group-13">
                            <rect id="Rectangle" fill="#FFFFFF" x="5" y="8" width="24" height="12"></rect>
                            <path d="M18,-1.77635684e-14 C8.0755741,-1.77635684e-14 0,6.65398372 0,14.8316606 L0,14.8316356 C0.0599455445,18.8091817 1.87660876,22.5563987 4.96219736,25.0670994 L1.37446548,32.2410395 L1.37446545,32.2410395 C1.17926936,32.6284079 1.3350552,33.1006695 1.72242356,33.2958656 C1.83228058,33.3512229 1.95360551,33.3798821 2.07662095,33.3798821 L2.07662094,33.3798821 C2.19110794,33.3792385 2.30412718,33.3540636 2.40806347,33.3060533 L12.0308926,28.8276521 L12.0308929,28.8276522 C13.9715753,29.3844992 15.9810125,29.6652907 18,29.6617564 C27.9244263,29.6617564 36,23.0077726 36,14.8316666 C36,6.65556052 27.9244263,-1.77635684e-14 18,-1.77635684e-14 L18,-1.77635684e-14 Z M10.0815083,17.2789945 L10.0815082,17.2789945 C8.7802004,17.2789945 7.72528165,16.2240758 7.72528165,14.922768 C7.72528165,13.6214602 8.7802004,12.5665415 10.0815082,12.5665415 C11.382816,12.5665415 12.4377347,13.6214602 12.4377347,14.922768 L12.4377347,14.9227679 C12.4377347,16.2240757 11.382816,17.2789945 10.0815082,17.2789945 L10.0815083,17.2789945 Z M18.0000002,12.5665415 L18.0000001,12.5665415 C19.3013079,12.5665415 20.3562267,13.6214602 20.3562267,14.922768 C20.3562267,16.2240758 19.3013079,17.2789945 18.0000001,17.2789945 C16.6986924,17.2789945 15.6437736,16.2240758 15.6437736,14.922768 L15.6437736,14.9227683 C15.6437736,13.6214605 16.6986924,12.5665415 18.0000001,12.5665415 C18.0000002,12.5665415 18.0000002,12.5665415 18.0000002,12.5665415 L18.0000002,12.5665415 Z M25.8540887,17.2789945 L25.8540886,17.2789945 C24.5527808,17.2789945 23.497862,16.2240758 23.497862,14.922768 C23.497862,13.6214602 24.5527808,12.5665415 25.8540886,12.5665415 C27.1553963,12.5665415 28.2103151,13.6214602 28.2103151,14.922768 L28.2103151,14.9227679 C28.2103151,16.2240757 27.1553963,17.2789945 25.8540886,17.2789945 L25.8540887,17.2789945 Z" id="Shape" fill="url(#linearGradient-1)" fill-rule="nonzero"></path>
                        </g>
                    </g>
                </g>
            </g>
        </g>
    </g>
</svg>