<?xml version="1.0" encoding="UTF-8"?>
<svg width="36px" height="34px" viewBox="0 0 36 34" version="1.1" xmlns="http://www.w3.org/2000/svg" xmlns:xlink="http://www.w3.org/1999/xlink">
    <!-- Generator: Sketch 59.1 (86144) - https://sketch.com -->
    <title>icon-33</title>
    <desc>Created with Sketch.</desc>
    <defs>
        <linearGradient x1="100%" y1="6.70331705%" x2="0%" y2="93.296683%" id="linearGradient-1">
            <stop stop-color="#F69882" offset="0%"></stop>
            <stop stop-color="#FF5B35" offset="100%"></stop>
        </linearGradient>
    </defs>
    <g id="Design" stroke="none" stroke-width="1" fill="none" fill-rule="evenodd">
        <g id="Paperless-Admissions" transform="translate(-1025.000000, -1203.000000)" fill="url(#linearGradient-1)" fill-rule="nonzero">
            <g id="features-paperless" transform="translate(265.000000, 1203.000000)">
                <g id="Group-3">
                    <g id="2" transform="translate(760.000000, 0.000000)">
                        <path d="M3,0 L33,0 C34.5976802,0 35.9036608,1.24891937 35.9949073,2.82372715 L36,3 L36,6 C36,6.05882108 35.9932285,6.11606062 35.9804226,6.17098163 L35.9948738,6.27092916 L35.9948738,6.27092916 L36.0000001,6.37500096 L36.0000001,30.0000005 C36.0000001,31.8663429 34.7478886,33.3914961 33.1702376,33.4944599 L33.0000001,33.5000005 L3.00000013,33.5000005 C1.40027951,33.5000005 0.0930039409,32.0392039 0.00474916988,30.1986109 L1.31133795e-07,30.0000005 L1.31133795e-07,6.37500044 L0.0058437051,6.26524243 C0.00930015341,6.23301996 0.0142584363,6.20134213 0.0206342271,6.17030732 L0.00511857506,6.08686905 L0.00511857506,6.08686905 L-1.20792265e-13,6 L-1.20792265e-13,3 L0.00509269064,2.82372729 C0.0929595734,1.30724683 1.30724548,0.0929596731 2.82372714,0.00509269618 L3,0 L33,0 Z M18.5000001,9 L9.31250019,9 C8.58762661,9 8.00000013,9.55964415 8.00000013,10.25 L8.00000013,11.0833334 C8.00000013,11.7736892 8.58762661,12.3333334 9.31250019,12.3333334 L13.03125,12.3333334 C13.1520621,12.3333334 13.25,12.4266075 13.25,12.5416667 L13.25,14 C13.2500001,15.1505919 14.2293786,16.0833335 15.4374998,16.0833335 L18.9374996,16.0833335 C19.1791239,16.0833337 19.3749996,16.2698819 19.3749996,16.5 L19.3749996,17.9583335 C19.3749996,18.0733927 19.2770617,18.1666668 19.1562496,18.1666668 L18.5000001,18.1666668 C17.8204307,18.1666668 17.2614891,18.6585416 17.194276,19.2888616 L17.1874997,19.4166668 L17.1874997,19.4166668 L17.1874997,20.2500002 C17.1874998,20.940356 17.775126,21.5 18.5000001,21.5 L23.0937493,21.5 C23.2145615,21.5 23.3124993,21.5932743 23.3124993,21.7083335 L23.3124993,26.0833333 C23.3124993,26.3134517 23.1166236,26.5 22.8749993,26.5 L19.8606245,26.5 C19.8043743,26.5001517 19.7518958,26.4769571 19.7157968,26.4380409 L19.6856245,26.3941666 C19.4724212,25.9528566 19.0100642,25.6691541 18.5000001,25.6666666 L9.31250006,25.6666666 C8.63293107,25.6666667 8.07398955,26.1585414 8.00677642,26.7888614 L8.00000013,26.9166666 L8.00000013,26.9166666 L8.00000013,27.75 C8.00000013,28.4403559 8.58762647,29 9.31250006,29 L18.5000001,29 C18.9639826,28.9980329 19.3886297,28.7633469 19.6222844,28.3889255 L19.6864994,28.2725 C19.7178583,28.2074784 19.7863719,28.1660442 19.8614994,28.1666667 L22.8749992,28.1666667 C24.0831203,28.1666668 25.062499,27.2339251 25.062499,26.0833334 L25.062499,21.7083336 C25.062499,21.5932745 25.1604369,21.5 25.281249,21.5 L27.6874988,21.5 C28.4123724,21.5 29.0000001,20.9403561 29.0000001,20.2500003 L29.0000001,19.4166665 C29.0000001,18.7263107 28.4123738,18.1666666 27.6875002,18.1666666 L21.3437506,18.1666666 C21.2430738,18.1666666 21.1582819,18.1018929 21.1328145,18.0137164 L21.1250006,17.9583332 L21.1250006,17.9583332 L21.1250006,16.5 C21.1250006,15.3494083 20.1456219,14.4166667 18.9375007,14.4166667 L15.4375009,14.4166667 C15.2227238,14.4166667 15.044093,14.2692705 15.0070489,14.0748963 L15.0000001,14 L15.0000001,14 L15.0000001,12.5408341 C15.0004824,12.4260999 15.0982792,12.3333333 15.21875,12.3333333 L18.5000001,12.3333333 C19.2248734,12.3333333 19.8124997,11.7736891 19.8124997,11.0833333 L19.8124997,10.25 C19.8124997,9.60279139 19.2960312,9.07046611 18.6341955,9.00645361 L18.5000001,9 L18.5000001,9 Z M3.75000007,2.25 C2.92157257,2.25 2.25000007,2.9215725 2.25000007,3.75 C2.25000007,4.52969647 2.84488782,5.17044872 3.60554,5.24313343 L3.75000007,5.25 L3.89446013,5.24313342 C4.60757155,5.17499151 5.17499158,4.60757143 5.24313349,3.89446006 L5.25000007,3.75 L5.24313349,3.60553993 C5.17044879,2.84488775 4.52969654,2.25 3.75000007,2.25 Z M9.00000007,2.25 C8.17157257,2.25 7.50000007,2.9215725 7.50000007,3.75 C7.50000007,4.52969647 8.09488782,5.17044872 8.85554,5.24313343 L9.00000007,5.25 L9.14446013,5.24313342 C9.85757155,5.17499151 10.4249916,4.60757143 10.4931335,3.89446006 L10.5000001,3.75 L10.4931335,3.60553993 C10.4204488,2.84488775 9.77969654,2.25 9.00000007,2.25 Z M14.2500001,2.25 C13.4215726,2.25 12.7500001,2.9215725 12.7500001,3.75 C12.7500001,4.52969647 13.3448878,5.17044872 14.10554,5.24313343 L14.2500001,5.25 L14.3944601,5.24313342 C15.1075716,5.17499151 15.6749916,4.60757143 15.7431335,3.89446006 L15.7500001,3.75 L15.7431335,3.60553993 C15.6704488,2.84488775 15.0296965,2.25 14.2500001,2.25 Z" id="icon-33"></path>
                    </g>
                </g>
            </g>
        </g>
    </g>
</svg>