<?xml version="1.0" encoding="UTF-8"?>
<svg width="36px" height="31px" viewBox="0 0 36 31" version="1.1" xmlns="http://www.w3.org/2000/svg" xmlns:xlink="http://www.w3.org/1999/xlink">
    <!-- Generator: Sketch 59.1 (86144) - https://sketch.com -->
    <title>Combined Shape</title>
    <desc>Created with Sketch.</desc>
    <defs>
        <linearGradient x1="99.4628977%" y1="13.9118339%" x2="0%" y2="86.4800363%" id="linearGradient-1">
            <stop stop-color="#9F97C9" offset="0.0448690878%"></stop>
            <stop stop-color="#675FAA" offset="100%"></stop>
        </linearGradient>
    </defs>
    <g id="Design" stroke="none" stroke-width="1" fill="none" fill-rule="evenodd">
        <g id="Landing" transform="translate(-1078.000000, -3961.000000)" fill="url(#linearGradient-1)" fill-rule="nonzero">
            <g id="Paperless" transform="translate(0.000000, 3319.000000)">
                <g id="Group-2" transform="translate(264.000000, 120.000000)">
                    <g id="4" transform="translate(811.000000, 522.000000)">
                        <path d="M34.5,-9.9475983e-14 C36.9852752,-9.9475983e-14 39,2.014725 39,4.5 L39,4.5 L39,26.2500007 C39,28.7352757 36.9852748,30.7500007 34.5,30.7500007 L34.5,30.7500007 L7.5,30.7500007 C5.014725,30.7500007 3,28.7352757 3,26.2500007 L3,26.2500007 L3,4.5 L3,4.5 L3.004898,4.28816481 C3.11551127,1.90124253 5.08573286,-9.9475983e-14 7.5,-9.9475983e-14 L7.5,-9.9475983e-14 Z M20.2455006,10.4895063 C16.5175806,10.4895063 13.4955006,13.5115863 13.4955006,17.2395063 L13.5000002,17.235 L13.5000002,17.235001 C13.5000007,20.8836036 16.3948491,23.8560823 20.0130288,23.9809191 L20.2500005,23.985001 C21.3144973,23.9843775 22.3616115,23.7277021 23.3036342,23.2386607 L23.5830005,23.085001 C23.7292214,23.0017599 23.9129225,23.0256409 24.0330005,23.143501 L25.9500005,25.060501 C26.5458785,25.6360195 27.4954805,25.6195135 28.0710005,25.0236364 C28.6324235,24.4423519 28.6324235,23.5207864 28.0710005,22.9395064 L26.1540005,21.0225065 C26.0553815,20.9226377 26.0223302,20.7781867 26.0625295,20.6482523 L26.0955006,20.5725063 C26.6307183,19.6523559 26.9359885,18.6183715 26.987638,17.5582419 L26.9955006,17.2395063 C26.9955006,13.5115863 23.9734206,10.4895063 20.2455006,10.4895063 Z M20.25,13.4849946 C22.2542565,13.4849946 23.8912735,15.0573633 23.9948019,17.0358417 L24,17.2349946 C23.9678472,19.2925896 22.3076101,20.9528346 20.2500001,20.9849946 L20.25,20.9849946 C18.178935,20.9849946 16.5,19.3060596 16.5,17.2349946 C16.5,15.1639296 18.178935,13.4849946 20.25,13.4849946 L20.25,13.4849946 Z M19.4494502,2.43045741 C18.7486082,2.04415791 17.8672997,2.29915041 17.4810002,2.99999991 L17.4810002,2.99999991 L17.4022121,3.13847004 C17.307651,3.32815231 17.2554223,3.53683759 17.2500002,3.74999839 L17.2500002,3.74999839 L17.2628812,3.90878001 C17.2915328,4.11876331 17.3657214,4.32064747 17.4810002,4.49999947 L17.4810002,4.49999947 L17.5679738,4.63864539 C17.6938936,4.81623746 17.8586568,4.96377657 18.0505428,5.06954205 C18.7513848,5.45584155 19.6326933,5.20084905 20.0189928,4.49999955 L20.0189928,4.49999955 L20.097678,4.36148631 C20.1921339,4.1717703 20.2443886,3.96313038 20.2500002,3.74999958 L20.2500002,3.74999958 L20.2372239,3.59119545 C20.2086745,3.38118038 20.1344404,3.1792727 20.0189927,2.9999999 L20.0189927,2.9999999 L19.9320192,2.86135407 C19.8060994,2.683762 19.6413362,2.53622289 19.4494502,2.43045741 Z M14.1994502,2.43045741 C13.4986082,2.04415791 12.6172997,2.29915041 12.2310002,2.99999991 L12.2310002,2.99999991 L12.1522121,3.13847038 C12.0576511,3.32815265 12.0054223,3.53683793 12.0000002,3.74999873 L12.0000002,3.74999873 L12.0128813,3.90878007 C12.0415329,4.11876337 12.1157214,4.32064753 12.2310002,4.49999953 L12.2310002,4.49999953 L12.3179738,4.63864539 C12.4438936,4.81623746 12.6086568,4.96377657 12.8005428,5.06954205 C13.5013848,5.45584155 14.3826933,5.20084905 14.7689928,4.49999955 L14.7689928,4.49999955 L14.847678,4.36148631 C14.9421339,4.1717703 14.9943886,3.96313038 15.0000002,3.74999958 L15.0000002,3.74999958 L14.9872239,3.59119545 C14.9586745,3.38118038 14.8844404,3.1792727 14.7689927,2.9999999 L14.7689927,2.9999999 L14.6820192,2.86135407 C14.5560994,2.683762 14.3913362,2.53622289 14.1994502,2.43045741 Z M8.25000764,2.25000011 L8.10415537,2.2577462 C7.57464054,2.31177614 7.10867802,2.64412498 6.88800015,3.13650011 L6.88800015,3.13650011 L6.82894323,3.28366054 C6.77792029,3.43355091 6.75116064,3.59098908 6.75000764,3.75000011 L6.75000764,3.75000011 L6.7628887,3.90878043 C6.79154032,4.1187635 6.86572885,4.32064766 6.98100769,4.49999966 L6.98100769,4.49999966 L7.06798134,4.63864559 C7.19390113,4.81623765 7.35866425,4.96377677 7.55055025,5.06954225 C8.25139225,5.45584175 9.13270075,5.20084925 9.51900025,4.49999975 L9.51900025,4.49999975 L9.59768551,4.36148651 C9.69214143,4.17177051 9.74439604,3.96313064 9.75000764,3.75000011 L9.75000764,3.75000011 L9.73723137,3.59119565 C9.70868202,3.38118057 9.63444791,3.17927289 9.51900023,3.00000009 L9.51900023,3.00000009 L9.44299869,2.87927334 C9.17197914,2.49167048 8.72870954,2.25495986 8.25000764,2.25000011 L8.25000764,2.25000011 Z" id="Combined-Shape"></path>
                    </g>
                </g>
            </g>
        </g>
    </g>
</svg>