<?xml version="1.0" encoding="UTF-8"?>
<svg width="36px" height="35px" viewBox="0 0 36 35" version="1.1" xmlns="http://www.w3.org/2000/svg" xmlns:xlink="http://www.w3.org/1999/xlink">
    <!-- Generator: Sketch 59.1 (86144) - https://sketch.com -->
    <title>icon-20</title>
    <desc>Created with Sketch.</desc>
    <defs>
        <linearGradient x1="100%" y1="4.06329939%" x2="0%" y2="95.9367006%" id="linearGradient-1">
            <stop stop-color="#F69882" offset="0%"></stop>
            <stop stop-color="#FF5B35" offset="100%"></stop>
        </linearGradient>
    </defs>
    <g id="Design" stroke="none" stroke-width="1" fill="none" fill-rule="evenodd">
        <g id="Communication" transform="translate(-1124.000000, -2653.000000)" fill="url(#linearGradient-1)" fill-rule="nonzero">
            <g id="Industry" transform="translate(0.000000, 1938.000000)">
                <g id="Group-11">
                    <g id="text-copy" transform="translate(265.000000, 100.000000)">
                        <g id="4" transform="translate(859.000000, 615.000000)">
                            <path d="M33.8535,21.9632209 C33.959179,21.8523018 34.1217027,21.8168209 34.2639934,21.8736051 C34.4062841,21.9303893 34.5,22.0680184 34.5,22.2212209 L34.5,22.2212209 L34.5,29.2562209 C34.5,32.1557158 32.1494949,34.5062209 29.25,34.5062209 L29.25,34.5062209 L6.75,34.5062209 C3.85050506,34.5062209 1.5,32.1557158 1.5,29.2562209 L1.5,29.2562209 L1.5,22.2212209 C1.5,22.0680184 1.59371591,21.9303893 1.73600659,21.8736051 C1.87829727,21.8168209 2.040821,21.8523018 2.1465,21.9632209 C6.276,26.3087209 9.8325,28.5062209 12.75,28.5062209 L12.75,28.5062209 L23.25,28.5062209 C26.1675,28.5062209 29.724,26.3087209 33.8535,21.9632209 Z M33.75,9.00622089 C34.9926407,9.00622089 36,10.0135802 36,11.2562209 L36,11.2562209 L36,14.7062209 C35.9995127,15.5726944 35.698985,16.4122636 35.1495,17.0822209 C32.34,20.5082209 27.0555,26.2562209 23.25,26.2562209 L23.25,26.2562209 L12.75,26.2562209 C8.9445,26.2562209 3.66,20.5082209 0.8505,17.0822209 C0.301014955,16.4122636 0.000487342368,15.5726944 -3.55271368e-15,14.7062209 L-3.55271368e-15,14.7062209 L-3.55271368e-15,11.2562209 C-3.55271368e-15,10.0135802 1.00735931,9.00622089 2.25,9.00622089 L2.25,9.00622089 Z M22.1262136,14.0062209 L13.8737864,14.0062209 C13.3912075,14.0062209 13,14.5099005 13,15.1312209 C13,15.7525412 13.3912075,16.2562209 13.8737864,16.2562209 L13.8737864,16.2562209 L22.1262136,16.2562209 C22.6087925,16.2562209 23,15.7525412 23,15.1312209 C23,14.5099005 22.6087925,14.0062209 22.1262136,14.0062209 L22.1262136,14.0062209 Z M17.9993755,1.01696429e-13 C21.979309,-0.000367899195 25.3921532,2.84070383 26.1135,6.75472089 C26.133,6.86422089 26.151,6.97522089 26.1675,7.08622089 C26.1832019,7.19412301 26.1511612,7.30351608 26.0797266,7.38589636 C26.0082919,7.46827663 25.9045383,7.51548506 25.7955,7.51522199 L25.7955,7.51522199 L23.511,7.50622089 C23.3331297,7.50612722 23.1800026,7.38061322 23.145,7.20622089 C23.1135,7.05622089 23.0745,6.90622089 23.031,6.75622089 C22.3674712,4.53150614 20.3215568,3.0067338 18,3.0067338 C15.6784432,3.0067338 13.6325288,4.53150614 12.969,6.75622089 C12.9255,6.90622089 12.8865,7.05622089 12.855,7.20622089 C12.8199974,7.38061322 12.6668703,7.50612722 12.489,7.50622089 L12.489,7.50622089 L10.2,7.50622089 C10.0923522,7.5037909 9.99084979,7.45556785 9.92096457,7.37365321 C9.85107935,7.29173857 9.81944497,7.18390783 9.834,7.07722089 C9.849,6.96922089 9.867,6.86272089 9.8865,6.75622089 C10.6071232,2.84207054 14.019442,0.000367899195 17.9993755,1.01696429e-13 Z" id="icon-20"></path>
                        </g>
                    </g>
                </g>
            </g>
        </g>
    </g>
</svg>