<?xml version="1.0" encoding="UTF-8"?>
<svg width="36px" height="36px" viewBox="0 0 36 36" version="1.1" xmlns="http://www.w3.org/2000/svg" xmlns:xlink="http://www.w3.org/1999/xlink">
    <!-- Generator: Sketch 59.1 (86144) - https://sketch.com -->
    <title>icon-11</title>
    <desc>Created with Sketch.</desc>
    <defs>
        <linearGradient x1="100%" y1="0.040466596%" x2="0%" y2="99.9595334%" id="linearGradient-1">
            <stop stop-color="#5DCAE5" offset="0%"></stop>
            <stop stop-color="#0AADD7" offset="100%"></stop>
        </linearGradient>
    </defs>
    <g id="Design" stroke="none" stroke-width="1" fill="none" fill-rule="evenodd">
        <g id="Communication" transform="translate(-265.000000, -1381.000000)" fill="url(#linearGradient-1)" fill-rule="nonzero">
            <g id="features-communication" transform="translate(0.000000, 975.000000)">
                <g id="Group-3" transform="translate(265.000000, 150.000000)">
                    <g id="3" transform="translate(0.000000, 256.000000)">
                        <path d="M3.27448967,7.06580567 C4.73914967,5.60153277 7.11351167,5.60184627 8.57778467,7.06650477 L8.57778467,7.06650477 L11.7607847,10.2480048 C13.2199425,11.7149448 13.2199425,14.0850708 11.7607845,15.5520048 L11.7607845,15.5520048 L11.1832846,16.1280047 C13.8179296,19.2716447 16.7235946,22.1778197 19.8667846,24.8130047 L19.8667846,24.8130047 L19.8667789,24.8129999 L20.4427789,24.2369999 C21.9266839,22.8181291 24.2643694,22.8181291 25.7482789,24.2370001 L25.7482789,24.2370001 L28.9237943,27.41851 C30.3867279,28.882705 30.3867279,31.2553075 28.9237944,32.71951 L28.9237944,32.71951 L27.1777944,34.46701 C25.4029044,36.2028775 22.6624944,36.4781635 20.5777944,35.13001 L20.5777944,35.13001 L19.8701122,34.6539298 C12.3545467,29.5315848 5.90021458,23.000052 0.866294581,15.4185102 L0.866294581,15.4185102 L0.734908504,15.2080866 C-0.482229407,13.1535206 -0.167252673,10.520946 1.52929083,8.81100451 L1.52929083,8.81100451 L3.27379048,7.06650486 C3.27402351,7.06627176 3.27425658,7.0660387 3.27448967,7.06580567 Z M26.2462784,-3.55271368e-15 L26.5240472,0.00421724298 C31.7777161,0.15748241 35.9899527,4.46108094 35.9962784,9.75031732 L35.9962784,9.75031732 L35.9925327,10.0229072 C35.8480118,15.2814947 31.5397861,19.5 26.2462784,19.5 C20.8615034,19.5 16.4962784,15.134775 16.4962784,9.75 C16.4962784,4.365225 20.8615034,-3.55271368e-15 26.2462784,-3.55271368e-15 L26.2462784,-3.55271368e-15 Z M26.2462788,4.87500017 C25.6249578,4.87500017 25.1212787,5.37867917 25.1212788,6.00000017 L25.1212788,6.00000017 L25.1212788,8.25 C25.1212788,8.4571065 24.9533853,8.62500001 24.7462788,8.625 L24.7462788,8.625 L22.4962788,8.625 C21.8749578,8.625 21.3712788,9.128679 21.3712788,9.75 C21.3712788,10.371321 21.8749578,10.8750002 22.4962788,10.8750002 L22.4962788,10.8750002 L24.7462788,10.8750002 C24.9533853,10.8750002 25.1212788,11.0428935 25.1212788,11.25 L25.1212788,11.25 L25.1212788,13.5 C25.1212788,14.121321 25.6249578,14.625 26.2462788,14.625 C26.8675998,14.625 27.3712788,14.121321 27.3712788,13.5 L27.3712788,13.5 L27.3712788,11.25 L27.3712788,11.25 L27.3788975,11.1744245 C27.4138649,11.0035435 27.5650607,10.8750002 27.7462788,10.8750002 L27.7462788,10.8750002 L29.9962787,10.8750002 C30.6175997,10.8750002 31.1212787,10.3713212 31.1212787,9.75000023 C31.1212787,9.12867923 30.6175997,8.6250002 29.9962787,8.62500023 L29.9962787,8.62500023 L27.7462788,8.62500023 C27.5391723,8.62500023 27.3712788,8.45710673 27.3712788,8.25000023 L27.3712788,8.25000023 L27.3712788,6.00000017 L27.3712788,6.00000017 L27.3646775,5.87741891 C27.3035987,5.31376054 26.8261784,4.87500017 26.2462788,4.87500017 Z" id="icon-11"></path>
                    </g>
                </g>
            </g>
        </g>
    </g>
</svg>