<?xml version="1.0" encoding="UTF-8"?>
<svg width="20px" height="20px" viewBox="0 0 20 20" version="1.1" xmlns="http://www.w3.org/2000/svg" xmlns:xlink="http://www.w3.org/1999/xlink">
    <!-- Generator: Sketch 59.1 (86144) - https://sketch.com -->
    <title>icon-address</title>
    <desc>Created with Sketch.</desc>
    <g id="Symbols" stroke="none" stroke-width="1" fill="none" fill-rule="evenodd">
        <g id="Footer" transform="translate(-266.000000, -716.000000)" fill="#FFFFFF" fill-rule="nonzero">
            <g transform="translate(265.000000, 497.000000)" id="icon-address">
                <path d="M14.8336171,234.23685 L14.9383278,234.239161 C21,234.751661 21,236.00166 21,236.538327 C21,238.761659 14.0691614,239.001659 11,239.001659 L10.8187249,239.00138 C7.66682333,238.991695 1,238.718903 1,236.538327 C1,236.00166 1,234.751659 7.02750592,234.242494 C7.46917908,234.217034 7.85376551,234.541139 7.90351391,234.980737 C7.95526805,235.438057 7.62649318,235.850742 7.16917505,235.902495 C6.12322547,235.980491 5.08333422,236.125231 4.05584458,236.335828 C3.97702369,236.353415 3.91546747,236.414971 3.89788048,236.493792 C3.87282382,236.606091 3.94354712,236.717438 4.0558446,236.742495 C6.34351035,237.182062 8.67094275,237.380647 11,237.334993 C13.3293419,237.380741 15.657066,237.182156 17.9449949,236.742493 C18.0238157,236.724906 18.085372,236.66335 18.102959,236.584529 C18.1280156,236.47223 18.0572923,236.360883 17.9449949,236.335826 C16.9065036,236.123422 15.855454,235.977845 14.7983302,235.899993 C14.3397037,235.861335 13.9992539,235.458203 14.0379138,234.999577 C14.0765721,234.54095 14.4797036,234.200501 14.9383278,234.239161 Z M10.999165,219 C14.3842053,219 17.1283293,221.744124 17.1283293,225.129164 C17.1283293,227.837496 13.3333308,234.064994 11.7016648,236.617493 C11.5485456,236.856775 11.2840791,237.001701 10.9999983,237.001701 C10.7153426,237.002958 10.4500019,236.857854 10.2974986,236.617493 C8.6649993,234.065827 4.87000082,227.837496 4.87000082,225.129164 C4.87000082,221.744124 7.61412472,219 10.999165,219 Z M10.9999983,221.918333 C9.38916563,221.918333 8.08333282,223.224165 8.08333282,224.834998 C8.08333282,226.445831 9.38916576,227.751664 10.9999983,227.751664 C12.610831,227.751664 13.9166638,226.445831 13.9166638,224.834998 C13.9166638,223.224165 12.610831,221.918333 10.9999983,221.918333 Z"></path>
            </g>
        </g>
    </g>
</svg>