<svg xmlns="http://www.w3.org/2000/svg" xmlns:xlink="http://www.w3.org/1999/xlink" viewBox="0 0 299.96 537.02"><defs><linearGradient id="linear-gradient" x1="1208.63" y1="124.79" x2="1043.41" y2="29.4" gradientTransform="matrix(-1, 0, 0, 1, 1304.62, 0)" gradientUnits="userSpaceOnUse"><stop offset="0.5" stop-color="#fff"/><stop offset="1" stop-color="#f7f8f9" stop-opacity="0"/></linearGradient><linearGradient id="linear-gradient-2" x1="1050.2" y1="427.29" x2="1215.41" y2="522.68" xlink:href="#linear-gradient"/><linearGradient id="linear-gradient-3" x1="77.61" y1="73.08" x2="99.39" y2="73.08" gradientTransform="translate(234.92 -29.73) rotate(76.85)" gradientUnits="userSpaceOnUse"><stop offset="0" stop-color="#e9ebee"/><stop offset="0.75" stop-color="#e9ebee" stop-opacity="0.98"/><stop offset="1" stop-color="#f7f8f9" stop-opacity="0.3"/></linearGradient><linearGradient id="linear-gradient-4" x1="92.4" y1="73.87" x2="96.49" y2="73.87" gradientTransform="translate(95.39)" gradientUnits="userSpaceOnUse"><stop offset="0" stop-color="#344b5b"/><stop offset="1" stop-color="#263746"/></linearGradient><linearGradient id="linear-gradient-5" x1="79.94" y1="67.76" x2="87.38" y2="67.76" xlink:href="#linear-gradient-4"/><linearGradient id="linear-gradient-6" x1="1671.07" y1="38.13" x2="1665.03" y2="57.64" gradientTransform="matrix(-1, 0, 0, 1, 1849.34, 0)" xlink:href="#linear-gradient-4"/><linearGradient id="linear-gradient-7" x1="1667.57" y1="39.33" x2="1656.34" y2="61.94" gradientTransform="matrix(-1, 0, 0, 1, 1849.34, 0)" xlink:href="#linear-gradient-4"/><linearGradient id="linear-gradient-8" x1="76.38" y1="18.3" x2="86.48" y2="18.3" gradientTransform="translate(95.39)" gradientUnits="userSpaceOnUse"><stop offset="0" stop-color="#334048"/><stop offset="1" stop-color="#272f37"/></linearGradient><linearGradient id="linear-gradient-9" x1="1664.24" y1="14.96" x2="1667.74" y2="32.92" gradientTransform="matrix(-1, 0, 0, 1, 1849.34, 0)" xlink:href="#linear-gradient-4"/><linearGradient id="linear-gradient-10" x1="1668.48" y1="33.84" x2="1668.13" y2="35.06" gradientTransform="matrix(-1, 0, 0, 1, 1849.34, 0)" gradientUnits="userSpaceOnUse"><stop offset="0" stop-color="#edad8f"/><stop offset="1" stop-color="#efb38e"/></linearGradient><linearGradient id="linear-gradient-11" x1="1658.29" y1="15.65" x2="1662.28" y2="35.08" gradientTransform="matrix(-1, 0, 0, 1, 1849.34, 0)" xlink:href="#linear-gradient-4"/><linearGradient id="linear-gradient-12" x1="1666.05" y1="9.72" x2="1665.02" y2="10.88" gradientTransform="matrix(-1, 0, 0, 1, 1849.34, 0)" gradientUnits="userSpaceOnUse"><stop offset="0" stop-color="#ea996d"/><stop offset="1" stop-color="#efb38e"/></linearGradient><linearGradient id="linear-gradient-13" x1="1669.53" y1="6.32" x2="1668.25" y2="9.48" gradientTransform="matrix(-1, 0, 0, 1, 1849.34, 0)" gradientUnits="userSpaceOnUse"><stop offset="0" stop-color="#ea996d" stop-opacity="0.3"/><stop offset="1" stop-color="#efb38e"/></linearGradient><linearGradient id="linear-gradient-14" x1="81.97" y1="4.44" x2="91.37" y2="4.44" xlink:href="#linear-gradient-4"/><linearGradient id="linear-gradient-15" x1="1673.48" y1="17.11" x2="1675.7" y2="25.38" gradientTransform="matrix(-1, 0, 0, 1, 1849.34, 0)" xlink:href="#linear-gradient-4"/><linearGradient id="linear-gradient-16" x1="81.83" y1="14.46" x2="84.2" y2="14.46" gradientTransform="translate(95.39)" xlink:href="#linear-gradient-12"/><linearGradient id="linear-gradient-17" x1="5753.92" y1="128.93" x2="5744.03" y2="148.22" gradientTransform="translate(-5707.6)" xlink:href="#linear-gradient-4"/><linearGradient id="linear-gradient-18" x1="5756.04" y1="132.76" x2="5740.87" y2="149.82" gradientTransform="translate(-5707.6)" xlink:href="#linear-gradient-4"/><linearGradient id="linear-gradient-19" x1="498.33" y1="107.2" x2="520.39" y2="107.2" gradientTransform="translate(-471.39)" xlink:href="#linear-gradient-4"/><linearGradient id="linear-gradient-20" x1="6066.79" y1="1420.57" x2="6066.6" y2="1419.9" gradientTransform="translate(-5912.26 1875.51) rotate(-29.7)" xlink:href="#linear-gradient-12"/><linearGradient id="linear-gradient-21" x1="6062.16" y1="1423.96" x2="6052.92" y2="1418.69" gradientTransform="translate(-5912.26 1875.51) rotate(-29.7)" gradientUnits="userSpaceOnUse"><stop offset="0" stop-color="#73d2e9"/><stop offset="1" stop-color="#00add8"/></linearGradient><linearGradient id="linear-gradient-22" x1="5750.43" y1="103.84" x2="5750.43" y2="118.06" gradientTransform="translate(-5707.6)" xlink:href="#linear-gradient-21"/><linearGradient id="linear-gradient-23" x1="5754.66" y1="122.73" x2="5754.7" y2="124.25" gradientTransform="translate(-5707.6)" gradientUnits="userSpaceOnUse"><stop offset="0" stop-color="#efb38e"/><stop offset="1" stop-color="#ea996d"/></linearGradient><linearGradient id="linear-gradient-24" x1="5748.08" y1="108.33" x2="5748.08" y2="118.47" gradientTransform="translate(-5707.6)" xlink:href="#linear-gradient-21"/><linearGradient id="linear-gradient-25" x1="5750.62" y1="105.88" x2="5750.41" y2="106.91" gradientTransform="translate(-5707.6)" xlink:href="#linear-gradient-12"/><linearGradient id="linear-gradient-26" x1="512.56" y1="102.7" x2="518.38" y2="102.7" gradientTransform="translate(-471.39)" xlink:href="#linear-gradient-12"/><linearGradient id="linear-gradient-27" x1="571.96" y1="151.92" x2="471.39" y2="151.92" gradientTransform="translate(-471.39)" gradientUnits="userSpaceOnUse"><stop offset="0" stop-color="#dee1e8"/><stop offset="1" stop-color="#c1c7ce"/></linearGradient><linearGradient id="linear-gradient-28" x1="534.25" y1="110.85" x2="543.11" y2="126.2" xlink:href="#linear-gradient-27"/><linearGradient id="linear-gradient-29" x1="1069.7" y1="255.38" x2="1069.7" y2="206.22" gradientTransform="matrix(-1, 0, 0, 1, 1304.62, 0)" gradientUnits="userSpaceOnUse"><stop offset="0" stop-color="#e9ebee" stop-opacity="0.3"/><stop offset="1" stop-color="#f7f8f9"/></linearGradient><linearGradient id="linear-gradient-30" x1="1049.12" y1="170.46" x2="1051.86" y2="175.34" gradientTransform="matrix(-1, 0, 0, 1, 1304.62, 0)" gradientUnits="userSpaceOnUse"><stop offset="0" stop-color="#facf45"/><stop offset="1" stop-color="#f9be00"/></linearGradient><linearGradient id="linear-gradient-31" x1="1059" y1="172.26" x2="1058.04" y2="170.43" gradientTransform="matrix(-1, 0, 0, 1, 1304.62, 0)" xlink:href="#linear-gradient-12"/><linearGradient id="linear-gradient-32" x1="1042.76" y1="192.61" x2="1036.43" y2="213.06" gradientTransform="matrix(-1, 0, 0, 1, 1304.62, 0)" xlink:href="#linear-gradient-4"/><linearGradient id="linear-gradient-33" x1="1039.1" y1="193.87" x2="1027.32" y2="217.56" gradientTransform="matrix(-1, 0, 0, 1, 1304.62, 0)" xlink:href="#linear-gradient-4"/><linearGradient id="linear-gradient-34" x1="1035.6" y1="168.33" x2="1039.28" y2="187.15" xlink:href="#linear-gradient-30"/><linearGradient id="linear-gradient-35" x1="1034.44" y1="188.29" x2="1034.44" y2="191.08" gradientTransform="matrix(-1, 0, 0, 1, 1304.62, 0)" xlink:href="#linear-gradient-12"/><linearGradient id="linear-gradient-36" x1="1027.78" y1="171.98" x2="1029.95" y2="187.89" xlink:href="#linear-gradient-30"/><linearGradient id="linear-gradient-37" x1="1037.51" y1="162.84" x2="1036.42" y2="164.05" gradientTransform="matrix(-1, 0, 0, 1, 1304.62, 0)" xlink:href="#linear-gradient-12"/><linearGradient id="linear-gradient-38" x1="1041.15" y1="159.27" x2="1039.81" y2="162.58" gradientTransform="matrix(-1, 0, 0, 1, 1304.62, 0)" xlink:href="#linear-gradient-13"/><linearGradient id="linear-gradient-39" x1="1033.86" y1="157.31" x2="1043.71" y2="157.31" gradientTransform="matrix(-1, 0, 0, 1, 1304.62, 0)" xlink:href="#linear-gradient-4"/><linearGradient id="linear-gradient-40" x1="1033.13" y1="260.46" x2="1033.13" y2="208.6" gradientTransform="matrix(-1, 0, 0, 1, 1304.62, 0)" xlink:href="#linear-gradient-27"/><linearGradient id="linear-gradient-41" x1="1087.6" y1="232.38" x2="1087.6" y2="184.29" gradientTransform="matrix(-1, 0, 0, 1, 1304.62, 0)" xlink:href="#linear-gradient-27"/><linearGradient id="linear-gradient-42" x1="1058.97" y1="178.07" x2="1069.35" y2="196.04" gradientTransform="matrix(-1, 0, 0, 1, 1304.62, 0)" xlink:href="#linear-gradient-27"/><linearGradient id="linear-gradient-43" x1="1218.16" y1="291.61" x2="1284.13" y2="291.61" gradientTransform="matrix(-1, 0, 0, 1, 1304.62, 0)" gradientUnits="userSpaceOnUse"><stop offset="0.45" stop-color="#dee1e8"/><stop offset="0.55" stop-color="#ccd0d7"/></linearGradient><linearGradient id="linear-gradient-44" x1="1222.12" y1="307.64" x2="1233.5" y2="307.64" gradientTransform="matrix(-1, 0, 0, 1, 1304.62, 0)" xlink:href="#linear-gradient-4"/><linearGradient id="linear-gradient-45" x1="1230.86" y1="310.45" x2="1241.25" y2="310.45" gradientTransform="matrix(-1, 0, 0, 1, 1304.62, 0)" xlink:href="#linear-gradient-4"/><linearGradient id="linear-gradient-46" x1="535.51" y1="282.95" x2="525.52" y2="291.77" gradientTransform="translate(-462.32)" xlink:href="#linear-gradient-4"/><linearGradient id="linear-gradient-47" x1="528.2" y1="285.53" x2="518.21" y2="294.35" gradientTransform="translate(-462.32)" xlink:href="#linear-gradient-4"/><linearGradient id="linear-gradient-48" x1="853.65" y1="643.86" x2="853.72" y2="655.88" gradientTransform="matrix(0.35, 0.45, -0.37, 0.3, -2.15, -292.78)" xlink:href="#linear-gradient-4"/><linearGradient id="linear-gradient-49" x1="527.7" y1="259.3" x2="526.06" y2="262.87" gradientTransform="translate(-462.32)" gradientUnits="userSpaceOnUse"><stop offset="0" stop-color="#9089d5"/><stop offset="1" stop-color="#675dc6"/></linearGradient><linearGradient id="linear-gradient-50" x1="521.22" y1="257.12" x2="521.22" y2="274" xlink:href="#linear-gradient-49"/><linearGradient id="linear-gradient-51" x1="1235.05" y1="269.88" x2="1229.97" y2="278.69" gradientTransform="matrix(-1, 0, 0, 1, 1304.62, 0)" xlink:href="#linear-gradient-27"/><linearGradient id="linear-gradient-52" x1="1240.01" y1="249.14" x2="1246.34" y2="249.14" gradientTransform="matrix(-1, 0, 0, 1, 1304.62, 0)" xlink:href="#linear-gradient-12"/><linearGradient id="linear-gradient-53" x1="524.96" y1="241.25" x2="521.59" y2="246.37" gradientTransform="translate(-462.32)" xlink:href="#linear-gradient-4"/><linearGradient id="linear-gradient-54" x1="526.27" y1="237.85" x2="525.22" y2="245.72" gradientTransform="translate(-462.32)" xlink:href="#linear-gradient-4"/><linearGradient id="linear-gradient-55" x1="514.66" y1="257.88" x2="514.66" y2="270.72" xlink:href="#linear-gradient-49"/><linearGradient id="linear-gradient-56" x1="1158.95" y1="338.97" x2="1162.68" y2="345.36" gradientTransform="matrix(-1, 0, 0, 1, 1367.33, 0)" gradientUnits="userSpaceOnUse"><stop offset="0" stop-color="#e78f7e"/><stop offset="1" stop-color="#eca99d"/></linearGradient><linearGradient id="linear-gradient-57" x1="1158.77" y1="344.67" x2="1153.04" y2="341.55" gradientTransform="matrix(-1, 0, 0, 1, 1367.33, 0)" gradientUnits="userSpaceOnUse"><stop offset="0" stop-color="#f0b9a3"/><stop offset="1" stop-color="#eca99d"/></linearGradient><linearGradient id="linear-gradient-58" x1="1163.05" y1="329.78" x2="1155.64" y2="333.04" gradientTransform="matrix(-1, 0, 0, 1, 1367.33, 0)" xlink:href="#linear-gradient-4"/><linearGradient id="linear-gradient-59" x1="1154.63" y1="300.37" x2="1152.62" y2="308.02" gradientTransform="matrix(-1, 0, 0, 1, 1367.33, 0)" xlink:href="#linear-gradient-4"/><linearGradient id="linear-gradient-60" x1="1159.32" y1="300.57" x2="1157.46" y2="304.99" gradientTransform="matrix(-1, 0, 0, 1, 1367.33, 0)" xlink:href="#linear-gradient-4"/><linearGradient id="linear-gradient-61" x1="1176.4" y1="313.04" x2="1176.22" y2="312.37" gradientTransform="matrix(-1, 0, 0, 1, 1367.33, 0)" xlink:href="#linear-gradient-12"/><linearGradient id="linear-gradient-62" x1="1167.61" y1="318.09" x2="1167.61" y2="311.01" gradientTransform="matrix(-1, 0, 0, 1, 1367.33, 0)" gradientUnits="userSpaceOnUse"><stop offset="0" stop-color="#ff876c"/><stop offset="1" stop-color="#ff5b35"/></linearGradient><linearGradient id="linear-gradient-63" x1="1158.79" y1="311.48" x2="1158.79" y2="328.34" xlink:href="#linear-gradient-62"/><linearGradient id="linear-gradient-64" x1="1158.98" y1="306.82" x2="1158.78" y2="307.83" gradientTransform="matrix(-1, 0, 0, 1, 1367.33, 0)" xlink:href="#linear-gradient-12"/><linearGradient id="linear-gradient-65" x1="992.45" y1="303.71" x2="998.13" y2="303.71" gradientTransform="translate(-787.97)" xlink:href="#linear-gradient-23"/><linearGradient id="linear-gradient-66" x1="1154.8" y1="326.04" x2="1154.48" y2="326.48" gradientTransform="matrix(-1, 0, 0, 1, 1367.33, 0)" xlink:href="#linear-gradient-23"/><linearGradient id="linear-gradient-67" x1="1151.07" y1="312.1" x2="1151.07" y2="321.19" xlink:href="#linear-gradient-62"/><linearGradient id="linear-gradient-68" x1="980.08" y1="372" x2="1023.29" y2="372" gradientTransform="translate(-787.97)" gradientUnits="userSpaceOnUse"><stop offset="0" stop-color="#e9ebee"/><stop offset="0.75" stop-color="#e9ebee" stop-opacity="0.98"/><stop offset="1" stop-color="#f7f8f9" stop-opacity="0.3"/></linearGradient><linearGradient id="linear-gradient-69" x1="965.97" y1="366.7" x2="1017.87" y2="366.7" gradientTransform="translate(-787.97)" xlink:href="#linear-gradient-27"/><linearGradient id="linear-gradient-70" x1="13.05" y1="106.35" x2="17.76" y2="111.06" gradientTransform="translate(0.13)" xlink:href="#linear-gradient-62"/><linearGradient id="linear-gradient-71" x1="11.03" y1="109.08" x2="18.25" y2="116.31" gradientTransform="translate(0.13)" xlink:href="#linear-gradient-62"/><linearGradient id="linear-gradient-72" x1="1261.62" y1="-630.34" x2="1258.68" y2="-624" gradientTransform="matrix(-1, 1.15, 0, 1, 1296.73, -748.59)" xlink:href="#linear-gradient-49"/><linearGradient id="linear-gradient-73" x1="1266.25" y1="-637.81" x2="1264.39" y2="-633.78" gradientTransform="matrix(-1, 1.15, 0, 1, 1296.73, -748.59)" xlink:href="#linear-gradient-49"/><linearGradient id="linear-gradient-74" x1="1264.63" y1="-635.02" x2="1263.18" y2="-631.89" gradientTransform="matrix(-1, 1.15, 0, 1, 1296.73, -748.59)" xlink:href="#linear-gradient-49"/><linearGradient id="linear-gradient-75" x1="1263.01" y1="-632.24" x2="1261.97" y2="-630" gradientTransform="matrix(-1, 1.15, 0, 1, 1296.73, -748.59)" xlink:href="#linear-gradient-49"/><linearGradient id="linear-gradient-76" x1="57.96" y1="81.74" x2="66.02" y2="89.8" gradientTransform="translate(0.13)" xlink:href="#linear-gradient-21"/><linearGradient id="linear-gradient-77" x1="34.91" y1="250.11" x2="39.62" y2="254.82" gradientTransform="translate(0.13)" xlink:href="#linear-gradient-62"/><linearGradient id="linear-gradient-78" x1="32.89" y1="252.83" x2="40.12" y2="260.06" gradientTransform="translate(0.13)" xlink:href="#linear-gradient-62"/><linearGradient id="linear-gradient-79" x1="1239.75" y1="-461.34" x2="1236.81" y2="-455" gradientTransform="matrix(-1, 1.15, 0, 1, 1296.73, -748.59)" xlink:href="#linear-gradient-49"/><linearGradient id="linear-gradient-80" x1="1244.39" y1="-468.81" x2="1242.52" y2="-464.78" gradientTransform="matrix(-1, 1.15, 0, 1, 1296.73, -748.59)" xlink:href="#linear-gradient-49"/><linearGradient id="linear-gradient-81" x1="1242.77" y1="-466.02" x2="1241.32" y2="-462.89" gradientTransform="matrix(-1, 1.15, 0, 1, 1296.73, -748.59)" xlink:href="#linear-gradient-49"/><linearGradient id="linear-gradient-82" x1="1241.15" y1="-463.24" x2="1240.11" y2="-461" gradientTransform="matrix(-1, 1.15, 0, 1, 1296.73, -748.59)" xlink:href="#linear-gradient-49"/><linearGradient id="linear-gradient-83" x1="79.82" y1="225.49" x2="87.88" y2="233.55" gradientTransform="translate(0.13)" xlink:href="#linear-gradient-21"/><linearGradient id="linear-gradient-84" x1="998.97" y1="162.56" x2="988.52" y2="173" gradientTransform="matrix(-1, 0, 0, 1, 1285.49, 0)" xlink:href="#linear-gradient-62"/><linearGradient id="linear-gradient-85" x1="1000.72" y1="164.03" x2="985.25" y2="179.5" gradientTransform="matrix(-1, 0, 0, 1, 1285.49, 0)" xlink:href="#linear-gradient-62"/><linearGradient id="linear-gradient-86" x1="275.99" y1="562.13" x2="287.99" y2="560.28" gradientTransform="matrix(1, 1.15, 0, 1, -11.11, -748.59)" xlink:href="#linear-gradient-49"/><linearGradient id="linear-gradient-87" x1="282.52" y1="554.43" x2="290.34" y2="553.22" gradientTransform="matrix(1, 1.15, 0, 1, -11.11, -748.59)" xlink:href="#linear-gradient-49"/><linearGradient id="linear-gradient-88" x1="282.43" y1="556.3" x2="287.99" y2="555.44" gradientTransform="matrix(1, 1.15, 0, 1, -11.11, -748.59)" xlink:href="#linear-gradient-49"/><linearGradient id="linear-gradient-89" x1="282.34" y1="558.16" x2="285.63" y2="557.65" gradientTransform="matrix(1, 1.15, 0, 1, -11.11, -748.59)" xlink:href="#linear-gradient-49"/><linearGradient id="linear-gradient-90" x1="1048.43" y1="136.74" x2="1032.23" y2="152.94" gradientTransform="matrix(-1, 0, 0, 1, 1285.49, 0)" xlink:href="#linear-gradient-21"/><linearGradient id="linear-gradient-91" x1="1054.13" y1="305.93" x2="1043.69" y2="316.38" gradientTransform="matrix(-1, 0, 0, 1, 1285.49, 0)" xlink:href="#linear-gradient-62"/><linearGradient id="linear-gradient-92" x1="1055.88" y1="307.4" x2="1040.41" y2="322.87" gradientTransform="matrix(-1, 0, 0, 1, 1285.49, 0)" xlink:href="#linear-gradient-62"/><linearGradient id="linear-gradient-93" x1="220.83" y1="769.21" x2="232.83" y2="767.35" gradientTransform="matrix(1, 1.15, 0, 1, -11.11, -748.59)" xlink:href="#linear-gradient-49"/><linearGradient id="linear-gradient-94" x1="227.35" y1="761.51" x2="235.18" y2="760.3" gradientTransform="matrix(1, 1.15, 0, 1, -11.11, -748.59)" xlink:href="#linear-gradient-49"/><linearGradient id="linear-gradient-95" x1="227.26" y1="763.37" x2="232.82" y2="762.51" gradientTransform="matrix(1, 1.15, 0, 1, -11.11, -748.59)" xlink:href="#linear-gradient-49"/><linearGradient id="linear-gradient-96" x1="227.17" y1="765.23" x2="230.47" y2="764.72" gradientTransform="matrix(1, 1.15, 0, 1, -11.11, -748.59)" xlink:href="#linear-gradient-49"/><linearGradient id="linear-gradient-97" x1="1103.59" y1="280.11" x2="1087.39" y2="296.31" gradientTransform="matrix(-1, 0, 0, 1, 1285.49, 0)" xlink:href="#linear-gradient-21"/><linearGradient id="linear-gradient-98" x1="1157.19" y1="425.23" x2="1159.8" y2="429.89" gradientTransform="matrix(-1, 0, 0, 1, 1304.62, 0)" xlink:href="#linear-gradient-4"/><linearGradient id="linear-gradient-99" x1="1167.79" y1="426.84" x2="1164.81" y2="426.84" gradientTransform="matrix(-1, 0, 0, 1, 1304.62, 0)" xlink:href="#linear-gradient-12"/><linearGradient id="linear-gradient-100" x1="1141.6" y1="482.1" x2="1137.51" y2="482.1" gradientTransform="matrix(-1, 0, 0, 1, 1304.62, 0)" xlink:href="#linear-gradient-4"/><linearGradient id="linear-gradient-101" x1="1154.06" y1="475.99" x2="1146.62" y2="475.99" gradientTransform="matrix(-1, 0, 0, 1, 1304.62, 0)" xlink:href="#linear-gradient-4"/><linearGradient id="linear-gradient-102" x1="1151.12" y1="446.36" x2="1145.08" y2="465.87" gradientTransform="matrix(-1, 0, 0, 1, 1304.62, 0)" xlink:href="#linear-gradient-4"/><linearGradient id="linear-gradient-103" x1="1147.62" y1="447.56" x2="1136.39" y2="470.17" gradientTransform="matrix(-1, 0, 0, 1, 1304.62, 0)" xlink:href="#linear-gradient-4"/><linearGradient id="linear-gradient-104" x1="1144.29" y1="423.19" x2="1147.8" y2="441.14" gradientTransform="matrix(-1, 0, 0, 1, 1304.62, 0)" xlink:href="#linear-gradient-4"/><linearGradient id="linear-gradient-105" x1="1146.11" y1="417.95" x2="1145.07" y2="419.11" gradientTransform="matrix(-1, 0, 0, 1, 1304.62, 0)" xlink:href="#linear-gradient-12"/><linearGradient id="linear-gradient-106" x1="1149.58" y1="414.55" x2="1148.3" y2="417.71" gradientTransform="matrix(-1, 0, 0, 1, 1304.62, 0)" xlink:href="#linear-gradient-13"/><linearGradient id="linear-gradient-107" x1="1142.62" y1="412.67" x2="1152.03" y2="412.67" gradientTransform="matrix(-1, 0, 0, 1, 1304.62, 0)" xlink:href="#linear-gradient-4"/><linearGradient id="linear-gradient-108" x1="1143.23" y1="450.83" x2="1145.83" y2="455.32" gradientTransform="matrix(-1, 0, 0, 1, 1304.62, 0)" xlink:href="#linear-gradient-49"/><linearGradient id="linear-gradient-109" x1="1135.85" y1="448.03" x2="1144.26" y2="462.61" gradientTransform="matrix(-1, 0, 0, 1, 1304.62, 0)" xlink:href="#linear-gradient-49"/><linearGradient id="linear-gradient-110" x1="1139.69" y1="456.36" x2="1140.42" y2="457.63" gradientTransform="matrix(-1, 0, 0, 1, 1304.62, 0)" xlink:href="#linear-gradient-49"/><linearGradient id="linear-gradient-111" x1="-1479.03" y1="449.93" x2="-1477.81" y2="454.34" gradientTransform="translate(1642.84)" xlink:href="#linear-gradient-49"/><linearGradient id="linear-gradient-112" x1="1139.55" y1="456.45" x2="1140.28" y2="457.71" gradientTransform="matrix(-1, 0, 0, 1, 1304.62, 0)" xlink:href="#linear-gradient-49"/><linearGradient id="linear-gradient-113" x1="1138.55" y1="455.86" x2="1140" y2="455.86" gradientTransform="matrix(-1, 0, 0, 1, 1304.62, 0)" xlink:href="#linear-gradient-49"/><linearGradient id="linear-gradient-114" x1="1138.82" y1="457.39" x2="1139.56" y2="456.11" gradientTransform="matrix(-1, 0, 0, 1, 1304.62, 0)" xlink:href="#linear-gradient-49"/><linearGradient id="linear-gradient-115" x1="1138.93" y1="446.82" x2="1139.38" y2="447.6" gradientTransform="matrix(-1, 0, 0, 1, 1304.62, 0)" xlink:href="#linear-gradient-49"/><linearGradient id="linear-gradient-116" x1="1138.57" y1="446.14" x2="1140.46" y2="446.14" gradientTransform="matrix(-1, 0, 0, 1, 1304.62, 0)" xlink:href="#linear-gradient-49"/><linearGradient id="linear-gradient-117" x1="1141.88" y1="447.14" x2="1143.54" y2="450.02" gradientTransform="matrix(-1, 0, 0, 1, 1304.62, 0)" xlink:href="#linear-gradient-49"/><linearGradient id="linear-gradient-118" x1="1141.33" y1="448.73" x2="1142.21" y2="448.73" gradientTransform="matrix(-1, 0, 0, 1, 1304.62, 0)" xlink:href="#linear-gradient-12"/><linearGradient id="linear-gradient-119" x1="-1476.08" y1="445.53" x2="-1477.31" y2="447.41" gradientTransform="translate(1640.44)" xlink:href="#linear-gradient-10"/><linearGradient id="linear-gradient-120" x1="1204.91" y1="422.3" x2="1206.62" y2="443.97" gradientTransform="matrix(-1, 0, 0, 1, 1371.56, 0)" xlink:href="#linear-gradient-4"/><linearGradient id="linear-gradient-121" x1="295.94" y1="305.1" x2="285.92" y2="315.12" gradientTransform="translate(-162.87 -159.73)" xlink:href="#linear-gradient-4"/><linearGradient id="linear-gradient-122" x1="323.01" y1="33.3" x2="312.99" y2="43.32" gradientTransform="translate(-148.04 180.1)" xlink:href="#linear-gradient-4"/><linearGradient id="linear-gradient-123" x1="295.47" y1="440.9" x2="285.44" y2="450.92" gradientTransform="translate(-162.87 -159.73)" xlink:href="#linear-gradient-4"/><linearGradient id="linear-gradient-124" x1="297.81" y1="184.82" x2="287.79" y2="194.85" gradientTransform="translate(-148.04 180.1)" xlink:href="#linear-gradient-4"/></defs><title>Asset 135</title><g style="isolation:isolate"><g id="Layer_2" data-name="Layer 2"><g id="Layer_1-2" data-name="Layer 1"><path d="M274.33,52.13,130,135.47,90.24,112.53a8.5,8.5,0,0,1,0-14.73l131.62-76Z" style="fill:url(#linear-gradient)"/><path d="M248.45,158,90.61,249.12l-39.74-23a8.5,8.5,0,0,1,0-14.73L208.71,120.3l39.74,23A8.5,8.5,0,0,1,248.45,158Z" style="fill:#fff"/><path d="M208.71,317.3,64.36,400.64,24.63,377.7a8.5,8.5,0,0,1,0-14.73l131.59-76Z" style="fill:#fff"/><polygon points="129.97 135.49 169.34 158.22 221.84 127.89 182.47 105.16 129.97 135.49" style="fill:#fff"/><path d="M90.59,249.1l118.12,68.2,39.73-22.95a8.51,8.51,0,0,0,0-14.73L143.08,218.79Z" style="fill:#fff"/><polygon points="64.36 400.67 156.19 453.67 208.72 423.38 116.85 370.34 64.36 400.67" style="fill:#fff"/><path d="M248.45,461l-131.6,76L64.36,506.71l144.36-83.34,39.73,22.94A8.5,8.5,0,0,1,248.45,461Z" style="fill:url(#linear-gradient-2)"/><g id="Page-1" style="opacity:0.08"><g id="Icons"><path id="Fill-96" d="M162.85,85.38c-.35,0-.65-.19-.69-.39l-1.43-7.83a.26.26,0,0,1,.15-.28l6.93-4a1,1,0,0,1,.71,0c.25.07.43.21.45.37l1,7.7,13.33.55a.88.88,0,0,1,.64.26.25.25,0,0,1-.09.41l-6.93,4a.86.86,0,0,1-.47.09l-13.56-.83" style="fill:#99a4ae;fill-rule:evenodd"/><path id="Fill-98" d="M175,78.38c-.35,0-.65-.19-.68-.39l-1.44-7.83a.27.27,0,0,1,.16-.28l6.93-4a1,1,0,0,1,.7,0c.26.07.44.21.46.37l1,7.7,13.34.55a.88.88,0,0,1,.64.26.25.25,0,0,1-.09.41l-6.93,4a.88.88,0,0,1-.48.09L175,78.38" style="fill:#99a4ae;fill-rule:evenodd"/></g></g><g id="Page-1-2" data-name="Page-1" style="opacity:0.08"><g id="Icons-2" data-name="Icons"><path id="Fill-96-2" data-name="Fill-96" d="M132.12,193.34c-.35,0-.65-.19-.68-.39L130,185.12a.27.27,0,0,1,.16-.28l6.92-4a1,1,0,0,1,.71-.05c.26.07.44.22.45.37l1,7.7,13.34.55a.94.94,0,0,1,.64.26.25.25,0,0,1-.1.41l-6.92,4a.9.9,0,0,1-.48.09l-13.56-.83" style="fill:#99a4ae;fill-rule:evenodd"/><path id="Fill-98-2" data-name="Fill-98" d="M144.24,186.34c-.34,0-.64-.19-.68-.39l-1.44-7.83a.27.27,0,0,1,.16-.28l6.93-4a1,1,0,0,1,.71-.05c.25.07.43.22.45.37l1,7.7,13.33.55a.92.92,0,0,1,.64.26.25.25,0,0,1-.09.41l-6.93,4a.86.86,0,0,1-.47.09l-13.57-.83" style="fill:#99a4ae;fill-rule:evenodd"/></g></g><g id="Page-1-3" data-name="Page-1" style="opacity:0.08"><g id="Icons-3" data-name="Icons"><path id="Fill-96-3" data-name="Fill-96" d="M124.26,336c-.34,0-.64-.19-.68-.39l-1.44-7.83a.28.28,0,0,1,.16-.27l6.93-4a1,1,0,0,1,.71-.06c.25.07.43.22.45.37l1,7.7,13.33.55a1,1,0,0,1,.64.26.25.25,0,0,1-.09.41l-6.93,4a.78.78,0,0,1-.47.09L124.26,336" style="fill:#99a4ae;fill-rule:evenodd"/><path id="Fill-98-3" data-name="Fill-98" d="M136.39,329c-.35,0-.65-.19-.68-.39l-1.44-7.83a.27.27,0,0,1,.16-.27l6.92-4a1,1,0,0,1,.71-.06c.26.07.44.22.45.37l1,7.7,13.34.55a1,1,0,0,1,.64.26.25.25,0,0,1-.1.41l-6.92,4a.81.81,0,0,1-.48.09L136.39,329" style="fill:#99a4ae;fill-rule:evenodd"/></g></g><g id="Page-1-4" data-name="Page-1" style="opacity:0.08"><g id="Icons-4" data-name="Icons"><path id="Fill-96-4" data-name="Fill-96" d="M184.93,138.64l-13.56.83a.88.88,0,0,1-.48-.09l-6.93-4a.25.25,0,0,1-.09-.41.88.88,0,0,1,.64-.26l13.34-.55,1-7.7c0-.16.2-.3.45-.37a1,1,0,0,1,.71,0l6.93,4a.27.27,0,0,1,.16.28l-1.44,7.83c0,.2-.33.37-.68.39" style="fill:#99a4ae;fill-rule:evenodd"/><path id="Fill-98-4" data-name="Fill-98" d="M172.8,131.64l-13.56.83a.86.86,0,0,1-.47-.09l-6.93-4a.25.25,0,0,1-.09-.41.88.88,0,0,1,.64-.26l13.33-.55,1-7.7c0-.16.2-.3.45-.37a1,1,0,0,1,.71,0l6.93,4a.26.26,0,0,1,.15.28l-1.43,7.83c0,.2-.34.37-.69.39" style="fill:#99a4ae;fill-rule:evenodd"/></g></g><g id="Page-1-5" data-name="Page-1" style="opacity:0.08"><g id="Icons-5" data-name="Icons"><path id="Fill-96-5" data-name="Fill-96" d="M157.68,257.58l-13.56.83a1,1,0,0,1-.47-.09l-6.93-4a.25.25,0,0,1-.09-.41.88.88,0,0,1,.64-.26l13.33-.56,1-7.7c0-.15.19-.3.45-.37a1.05,1.05,0,0,1,.71.06l6.93,4a.26.26,0,0,1,.15.27l-1.43,7.83c0,.2-.34.37-.69.4" style="fill:#99a4ae;fill-rule:evenodd"/><path id="Fill-98-5" data-name="Fill-98" d="M145.56,250.58l-13.56.83a1,1,0,0,1-.48-.09l-6.93-4c-.17-.11-.21-.27-.09-.41a.88.88,0,0,1,.64-.26l13.34-.56,1-7.7c0-.15.2-.3.45-.37a1,1,0,0,1,.71.06l6.93,4a.27.27,0,0,1,.16.27l-1.44,7.83c0,.2-.33.37-.68.4" style="fill:#99a4ae;fill-rule:evenodd"/></g></g><g id="Page-1-6" data-name="Page-1" style="opacity:0.08"><g id="Icons-6" data-name="Icons"><path id="Fill-96-6" data-name="Fill-96" d="M143.56,416.29l-13.56.83a.9.9,0,0,1-.48-.1l-6.92-4a.25.25,0,0,1-.1-.4,1,1,0,0,1,.64-.27l13.34-.55,1-7.7c0-.15.19-.3.45-.37a1,1,0,0,1,.71.06l6.92,4a.27.27,0,0,1,.16.27l-1.44,7.83c0,.2-.33.37-.68.4" style="fill:#99a4ae;fill-rule:evenodd"/><path id="Fill-98-6" data-name="Fill-98" d="M131.44,409.29l-13.56.83a.88.88,0,0,1-.48-.1l-6.93-4a.25.25,0,0,1-.09-.4.93.93,0,0,1,.64-.27l13.33-.55,1-7.7c0-.15.2-.3.45-.37a1,1,0,0,1,.71.06l6.93,4a.27.27,0,0,1,.16.27l-1.44,7.83c0,.2-.33.37-.68.4" style="fill:#99a4ae;fill-rule:evenodd"/></g></g><ellipse cx="183.89" cy="73.08" rx="6.27" ry="11.09" transform="translate(70.89 235.52) rotate(-76.85)" style="opacity:0.30000000000000004;fill:url(#linear-gradient-3)"/><path d="M190.85,69.13a6.44,6.44,0,0,0,.19,1,10.32,10.32,0,0,1,.49,1.53c.25,1.08-.09,2.51.25,4a1.64,1.64,0,0,1-.25,1.62,2.78,2.78,0,0,1-2.1,1.34,1.47,1.47,0,0,1-1-.5,2.4,2.4,0,0,1-.61-1.8,14.67,14.67,0,0,0,.16-2.06c0-.75-.16-1.15-.15-2s.09-2,.1-2.6Z" style="fill-rule:evenodd;fill:url(#linear-gradient-4)"/><path d="M182.3,64.72a5,5,0,0,1,.47,2.15c-.17.56-.56.79-1,1.18l-.31.07c-.77.41-1,1.88-1.76,2.54a5.55,5.55,0,0,1-2.51.92c-1.06.21-2.08-.1-1.8-.94.69-2.08,3.67-4.43,3.74-6.75Z" style="fill-rule:evenodd;fill:url(#linear-gradient-5)"/><path d="M177.83,49.88c.07,4,.94,11.45.81,15.38a2.61,2.61,0,0,0,3.72-.34c.41-3.61.9-8.75.94-10.73a15.17,15.17,0,0,0-.53-4.66c.6-4.36,3.12-10.31,2.52-14.42-.27-1.8-1.45-3.74-1.79-5.23-3,3.66-5.24,1.91-6.47,1.59,0,1.26-.09,1.09-.05,2.42.14,4.5.35,9.3.6,14A6.19,6.19,0,0,0,177.83,49.88Z" style="fill-rule:evenodd;fill:url(#linear-gradient-6)"/><path d="M183,58c.14-1.57.24-2.94.26-3.78a15.17,15.17,0,0,0-.53-4.66c.6-4.36,3.12-10.31,2.52-14.42-.27-1.8-1.45-3.74-1.79-5.23-3,3.66-5.24,1.91-6.47,1.59v.37l3.89,2.88-1-.22c0,5.18.68,9.91.78,15A80,80,0,0,1,183,57.88Z" style="fill:#131719;fill-rule:evenodd;opacity:0.5"/><path d="M184.45,52.78c.71,4,2.8,13.67,3.3,17.6,1.29.71,3.18.46,3.63-.58,0-3.62,0-10.12-.27-12.11A24.58,24.58,0,0,0,189.64,52c.27-9.32,1.06-11.92-.2-16-.55-1.8-2-3.54-2.58-5-.8,1.23-2,3-4.67,2.75-.26,0-2.45-1.59-3.18-1.77.92,5.54,3.57,12.78,4.86,18.83A6.77,6.77,0,0,0,184.45,52.78Z" style="fill-rule:evenodd;fill:url(#linear-gradient-7)"/><path d="M173,26a1.71,1.71,0,0,1-1.22-1.92c.33-1.25,2.41-5,3.21-7a22.47,22.47,0,0,1,2.25-5.23c1-1.37,2.19-1.91,3.72-1.2,2.48,1.14-.84,8.29-3.34,12.28C176.78,24.39,175.11,26.84,173,26Z" style="fill-rule:evenodd;fill:url(#linear-gradient-8)"/><path d="M180.33,10.29a2.28,2.28,0,0,0-.82.28c-2,1.09-2.64,4.29-3,7.1a43.88,43.88,0,0,0,0,6.69c.06,1.77-.16,3.42-.09,5.1,0,.5.22,1,.27,1.57a2.72,2.72,0,0,1,.13,1c1,3.75,10.26,4.06,11.61,1.52a9.1,9.1,0,0,1-.24-1.13c.88-.8.37-2.74.51-4.09a11.29,11.29,0,0,1,.55-2.8c1.26-3.11,3-5.5,3.38-7.89.24-1.65-1.86-3.69-4.63-5.35S181.76,9.87,180.33,10.29Z" style="fill-rule:evenodd;fill:url(#linear-gradient-9)"/><path d="M176.74,31.12a1.87,1.87,0,0,1,.13,1c1,3.75,10.26,4.06,11.61,1.52a9.1,9.1,0,0,1-.24-1.13c.88-.8.37-2.74.51-4.09a11.29,11.29,0,0,1,.55-2.8c1-2.51,2.36-4.55,3-6.49L191,17.87l-2.66-.81a17,17,0,0,0-1,4.17c-.23,1.74-.33,3.49-.64,5.24C186.3,31.18,185.57,34.35,176.74,31.12Z" style="fill:#263746;fill-rule:evenodd"/><path d="M182.05,36.27a.93.93,0,0,1-.25.15.23.23,0,0,1-.12,0l-3.43-2.29-.56-.51-4-3.31c-.11-.09-.33-.23-.35-.29s.23-.13.24-.14.14,0,.37.14l3.47,2a1.81,1.81,0,0,1,.37.25L182,36.1C182.08,36.15,182.1,36.23,182.05,36.27Z" style="fill:#ff5b35;fill-rule:evenodd"/><path d="M181.82,36.26s.1.23-.2.13L178,34.25l-.56-.51-3.93-3.45c-.25-.23-.34-.47.18-.15l3.47,2a1.64,1.64,0,0,1,.36.25Z" style="fill:#ff5b35;fill-rule:evenodd"/><path d="M184,31.37a3.14,3.14,0,0,1-.61.3.43.43,0,0,1,0-.05.69.69,0,0,1-.2.13l-.36.14a6,6,0,0,1-.91.15c-.36.05-1.21.18-1.58.27a9,9,0,0,0-1.51.92l.72.65a1,1,0,0,1-.46.1c-.66-.07-2.35-.91-2.28-.57a6.23,6.23,0,0,0,.71,1.34A5.12,5.12,0,0,0,179,36a9,9,0,0,0,1.77,1c.47.15,2.05-1,2.35-1.33.94-1.13.57-1.7,1.51-2.16Z" style="fill-rule:evenodd;fill:url(#linear-gradient-10)"/><path d="M192.91,17c.65,2.86.22,7.49.52,10.84a2,2,0,0,1,0,.65.57.57,0,0,1,0,.13c-.06.74-.62,1.18-1.31,1.63-1.76,1.14-3.21,2.59-6.37,3.59a2.93,2.93,0,0,1-1-.05c-.2.06-.45.21-.66.27a3.11,3.11,0,0,0-1.33-2.22c.21-.11.45-.3.67-.43a2.08,2.08,0,0,1,.41-.58,32.72,32.72,0,0,1,5.32-3.82c-.24-.83-.4-1.68-.57-2.33-.33-1.36-.58-2.72-.77-4-.07-.52-.13-.78-.19-1.31C187.12,15.44,192.11,13.58,192.91,17Z" style="fill-rule:evenodd;fill:url(#linear-gradient-11)"/><path d="M181.68,12.11c0-.15-.07-.3-.1-.46-.09-.46,0-1.35-.09-2.4l4-1.68a17.16,17.16,0,0,0,.84,4.51c0,1.79-4.48,2.59-4.58.49A3.42,3.42,0,0,0,181.68,12.11Z" style="fill:#efb28e;fill-rule:evenodd"/><path d="M181.68,12.11c0-.15-.07-.3-.1-.46-.09-.46,0-1.35-.09-2.4l4-1.68c0,.51,0,.92.09,1.29.14,1.47-1.28,4.05-3.83,3.71A3.42,3.42,0,0,0,181.68,12.11Z" style="fill-rule:evenodd;fill:url(#linear-gradient-12)"/><path d="M181.45,12c.49-.32,1.82-1.13,2.26-1.45.95-.71.84-1.6,1.11-3a2.52,2.52,0,0,0,1.28-1.72,4.16,4.16,0,0,0-1.63-3.63,3.59,3.59,0,0,0-3.12-.63A4.15,4.15,0,0,0,178,5.77a1.35,1.35,0,0,0,.06.49c.12.4.15.46.21.74.12.58-.27.79-.12,1.52a11.29,11.29,0,0,0,1.37,3.24A3.52,3.52,0,0,0,181.45,12Z" style="fill:#efb28e;fill-rule:evenodd"/><path d="M178.12,4.91a4.94,4.94,0,0,0-.11.86,1.35,1.35,0,0,0,.06.49c.12.4.15.46.21.74.12.58-.27.79-.12,1.52a13.57,13.57,0,0,0,.62,1.82,2.12,2.12,0,0,0,2.95-.5A4.63,4.63,0,0,0,182,5.22,5.64,5.64,0,0,1,178.12,4.91Z" style="fill-rule:evenodd;fill:url(#linear-gradient-13)"/><path d="M186.73,5.2a11.58,11.58,0,0,1-1.09,3.41c-.47.74-.26-.17-.51-.68s-.79-.44-1-.84a1.28,1.28,0,0,1-.43.8c-.14.07-.42.18-.44-.23,0-1.4-.7-1.49-.49-2.33.16-.63.12-.9,0-1.13-.46.07-.75.53-1.29.77a4.68,4.68,0,0,1-3.18-.31A1.72,1.72,0,0,1,178,1.79,16.93,16.93,0,0,1,180,.62a3.59,3.59,0,0,1,4.62.49C186.64,1.53,186.87,3.51,186.73,5.2Z" style="fill-rule:evenodd;fill:url(#linear-gradient-14)"/><path d="M184.53,6.38c.86-.39,1,.63.89,1.27-.06.44-.41.44-.51.79a.81.81,0,0,1-.67.66c-.55,0-.29-.8-.26-1.13C183.87,7.45,184,6.62,184.53,6.38Z" style="fill:#efb28e;fill-rule:evenodd"/><path d="M172,23a32.13,32.13,0,0,1,3.49-6.59h0c.83-1.34.91-1.76.86-2.2a3.53,3.53,0,0,1,.32-2.71,17.83,17.83,0,0,1,2-.88c.34-.11.6-.09,1.32.29s1.08.51.91.66h0l-.89,1a1.07,1.07,0,0,1-.46.37l-.15.32c-.2.49.15,1.29-.26,1.94l-1.08,1.13c-1.11,2-1.33,4.21-1.94,6.36a3.76,3.76,0,0,1-2,2.26C172.67,25.49,171.92,24.38,172,23Z" style="fill:#efb28e;fill-rule:evenodd"/><path d="M172.35,21.24a21.83,21.83,0,0,1,2.78-4.81c.15-.18.46-.32.57-.5a7.87,7.87,0,0,0,.38-.69,3.44,3.44,0,0,0,2,1.17,5.74,5.74,0,0,0-.3.72,7.93,7.93,0,0,0-.06,1c-.36,2-1,7.21-3.15,8A2.29,2.29,0,0,1,172.5,26C171.28,25,171.87,22.4,172.35,21.24Z" style="fill-rule:evenodd;fill:url(#linear-gradient-15)"/><path d="M177.92,16.22c1.19-1.27.72-2.29,1.55-2.85a2.52,2.52,0,0,1,.13-.33l-.07,0-1,.55c-.13.07-.22.15-.25.16l0,0c-.33-.15-.06-.86-.21-.88a1.18,1.18,0,0,1-.83-.24C177.26,13.83,178.61,14.9,177.92,16.22Z" style="fill-rule:evenodd;fill:url(#linear-gradient-16)"/><path d="M52.19,166.46l-14.52-8.27c-1.59-.72-3.85-1.3-5.47-.46s-3.89,2.33-5,2.94c-.81.46-3.63,2.16-1.88,3.11,5.18,2.81,10.3,6,15.55,8.83a7.24,7.24,0,0,0,4,.61,10.28,10.28,0,0,0,4.3-1.28c.88-.5,1.73-1,2.58-1.5a3.11,3.11,0,0,0,1.8-2.17C53.62,167.56,53.16,166.91,52.19,166.46Z" style="fill:#666bab;fill-rule:evenodd;opacity:0.5"/><path d="M37.29,154.85a1.59,1.59,0,0,1-.18.9c-.84,1.22.16,1.12.12,2.86,0,.16.71,2.92.71,2.92s1.68.41,1.8.38,1.15-.41,1.15-.41c-.09-.15-.2-.52-.27-.65a11,11,0,0,1-.93-3.24,9.2,9.2,0,0,1-.2-2.73Z" style="fill:#eca89b;fill-rule:evenodd"/><path d="M40.94,161.48a6.4,6.4,0,0,1,.47,1.11.52.52,0,0,1,0,.45c-.38.55-2.43-.36-3.12-.94a2.06,2.06,0,0,1-.6-1.37c-.18-.83-.21-.93-.44-1.78l-.15,2.34-.18.12a28.08,28.08,0,0,0-.39-3c-.07-.32-.19-.69-.21-.87a1.86,1.86,0,0,1,.86-1.9c-.16.65.42,1.68.67,3A3.47,3.47,0,0,0,40.94,161.48Z" style="fill:#272b63;fill-rule:evenodd"/><path d="M48.36,122.67c-.16.72.57,3.2.38,4.15-.18,3.14-.73,5.79-2.84,12.06,0,.07-1.93,3.91-2.06,4.31-1.31,4.09-3,8.53-4.35,12.66-.52.4-2.08.28-2.28-.69.43-4.13,0-8.2.67-11a12,12,0,0,1,2.4-4.73c.36-4.06.62-12.19,1.54-15.32Z" style="fill-rule:evenodd;fill:url(#linear-gradient-17)"/><path d="M48.36,122.67c-.16.72-.64,2-.82,3-.59,1.44-1.83,3.42-2.67,5.08a33.69,33.69,0,0,1-1.44,8.42l-1.14,8.62c-.93,2.7-1.91,5.44-2.8,8.06-.52.4-2.08.28-2.28-.69.43-4.13,0-8.2.67-11a12,12,0,0,1,2.4-4.73c.36-4.06.62-12.19,1.54-15.32Z" style="fill:#263746;fill-rule:evenodd"/><path d="M39,159a5.73,5.73,0,0,1-.18,1.15,13.13,13.13,0,0,0-.13,2,18.36,18.36,0,0,0,.45,3.65c.12.51.35.72.5,1.42l3,.49c-.29-1.14-.7-3.43-1-5.35L41,158.83Z" style="fill:#eca89b;fill-rule:evenodd"/><path d="M38.79,160a5.45,5.45,0,0,0-.39,1.74c0,.82.35,2.1.32,3.12l0,1.61a2.48,2.48,0,0,0,1.27,2.36c1,.7,1.91,1,2.42.74s.68-.85.1-2.6a32.74,32.74,0,0,1-.89-4.47,16.2,16.2,0,0,0,.51,3.6c.11.43.17,1.14-.33,1.21-2.1.3-2.2-.26-2.37-.9A21.13,21.13,0,0,1,38.79,160Z" style="fill:#272b63;fill-rule:evenodd"/><path d="M38,125.15c-2.32,2.91-2.38,4.52-1.88,8a72.18,72.18,0,0,1,1.2,9.28,37.53,37.53,0,0,0-.29,7.78c.21,2.42.89,6.58,1.4,9.51.49.91,2.77.52,3.14,0-.11-4.21,0-7.1.16-10.5s.59-6.37.84-9.63c.2-2.7,1-6.37,1.13-9.28.44-1.38,4.55-5.93,3.69-5.87Z" style="fill-rule:evenodd;fill:url(#linear-gradient-18)"/><path d="M44.6,96.23A2.58,2.58,0,0,1,47.27,98a6.59,6.59,0,0,1,.3,3.9c-.79,2.89.61,4.15,1.12,5.5a5.77,5.77,0,0,1,.3,2.23c0,1-.63,1.57-1.13,2.5a8.31,8.31,0,0,1-.73,2.56c-1.37,2.74-6,4.07-10.42,3.87-3.54-.17-7-1.42-8.52-2.86-1.7-1.58-1.92-5.6.94-6a3,3,0,0,0,2-.93c.39-.47,0-1.72-.08-3.39s.27-3.3,2.61-3.87a7.51,7.51,0,0,0,2.52-.79c1.64-1.08,1-3.07,2.81-4.24a5.84,5.84,0,0,1,4.68-.34Z" style="fill-rule:evenodd;fill:url(#linear-gradient-19)"/><path d="M45.66,97.75A3,3,0,0,1,45,99.88c-1.09,1.54-1.67,1.42-2.26,3.38-1-.66-1.66-.76-1.94-.11-.45,1-.17,1.64-.27,2.71-.17,1.74-2.25-.65-3.88.69s-.5,2.22-1.12,4.08c-.23.69-.41,1.6-1.06,1.91-2,.95-2.79,3.35.8,4.55a13.88,13.88,0,0,0,8.14-.37c3.56-1.21,5.75-6.46,4.85-9-.38-1-1.39-1.81-1.4-2.61C46.85,102.39,47.39,100.61,45.66,97.75Z" style="fill:#263746;fill-rule:evenodd"/><path d="M62.84,102.42c.51.24.14.83-.09,1s-1,.38-1,.71-2.1.8-2.09.77a3.66,3.66,0,0,1,1.15-1.51C62,102.79,61.81,103.24,62.84,102.42Z" style="fill-rule:evenodd;fill:url(#linear-gradient-20)"/><path d="M60.86,106.39c-1.37,1.39-2.69,4.26-4,5.49-.43.39-1.07,1.05-1.69.85-3.23-1-.05-1.89-.28-2.84.82-1.87,3.33-2.64,4.59-4.66a3.15,3.15,0,0,1,.23-.41c.51-.76.93-1,2.52-1a1.77,1.77,0,0,0,1-.34l1.15-.88c.38-.23.67-.27.8-.18a2.48,2.48,0,0,1,.41,1.4h0c0,.17-.18.45-.62.71l-1.5,1.59h-.12A4.72,4.72,0,0,0,60.86,106.39Z" style="fill:#efb28e;fill-rule:evenodd"/><path d="M54.54,113.32c-2.26-.53-5.48-1.34-7.13-2.49-1.07-.75-2.8-3.57-1.44-4.83.34-.63,2.35,1.06,3.38,1.62A44,44,0,0,0,54.43,110c.76-1.48,2.38-2.5,3.73-3.79a1.76,1.76,0,0,1,.71-.43,3,3,0,0,0,.44-.5,2.68,2.68,0,0,1,1.61,1.28c-.1.11-.33.35-.43.47s-.16.41-.28.62a33.69,33.69,0,0,1-3.66,4.8c-.47.42-1.17,1.19-1.84,1Z" style="fill-rule:evenodd;fill:url(#linear-gradient-21)"/><path d="M54.54,113.32c-2.26-.53-5.48-1.34-7.13-2.49-.92-.64-2.34-2.84-1.83-4.24.48-.34.77-.52,1.13-.46s.94.65,1.91,1.33c1.48,1,3,1.29,4,2.91a5.27,5.27,0,0,0,3.45,2.46c-.41.36-.9.69-1.37.54Z" style="fill:#4cabd2;fill-rule:evenodd;opacity:0.75"/><path d="M38.31,118.6c1,2.42-.74,3.76-.1,5.42L38,125.15c1.9,1.36,8.71,1.46,10.42-1.25l0-1.35a6.52,6.52,0,0,0,0-2.71,31.14,31.14,0,0,1-.3-3.69c0-.4-.11-.65-.15-1.06a3.45,3.45,0,0,0,.52-4.64,11.75,11.75,0,0,1-1.17-2.08,9.81,9.81,0,0,0-.27-1.2,1.88,1.88,0,0,0-.32-.65c-.43-.62-1.13-.69-2.56-.36a15.48,15.48,0,0,0-7.05,3.51c-.95,1-.91,2.12-.37,4.54A25.62,25.62,0,0,0,38.31,118.6Z" style="fill-rule:evenodd;fill:url(#linear-gradient-22)"/><path d="M38.29,118.59c1,2.41-.69,3.79,0,5.46l-.2,1.11c1.9,1.48,8.71,1.41,10.42-1.3l0-1.18c0-.05-3.35,3-7.15,1.29-.83-.36-1.58-2.17-.51-5.63.1-.33,1.32-.35,3-1.61-1.26.53-3.66,1.27-3.77-2a6,6,0,0,0-1-3.53c-.36-.48-2.46,2.07-2.14,3.29A29.9,29.9,0,0,0,38.29,118.59Z" style="fill:#4cabd2;fill-rule:evenodd;opacity:0.75"/><rect x="40.06" y="116.47" width="10.45" height="8.08" rx="0.56" transform="translate(-81.62 142.13) rotate(-79.07)" style="fill:#fff"/><path d="M41.26,120.06l-.83,4.29a24.51,24.51,0,0,0,3.62.36c.23,0,.5-.22.75-.23,1.35.83,1.14.84,3.77.33l.69-3.54a15.82,15.82,0,0,0-3.9.51A10.09,10.09,0,0,0,41.26,120.06Z" style="fill:#131719;fill-rule:evenodd;opacity:0.05"/><path d="M49.3,121.76c.27.17.08.91,0,1.34a3.36,3.36,0,0,1-.38,1.22c-.34.37-1.58.32-2.39.34s-1.16-.62-1.68-.57c-.4-.64.08-1.41.36-2C46.44,122.32,48.48,121.41,49.3,121.76Z" style="fill-rule:evenodd;fill:url(#linear-gradient-23)"/><path d="M36,111.24c-.88,2.54-.27,6.45-.22,10.13a1.39,1.39,0,0,0,.8,1.36,4.52,4.52,0,0,0,.85.34,20.42,20.42,0,0,0,6.36,1.16,1.4,1.4,0,0,0,.63-.16c.19,0,.48.05.68.05-.31-.07-.18-1.75.27-2l-.65-.16a.73.73,0,0,0-.42-.28A44.9,44.9,0,0,0,38.84,120a30.62,30.62,0,0,0,1-5.46c.08-2-.49-4.36-1.89-4.66C37,109.62,36.37,110.28,36,111.24Z" style="fill-rule:evenodd;fill:url(#linear-gradient-24)"/><path d="M41.64,104.15a7.4,7.4,0,0,1-.29,3.64,2.27,2.27,0,0,0,3.26-.32c-.09-.55-.19-1.06-.25-1.63Z" style="fill:#efb28e;fill-rule:evenodd"/><path d="M41.64,104.15a7.48,7.48,0,0,1,.09,1.76c.3,1.21,2.56,2,2.8,1.06-.07-.37-.13-.73-.17-1.13Z" style="fill-rule:evenodd;fill:url(#linear-gradient-25)"/><path d="M45.86,98.87a4.08,4.08,0,0,1,.66,2.77,1.22,1.22,0,0,0,.09.66,2.59,2.59,0,0,1,.2,2.27c-.23.84-.21,1.28-.5,1.56a1.62,1.62,0,0,1-1.1.39,6.54,6.54,0,0,1-2.83-.87c-.57-.31-.55-.52-.78-1.05-.8-.7-.29-1.2,0-1.25.77-.15.89.73,1.34.92C42.85,102.73,45.8,100.11,45.86,98.87Z" style="fill-rule:evenodd;fill:url(#linear-gradient-26)"/><path d="M46.19,99.49a3.89,3.89,0,0,1,.33,2.15,1.22,1.22,0,0,0,.09.66,2.59,2.59,0,0,1,.2,2.27c-.1.38-.16.67-.21.91a.72.72,0,0,1-.89.26,1.39,1.39,0,0,1-.71-1.15c-.06-.45-1-.74-1.16-1.19s.27-.8.52-1A6.29,6.29,0,0,0,46.19,99.49Z" style="fill:#efb28e;fill-rule:evenodd"/><path d="M45.86,98.87c-.43,1.9-2.92,3.34-2.94,5.4C43.6,102.13,46,100.66,45.86,98.87Z" style="fill:#ea9b6e;fill-rule:evenodd"/><polygon points="75.06 126.97 75.06 106.57 83.79 109.65 75.06 126.97" style="fill:#e9ebee"/><path d="M100.51,115.7l-.05-2.94a34.29,34.29,0,0,1-13.73,10.8,35.13,35.13,0,0,1-17.46,2.83L42.27,142a34.6,34.6,0,0,1-5.06,5c-7.65,6.11-15.8,7.45-25.26,7.45A26.91,26.91,0,0,1,0,151.17v33.71c14.32,8.28,37.56,8.28,51.88,0L89.83,163c6.63-3.83,10.2-8.78,10.68-13.79v-7a45.08,45.08,0,0,1,0,4.65Z" style="fill:url(#linear-gradient-27)"/><path d="M100.56,114v.08a10.8,10.8,0,0,1-.19,1.69c-.84,4.67-4.35,9.2-10.54,12.77L51.88,150.43c-14,8.08-36.58,8.87-51,1.18-.36-.18-.58-.24-.91-.44l15.54-8.79.23,0a40.69,40.69,0,0,0,9.9-.15h0a44.09,44.09,0,0,0,15.61-4.38c1.49-.78,3.54-1.93,5.91-3.26,10.09-5.69,25.68-14.82,25.68-14.82,10.54-6.93,2.41-13,2.3-13.23l14.64-8C97.19,102.82,100.76,108.41,100.56,114Z" style="fill:#dee1e8"/><path d="M51.49,140.83l-.3.17-.19.11-.71.42a2.39,2.39,0,0,1-2.15,0l-.74-.44-.19-.1-2.41-1.4c-.35-.2-.5-.47-.44-.72a.86.86,0,0,1,.44-.52l1.19-.7a2.41,2.41,0,0,1,2.16,0l1.94,1.12.28.17h0l1.12.64a1.17,1.17,0,0,1,.26.2C52.07,140.12,52,140.54,51.49,140.83Z" style="fill:#c1c7ce"/><path d="M51.49,140.62l-.37.21-.18.11-.65.38a2.39,2.39,0,0,1-2.15,0l-.66-.39-.18-.1-2.5-1.45c-.6-.34-.6-.89,0-1.23l1.19-.7c1.59-.87,3.84.61,4.69,1.28l.19.16L51,139C51.59,139.51,52.28,140.08,51.49,140.62Z" style="fill:#c1c7ce"/><path d="M51,139a1.54,1.54,0,0,0-.64-.07h0a2.56,2.56,0,0,0-1,.3.9.9,0,0,0-.22.11l-.1.05a4.6,4.6,0,0,0-1.59,1.53.79.79,0,0,0-.08.16l-.19-.1c0-.05,0-.1.09-.16a4.54,4.54,0,0,1,1.65-1.6h0l.21-.11a3.46,3.46,0,0,1,.92-.34,2.38,2.38,0,0,1,.59,0l.19.16Z" style="fill:#dee1e8"/><path d="M51.19,141l-.19.11a.49.49,0,0,0-.06-.17,3.76,3.76,0,0,0-1.77-1.59,1.55,1.55,0,0,0-.22-.12h0l.21-.11.22.13a3.84,3.84,0,0,1,1.73,1.59C51.15,140.89,51.17,141,51.19,141Z" style="fill:#dee1e8"/><path d="M73.14,132a2,2,0,0,1-.29.9,3.5,3.5,0,0,1-1.32,1.22,8.62,8.62,0,0,1-7.79,0,4.74,4.74,0,0,1-.8-.59c-1.31-1.22-1-2.85.8-3.91a7.19,7.19,0,0,1,2.39-.82h0a10.2,10.2,0,0,1,1.24-.11,4.85,4.85,0,0,1,.66,0,8.11,8.11,0,0,1,3,.69,4.34,4.34,0,0,1,.43.23A2.65,2.65,0,0,1,73.14,132Z" style="fill:#c1c7ce"/><path d="M70,128.94a9,9,0,0,0-1.89-.28,4.85,4.85,0,0,0-.66,0,10.2,10.2,0,0,0-1.24.11h0a7.19,7.19,0,0,0-2.39.82c-1.84,1.06-2.11,2.69-.8,3.91h4.3l1.4-1.5C69,131,69.49,130,70,128.94Z" style="fill:#e9ebee;opacity:0.25"/><path d="M52.75,136.07l.46.26.22-.44Z" style="fill:#9caac6"/><path d="M81.5,101V118.8A3.28,3.28,0,0,1,80,121.4l-.13.09L55,135.85l-.7.41a1,1,0,0,1-1.24,0,1.2,1.2,0,0,1-.27-.83V117.53a1.6,1.6,0,0,1,.27-.83,1.65,1.65,0,0,1,.48-.47l27.22-15.71C81.17,100.28,81.5,100.48,81.5,101Z" style="fill:url(#linear-gradient-28)"/><path d="M70.92,121.1a.76.76,0,0,1-.34.6l-3.56,2c-.19.11-.34,0-.34-.19v-2.42a.76.76,0,0,1,.34-.6l3.56-2.05c.19-.11.34,0,.34.2Z" style="fill:#dee1e8"/><path d="M70.77,123.65v7.8l-3.53,2v-7.81a.49.49,0,0,1,.23-.38l3.08-1.78C70.67,123.45,70.77,123.51,70.77,123.65Z" style="fill:#dee1e8"/><polygon points="261.42 255.38 261.28 222.45 242.89 206.22 208.41 226.13 257.66 255.38 261.42 255.38" style="opacity:0;fill:url(#linear-gradient-29)"/><path d="M256.34,173.53a34.09,34.09,0,0,0-7-2.6c-.21-.06-1.75-.45-2-.52l-.72-.32a3.76,3.76,0,0,1-1,2.55c.11,0,.67.33.79.38s.41.58.54.73c1.27,1.46,5.35,3.7,8.57,4.92h0a2.19,2.19,0,0,0,2.53-.52c.37-.26.72-.53,1-.68,1.82-1.19,5.22-5.49,7.89-12.3a8.25,8.25,0,0,0-2.21-1.29,3,3,0,0,0-2.77.38,9.75,9.75,0,0,0-2.48,4.12c-.54,1.47-2,3.3-3.1,5Z" style="fill-rule:evenodd;fill:url(#linear-gradient-30)"/><path d="M258.11,178.16c.37-.26.72-.53,1-.68,1.82-1.19,5.22-5.49,7.89-12.3-2.7-3.08-6.42.61-7.42,3.35a60,60,0,0,0-3.16,10.34A1.78,1.78,0,0,0,258.11,178.16Z" style="fill:#f9be00;fill-rule:evenodd"/><path d="M244.66,168.69l-.47-.79a.39.39,0,0,0-.47-.15c-.65.35-.49,1.57.36,2.21-1,0-1.36.28-1.41.73-.08.72.06,3.39.52,3.58a5,5,0,0,0,2.59,0c.26-.22,0-.4.33-.76.11-.12.6-.12,1-.42a2.53,2.53,0,0,0,.26-2.45,1.75,1.75,0,0,0-.22-1C246.53,168.76,245.26,169.67,244.66,168.69Z" style="fill:#efb28e;fill-rule:evenodd"/><path d="M244.9,170.61c-.25.06-.18.15-.52.18a1.73,1.73,0,0,0,.71.33c.38-.12.53-.14.67.09a5,5,0,0,1,.24,2.49c.15-.36,1.1-.29,1.32-.87s.31-1.72,0-2a1,1,0,0,1-.94.38C245.83,171.11,245.06,170.58,244.9,170.61Z" style="fill-rule:evenodd;fill:url(#linear-gradient-31)"/><path d="M275,225.1a8.53,8.53,0,0,0,.19,1,11.37,11.37,0,0,1,.52,1.61c.26,1.13-.1,2.63.26,4.22a1.74,1.74,0,0,1-.26,1.71,2.9,2.9,0,0,1-2.2,1.39,1.48,1.48,0,0,1-1.07-.52,2.51,2.51,0,0,1-.64-1.88,16.26,16.26,0,0,0,.16-2.17c0-.77-.16-1.2-.15-2.06s.09-2.14.11-2.72Z" style="fill:#161939;fill-rule:evenodd"/><path d="M266.07,220.48a5.09,5.09,0,0,1,.5,2.25c-.18.59-.59.83-1.05,1.24l-.33.07c-.81.44-1.1,2-1.85,2.67a5.82,5.82,0,0,1-2.63,1c-1.12.22-2.18-.1-1.89-1,.73-2.18,3.85-4.65,3.92-7.08Z" style="fill:#161939;fill-rule:evenodd"/><path d="M261.39,204.93c.08,4.18,1,12,.85,16.12a2.74,2.74,0,0,0,3.9-.36c.43-3.79.94-9.17,1-11.25a16.3,16.3,0,0,0-.56-4.88c.62-4.57,3.26-10.81,2.63-15.11-.27-1.89-1.51-3.93-1.87-5.49-3.12,3.84-5.49,2-6.78,1.67,0,1.32-.09,1.15-.05,2.54.15,4.71.37,9.75.63,14.64A6.49,6.49,0,0,0,261.39,204.93Z" style="fill-rule:evenodd;fill:url(#linear-gradient-32)"/><path d="M266.86,213.4c.14-1.64.25-3.08.27-4a16.3,16.3,0,0,0-.56-4.88c.62-4.57,3.26-10.81,2.63-15.11-.27-1.89-1.51-3.93-1.87-5.49-3.12,3.84-5.49,2-6.78,1.67V186l4.08,3-1-.23c0,5.43.71,10.38.81,15.74a82.14,82.14,0,0,1,2.4,8.76Z" style="fill:#131719;fill-rule:evenodd;opacity:0.5"/><path d="M268.32,208c.76,4.18,2.95,14.32,3.47,18.44,1.35.75,3.33.49,3.8-.61,0-3.79,0-10.61-.28-12.68a26.23,26.23,0,0,0-1.54-6c.28-9.76,1.11-12.5-.21-16.8-.58-1.89-2.1-3.71-2.71-5.27-.83,1.28-2.12,3.1-4.89,2.88-.27,0-2.57-1.67-3.33-1.86,1,5.81,3.74,13.4,5.09,19.74A7.69,7.69,0,0,0,268.32,208Z" style="fill-rule:evenodd;fill:url(#linear-gradient-33)"/><path d="M264,163.43a2.55,2.55,0,0,0-.87.29c-2,1.14-2.77,4.5-3.1,7.45a44.15,44.15,0,0,0,0,7c.07,1.87-.17,3.59-.09,5.36,0,.52.22,1.09.28,1.64a2.6,2.6,0,0,1,.13,1.1c1,3.93,10.76,4.25,12.18,1.59a6.89,6.89,0,0,1-.25-1.18c.91-.84.38-2.87.53-4.29a11.71,11.71,0,0,1,.57-2.93c1.33-3.26,3.17-5.77,3.54-8.27.25-1.73-1.95-3.87-4.85-5.61S265.51,163,264,163.43Z" style="fill-rule:evenodd;fill:url(#linear-gradient-34)"/><path d="M260.25,185.26a1.85,1.85,0,0,1,.13,1c1,3.93,10.76,4.25,12.18,1.59a6.89,6.89,0,0,1-.25-1.18c.91-.84.38-2.87.53-4.29a11.71,11.71,0,0,1,.57-2.93c1.07-2.63,2.48-4.77,3.18-6.81l-1.39-1.28-2.79-.84a17.69,17.69,0,0,0-1.08,4.37c-.25,1.82-.35,3.65-.67,5.5C270.26,185.32,269.51,188.65,260.25,185.26Z" style="fill:#f9be00;fill-rule:evenodd"/><path d="M272.15,187.53c-.45.24-1.25.44-1.58.61-.17.09-1.4.74-2.09,1.15s-1,1.1-1.46,1.84a4.68,4.68,0,0,0-.56,1.35c-.07.32.71,1,1.06.94.8-.13,1.67-1,1.89-1.14,1.82-.8,2.67-.84,3.36-1.52.29-.3.52-1.2,1.13-2l-1-1.05Z" style="fill-rule:evenodd;fill:url(#linear-gradient-35)"/><path d="M276.39,169.82c1.62,2.6,2.8,7.34,4.24,10.56a2.12,2.12,0,0,1,.19.68c.27.8-.15,1.46-.71,2.17a23.43,23.43,0,0,1-5.21,5.38,1.74,1.74,0,0,1-.73.21c-.18.13-.43.36-.61.49.24-.26-1-1.79-1.59-1.73.17-.18.34-.38.51-.59a2.06,2.06,0,0,1,.17-.67,28.78,28.78,0,0,1,3.69-4.88c-.65-.84-1.19-1.82-1.65-2.51a42,42,0,0,1-2.15-3.73c-.25-.49-.39-.73-.64-1.23C270.1,170.22,274.41,166.65,276.39,169.82Z" style="fill-rule:evenodd;fill:url(#linear-gradient-36)"/><path d="M265.42,165.34c0-.16-.06-.32-.1-.49-.09-.48,0-1.41-.1-2.51l4.17-1.76a17.86,17.86,0,0,0,.88,4.73c0,1.87-4.7,2.71-4.8.51A2.61,2.61,0,0,0,265.42,165.34Z" style="fill:#efb28e;fill-rule:evenodd"/><path d="M265.42,165.34c0-.16-.06-.32-.1-.49-.09-.48,0-1.41-.1-2.51l4.17-1.76c0,.53.05,1,.09,1.35.15,1.55-1.34,4.25-4,3.89A2.61,2.61,0,0,0,265.42,165.34Z" style="fill-rule:evenodd;fill:url(#linear-gradient-37)"/><path d="M265.18,165.23c.51-.33,1.91-1.18,2.37-1.52,1-.73.88-1.67,1.17-3.14a2.61,2.61,0,0,0,1.33-1.8,4.34,4.34,0,0,0-1.7-3.8,3.75,3.75,0,0,0-3.27-.67,4.36,4.36,0,0,0-3.5,4.4,1.26,1.26,0,0,0,.06.51,6.65,6.65,0,0,1,.22.77c.13.61-.28.84-.12,1.6a11.67,11.67,0,0,0,1.44,3.39A3.63,3.63,0,0,0,265.18,165.23Z" style="fill:#efb28e;fill-rule:evenodd"/><path d="M261.69,157.8a5.27,5.27,0,0,0-.11.9,1.26,1.26,0,0,0,.06.51,6.65,6.65,0,0,1,.22.77c.13.61-.28.84-.12,1.6a12.27,12.27,0,0,0,.65,1.9,2.22,2.22,0,0,0,3.09-.52,4.87,4.87,0,0,0,.31-4.84A5.92,5.92,0,0,1,261.69,157.8Z" style="fill-rule:evenodd;fill:url(#linear-gradient-38)"/><path d="M270.72,158.09a11.69,11.69,0,0,1-1.15,3.58c-.48.78-.27-.18-.53-.71s-.83-.46-1-.88c-.1.36-.22.71-.45.83s-.45.19-.46-.23c0-1.47-.74-1.57-.52-2.45.17-.66.13-.94,0-1.18-.48.07-.79.56-1.35.8a5,5,0,0,1-3.34-.31,1.81,1.81,0,0,1-.29-3,18.6,18.6,0,0,1,2-1.22,3.76,3.76,0,0,1,4.84.51C270.63,154.25,270.87,156.33,270.72,158.09Z" style="fill-rule:evenodd;fill:url(#linear-gradient-39)"/><path d="M268.41,159.33c.9-.41,1,.67.93,1.34,0,.45-.43.46-.53.82a.84.84,0,0,1-.7.69c-.57,0-.3-.84-.27-1.18C267.72,160.46,267.84,159.59,268.41,159.33Z" style="fill:#efb28e;fill-rule:evenodd"/><polygon points="268.24 209.34 288.7 208.6 288.75 240.53 254.22 260.46 254.22 217.43 268.24 209.34" style="fill:url(#linear-gradient-40)"/><polygon points="219.75 185.25 235.77 184.29 235.77 211.02 198.26 232.38 198.26 196.75 219.75 185.25" style="fill:url(#linear-gradient-41)"/><polygon points="288.56 208.39 254.08 228.3 198.53 196.49 233.01 176.58 288.56 208.39" style="fill:#dee1e8"/><path d="M261.23,203.58l.38.21.18.11.65.38a2.44,2.44,0,0,0,2.14,0l.67-.39.18-.11,2.5-1.44c.6-.35.6-.9,0-1.24l-1.2-.69c-1.58-.88-3.83.6-4.68,1.27l-.19.17-.14.11C261.14,202.47,260.45,203,261.23,203.58Z" style="fill:#c1c7ce"/><path d="M261.72,202a1.7,1.7,0,0,1,.64-.06h0a2.6,2.6,0,0,1,1,.29l.22.11.1.06a4.6,4.6,0,0,1,1.59,1.53,1.19,1.19,0,0,1,.08.16l.18-.11-.08-.16a4.65,4.65,0,0,0-1.66-1.6h0l-.2-.1a3.46,3.46,0,0,0-.92-.34,2,2,0,0,0-.59,0l-.19.17Z" style="fill:#dee1e8"/><path d="M261.54,204l.18.1a.77.77,0,0,1,.07-.16,3.83,3.83,0,0,1,1.77-1.6l.21-.12h0l-.2-.1-.22.12a3.86,3.86,0,0,0-1.73,1.6A.87.87,0,0,0,261.54,204Z" style="fill:#dee1e8"/><path d="M233.6,202.79a2.26,2.26,0,0,0,.35,1.06,4.16,4.16,0,0,0,1.53,1.42,10.12,10.12,0,0,0,9.13,0,5.89,5.89,0,0,0,.93-.68c1.53-1.44,1.22-3.34-.93-4.59a8.5,8.5,0,0,0-2.8-.95h0a8.9,8.9,0,0,0-1.46-.13h-.77a9.63,9.63,0,0,0-3.56.82c-.18.08-.35.17-.51.26A3.14,3.14,0,0,0,233.6,202.79Z" style="fill:#c1c7ce"/><path d="M237.33,199.26a10.82,10.82,0,0,1,2.22-.34h.77a8.9,8.9,0,0,1,1.46.13h0a8.5,8.5,0,0,1,2.8.95c2.15,1.25,2.46,3.15.93,4.59h-5l-1.64-1.76C238.4,201.62,237.87,200.44,237.33,199.26Z" style="fill:#e9ebee;opacity:0.25"/><path d="M257.48,207.6l-.54.3-.27-.5Z" style="fill:#9caac6"/><path d="M223.81,166.49v20.9a3.87,3.87,0,0,0,1.77,3l.15.1,29.12,16.81.82.48a1.12,1.12,0,0,0,1.45,0,1.4,1.4,0,0,0,.32-1V185.9a1.83,1.83,0,0,0-.32-1,1.87,1.87,0,0,0-.56-.56L224.69,166C224.2,165.7,223.81,165.93,223.81,166.49Z" style="fill:url(#linear-gradient-42)"/><path d="M236.2,190.07a.91.91,0,0,0,.4.71l4.17,2.4c.22.13.4,0,.4-.23v-2.82a.9.9,0,0,0-.4-.71L236.6,187c-.22-.13-.4,0-.4.23Z" style="fill:#dee1e8"/><path d="M236.37,193.06v9.14l4.14,2.39v-9.15a.61.61,0,0,0-.26-.45l-3.61-2.08C236.49,192.83,236.37,192.9,236.37,193.06Z" style="fill:#dee1e8"/><path d="M84.78,294.31,58,309.77a8.65,8.65,0,0,1-5,.92,7.68,7.68,0,0,1-3.12-.92l-1-.59L22.16,293.59c-2.23-1.28-2.23-3.37,0-4.66L49,273.45a9,9,0,0,1,8.09,0l27.74,16.18C87,290.92,87,293,84.78,294.31Z" style="fill:url(#linear-gradient-43)"/><rect x="20.49" y="277.59" width="9.52" height="13.47" style="fill:#ccd0d7"/><rect x="74.24" y="278.7" width="12.2" height="13.56" style="fill:#dee1e8"/><path d="M84.78,276c2.23,1.3,2.23,3.38,0,4.67L58,296.1a8.88,8.88,0,0,1-8.09,0L22.16,279.92c-2.23-1.29-2.23-3.37,0-4.66L49,259.79a8.94,8.94,0,0,1,8.09,0Z" style="fill:#dee1e8"/><path d="M76,303.42a4.15,4.15,0,0,0,.77,1.89,22.08,22.08,0,0,0,4.85,4.36c1,.7,1.19,1.36.19,2-.79.48-2.71.09-3.91-.2-2.25-.54-2.45-1.46-3.22-1.81l-.58.13a6,6,0,0,1-2.72-1.25,12,12,0,0,1-.29-1.75c-.06-1.91.24-1.71.75-3.2C73.61,303.69,74.29,303.36,76,303.42Z" style="fill-rule:evenodd;fill:url(#linear-gradient-44)"/><path d="M68.93,306.16a4.09,4.09,0,0,0,.37,2,21.75,21.75,0,0,0,3.85,5.27c.82.88.88,1.58-.22,2-.87.31-2.67-.47-3.79-1-2.09-1-2.1-1.92-2.78-2.43h-.59a6.16,6.16,0,0,1-2.41-1.79,14.34,14.34,0,0,1,.08-1.77c.33-1.88.58-1.62,1.39-3C66.5,305.92,67.24,305.74,68.93,306.16Z" style="fill-rule:evenodd;fill:url(#linear-gradient-45)"/><path d="M62.21,269.17a7.39,7.39,0,0,1,.5.56l.68.69h0c4,2.19,10.17,8.74,13.39,11.77a4.47,4.47,0,0,1,.55.64,2.64,2.64,0,0,1,.58,1.5c-.35,6-1.15,13.4-1.23,19.2-.86,1.54-4.31,1-5.19-.14.17-4.06-1.67-13.62.07-17a116.2,116.2,0,0,1-12-8.22h0l1-3.9.95-3.31.45-1.92.22.17Z" style="fill-rule:evenodd;fill:url(#linear-gradient-46)"/><path d="M54.9,271.75a7.39,7.39,0,0,1,.5.56l.68.69h0c4,2.19,10.17,8.74,13.39,11.77a4.47,4.47,0,0,1,.55.64,2.64,2.64,0,0,1,.58,1.5c-.35,6-1.15,13.41-1.23,19.2-.86,1.54-4.31,1-5.19-.14.17-4.05-1.67-13.62.07-17a116.2,116.2,0,0,1-12-8.22h0l1-3.9,1-3.31.45-1.92.22.17Z" style="fill-rule:evenodd;fill:url(#linear-gradient-47)"/><path d="M64.25,289c-2.46-1.11-4.3-1.74-5.87-2.64-5.05-2.88-7.16-6-7.37-8.84-.23-3.21,2-5.81,4.42-4.29a36.31,36.31,0,0,1,7.14,6.52" style="fill-rule:evenodd;fill:url(#linear-gradient-48)"/><path d="M62.52,258.7c1.92,1,5.35,4.36,7.75,5.74l.44.18a2.13,2.13,0,0,1,.57.54c.85.75,1.34,1,2.1,1.66l.77,1.88-.46,1.91a1.35,1.35,0,0,1-.77.92c-.27.06-.47.09-.62.11s-.31,0-.35,0a.18.18,0,0,1-.07-.05.44.44,0,0,1-.11-.28c-.17-.53,0-1.29-.31-2.1-.65-.42-1.48-.6-1.78-1.28-.17-.4-.14-.75-.26-1.08-1.89-1.47-8.3-3.33-9.87-4.74a1.72,1.72,0,0,1-.68-1c0-.25-.49-2.06-.54-2.49.12-2.2,2.41-.24,4.19-1.85Z" style="fill:#efb28e;fill-rule:evenodd"/><path d="M62.52,258.7c1.92,1,5.41,4.22,7.81,5.6A3.22,3.22,0,0,1,69,266.8c-1.89-1.47-7.87-3.29-9.44-4.7a1.72,1.72,0,0,1-.68-1c0-.25-.49-2.06-.54-2.49.12-2.2,2.41-.24,4.19-1.85Z" style="fill-rule:evenodd;fill:url(#linear-gradient-49)"/><path d="M54.05,252.36c.78-.35,2.54-1.55,4.27-2.33,2.15-1,4.33-1.5,5.25-1.3a4.84,4.84,0,0,1,3.72,3c.83,2-.34,4.71-.86,8.24a22.14,22.14,0,0,1-.91,3.25,21.53,21.53,0,0,0-1,8.8c-.94,2.41-5.09,5-8.74,5.4h0l-.31,0a7.18,7.18,0,0,1-2.14-.11,3.82,3.82,0,0,1-1.64-.66l-.15-.13-.12-.1a1.57,1.57,0,0,1-.27-.45,3,3,0,0,1-.24-.69c-.75-3.45-.79-11-.47-16.25C50.61,255.62,50.39,254,54.05,252.36Z" style="fill-rule:evenodd;fill:url(#linear-gradient-50)"/><path d="M63.36,273.27a2,2,0,0,0-.13,1c-1,3.92-10.76,4.25-12.18,1.59a3.71,3.71,0,0,1-.18-.56,40.77,40.77,0,0,1-.54-4.81c-.11-1.07.18-2.26-.13-3-1.07-2.62,2.13-6,1.44-8.09l3.17-4.52,1.34,2.3c.58,1.45-2.23,5.24-2.42,6.71-.22,1.74-1.1,2.7-.77,4.54C53.35,273.33,54.1,276.65,63.36,273.27Z" style="fill:#675dc6;fill-rule:evenodd;opacity:0.5"/><path d="M79.45,275.14l-8.66-5a1.8,1.8,0,0,0-1.63,0l-6.52,3.77-2.75,1.59L59,276l-3.7,2.14a.6.6,0,0,0-.25.22s0,0,0,0,0,0,0,0l0,0,0,.05h0a.53.53,0,0,0,.32.59l8.66,5a1,1,0,0,0,.82,0L78,276.46l1-.56.49-.29C79.68,275.48,79.68,275.27,79.45,275.14Z" style="fill:#fff"/><path d="M53.35,266.77c.07,0,5.54,2.61,5.64,2.67s.43.3.59.38c1.33.67,2.68,1,2.94,1.17a15.87,15.87,0,0,1,2.06,2c.21.34.39.61,1,1.69.29.52-.44.55-.52.5-.4-.24-.58-1-1.07-1.53a6.74,6.74,0,0,0-1.15-.89,9.88,9.88,0,0,1,1,1.15,6.49,6.49,0,0,1,.56,1.51c.13.47-.32.65-.45.48a16.37,16.37,0,0,1-.85-1.61c-.51-.35-.73-.59-1.3-1l.89,1.15.59,1.44c.18.52-.28.66-.52.36a10,10,0,0,1-.73-1.36c-.3-.26-.71-.73-1.12-1.16l.47,1a6,6,0,0,1,.59,1.08c.08.27-.17.52-.51.14s-.62-.81-.74-1a5.85,5.85,0,0,0-1.44-1.37c-.53-.5-1.17-1.35-1.74-1.8-.05,0-6.34-1.9-6.39-1.93Z" style="fill:#efb28e;fill-rule:evenodd"/><path d="M64.27,273.41v10.33c0,.32.13.52.35.57h.14a.72.72,0,0,0,.32-.11l2.59-1.49,1.11-.64.92-.53L72.45,280,79,276.19a1.78,1.78,0,0,0,.82-1.41V264.45c0-.26-.18-.37-.41-.24l-.49.28-1,.57-1.27.73-12,6.91A.91.91,0,0,0,64.27,273.41Z" style="fill:url(#linear-gradient-51)"/><path d="M74.44,274.72a.51.51,0,0,1-.25.42l-2.51,1.46c-.14.08-.25,0-.25-.14v-1.71a.54.54,0,0,1,.25-.43l2.51-1.45c.14-.08.25,0,.25.14Z" style="fill:#dee1e8"/><path d="M63.56,251.26c.07-.17.16-.33.24-.5.24-.5.36-1.55.8-2.71l-4.35-2-.92-.52a7.81,7.81,0,0,1-1,4.38c-.23,1.65,3,2.4,4.77,2.83C63.25,252.34,63.32,251.76,63.56,251.26Z" style="fill-rule:evenodd;fill:url(#linear-gradient-52)"/><path d="M63,252.75a11.57,11.57,0,0,0,.25-1.16c.09-.38.43-1.31.43-1.56.39.1.63,2.31,1.08,3.24A2.41,2.41,0,0,0,63,252.75Z" style="fill:#fff;fill-rule:evenodd"/><path d="M58.39,249.58c.06,1.64,2.83,2.77,4.67,3.17-.45.54-1,1.22-1,1.76-1.29-.35-3.47-1-4.35-2.6A1.6,1.6,0,0,1,58.39,249.58Z" style="fill:#fff;fill-rule:evenodd"/><path d="M63.09,250.6c-.49-.38-1.7-1.16-2.13-1.53-1-.82-.76-1.76-.94-3.26a2.67,2.67,0,0,1-1.21-1.91,4.39,4.39,0,0,1,2-3.7,3.82,3.82,0,0,1,3.35-.43c2.37.71,3.3,2.07,3.27,4.16a5.62,5.62,0,0,1-.19,1.06c-.16.4-.28.46-.36.75a1.39,1.39,0,0,0,0,.73,8.7,8.7,0,0,1-1.47,4.19A2.29,2.29,0,0,1,63.09,250.6Z" style="fill:#efb28e;fill-rule:evenodd"/><path d="M65.42,243.44c-.53-.39-2.5-1.84-3.35-2.52s-1.81-1.45-2.7-1a4.82,4.82,0,0,0-1.27,3.15,6.94,6.94,0,0,0,1.55,3.8c.34.49.57-1.27.76-1.61.12.66.3,1,.49,1s.28.17.42-.63c.2-1.21.81-1.31.67-2.15-.12-.68.29-.53.47-.76C63.35,243,64.1,243.56,65.42,243.44Z" style="fill-rule:evenodd;fill:url(#linear-gradient-53)"/><path d="M60.07,244.5c-.87-.48-1.07.6-1,1.28,0,.46.4.5.47.87a.87.87,0,0,0,.66.75c.57.08.37-.82.36-1.17C60.68,245.69,60.63,244.81,60.07,244.5Z" style="fill:#e7b38c;fill-rule:evenodd"/><path d="M59.29,240A19.08,19.08,0,0,1,61.65,242a6.47,6.47,0,0,0,4.08,1.69,2.64,2.64,0,0,0,1.69-.76C69.77,238.52,61.07,236.22,59.29,240Z" style="fill-rule:evenodd;fill:url(#linear-gradient-54)"/><path d="M57.58,271.94a3.56,3.56,0,0,0,1.51-2.51c-1.1-.8-6.69-3.75-8-3.82,1-1.74,1.81-2.53,3.08-4.78s2.28-4.46.22-6.49c-1.47-1.46-3.19-.75-4.13.91-.5.9-1,1.94-1.49,3.06-.78,1.82-1.94,4.75-2.61,6.93-.16.5-.39.9-.47,1.31-.28,1.44.46,1.82,2,2.72C49.53,270.31,56.47,271.65,57.58,271.94Z" style="fill-rule:evenodd;fill:url(#linear-gradient-55)"/><path d="M223.77,365.42l-15.53-8.84c-1.69-.77-4.12-1.39-5.84-.49-1.57.82-4.16,2.49-5.31,3.14-.87.5-3.89,2.31-2,3.33,5.54,3,11,6.39,16.62,9.44a7.84,7.84,0,0,0,4.25.65,11.07,11.07,0,0,0,4.6-1.37l2.75-1.6a3.35,3.35,0,0,0,1.93-2.32C225.29,366.6,224.81,365.9,223.77,365.42Z" style="fill:#558cc6;fill-rule:evenodd;opacity:0.5;mix-blend-mode:multiply"/><path d="M203.12,323.86c-.07.68,0,1.72,0,4.27,0,1.8.2,4.95.39,7.66.08,1.12.24,2.11.34,3,.07.63.35,1.25.44,1.87.68,4.63,1.56,8.84,2.09,14.44a10,10,0,0,1,0,3.23c0,.25-.17.5-.2.75a12,12,0,0,1-.76,3.49c-.07.15-.18.54-.27.71,0,0,1.11.38,1.24.4s1.92-.48,1.92-.48.67-3,.66-3.15c-.12-1.95,1.23-1.59,0-3.07-.11-.18-.08-.2-.08-.42,0-1.92.34-4.72.59-7.23.7-7.16-.49-6.64-.76-10.06.49-4.12,1.49-10,1.38-15Z" style="fill-rule:evenodd;fill:url(#linear-gradient-56)"/><path d="M205.66,362c-.19.35-.39.85-.57,1.23a7.39,7.39,0,0,0-.45,1.2.54.54,0,0,0,0,.48c.43.58,2.59-.47,3.31-1.11a2.22,2.22,0,0,0,.59-1.5c.16-.89.19-1,.41-1.91l.24,2.49.2.13a30.81,30.81,0,0,1,.31-3.23c.07-.35.17-.74.19-.93a2,2,0,0,0-1-2c.19.69-.31,1.81-.53,3.21s-1.06,3.09-1.7,3.22c-.27.06-.86-.28-1.19-.46C205.4,362.75,205.54,362.33,205.66,362Z" style="fill:#2d3680;fill-rule:evenodd"/><path d="M211.86,321.71c.73,2.37,2.19,4.55,2.47,6.42a22.07,22.07,0,0,1-.23,6.46c-.24,1.91-1.21,6.22-1,7.85.3,2.39,1.17,3.81,1.46,6.61a78.91,78.91,0,0,1-.25,8.65,5.38,5.38,0,0,0,.34,2.28,7.85,7.85,0,0,1,.21,1.11,16.52,16.52,0,0,1,.07,3.38c0,.48-.21.7-.26,1.36l-2.65.84c.06-.56.14-1.42.18-2.38s0-1.77,0-2.61a16,16,0,0,0-.1-3.11c-.72-3.81-1.82-7.16-2.57-10.29-.39-1.63-.51-3.08-1.08-5.42A15.73,15.73,0,0,1,208,340c-.15-2.6-.65-5.72-.66-8.39-2.15-3.11-3.55-4.64-4.13-6.27a7.2,7.2,0,0,1,.26-2.32Z" style="fill-rule:evenodd;fill:url(#linear-gradient-57)"/><path d="M214.39,359.06a5.11,5.11,0,0,1,.57,1.54c.12.74-.07,1.95.08,2.88l.24,1.46a2.29,2.29,0,0,1-.89,2.3c-.79.76-1.62,1.13-2.11,1s-.72-.69-.4-2.35a29.87,29.87,0,0,0,.32-4.18,14.44,14.44,0,0,1,0,3.35c0,.4-.07,1.05.4,1.05,1.94,0,2-.5,2.05-1.1A19,19,0,0,0,214.39,359.06Z" style="fill:#2d3680;fill-rule:evenodd"/><path d="M211.86,321.71c.73,2.37,2.19,4.55,2.47,6.42.43,2.8-.06,5-.82,11.12a6.84,6.84,0,0,0,.16,2.24c.46,2.12-1.63,2.72-4.11,1.93-3-1-5.83-3.22-6-4.27-.34-3-1.18-8.63-1.13-11.18a15.54,15.54,0,0,1,.7-4.11l0-.65C203.23,322.68,210.78,321.87,211.86,321.71Z" style="fill-rule:evenodd;fill:url(#linear-gradient-58)"/><path d="M217.23,309.24c-5.56,3-7.89-2.73-8.46-7-.25-1.86-.18-3.63.62-4.74a4.18,4.18,0,0,1,3.64-1.59c3,.12,4.62,3,3.89,5.95S214.82,307.89,217.23,309.24Z" style="fill-rule:evenodd;fill:url(#linear-gradient-59)"/><path d="M209.88,297.59c1.52-.78,3.7,1,3,3.36A4.23,4.23,0,0,0,209.88,297.59Z" style="fill:#fff;fill-rule:evenodd"/><path d="M210.06,297.38c-5.33-1.76-9.14,6.47-3,9C212.86,308.85,216,299.34,210.06,297.38Z" style="fill-rule:evenodd;fill:url(#linear-gradient-60)"/><path d="M189.17,312.17c-.32.46.28.77.55.79s1-.16,1.18.12,2.17-.34,2.15-.36a3.6,3.6,0,0,0-1.71-.72C190.06,312.08,190.44,312.37,189.17,312.17Z" style="fill-rule:evenodd;fill:url(#linear-gradient-61)"/><path d="M192.77,314.58c1.83.52,4.34,2.31,6.08,2.71.56.12,1.42.36,1.85-.1,2.25-2.43-.88-1.63-1.14-2.55-1.6-1.19-4.1-.63-6.14-1.73a3.37,3.37,0,0,0-.4-.23c-.8-.4-1.25-.37-2.64.33a1.67,1.67,0,0,1-1,.17L188,313c-.43,0-.71.08-.77.22a2.45,2.45,0,0,0,.33,1.39h0c.05.16.37.28.87.29l2.05.63.09-.06C191.8,314.79,192.32,314.56,192.77,314.58Z" style="fill:#efb28e;fill-rule:evenodd"/><path d="M201.49,317.4c1.65-1.54,4-3.78,4.84-5.56.54-1.15.64-4.38-1.12-4.79-.58-.37-1.48,2-2.08,3a42,42,0,0,1-3.18,4.43c-1.36-.88-3.23-1-5-1.41a1.72,1.72,0,0,0-.81,0,2.61,2.61,0,0,1-.61-.22,2.58,2.58,0,0,0-.75,1.88c.14,0,.45.13.59.19s.33.27.54.38a31.34,31.34,0,0,0,5.43,2.3c.6.14,1.56.45,2-.06Z" style="fill-rule:evenodd;fill:url(#linear-gradient-62)"/><path d="M201.49,317.4c.54-.51,1.17-1.1,1.79-1.72a3.42,3.42,0,0,1-.34-4.39,11.61,11.61,0,0,0,1.15-2,8,8,0,0,1,.26-1.16,2,2,0,0,1,.19-.46,16.67,16.67,0,0,0-.87,1.94c-.75,1.6-1.9,2.53-2,4.41a5.18,5.18,0,0,1-1.73,3.75,1.48,1.48,0,0,0,1.42-.2Z" style="fill:#ff5b35;fill-rule:evenodd"/><path d="M213,319.25c-1,2.36.71,3.66.09,5.29l.19,1.1c-1.86,1.33-8.51,1.43-10.18-1.21l0-1.32a6.45,6.45,0,0,1,0-2.66,29.67,29.67,0,0,0,.29-3.6c0-.39.11-.64.15-1a3.37,3.37,0,0,1-.51-4.53,11.61,11.61,0,0,0,1.15-2,8,8,0,0,1,.26-1.16,1.9,1.9,0,0,1,.31-.64c.42-.6,1.1-.67,2.5-.35a15.14,15.14,0,0,1,6.89,3.42c.92,1,.88,2.08.35,4.44A25.06,25.06,0,0,1,213,319.25Z" style="fill-rule:evenodd;fill:url(#linear-gradient-63)"/><path d="M213,319.24c-1,2.36.67,3.7.05,5.33l.19,1.08c-1.86,1.45-8.51,1.38-10.18-1.27l0-1.15s3.27,2.9,7,1.26c.81-.35,1.54-2.12.49-5.49-.1-.33-1.28-.35-3-1.58,1.24.52,3.57,1.24,3.69-1.91a5.76,5.76,0,0,1,1-3.45c.35-.47,2.4,2,2.09,3.21A30.63,30.63,0,0,1,213,319.24Z" style="fill:#ff5b35;fill-rule:evenodd"/><path d="M205.89,308.25a19.8,19.8,0,0,0,0,5.46c1.14-1.36,5.32-3.44,4.82-4.61C210.14,307.77,206.24,307.09,205.89,308.25Z" style="fill:#efb28e;fill-rule:evenodd"/><path d="M209.7,305.13a7.31,7.31,0,0,0,.28,3.56,2.21,2.21,0,0,1-3.18-.31c.09-.54.19-1,.24-1.59Z" style="fill:#efb28e;fill-rule:evenodd"/><path d="M209.7,305.13a6.68,6.68,0,0,0-.08,1.72c-.3,1.18-2.51,2-2.74,1,.06-.36.12-.72.16-1.1Z" style="fill-rule:evenodd;fill:url(#linear-gradient-64)"/><path d="M205.58,300a4,4,0,0,0-.64,2.7,1.08,1.08,0,0,1-.1.65,2.58,2.58,0,0,0-.19,2.22c.23.81.21,1.24.49,1.52a1.61,1.61,0,0,0,1.08.38,6.4,6.4,0,0,0,2.76-.85c.55-.3.53-.51.76-1,.78-.68.28-1.17,0-1.22-.75-.15-.87.71-1.31.91C208.52,303.74,205.64,301.19,205.58,300Z" style="fill-rule:evenodd;fill:url(#linear-gradient-65)"/><path d="M205.25,300.58a3.91,3.91,0,0,0-.31,2.1,1.08,1.08,0,0,1-.1.65,2.58,2.58,0,0,0-.19,2.22c.1.36.15.65.21.88a.69.69,0,0,0,.87.25,1.33,1.33,0,0,0,.69-1.12c.05-.43,1-.72,1.13-1.16s-.26-.78-.51-1A6.24,6.24,0,0,1,205.25,300.58Z" style="fill:#efb28e;fill-rule:evenodd"/><path d="M205.58,300c.42,1.85,2.85,3.26,2.87,5.28C207.78,303.16,205.43,301.73,205.58,300Z" style="fill:#ea9b6e;fill-rule:evenodd"/><path d="M214.17,324c-.33.2-.93.4-1.17.54s-1,.63-1.52,1a3.54,3.54,0,0,0-1,1.47,3.48,3.48,0,0,0-.36,1.05c0,.25.59.72.85.66.6-.13,1.22-.87,1.37-.95,1.35-.7,2-.77,2.48-1.32.21-.24.34-.94.76-1.56l-.82-.75Z" style="fill-rule:evenodd;fill:url(#linear-gradient-66)"/><path d="M214.17,310.51c2.18.91,4.05,5.18,6,7.72a1.2,1.2,0,0,1,.19,1.37,4,4,0,0,1-.39.7,18,18,0,0,1-3.72,4.27,1.14,1.14,0,0,1-.52.24c-.12.11-.3.3-.43.41.16-.22-.84-1.3-1.29-1.23.12-.14.24-.3.36-.46a.63.63,0,0,1,.13-.43,38,38,0,0,1,2.69-4A25.85,25.85,0,0,1,213,315C210.92,312.48,212.51,309.82,214.17,310.51Z" style="fill-rule:evenodd;fill:url(#linear-gradient-67)"/><polygon points="267.09 398.86 267.09 399.57 267.57 399.84 267.57 399.13 267.09 398.86" style="fill:#d5dbe5"/><path d="M286,398.23a.44.44,0,0,0,.43-.44v-2.42c.06-17.42.25-70.4-14.67-79.47a.42.42,0,0,0-.59.15.42.42,0,0,0,.14.59c9.62,5.85,14.42,32.34,14.25,78.72v2.43A.44.44,0,0,0,286,398.23Z" style="fill:#ccd0d7"/><polygon points="241.59 402.07 275.99 421.93 277.72 420.92 243.32 401.06 241.59 402.07" style="fill:#d4d8e0"/><polygon points="243.57 401.22 277.45 420.78 287.02 324.43 253.14 304.87 243.57 401.22" style="fill:#d4d8e0"/><path d="M192.12,358.82l7.63-4.4,31,17.89c6.13,3.54,6.13,9.28,0,12.82l-2.11,1.22-15.18,3.23-21.32-9.91Z" style="fill:url(#linear-gradient-68)"/><path d="M229.84,352.39l.07,33.25-6.34,4.76a27.33,27.33,0,0,1-27.31,0l-3.43-2L181.71,382a7.43,7.43,0,0,1-3.71-6.42v-36.2h1.12Z" style="fill:url(#linear-gradient-69)"/><path d="M182.08,332.19a8.29,8.29,0,0,0,0,14.35l14.55,8.4a28.17,28.17,0,0,0,28.18,0l4.77-2.75-41.07-23.72Z" style="fill:#dee1e8"/><polygon points="202.17 352.77 209.85 357.2 219.79 351.47 212.11 347.03 202.17 352.77" style="fill:#fff"/><polygon points="192.49 347.1 200.17 351.53 210.11 345.8 202.43 341.36 192.49 347.1" style="fill:#fff"/><polygon points="182.27 341.43 189.95 345.86 199.89 340.12 192.21 335.69 182.27 341.43" style="fill:#fff"/><path d="M14.13,114.31c.29.12.78-.16,1.08-.63l5.93-9.36c.12-.19.12-.38,0-.43a.21.21,0,0,0-.17,0l-.18.09L8.54,111.06l-.18.12a.59.59,0,0,0-.25.5.14.14,0,0,0,.08.12Z" style="fill:url(#linear-gradient-70)"/><path d="M22,104.44a.22.22,0,0,0-.12.1l-3.8,6c-.06.09-.06.19,0,.22l3.09,1.3c.18.07.19.36,0,.65s-.47.45-.65.38h0l-3.09-1.31c-.06,0-.16,0-.22.13h0l-1.3,2c-.66,1-1.72,1.66-2.38,1.38l-1.31-.55c-.06,0-.15,0-.21.13l-3.09,4.87c-.19.28-.48.44-.65.36s-.18-.36,0-.64l3.09-4.87c.06-.09.06-.19,0-.22l-3.8-1.6s-.08,0-.13,0a.24.24,0,0,0-.06.15v7.35c0,.67.54.91,1.22.52l12.25-7.08A2.53,2.53,0,0,0,22,111.86v-7.35A.06.06,0,0,0,22,104.44Z" style="fill:url(#linear-gradient-71)"/><path d="M32,83c.6-.94,1.57-1.5,2.17-1.25l.23.1A65,65,0,0,0,38,76.2l-.24-.09c-.59-.26-.59-1.23,0-2.17l1.3-2c.6-1,1.57-1.51,2.17-1.25l.71.3c.72.31.83,1.37.28,2.54a65.8,65.8,0,0,1-8.06,12.7c-.85,1-2,1.58-2.69,1.29l-.72-.3c-.6-.26-.6-1.23,0-2.17Z" style="fill:url(#linear-gradient-72)"/><path d="M35.47,71.05c.34-.2.62-.08.62.26a1.27,1.27,0,0,1-.62,1C31.92,74.33,29,78.87,29,82.42a1.27,1.27,0,0,1-.61,1c-.34.19-.62.08-.62-.26C27.82,78.9,31.25,73.49,35.47,71.05Z" style="fill:url(#linear-gradient-73)"/><path d="M35.47,74.72c-2.19,1.28-4,4.09-4,6.29a1.26,1.26,0,0,1-.61,1c-.34.2-.61.08-.61-.26,0-2.87,2.33-6.55,5.2-8.21.34-.2.62-.08.62.26A1.25,1.25,0,0,1,35.47,74.72Z" style="fill:url(#linear-gradient-74)"/><path d="M35.47,77.17a3.19,3.19,0,0,0-1.53,2.42,1.27,1.27,0,0,1-.61,1c-.34.19-.61.08-.61-.26A5.72,5.72,0,0,1,35.47,76c.34-.2.62-.08.62.26A1.25,1.25,0,0,1,35.47,77.17Z" style="fill:url(#linear-gradient-75)"/><path d="M68.51,76.8,55.73,84.18a2,2,0,0,0-1,1.51v8.67c0,.51.42.68.94.38h0l1.92-1.11v2.56c0,.17.14.24.32.13a.65.65,0,0,0,.18-.16L62.22,91l6.29-3.63a2,2,0,0,0,1-1.52V77.2C69.47,76.67,69,76.49,68.51,76.8ZM58.29,88.46c.53-.31,1-.13,1,.4a2,2,0,0,1-1,1.51c-.53.31-1,.13-1-.4A2,2,0,0,1,58.29,88.46Zm-1-1.37a2,2,0,0,1,1-1.51c.53-.31,1-.12,1,.41a2,2,0,0,1-1,1.51C57.76,87.8,57.33,87.62,57.33,87.09Zm3.67.76a1,1,0,0,1,.48-.76l5.12-3c.26-.15.48-.06.48.2a1,1,0,0,1-.48.76l-5.12,3C61.22,88.2,61,88.11,61,87.85Zm5.6-5.63-5.12,3c-.26.16-.48.07-.48-.2a1,1,0,0,1,.48-.76l5.12-2.95c.26-.15.48-.06.48.2A1,1,0,0,1,66.6,82.22Z" style="fill:url(#linear-gradient-76)"/><path d="M36,258.06c.3.13.78-.15,1.08-.62L43,248.08c.12-.19.12-.39,0-.44a.28.28,0,0,0-.18,0l-.17.09-12.25,7.08-.18.11a.59.59,0,0,0-.26.5.14.14,0,0,0,.09.12Z" style="fill:url(#linear-gradient-77)"/><path d="M43.82,248.2a.17.17,0,0,0-.13.09l-3.8,6c-.06.1-.06.2,0,.22L43,255.81c.19.07.19.36,0,.64s-.47.46-.65.39h0l-3.09-1.3c-.05,0-.15,0-.21.12h0l-1.31,2.06c-.65,1-1.72,1.65-2.38,1.37l-1.3-.55c-.06,0-.16,0-.22.13l-3.09,4.87c-.18.28-.47.45-.65.37s-.17-.36,0-.64l3.09-4.88c.06-.09.06-.19,0-.21l-3.8-1.61a.14.14,0,0,0-.12.05.23.23,0,0,0-.07.14v7.35c0,.68.55.91,1.23.52l12.25-7.07a2.53,2.53,0,0,0,1.22-1.94v-7.35S43.86,248.19,43.82,248.2Z" style="fill:url(#linear-gradient-78)"/><path d="M53.87,226.71c.59-1,1.56-1.51,2.16-1.26l.24.1A64.74,64.74,0,0,0,59.81,220l-.23-.1c-.6-.26-.6-1.22,0-2.17l1.3-2.05c.6-.94,1.57-1.5,2.16-1.25l.72.3c.71.31.83,1.37.27,2.54A66.12,66.12,0,0,1,56,229.94c-.86,1-2,1.57-2.7,1.28l-.71-.3c-.6-.25-.6-1.22,0-2.17Z" style="fill:url(#linear-gradient-79)"/><path d="M57.34,214.8c.34-.19.61-.08.61.26a1.27,1.27,0,0,1-.61,1c-3.55,2.05-6.43,6.59-6.44,10.15a1.26,1.26,0,0,1-.61,1c-.34.2-.61.08-.61-.26C49.68,222.65,53.11,217.25,57.34,214.8Z" style="fill:url(#linear-gradient-80)"/><path d="M57.34,218.48a8.29,8.29,0,0,0-4,6.28,1.27,1.27,0,0,1-.61,1c-.34.19-.61.08-.61-.26,0-2.88,2.33-6.55,5.21-8.22.34-.19.61-.08.61.26A1.27,1.27,0,0,1,57.34,218.48Z" style="fill:url(#linear-gradient-81)"/><path d="M57.34,220.93a3.17,3.17,0,0,0-1.53,2.42,1.27,1.27,0,0,1-.62,1c-.34.2-.61.08-.61-.26a5.74,5.74,0,0,1,2.76-4.35c.34-.19.61-.08.61.26A1.27,1.27,0,0,1,57.34,220.93Z" style="fill:url(#linear-gradient-82)"/><path d="M90.38,220.55l-12.79,7.38a2,2,0,0,0-1,1.52v8.66c0,.51.43.68.94.38h0l1.92-1.11v2.56c0,.18.14.24.32.14a.69.69,0,0,0,.18-.16l4.08-5.18,6.29-3.63a2,2,0,0,0,1-1.51V221C91.34,220.43,90.91,220.25,90.38,220.55ZM80.15,232.21c.53-.3,1-.12,1,.41a2,2,0,0,1-1,1.51c-.53.3-1,.12-1-.41A2,2,0,0,1,80.15,232.21Zm-1-1.36a2,2,0,0,1,1-1.52c.53-.3,1-.12,1,.41a2,2,0,0,1-1,1.51C79.62,231.56,79.19,231.38,79.19,230.85Zm3.68.75a1,1,0,0,1,.48-.76l5.11-3c.27-.15.48-.06.48.2a1,1,0,0,1-.48.76l-5.11,3C83.08,232,82.87,231.87,82.87,231.6ZM88.46,226l-5.11,3c-.27.15-.48.06-.48-.21a1,1,0,0,1,.48-.75L88.46,225c.27-.16.48-.07.48.2A1,1,0,0,1,88.46,226Z" style="fill:url(#linear-gradient-83)"/><path d="M293.16,173.38c-.3.12-.79-.16-1.09-.63l-5.93-9.36c-.12-.19-.12-.38,0-.43a.21.21,0,0,1,.17,0l.18.09,12.25,7.07.18.12a.62.62,0,0,1,.26.49.16.16,0,0,1-.09.13Z" style="fill:url(#linear-gradient-84)"/><path d="M285.33,163.51a.22.22,0,0,1,.12.1l3.8,6c.06.09.06.19,0,.22l-3.09,1.3c-.18.07-.19.36,0,.65s.47.45.65.38h0l3.09-1.31c.06,0,.16,0,.22.13h0l1.3,2.05c.66,1,1.72,1.66,2.38,1.38l1.31-.55c.06,0,.16,0,.22.13l3.08,4.87c.19.28.48.44.65.36s.18-.36,0-.64L296,173.7c-.05-.09-.05-.19,0-.22l3.8-1.6s.08,0,.13,0a.24.24,0,0,1,.06.15v7.35c0,.67-.54.91-1.22.52l-12.25-7.08a2.53,2.53,0,0,1-1.23-1.93v-7.35A.06.06,0,0,1,285.33,163.51Z" style="fill:url(#linear-gradient-85)"/><path d="M275.28,142c-.6-.94-1.57-1.5-2.17-1.25l-.23.1a65,65,0,0,1-3.55-5.6l.24-.09c.59-.26.59-1.23,0-2.17l-1.3-2c-.6-1-1.57-1.51-2.17-1.25l-.71.3c-.72.31-.83,1.37-.27,2.54a65.27,65.27,0,0,0,8.05,12.7c.85,1,2,1.58,2.69,1.29l.72-.3c.6-.26.6-1.23,0-2.17Z" style="fill:url(#linear-gradient-86)"/><path d="M271.81,130.12c-.34-.2-.62-.08-.62.26a1.27,1.27,0,0,0,.62,1c3.55,2.06,6.43,6.6,6.43,10.15a1.27,1.27,0,0,0,.61,1c.34.19.62.08.62-.26C279.46,138,276,132.56,271.81,130.12Z" style="fill:url(#linear-gradient-87)"/><path d="M271.81,133.79a8.28,8.28,0,0,1,4,6.29,1.26,1.26,0,0,0,.61,1c.34.2.61.08.61-.26,0-2.87-2.33-6.55-5.2-8.21-.34-.2-.62-.08-.62.26A1.25,1.25,0,0,0,271.81,133.79Z" style="fill:url(#linear-gradient-88)"/><path d="M271.81,136.24a3.19,3.19,0,0,1,1.53,2.42,1.27,1.27,0,0,0,.61,1c.34.19.61.08.61-.26a5.72,5.72,0,0,0-2.75-4.35c-.34-.2-.62-.08-.62.26A1.25,1.25,0,0,0,271.81,136.24Z" style="fill:url(#linear-gradient-89)"/><path d="M237.81,136.27v8.63a2,2,0,0,0,1,1.52l6.29,3.63,4.07,5.17a.65.65,0,0,0,.18.16c.18.1.32,0,.32-.13v-2.56l1.92,1.11h0c.52.3.94.13.94-.38v-8.67a2,2,0,0,0-1-1.51l-12.78-7.38C238.24,135.56,237.81,135.74,237.81,136.27ZM250,149c0,.53-.43.71-1,.4a2,2,0,0,1-1-1.51c0-.53.42-.71,1-.4A2,2,0,0,1,250,149Zm-1-2.47a2,2,0,0,1-1-1.52c0-.52.42-.71,1-.4a2,2,0,0,1,1,1.51C250,146.69,249.52,146.87,249,146.57Zm-3.19.55-5.12-3a1,1,0,0,1-.48-.76c0-.26.22-.36.48-.2l5.12,2.95a1,1,0,0,1,.48.76C246.28,147.18,246.06,147.27,245.8,147.12Zm-5.6-6.59c0-.26.22-.35.48-.2l5.12,2.95a1,1,0,0,1,.48.76c0,.26-.22.36-.48.2l-5.12-3A1,1,0,0,1,240.2,140.53Z" style="fill:url(#linear-gradient-90)"/><path d="M238,316.75c-.3.13-.78-.15-1.08-.62L231,306.77c-.12-.19-.12-.39,0-.44a.24.24,0,0,1,.18,0l.17.08,12.25,7.08.18.11a.59.59,0,0,1,.26.5.14.14,0,0,1-.09.12Z" style="fill:url(#linear-gradient-91)"/><path d="M230.16,306.89a.2.2,0,0,1,.13.09l3.8,6c.06.1.06.2,0,.22L231,314.5c-.19.07-.19.36,0,.64s.47.46.65.39h0l3.09-1.3c.06,0,.15,0,.21.12h0l1.31,2.06c.65,1,1.72,1.65,2.38,1.37l1.3-.54c.06,0,.16,0,.22.12l3.09,4.87c.18.29.47.45.65.37s.17-.36,0-.64l-3.09-4.87c-.06-.1-.06-.2,0-.22l3.8-1.61a.14.14,0,0,1,.12.05.23.23,0,0,1,.07.14v7.35c0,.68-.55.91-1.23.52l-12.25-7.07a2.53,2.53,0,0,1-1.22-1.94V307S230.12,306.88,230.16,306.89Z" style="fill:url(#linear-gradient-92)"/><path d="M220.11,285.4c-.59-.95-1.56-1.51-2.16-1.25l-.24.1c-1.28-1.82-2.47-3.7-3.54-5.6l.23-.1c.6-.25.6-1.22,0-2.17l-1.3-2.05c-.6-.94-1.57-1.5-2.16-1.25l-.72.3c-.71.31-.83,1.37-.27,2.54A66.12,66.12,0,0,0,218,288.63c.86,1,2,1.57,2.7,1.28l.71-.3c.6-.25.6-1.22,0-2.16Z" style="fill:url(#linear-gradient-93)"/><path d="M216.64,273.49c-.34-.19-.61-.08-.61.26a1.27,1.27,0,0,0,.61,1c3.55,2,6.43,6.59,6.44,10.15a1.26,1.26,0,0,0,.61,1c.34.2.61.08.61-.26C224.3,281.34,220.87,275.94,216.64,273.49Z" style="fill:url(#linear-gradient-94)"/><path d="M216.64,277.17a8.29,8.29,0,0,1,4,6.28,1.27,1.27,0,0,0,.61,1c.34.19.61.08.61-.26,0-2.88-2.33-6.55-5.21-8.22-.34-.19-.61-.08-.61.26A1.27,1.27,0,0,0,216.64,277.17Z" style="fill:url(#linear-gradient-95)"/><path d="M216.64,279.62a3.17,3.17,0,0,1,1.53,2.42,1.27,1.27,0,0,0,.62,1c.34.2.61.08.61-.26a5.74,5.74,0,0,0-2.76-4.35c-.34-.19-.61-.08-.61.26A1.27,1.27,0,0,0,216.64,279.62Z" style="fill:url(#linear-gradient-96)"/><path d="M182.64,279.65v8.63a2,2,0,0,0,1,1.51l6.29,3.63L194,298.6a.9.9,0,0,0,.18.16c.18.1.32,0,.32-.14v-2.55l1.92,1.1h0c.51.31.93.13.94-.38v-8.66a2,2,0,0,0-1-1.52l-12.79-7.38C183.07,278.94,182.64,279.12,182.64,279.65Zm12.15,12.76c0,.53-.43.72-1,.41a2,2,0,0,1-1-1.51c0-.53.43-.71,1-.41A2,2,0,0,1,194.79,292.41Zm-1-2.47a2,2,0,0,1-1-1.51c0-.53.43-.71,1-.4a2,2,0,0,1,1,1.51C194.79,290.07,194.36,290.25,193.83,289.94Zm-3.2.55-5.11-2.95a1,1,0,0,1-.48-.75c0-.27.21-.36.48-.21l5.11,3a1,1,0,0,1,.48.75C191.11,290.56,190.9,290.65,190.63,290.49ZM185,283.91c0-.27.21-.36.48-.2l5.11,3a1,1,0,0,1,.48.76c0,.26-.21.35-.48.2l-5.11-2.95A1,1,0,0,1,185,283.91Z" style="fill:url(#linear-gradient-97)"/><path d="M148.24,428.16a33,33,0,0,0-6.65-2.49c-.21-.06-1.68-.43-1.88-.5s-.6-.25-.69-.3a3.57,3.57,0,0,1-1,2.43l.75.37c.16.09.39.55.51.69,1.22,1.4,5.11,3.53,8.18,4.7h0a2.1,2.1,0,0,0,2.42-.5c.35-.24.68-.5.91-.65,1.74-1.14,5-5.23,7.53-11.73a7.76,7.76,0,0,0-2.11-1.23,2.78,2.78,0,0,0-2.64.36,9.24,9.24,0,0,0-2.37,3.93,34.44,34.44,0,0,1-2.95,4.81Z" style="fill-rule:evenodd;fill:url(#linear-gradient-98)"/><path d="M149.93,432.57c.35-.24.68-.5.91-.65,1.74-1.14,5-5.23,7.53-11.73-2.57-2.95-6.13.58-7.08,3.2a57.11,57.11,0,0,0-3,9.86A1.73,1.73,0,0,0,149.93,432.57Z" style="fill:#263746;fill-rule:evenodd;opacity:0.25"/><path d="M137.09,423.53l-.45-.75a.38.38,0,0,0-.45-.14c-.61.33-.46,1.49.35,2.11-1,0-1.3.26-1.35.7-.07.68.06,3.23.5,3.41a4.71,4.71,0,0,0,2.47,0c.25-.21,0-.38.31-.73.11-.11.58-.12.93-.4a2.41,2.41,0,0,0,.25-2.33,1.71,1.71,0,0,0-.21-.95C138.87,423.61,137.66,424.47,137.09,423.53Z" style="fill:#efb28e;fill-rule:evenodd"/><path d="M137.32,425.37c-.24.06-.18.14-.5.17a1.86,1.86,0,0,0,.68.32c.36-.12.5-.14.64.08a4.76,4.76,0,0,1,.23,2.38c.14-.35,1-.28,1.26-.83s.29-1.65,0-1.88a.9.9,0,0,1-.9.35C138.21,425.85,137.47,425.34,137.32,425.37Z" style="fill-rule:evenodd;fill:url(#linear-gradient-99)"/><path d="M166.08,477.36a6.28,6.28,0,0,0,.18,1,10.32,10.32,0,0,1,.49,1.53c.26,1.07-.09,2.51.25,4a1.64,1.64,0,0,1-.24,1.62,2.81,2.81,0,0,1-2.11,1.34,1.47,1.47,0,0,1-1-.5,2.44,2.44,0,0,1-.61-1.8,14.67,14.67,0,0,0,.16-2.06c0-.75-.16-1.15-.14-2s.08-2,.09-2.6Z" style="fill-rule:evenodd;fill:url(#linear-gradient-100)"/><path d="M157.52,473a5.1,5.1,0,0,1,.48,2.15c-.17.56-.57.79-1,1.18l-.31.07c-.77.41-1.05,1.88-1.77,2.54a5.5,5.5,0,0,1-2.51.92c-1.06.21-2.07-.1-1.8-.94.69-2.08,3.67-4.43,3.74-6.75Z" style="fill-rule:evenodd;fill:url(#linear-gradient-101)"/><path d="M153.05,458.11c.08,4,.95,11.45.81,15.38a2.61,2.61,0,0,0,3.72-.34c.42-3.61.9-8.75.95-10.73a15.48,15.48,0,0,0-.53-4.66c.59-4.36,3.11-10.31,2.51-14.42-.26-1.8-1.45-3.74-1.79-5.23-3,3.66-5.24,1.9-6.47,1.59,0,1.26-.09,1.09,0,2.42.13,4.5.34,9.3.59,14A6.19,6.19,0,0,0,153.05,458.11Z" style="fill-rule:evenodd;fill:url(#linear-gradient-102)"/><path d="M158.27,466.2c.14-1.57.24-2.94.26-3.78a15.48,15.48,0,0,0-.53-4.66c.59-4.36,3.11-10.31,2.51-14.42-.26-1.8-1.45-3.74-1.79-5.23-3,3.66-5.24,1.9-6.47,1.59v.37l3.9,2.88-1-.22c0,5.18.68,9.91.77,15a75.41,75.41,0,0,1,2.29,8.36Z" style="fill:#131719;fill-rule:evenodd;opacity:0.5"/><path d="M159.67,461c.72,4,2.81,13.67,3.3,17.6,1.29.71,3.18.46,3.64-.58,0-3.62,0-10.12-.27-12.11a25.09,25.09,0,0,0-1.47-5.68c.26-9.32,1-11.92-.21-16-.55-1.8-2-3.54-2.58-5-.8,1.23-2,3-4.66,2.75-.26,0-2.46-1.59-3.19-1.77.92,5.54,3.58,12.78,4.87,18.83A6.77,6.77,0,0,0,159.67,461Z" style="fill-rule:evenodd;fill:url(#linear-gradient-103)"/><path d="M155.56,418.52a2.11,2.11,0,0,0-.82.28c-2,1.09-2.65,4.29-3,7.1a41.45,41.45,0,0,0,0,6.69c.06,1.77-.17,3.42-.09,5.1,0,.5.21,1,.26,1.57a2.38,2.38,0,0,1,.13,1.05c1,3.75,10.27,4.06,11.62,1.52a6.51,6.51,0,0,1-.24-1.13c.87-.8.37-2.74.51-4.09a10.85,10.85,0,0,1,.55-2.8c1.26-3.11,3-5.5,3.37-7.89.24-1.65-1.86-3.69-4.63-5.35S157,418.1,155.56,418.52Z" style="fill-rule:evenodd;fill:url(#linear-gradient-104)"/><path d="M152,439.35a1.85,1.85,0,0,1,.12,1c1,3.75,10.27,4.06,11.62,1.52a6.51,6.51,0,0,1-.24-1.13c.87-.8.37-2.74.51-4.09a10.85,10.85,0,0,1,.55-2.8c1-2.51,2.36-4.55,3-6.5l-1.32-1.21-2.66-.81a17,17,0,0,0-1,4.17c-.24,1.74-.33,3.49-.65,5.24C161.52,439.41,160.8,442.58,152,439.35Z" style="fill:#263746;fill-rule:evenodd"/><path d="M156.9,420.34c0-.15-.06-.3-.1-.46-.09-.46,0-1.35-.09-2.4l4-1.68a17.15,17.15,0,0,0,.85,4.51c-.05,1.79-4.49,2.59-4.58.49A3.41,3.41,0,0,0,156.9,420.34Z" style="fill:#efb28e;fill-rule:evenodd"/><path d="M156.9,420.34c0-.15-.06-.3-.1-.46-.09-.46,0-1.35-.09-2.4l4-1.68c0,.51,0,.92.09,1.29.14,1.47-1.27,4.05-3.82,3.71A3.41,3.41,0,0,0,156.9,420.34Z" style="fill-rule:evenodd;fill:url(#linear-gradient-105)"/><path d="M156.67,420.24c.49-.32,1.82-1.13,2.26-1.45,1-.71.84-1.6,1.12-3a2.53,2.53,0,0,0,1.27-1.72,4.15,4.15,0,0,0-1.62-3.63,3.65,3.65,0,0,0-3.13-.64,4.17,4.17,0,0,0-3.34,4.2,1.35,1.35,0,0,0,.06.49,4.39,4.39,0,0,1,.21.74c.13.58-.27.79-.11,1.52a10.75,10.75,0,0,0,1.37,3.24A3.5,3.5,0,0,0,156.67,420.24Z" style="fill:#efb28e;fill-rule:evenodd"/><path d="M153.34,413.14a6.13,6.13,0,0,0-.11.86,1.35,1.35,0,0,0,.06.49,4.39,4.39,0,0,1,.21.74c.13.58-.27.79-.11,1.52a12.12,12.12,0,0,0,.61,1.82,2.12,2.12,0,0,0,2.95-.5,4.66,4.66,0,0,0,.3-4.62A5.67,5.67,0,0,1,153.34,413.14Z" style="fill-rule:evenodd;fill:url(#linear-gradient-106)"/><path d="M162,413.43a11.32,11.32,0,0,1-1.1,3.41c-.46.74-.26-.17-.5-.68s-.8-.44-1-.84a1.28,1.28,0,0,1-.43.8c-.14.07-.43.18-.44-.23,0-1.4-.7-1.49-.49-2.33.15-.63.12-.9,0-1.13-.45.07-.75.53-1.28.77a4.68,4.68,0,0,1-3.18-.31,1.72,1.72,0,0,1-.29-2.87,16.62,16.62,0,0,1,2-1.17,3.58,3.58,0,0,1,4.61.49C161.87,409.76,162.09,411.74,162,413.43Z" style="fill-rule:evenodd;fill:url(#linear-gradient-107)"/><path d="M159.75,414.61c.86-.39,1,.63.89,1.27,0,.44-.41.44-.5.79a.83.83,0,0,1-.68.66c-.54,0-.28-.8-.25-1.13C159.09,415.68,159.21,414.85,159.75,414.61Z" style="fill:#efb28e;fill-rule:evenodd"/><path d="M157.29,452.26c0-.31.1-.24.27-.37a.18.18,0,0,1,.07-.05l2.4-1.31c1.52-.68,2.11,2.23,2.31,4.44l-2.05,1.16-2.82-1.57Z" style="fill-rule:evenodd;fill:url(#linear-gradient-108)"/><path d="M159.66,461.07l0-5.05.06-1.63,10-5.81,0,6.68a1.53,1.53,0,0,1-.07.46.82.82,0,0,1-.11.23.36.36,0,0,1-.07.1.75.75,0,0,1-.17.14l-10,5.81C159.56,461.85,159.66,461.53,159.66,461.07Z" style="fill-rule:evenodd;fill:url(#linear-gradient-109)"/><path d="M156.82,452.71l2.92,1.68,0,6.68c0,.92-.65,1.29-1.45.83l0,0a3.18,3.18,0,0,1-1.44-2.5Z" style="fill:#675dc6;fill-rule:evenodd"/><polygon points="164.79 456.29 164.33 456.02 164.33 457.71 164.79 457.97 164.81 457.01 164.79 456.29" style="fill-rule:evenodd;fill:url(#linear-gradient-110)"/><path d="M167.32,445.83a1.14,1.14,0,0,1,.44-.14,2.13,2.13,0,0,1,1.31.58,3.72,3.72,0,0,1,.75.88,3.85,3.85,0,0,1,.59,1.67c0,.06,0,.13,0,.19v2l-4.54,5-.89.51-4.56.32-.06-.05,0-.92a8.81,8.81,0,0,0-.5-2.67c-.38-.7-1.68-2-2.52-1.54Z" style="fill-rule:evenodd;fill:url(#linear-gradient-111)"/><path d="M158,451.53c-.66-.1-1.14.37-1.14,1.23v2.44l.63.36v-2.43a.78.78,0,0,1,.33-.73c.64-.37,1.5.58,1.74,1a2.22,2.22,0,0,1,.28,1v2l.63.37v-2a3.93,3.93,0,0,0-.71-2.22A2.66,2.66,0,0,0,158,451.53Z" style="fill:#675dc6;fill-rule:evenodd"/><polygon points="164.79 456.29 164.62 456.19 164.62 457.87 164.79 457.97 164.81 457.01 164.79 456.29" style="fill-rule:evenodd;fill:url(#linear-gradient-112)"/><polygon points="166.06 455.53 165.3 456.04 164.79 456.29 164.62 456.19 165.89 455.43 166.06 455.53" style="fill-rule:evenodd;fill:url(#linear-gradient-113)"/><polygon points="166.06 455.53 164.79 456.29 164.79 457.97 166.06 457.22 166.06 455.53" style="fill-rule:evenodd;fill:url(#linear-gradient-114)"/><path d="M165.71,446.86a.13.13,0,0,1,.07.06h0l.07.08h0s0,.14,0,.16h0s0,0,0,.05v0h0a.11.11,0,0,1,0,.05v0h0v.09h0v.09h0V448l-.87-.51C165.08,446.24,164.5,446.16,165.71,446.86Z" style="fill-rule:evenodd;fill:url(#linear-gradient-115)"/><path d="M164.2,445.91l.06,0,0,0h0l.05,0,.06,0h.06l.06,0H165l.07,0h0l.11.05.87.51a1.45,1.45,0,0,0-1,.2l-.5-.35-.35-.26Z" style="fill-rule:evenodd;fill:url(#linear-gradient-116)"/><path d="M161.78,450.43l-.88-.51a3,3,0,0,1,1.41-2.92h0l.44.21.6.3A3.28,3.28,0,0,0,161.78,450.43Z" style="fill-rule:evenodd;fill:url(#linear-gradient-117)"/><path d="M163.2,447.5l1.83-1.06c.79-.45,1.43-.09,1.43.81v.47l-.5.29v-.47c0-.58-.42-.82-.93-.52l-1.83,1.06a2,2,0,0,0-.92,1.59v.47l-.5.29V450A3.1,3.1,0,0,1,163.2,447.5Z" style="fill:#675dc6;fill-rule:evenodd"/><polygon points="164.16 445.93 165.06 446.46 163.23 447.52 162.32 446.99 164.16 445.93" style="fill:#8e4c22;fill-rule:evenodd"/><path d="M162.89,448.14a2.43,2.43,0,0,0-.49.95,5.46,5.46,0,0,0,.53.24c.12,0,.35-.26.35-.37s-.11-.39-.11-.39Z" style="fill-rule:evenodd;fill:url(#linear-gradient-118)"/><path d="M164.34,444a4.23,4.23,0,0,0,.86,1.11c.27.35.44.53.45.85a3.23,3.23,0,0,1-.26,1.88,7,7,0,0,1-2.4,1.5c-.14.05,0-.93-.19-1.34a11.38,11.38,0,0,1-.66-1,14.11,14.11,0,0,1,0-1.83Z" style="fill-rule:evenodd;fill:url(#linear-gradient-119)"/><path d="M162,445c.18.8,1.86.5,2.24.22l.8-.28c.84-.67.7-.95,1.1-1.95l2.29-5.65c.18-2.25,0-6.57.08-8.48.09-3.92-1.24-6.1-2.71-6.15-1,0-2.29.69-2.41,3-.15,3,.72,7.42.71,10.43l-1.53,5.54" style="fill-rule:evenodd;fill:url(#linear-gradient-120)"/><circle cx="128.06" cy="150.38" r="7.09" style="fill:url(#linear-gradient-121)"/><path d="M125.5,152.31h1.8v-3.54h-1.52v-1.14a4.92,4.92,0,0,0,2-.67h1.36v5.35h1.47v1.49H125.5Z" style="fill:#fff"/><circle cx="169.96" cy="218.41" r="7.09" style="fill:url(#linear-gradient-122)"/><path d="M167.37,220.84c1.83-1.49,3.17-2.63,3.17-3.56,0-.62-.39-.91-1-.91a2,2,0,0,0-1.27.65l-1-1a3.16,3.16,0,0,1,2.51-1.1,2.26,2.26,0,0,1,2.5,2.24c0,1.1-1.15,2.31-2.27,3.26.38,0,.9-.08,1.23-.08h1.38v1.55h-5.27Z" style="fill:#fff"/><circle cx="127.59" cy="286.18" r="7.09" style="fill:url(#linear-gradient-123)"/><path d="M124.89,288.76l.84-1.16a2.51,2.51,0,0,0,1.55.64c.67,0,1.15-.21,1.15-.64s-.38-.82-1.9-.82v-1.3c1.23,0,1.68-.3,1.68-.78s-.32-.62-.86-.62a2.1,2.1,0,0,0-1.36.56l-.93-1.13a3.74,3.74,0,0,1,2.38-.88c1.57,0,2.63.69,2.63,1.93,0,.66-.44,1.16-1.25,1.48v0a1.75,1.75,0,0,1,1.47,1.65c0,1.29-1.33,2-2.81,2A3.34,3.34,0,0,1,124.89,288.76Z" style="fill:#fff"/><circle cx="144.76" cy="369.94" r="7.09" style="fill:url(#linear-gradient-124)"/><path d="M145.11,369.65c0-.47,0-1.16.06-1.62h0c-.23.41-.52.82-.77,1.23l-.71,1.16h4v1.41H141.9v-1.3l2.65-4h2.29v6.85h-1.73Z" style="fill:#fff"/></g></g></g></svg>