<?xml version="1.0" encoding="UTF-8"?>
<svg width="157px" height="48px" viewBox="0 0 157 48" version="1.1" xmlns="http://www.w3.org/2000/svg" xmlns:xlink="http://www.w3.org/1999/xlink">
    <!-- Generator: Sketch 58 (84663) - https://sketch.com -->
    <title>logo</title>
    <desc>Created with Sketch.</desc>
    <g id="Symbols" stroke="none" stroke-width="1" fill="none" fill-rule="evenodd">
        <g id="Menu" transform="translate(-265.000000, -21.000000)" fill-rule="nonzero">
            <g id="logo">
                <g transform="translate(265.000000, 21.000000)">
                    <g id="Group">
                        <path d="M48.2618182,0.672 L24.1309091,14.592 L0,0.672 L0,5.376 L4.02181818,7.68 L4.02181818,35.616 L24.1309091,47.232 L44.24,35.616 L44.24,7.584 L48.2618182,5.28 L48.2618182,0.672 Z M40.2181818,33.216 L24.1309091,42.528 L8.04363636,33.216 L8.04363636,9.984 L24.1309091,19.296 L40.2181818,9.984 L40.2181818,33.216 Z" id="Shape" fill="#F7BE00"></path>
                        <polygon id="Path" fill="#FFD040" points="16.0872727 23.904 16.0872727 28.608 24.1309091 33.216 32.1745455 28.608 32.1745455 23.904 24.1309091 28.608"></polygon>
                    </g>
                    <g id="Group" transform="translate(55.539394, 12.480000)" fill="#263746">
                        <path d="M2.29818182,4.704 C2.10666667,4.128 1.81939394,4.032 1.34060606,4.032 L0.766060606,4.032 L0.766060606,0.48 L3.44727273,0.48 C5.07515152,0.48 5.64969697,0.864 6.12848485,2.304 L10.4375758,14.976 C10.9163636,16.224 11.2993939,18.336 11.2993939,18.336 L11.3951515,18.336 C11.3951515,18.336 11.7781818,16.32 12.2569697,14.976 L16.5660606,2.304 C17.0448485,0.864 17.6193939,0.48 19.2472727,0.48 L21.9284848,0.48 L21.9284848,4.032 L21.3539394,4.032 C20.7793939,4.032 20.5878788,4.224 20.3963636,4.704 L13.5975758,23.136 L9.19272727,23.136 L2.29818182,4.704 Z" id="Path"></path>
                        <path d="M28.5357576,6.528 C33.2278788,6.528 35.7175758,9.984 35.7175758,14.304 C35.7175758,14.784 35.6218182,15.84 35.6218182,15.84 L24.4181818,15.84 C24.7054545,18.72 26.8121212,20.256 29.3018182,20.256 C31.8872727,20.256 33.8981818,18.432 33.8981818,18.432 L35.6218182,21.216 C35.6218182,21.216 33.1321212,23.712 29.110303,23.712 C23.7478788,23.712 20.3963636,19.776 20.3963636,15.168 C20.3006061,9.984 23.6521212,6.528 28.5357576,6.528 Z M31.6,12.96 C31.5042424,11.04 30.1636364,9.696 28.5357576,9.696 C26.4290909,9.696 24.9927273,10.944 24.5139394,12.96 L31.6,12.96 Z" id="Shape"></path>
                        <path d="M39.3563636,11.04 C39.3563636,10.56 39.0690909,10.368 38.6860606,10.368 L37.4412121,10.368 L37.4412121,6.912 L41.1757576,6.912 C42.6121212,6.912 43.3781818,7.488 43.3781818,8.928 L43.3781818,9.888 C43.3781818,10.464 43.2824242,10.944 43.2824242,10.944 L43.3781818,10.944 C44.1442424,8.64 46.0593939,6.72 48.5490909,6.72 C48.9321212,6.72 49.3151515,6.816 49.3151515,6.816 L49.3151515,10.848 C49.3151515,10.848 48.9321212,10.752 48.3575758,10.752 C46.6339394,10.752 44.6230303,11.712 43.9527273,14.208 C43.7612121,14.976 43.569697,15.936 43.569697,16.896 L43.569697,23.328 L39.5478788,23.328 L39.5478788,11.04 L39.3563636,11.04 Z" id="Path"></path>
                        <path d="M53.1454545,11.04 C53.1454545,10.56 52.8581818,10.368 52.4751515,10.368 L51.230303,10.368 L51.230303,6.912 L55.0606061,6.912 C56.5927273,6.912 57.1672727,7.584 57.1672727,9.12 L57.1672727,19.104 C57.1672727,19.584 57.4545455,19.776 57.8375758,19.776 L59.0824242,19.776 L59.0824242,23.232 L55.2521212,23.232 C53.72,23.232 53.1454545,22.56 53.1454545,21.024 L53.1454545,11.04 Z M53.3369697,0.48 L56.88,0.48 L56.88,4.224 L53.3369697,4.224 L53.3369697,0.48 Z" id="Shape"></path>
                        <path d="M62.2424242,10.08 L60.1357576,10.08 L60.1357576,6.816 L62.3381818,6.816 L62.3381818,2.4 L66.2642424,2.4 L66.2642424,6.816 L69.9987879,6.816 L69.9987879,10.08 L66.2642424,10.08 L66.2642424,16.704 C66.2642424,19.392 68.3709091,19.776 69.52,19.776 C69.9987879,19.776 70.2860606,19.68 70.2860606,19.68 L70.2860606,23.232 C70.2860606,23.232 69.8072727,23.328 69.0412121,23.328 C66.7430303,23.328 62.2424242,22.656 62.2424242,17.184 L62.2424242,10.08 Z" id="Path"></path>
                        <path d="M75.5527273,26.496 C76.7018182,26.496 77.6593939,25.824 78.2339394,24.384 L78.8084848,23.136 L73.350303,10.848 C73.1587879,10.368 72.9672727,10.272 72.4884848,10.272 L72.009697,10.272 L72.009697,6.816 L74.6909091,6.816 C75.84,6.816 76.4145455,7.2 76.7975758,8.352 L79.9575758,16.512 C80.2448485,17.376 80.5321212,18.72 80.5321212,18.72 L80.6278788,18.72 C80.6278788,18.72 80.9151515,17.376 81.2024242,16.512 L83.9793939,8.352 C84.3624242,7.2 85.0327273,6.816 86.1818182,6.816 L88.9587879,6.816 L88.9587879,10.272 L88.48,10.272 C88.0012121,10.272 87.7139394,10.368 87.5224242,10.848 L81.6812121,25.632 C80.5321212,28.608 78.2339394,29.856 75.84,29.856 C73.2545455,29.856 71.7224242,28.224 71.7224242,28.224 L73.2545455,25.344 C73.2545455,25.344 74.2121212,26.496 75.5527273,26.496 Z" id="Path"></path>
                        <path d="M100.821818,0.288 L101.204848,5.184 C101.204848,5.184 101.204848,5.28 101.204848,5.28 C101.204848,5.28 101.109091,5.376 101.109091,5.376 L100.438788,5.376 C100.438788,5.376 100.34303,5.376 100.34303,5.376 C100.34303,5.376 100.34303,5.28 100.247273,5.28 L100.055758,2.304 L99.0981818,4.512 C99.0981818,4.608 99.0024242,4.608 98.9066667,4.608 L98.3321212,4.608 C98.2363636,4.608 98.2363636,4.608 98.1406061,4.512 L97.1830303,2.304 L96.9915152,5.376 C96.9915152,5.376 96.9915152,5.472 96.8957576,5.472 C96.8,5.472 96.8,5.472 96.8,5.472 L96.129697,5.472 C96.129697,5.472 96.0339394,5.472 96.0339394,5.376 C96.0339394,5.376 96.0339394,5.28 96.0339394,5.28 L96.4169697,0.384 C96.4169697,0.384 96.4169697,0.288 96.5127273,0.288 C96.6084848,0.288 96.6084848,0.288 96.6084848,0.288 L97.3745455,0.288 C97.470303,0.288 97.470303,0.288 97.5660606,0.384 L98.7151515,3.072 C98.7151515,3.168 98.8109091,3.264 98.8109091,3.36 C98.8109091,3.36 98.8109091,3.264 98.9066667,3.264 C98.9066667,3.168 98.9066667,3.168 99.0024242,3.168 L100.151515,0.48 C100.151515,0.384 100.247273,0.384 100.34303,0.384 L101.109091,0.384 C101.109091,0.384 101.204848,0.384 101.204848,0.384 C100.821818,0.288 100.821818,0.288 100.821818,0.288 Z M95.4593939,0.288 L95.4593939,0.96 C95.4593939,0.96 95.4593939,1.056 95.3636364,1.056 C95.2678788,1.056 95.2678788,1.056 95.2678788,1.056 L93.7357576,1.056 L93.7357576,5.184 C93.7357576,5.184 93.7357576,5.28 93.7357576,5.28 C93.7357576,5.28 93.64,5.376 93.64,5.376 L92.969697,5.376 C92.969697,5.376 92.8739394,5.376 92.8739394,5.376 C92.8739394,5.376 92.7781818,5.28 92.7781818,5.28 L92.7781818,1.152 L91.2460606,1.152 C91.2460606,1.152 91.150303,1.152 91.150303,1.152 C91.150303,1.152 91.0545455,1.056 91.0545455,1.056 L91.0545455,0.48 C91.0545455,0.48 91.0545455,0.384 91.0545455,0.384 C91.0545455,0.384 91.150303,0.384 91.150303,0.384 L95.1721212,0.384 C95.1721212,0.384 95.2678788,0.384 95.2678788,0.48 C95.4593939,0.288 95.4593939,0.288 95.4593939,0.288 Z" id="Shape"></path>
                    </g>
                </g>
            </g>
        </g>
    </g>
</svg>