<?xml version="1.0" encoding="utf-8"?>
<!-- Generator: Adobe Illustrator 22.0.0, SVG Export Plug-In . SVG Version: 6.00 Build 0)  -->
<svg version="1.1" id="Layer_1" xmlns="http://www.w3.org/2000/svg" xmlns:xlink="http://www.w3.org/1999/xlink" x="0px" y="0px"
	 viewBox="0 0 32 32" style="enable-background:new 0 0 32 32;" xml:space="preserve">
<style type="text/css">
	.st0{fill:url(#SVGID_1_);}
</style>
<linearGradient id="SVGID_1_" gradientUnits="userSpaceOnUse" x1="0.7959" y1="4.8798" x2="26.9645" y2="31.0018">
	<stop  offset="0" style="stop-color:#1E88E5"/>
	<stop  offset="1" style="stop-color:#0D47A1"/>
</linearGradient>
<path class="st0" d="M32,25.3c0,0.5-0.1,1.1-0.2,1.6c-0.1,0.5-0.3,1.1-0.5,1.6c-0.7,1.1-1.6,1.9-2.8,2.4c-1.6,1-3.5,1.3-5.4,1.1
	c-0.4-0.1-0.9-0.2-1.3-0.3c-0.5-0.1-0.8-0.2-1.1-0.3s-0.7-0.2-1.3-0.5c-0.6-0.2-1-0.4-1.1-0.4c-1.4-0.5-2.7-1.1-4-1.9
	c-2.2-1.4-4.2-3-6-4.9c-1.9-1.8-3.5-3.8-4.9-6c-0.8-1.3-1.4-2.6-1.9-4c0-0.1-0.2-0.5-0.4-1.1c-0.2-0.6-0.4-1-0.5-1.3
	c-0.1-0.2-0.2-0.6-0.3-1.1C0.2,9.8,0.1,9.3,0.1,8.9C0,8.5,0,8.1,0,7.7c0-1.5,0.4-2.9,1.2-4.2c0.5-1.2,1.3-2.1,2.4-2.8
	c0.5-0.2,1-0.4,1.6-0.5C5.6,0.1,6.2,0,6.7,0C6.9,0,7,0,7.2,0.1c0.6,0.5,1,1.1,1.2,1.7C8.6,2.1,8.8,2.5,9.1,3s0.6,1,0.8,1.4
	c0.2,0.4,0.5,0.8,0.7,1.2c0,0.1,0.2,0.2,0.4,0.6c0.2,0.3,0.3,0.5,0.5,0.8c0.1,0.2,0.2,0.4,0.2,0.6c-0.1,0.4-0.3,0.8-0.6,1.1
	c-0.4,0.5-0.9,0.9-1.4,1.2c-0.5,0.4-1,0.8-1.4,1.2c-0.3,0.3-0.6,0.6-0.6,1c0,0.2,0,0.3,0.1,0.5c0.1,0.2,0.1,0.3,0.2,0.5
	c0.1,0.1,0.2,0.3,0.3,0.5c0.2,0.3,0.2,0.4,0.3,0.4c1.1,2,2.4,3.8,4,5.3c1.6,1.6,3.4,2.9,5.3,3.9c0,0,0.2,0.1,0.4,0.3
	c0.3,0.2,0.4,0.3,0.5,0.3c0.2,0.1,0.3,0.1,0.5,0.2c0.2,0.1,0.3,0.1,0.5,0.1c0.4-0.1,0.8-0.3,1-0.6c0.4-0.4,0.8-0.9,1.2-1.4
	c0.4-0.5,0.8-1,1.2-1.4c0.3-0.3,0.7-0.6,1.1-0.6c0.2,0,0.4,0.1,0.6,0.2c0.3,0.1,0.6,0.3,0.8,0.5c0.3,0.2,0.5,0.4,0.6,0.4
	c0.4,0.2,0.8,0.5,1.2,0.7s0.9,0.5,1.4,0.8c0.5,0.3,0.9,0.5,1.2,0.7c0.7,0.2,1.3,0.6,1.7,1.2C32,24.9,32,25.1,32,25.3z"/>
</svg>
