<?xml version="1.0" encoding="utf-8"?>
<!-- Generator: Adobe Illustrator 22.0.0, SVG Export Plug-In . SVG Version: 6.00 Build 0)  -->
<svg version="1.1" id="Layer_1" xmlns="http://www.w3.org/2000/svg" xmlns:xlink="http://www.w3.org/1999/xlink" x="0px" y="0px"
	 viewBox="0 0 70 70" enable-background="new 0 0 70 70" xml:space="preserve">
<linearGradient id="SVGID_1_" gradientUnits="userSpaceOnUse" x1="0" y1="35" x2="70" y2="35">
	<stop  offset="0" style="stop-color:#3C81C3"/>
	<stop  offset="1" style="stop-color:#19499A"/>
</linearGradient>
<path fill="url(#SVGID_1_)" d="M17.4,15c-1.4,0-2.5-0.5-3.5-1.4c-1-1-1.4-2.1-1.4-3.5V4.9c0-1.4,0.5-2.5,1.4-3.5
	c1-1,2.1-1.4,3.5-1.4c1.4,0,2.5,0.5,3.5,1.4c1,1,1.4,2.1,1.4,3.5v5.2c0,1.4-0.5,2.5-1.4,3.5C19.9,14.5,18.8,15,17.4,15z M52.4,15
	c-1.4,0-2.5-0.5-3.5-1.4c-1-1-1.4-2.1-1.4-3.5V4.9c0-1.4,0.5-2.5,1.4-3.5c1-1,2.1-1.4,3.5-1.4c1.4,0,2.5,0.5,3.5,1.4
	c1,1,1.4,2.1,1.4,3.5v5.2c0,1.4-0.5,2.5-1.4,3.5C54.9,14.5,53.8,15,52.4,15z M44.6,52.9c0.3-0.3,0.5-0.6,0.7-0.9
	c0.2-0.3,0.2-0.7,0.2-1.2s-0.1-0.9-0.3-1.2c-0.2-0.4-0.5-0.7-0.9-0.9s-0.9-0.4-1.5-0.5c-0.6-0.1-1.2-0.2-1.9-0.2h-1.9v-3.6h1.7
	c1.4,0,2.4-0.2,3-0.7c0.7-0.4,1-1.1,1-2.1c0-0.8-0.3-1.5-0.8-1.9c-0.5-0.4-1.3-0.6-2.3-0.6c-0.7,0-1.4,0.1-2.1,0.3
	c-0.7,0.2-1.4,0.5-2,1v-3.7c0.7-0.4,1.5-0.7,2.4-0.9c0.9-0.2,1.8-0.3,2.8-0.3c1,0,2,0.1,2.8,0.4c0.8,0.3,1.6,0.6,2.2,1.1
	c0.6,0.5,1,1,1.3,1.6s0.5,1.3,0.5,2.1c0,1.4-0.4,2.5-1.1,3.3c-0.7,0.9-1.8,1.5-3.2,1.8v0.1c0.8,0.1,1.5,0.3,2,0.5
	c0.6,0.3,1.1,0.6,1.5,1.1c0.5,0.4,0.8,0.9,1,1.4c0.2,0.5,0.3,1.2,0.3,1.8c0,1-0.2,1.9-0.5,2.6c-0.4,0.8-0.9,1.4-1.6,2
	s-1.6,1-2.6,1.3c-1,0.3-2.1,0.4-3.4,0.4c-1.1,0-2.1-0.1-3-0.2c-0.9-0.2-1.7-0.4-2.3-0.8v-4.1c0.7,0.5,1.5,0.9,2.3,1.2
	c0.8,0.3,1.7,0.4,2.6,0.4c0.6,0,1.2-0.1,1.6-0.2C43.8,53.3,44.2,53.2,44.6,52.9z M27.7,44.6c0.3-0.4,0.5-0.8,0.6-1.2
	c0.1-0.4,0.2-0.8,0.2-1.2c0-1-0.3-1.7-0.8-2.2c-0.5-0.5-1.3-0.7-2.3-0.7c-0.9,0-1.8,0.2-2.7,0.5c-0.9,0.3-1.7,0.9-2.5,1.6v-4.1
	c0.9-0.6,1.9-1,2.9-1.3c1-0.3,2.1-0.5,3.3-0.5c1,0,2,0.1,2.8,0.4c0.8,0.3,1.6,0.7,2.2,1.2c0.6,0.5,1.1,1.1,1.4,1.9
	c0.3,0.7,0.4,1.6,0.4,2.5c0,1.2-0.4,2.5-1.1,3.8c-0.7,1.2-1.8,2.5-3.3,3.8l-4.4,3.8V53h8.5v3.8H19.1v-3.6l6.1-5.8
	c0.6-0.6,1.1-1.1,1.5-1.6C27.1,45.4,27.4,45,27.7,44.6z M65,25H5v40h60V25z M65,70H5c-1.4,0-2.5-0.5-3.5-1.5S0,66.4,0,65V12.5
	C0,11.1,0.5,10,1.5,9c1-1,2.2-1.5,3.5-1.5h5V10c0,2.1,0.7,3.9,2.2,5.3s3.2,2.2,5.3,2.2s3.9-0.7,5.3-2.2S25,12.1,25,10V7.5h20V10
	c0,2.1,0.7,3.9,2.2,5.3s3.2,2.2,5.3,2.2s3.9-0.7,5.3-2.2S60,12.1,60,10V7.5h5c1.4,0,2.5,0.5,3.5,1.5c1,1,1.5,2.2,1.5,3.5V65
	c0,1.4-0.5,2.5-1.5,3.5C67.5,69.5,66.4,70,65,70z"/>
</svg>
