<?xml version="1.0" encoding="utf-8"?>
<!-- Generator: Adobe Illustrator 22.0.0, SVG Export Plug-In . SVG Version: 6.00 Build 0)  -->
<svg version="1.1" id="Layer_1" xmlns="http://www.w3.org/2000/svg" xmlns:xlink="http://www.w3.org/1999/xlink" x="0px" y="0px"
	 viewBox="0 0 80 71.6" enable-background="new 0 0 80 71.6" xml:space="preserve">
<linearGradient id="SVGID_1_" gradientUnits="userSpaceOnUse" x1="0" y1="35.7656" x2="80" y2="35.7656">
	<stop  offset="0" style="stop-color:#3C81C3"/>
	<stop  offset="1" style="stop-color:#19499A"/>
</linearGradient>
<path fill="url(#SVGID_1_)" d="M69.2,45.9c-0.4,0.4-1,0.6-1.7,0.6s-1.3-0.2-1.8-0.7c-0.5-0.5-0.7-1.1-0.7-1.8s0.2-1.3,0.7-1.8
	c0.5-0.5,1.1-0.7,1.8-0.7s1.3,0.2,1.8,0.7c0.5,0.5,0.7,1.1,0.7,1.8S69.7,45.4,69.2,45.9z M77.5,36.6H60v15h17.5
	c0.7,0,1.3-0.2,1.8-0.7c0.5-0.5,0.7-1.1,0.7-1.8v-10c0-0.7-0.2-1.3-0.7-1.8C78.8,36.8,78.2,36.6,77.5,36.6z M13,13.6l44.4-8.1
	l1.9,11.1H13.6L13,13.6z M55,51.6v-15c0-1.4,0.5-2.5,1.5-3.5c1-1,2.2-1.5,3.5-1.5h15v-10c0-1.4-0.5-2.5-1.5-3.5
	c-1-1-2.2-1.5-3.5-1.5h-5.8L61.9,2c-0.1-0.6-0.4-1.1-1-1.6c-0.6-0.4-1.2-0.6-2-0.5L9.5,9.1c-0.7,0.1-1.3,0.5-1.6,1.1
	S7.4,11.4,7.5,12l0.9,4.5H5c-1.4,0-2.5,0.5-3.5,1.5c-1,1-1.5,2.2-1.5,3.5v45c0,1.4,0.5,2.5,1.5,3.5s2.2,1.5,3.5,1.5h65
	c1.4,0,2.5-0.5,3.5-1.5c1-1,1.5-2.2,1.5-3.5v-10H60c-1.4,0-2.5-0.5-3.5-1.5C55.5,54.1,55,52.9,55,51.6z"/>
</svg>
