<?xml version="1.0" encoding="utf-8"?>
<!-- Generator: Adobe Illustrator 22.0.0, SVG Export Plug-In . SVG Version: 6.00 Build 0)  -->
<svg version="1.1" id="Layer_1" xmlns="http://www.w3.org/2000/svg" xmlns:xlink="http://www.w3.org/1999/xlink" x="0px" y="0px"
	 viewBox="0 0 1243.5 983.2" enable-background="new 0 0 1243.5 983.2" xml:space="preserve">
<linearGradient id="SVGID_1_" gradientUnits="userSpaceOnUse" x1="732.3218" y1="20.4797" x2="732.3218" y2="907.8325" gradientTransform="matrix(-1 0 0 -1 1243.4 984)">
	<stop  offset="0" style="stop-color:#FBD16B"/>
	<stop  offset="1" style="stop-color:#F6B800"/>
</linearGradient>
<path opacity="0.12" fill="url(#SVGID_1_)" enable-background="new    " d="M956,592c-99.5-106.5-108-98.6-110-148
	c-3.1-78.7,107.5-107.3,104-181.5c-3.5-73.4-154.9-122.2-198-139.5c-161.5-64.9-399.9-69.8-451.5,33c-35.4,70.6,54,118.8,33,220.5
	C298.6,545,25.1,546.4,2,693c-14.9,94.6,80.6,211.4,168,220.5c89.2,9.2,116.7-99.3,213-102c128.6-3.6,154.4,107.9,307.5,143.5
	c167.9,39.1,337.9-62.2,331-184.9C1019,726.3,1033.4,674.9,956,592z"/>
<path fill="#749E44" d="M1059.9,714.2c18.9-3.7,33.2-12.1,33.2-12.1s-16.4-2.3-35.3,1.4c-18.9,3.7-24.2,10.3-24.2,10.3
	S1041,717.9,1059.9,714.2L1059.9,714.2z"/>
<path fill="#527230" d="M1114.3,867.1c-3.4-81,9.5-125.3,20.9-148.1c12.3-24.6,25.6-30.2,25.7-30.3l-1.2-2.9
	c-0.6,0.3-14.3,6-27.1,31.4c-7.5,14.8-13.1,33.3-16.8,54.9c-4.6,26.9-6.2,59-4.7,95.2L1114.3,867.1z M1105.8,891.9h3.1
	c0-38-3.9-71-11.4-98.1c-6-21.8-14.4-39.7-24.9-53.5c-18.1-23.7-36-26.6-36.8-26.7l-0.5,3.1c0.2,0.1,17.5,2.8,34.8,25.5
	C1086.3,763.4,1105.6,806.5,1105.8,891.9L1105.8,891.9z"/>
<path fill="#527230" d="M1102.5,790.9c-5.4-23.5-13.1-44.7-22.9-63c-16.8-31.2-33.8-43-34.5-43.5l-1.7,2.6
	c0.1,0.2,17.2,12,33.6,42.7c15.2,28.4,33,79.1,31.6,159.7l3.1,0.1C1112.4,853.6,1109.3,820.5,1102.5,790.9z"/>
<path fill="#3D561C" d="M1095.6,670.8l-3.1,0.4c0.1,1.5,19.2,152.3,19.2,214.7h3.1C1114.8,823.3,1095.7,672.3,1095.6,670.8z"/>
<path fill="#749E44" d="M1115.3,884.2l3.1-0.2c-4-61.4,4.2-92.5,11.7-107.8c8.1-16.4,17.1-18.5,17.2-18.5l-0.3-1.5l0.3,1.5l-0.6-3
	c-0.5,0.1-10.4,2.2-19.1,19.6C1116.2,797,1112,834,1115.3,884.2L1115.3,884.2z"/>
<path fill="#527230" d="M1152.1,699.4c16.5-31.3,33-38.3,33.2-38.4l-0.6-1.4l0.6,1.4l-1.2-2.9c-0.7,0.3-17.5,7.4-34.6,39.4
	c-10,18.6-18,42-23.8,69.4c-7.3,34.2-11.2,74.8-11.6,120.8h3.1C1118.1,784.5,1136.6,728.3,1152.1,699.4z"/>
<path fill="#3D561C" d="M1118.9,885.3l3-0.1c-3.1-104.9,4.2-167.8,10.9-202.1c7.3-37.2,15.3-49.7,15.4-49.8l-1.3-0.9l1.3,0.9
	l-2.6-1.7c-0.3,0.5-8.4,12.8-15.7,50.4C1123.2,716.5,1115.8,779.8,1118.9,885.3L1118.9,885.3z M1103.9,884.7h3.1
	c-0.9-103.7-12.2-170.1-21.5-207.6c-10.1-40.8-19.9-56.7-20.3-57.4l-2.6,1.6c0.1,0.2,10,16.4,20,56.8
	C1091.8,715.4,1103,781.5,1103.9,884.7L1103.9,884.7z"/>
<path fill="#749E44" d="M1086.6,635.9c0,0-14.8,9.7-27.9,25.8c-13.1,16.2-13.2,25-13.2,25s8.6-2,21.7-18.1
	C1080.3,652.4,1086.6,635.9,1086.6,635.9z"/>
<path fill="#749E44" d="M1027.6,648.9c0,0-3.6,13.5,2,25.6c5.5,12,15.5,12.3,15.5,12.3s6.3-7.7,0.7-19.8
	C1040.2,655,1027.6,648.9,1027.6,648.9z"/>
<path fill="#749E44" d="M1012.7,682.8c-22.5,4.2-39,16.5-39,16.5s19.8,5.4,42.3,1.1s28.3-14.5,28.3-14.5S1035.2,678.5,1012.7,682.8
	L1012.7,682.8z"/>
<path fill="#403308" d="M1066.2,955.3v18.6h92.9v-18.6l18.6-83.7h-130.1"/>
<path fill="#527230" d="M1019.1,684.5c-19.1-16.6-42.4-21-42.4-21s7.5,22.5,26.6,39.1c19,16.6,33.3,13.1,33.3,13.1
	S1038.2,701.1,1019.1,684.5L1019.1,684.5z"/>
<path fill="#749E44" d="M1001.3,709.3c-25,3.9-43.3,18.9-43.3,18.9s22,8.8,47,4.9c25-3.9,31.5-17.1,31.5-17.1
	S1026.3,705.4,1001.3,709.3L1001.3,709.3z"/>
<path fill="#749E44" d="M1020,734.7c-6.8,16.6-4.3,33.3-4.3,33.3s13.4-10.2,20.2-26.9c6.8-16.6,1.1-25.4,1.1-25.4
	S1026.8,718,1020,734.7L1020,734.7z"/>
<path fill="#527230" d="M1186.9,746.6c0,0,6.1-19.7,2.8-42.3c-3.4-22.6-13.3-28.9-13.3-28.9s-7.7,8.9-4.4,31.5
	C1175.3,729.5,1186.9,746.6,1186.9,746.6z"/>
<path fill="#527230" d="M1191.1,708.9c15.1,22.9,31.8,38.5,31.8,38.5s-7.7-21.6-22.7-44.5c-15-22.9-24.6-27.6-24.6-27.6
	S1176.1,686,1191.1,708.9L1191.1,708.9z M1242.6,633.3c0,0-17.8,2.1-37,10.8c-19.1,8.7-23.3,16.6-23.3,16.6s8.6,2.1,27.8-6.6
	C1229.3,645.4,1242.6,633.3,1242.6,633.3z"/>
<path fill="#749E44" d="M1173.8,635.6c20.4-3.7,36.1-12.1,36.1-12.1s-17.6-2.4-38,1.3s-26.3,10.3-26.3,10.3
	S1153.4,639.3,1173.8,635.6L1173.8,635.6z"/>
<path fill="#3D561C" d="M1062.9,668.2c0,0-9.5,21.8-6.5,46.9s16,32,16,32s10.9-9.8,7.9-34.9S1062.9,668.2,1062.9,668.2z"/>
<path fill="#3D561C" d="M1054.1,732.7c-15.2-2.3-29.3,7.7-29.3,7.7s10.5,13.8,25.7,16.1s22.1-8.8,22.1-8.8S1069.3,735,1054.1,732.7
	L1054.1,732.7z"/>
<path fill="#3D561C" d="M1076.6,785.7c0,0,5.3-10.6,3.7-22.7c-1.6-12-8.6-15.2-8.6-15.2s-6,4.8-4.4,16.9
	C1068.8,776.8,1076.6,785.7,1076.6,785.7z M1128,824.8c0,0,13.6-15.4,19.9-37.4s-0.2-31.8-0.2-31.8s-10.6,4.9-16.9,26.9
	S1128,824.8,1128,824.8z"/>
<path fill="#3D561C" d="M1088.6,765.6c0,0,16.7,6.2,35.5,3c18.8-3.2,23.6-13.1,23.6-13.1s-7.8-7.7-26.6-4.5
	C1102.3,754.2,1088.6,765.6,1088.6,765.6z"/>
<path fill="#3D561C" d="M1137.2,732.7c-12.8-12.9-29.5-17.2-29.5-17.2s4,16.8,16.8,29.7c12.8,13,23.4,11,23.4,11
	S1150,745.6,1137.2,732.7L1137.2,732.7z"/>
<path fill="#3D561C" d="M1164.2,700.8c0,0-13.1,11.6-18.8,29.2c-5.7,17.7,0.9,26.3,0.9,26.3s10.4-3.2,16.1-20.8
	C1168.1,717.9,1164.2,700.8,1164.2,700.8z"/>
<path fill="#3D561C" d="M1193.1,778.4c0,0-7.7-13.8-22-20.9S1148,756,1148,756s0.9,10.4,15.2,17.5
	C1177.6,780.7,1193.1,778.4,1193.1,778.4z"/>
<path fill="#3D561C" d="M1205.9,716.7c0,0-20.3,3.2-39.1,16.3c-18.7,13.1-19.9,24.8-19.9,24.8s11.4,3,30.1-10.1
	C1195.8,734.6,1205.9,716.7,1205.9,716.7z"/>
<path fill="#527230" d="M1159.4,621.2c3.6-12.8-1.9-25.6-1.9-25.6s-11.6,7.8-15.3,20.6s3.7,19.5,3.7,19.5S1155.7,634,1159.4,621.2
	L1159.4,621.2z"/>
<path fill="#527230" d="M1083.7,598.3c0,0,11.5,17,31.3,28.5s30.9,7.6,30.9,7.6s-2.1-11.5-21.9-23
	C1104.3,600,1083.7,598.3,1083.7,598.3z M1023.1,639c0,0,13.5,15.6,34.5,24.6c20.9,9.1,31.5,3.9,31.5,3.9s-3.5-11.3-24.5-20.3
	S1023.1,639,1023.1,639z"/>
<path fill="#527230" d="M1097.1,641.7c-0.8-19-10.2-34.1-10.2-34.1s-8.4,15.8-7.6,34.8c0.7,19.1,9.9,25.1,9.9,25.1
	S1097.9,660.7,1097.1,641.7L1097.1,641.7z"/>
<path fill="#527230" d="M1134,633c0,0-17.1,1.8-31.6,12.8s-13.9,21.8-13.9,21.8s10.2,3.4,24.7-7.6S1134,633,1134,633z"/>
<path fill="#527230" d="M1107.2,684.6c16.7,7.9,34.2,6.3,34.2,6.3s-9.8-14.5-26.5-22.4c-16.8-7.9-26.2-2.5-26.2-2.5
	S1090.5,676.7,1107.2,684.6L1107.2,684.6z"/>
<path fill="#527230" d="M1060.7,709.6c0,0,14.6-5.8,23.5-19.1s4.4-22.7,4.4-22.7s-10.4-0.5-19.3,12.8S1060.7,709.6,1060.7,709.6z"/>
<path fill="#527230" d="M1120.3,730.1c0,0-0.7-20.5-11.2-40.8c-10.5-20.2-22-22.9-22-22.9s-4.4,10.9,6.1,31.2
	C1103.8,717.8,1120.3,730.1,1120.3,730.1z"/>
<path fill="#749E44" d="M1180,705.6c19,8.4,36.6,10.3,36.6,10.3s-13.2-11.8-32.2-20.2c-19-8.5-27.5-6.3-27.5-6.3
	S1161,697.2,1180,705.6L1180,705.6z"/>
<path fill="#3D561C" d="M1188.7,662.3c0,0-14,0-24.2,8.5s-7.9,18.2-7.9,18.2s9.1,4,19.3-4.5S1188.7,662.3,1188.7,662.3z"/>
<path fill="#3D561C" d="M1151.9,658.5c-10-20.6-26.1-33.5-26.1-33.5s0.1,20.6,10,41.2s21.3,23.6,21.3,23.6
	S1161.8,679.1,1151.9,658.5L1151.9,658.5z"/>
<path fill="#527230" d="M1148,705.4c0,0-16.1,1.1-31.6,9.5c-15.5,8.3-17.2,16.8-17.2,16.8s8.7,2.8,24.2-5.6S1148,705.4,1148,705.4z"
	/>
<path fill="#527230" d="M1111.7,747.6c12.3,7.8,26.2,8.8,26.2,8.8s-6-11.8-18.4-19.6c-12.3-7.9-20.4-5.1-20.4-5.1
	S1099.3,739.8,1111.7,747.6L1111.7,747.6z"/>
<path fill="#527230" d="M1092.6,749.1c0.1,13.2,7.3,23.9,7.3,23.9s6.9-10.8,6.7-24.1c-0.1-13.2-7.2-17.6-7.2-17.6
	S1092.4,735.8,1092.6,749.1L1092.6,749.1z"/>
<path fill="#527230" d="M1060,752.1c0,0,13.7,0.6,26.5-5.8s13.8-14.3,13.8-14.3s-7.6-3.6-20.4,2.8C1067,741.2,1060,752.1,1060,752.1
	z"/>
<path fill="#527230" d="M1085.7,696.6c0,0-3.1,11.2,1.1,22.2c4.3,11,12.3,12.5,12.3,12.5s5.2-5.9,1-16.9
	C1095.9,703.3,1085.7,696.6,1085.7,696.6z"/>
<path fill="#527230" d="M1045,722.7c0,0,13.3,8.6,31,11.2c17.7,2.7,24.7-2.9,24.7-2.9s-4.8-7.4-22.5-10
	C1060.5,718.3,1045,722.7,1045,722.7z M1183.6,634.9c-5.8-17.6-19-28.9-19-28.9s-3.7,17,2.1,34.6c5.8,17.5,16.2,20.6,16.2,20.6
	S1189.4,652.5,1183.6,634.9L1183.6,634.9z"/>
<path fill="#749E44" d="M1018.2,590c0,0,7.5,15.7,22.9,26s25.5,6.3,25.5,6.3s-0.2-10.8-15.6-21.1S1018.2,590,1018.2,590z"/>
<path fill="#749E44" d="M1109.2,585.2c0,0-17.3,2.7-31.5,14.6s-13.2,22.7-13.2,22.7s10.5,2.9,24.7-9
	C1103.5,601.6,1109.2,585.2,1109.2,585.2z"/>
<path fill="#749E44" d="M995.4,620.3c0,0,17.9,6.6,40.1,7.3c22.3,0.7,29.9-5.1,29.9-5.1s-7.3-6.2-29.5-6.9
	C1013.6,614.9,995.4,620.3,995.4,620.3z"/>
<path fill="#749E44" d="M1058.4,631.6c-17.5-7.7-35.2-5.9-35.2-5.9s10.5,14.5,27.9,22.2c17.4,7.8,26.9,2.2,26.9,2.2
	S1075.8,639.3,1058.4,631.6L1058.4,631.6z"/>
<path fill="#749E44" d="M1101.8,651.5c18.2-5.7,30.3-18.8,30.3-18.8s-17.4-3.9-35.6,1.8c-18.2,5.7-21.6,16.1-21.6,16.1
	S1083.6,657.2,1101.8,651.5L1101.8,651.5z"/>
<path fill="#4C311E" d="M281,324.7c0,0,2.5,10.9-1.1,21.2c-3.6,10.2-11,15.8-11,15.8l1.3,2.3c0,0,7.9-4.5,11.9-16.9
	s1.8-24.5,1.8-24.5L281,324.7z"/>
<path fill="#DBE2EA" d="M261.2,263.8c-7.1,0.9-12.3,7.5-11.7,31.4c0.6,23.9,10,41.9,22.4,41.6c12.4-0.3,15.9-8.4,18.3-22.6
	s-0.9-41.6-8.1-47.7S261.2,263.8,261.2,263.8L261.2,263.8z"/>
<path fill="#9CAAAD" d="M266.1,263c0,0,10.8,7.2,12,33.8s-6.2,40-6.2,40l4.3-0.5c0,0,6.2-6.4,5.9-38.1
	c-0.3-31.7-11.9-35.4-11.9-35.4L266.1,263z"/>
<path fill="#FFFFFF" d="M278.3,264.5c0,0-3-0.3-3.3,0.7c-0.4,0.9,8,8.4,10.2,16.3s3.4,27.3,3.4,27.3s1.7-18.2-1.1-29.4
	S278.3,264.5,278.3,264.5L278.3,264.5z"/>
<ellipse opacity="0.15" fill="#EACEA9" enable-background="new    " cx="644.6" cy="978.7" rx="588.2" ry="4.5"/>
<path fill="#FFFFFF" d="M550.7,526.4c-7.4,12.1-18.4,21.6-18.4,21.6s-5.3,8.4,4.7,8.4h128.7c10,0,4.7-8.4,4.7-8.4
	s-11.1-9.5-18.5-21.6c-4.6-7.5-3.9-19-3.4-23.7h-94.4C554.6,507.4,555.3,518.9,550.7,526.4L550.7,526.4z"/>
<path fill="#EDEAE8" d="M531.1,550.7c-0.7,2.5-0.4,5.8,5.9,5.8h128.7c6.3,0,6.6-3.3,5.9-5.8H531.1z"/>
<path fill="#F2EFEB" d="M648.6,502.6h-94.4c0.4,3.7,0.8,11.6-1.2,18.5h96.7C647.6,514.2,648.1,506.3,648.6,502.6z"/>
<path fill="#FFFFFF" d="M828,490.8V205.9c0-7.5-6.1-13.5-13.5-13.5H387c-7.5,0-13.5,6.1-13.5,13.5v284.9c0,7.5,6.1,13.5,13.5,13.5
	h427.4c7.5,0,13.5-6.1,13.5-13.5H828z"/>
<path fill="#FFFFFF" d="M373.5,464.7v26.1c0,7.5,6.1,13.5,13.5,13.5h427.4c7.5,0,13.5-6.1,13.5-13.5v-26.1H373.5z"/>
<linearGradient id="SVGID_2_" gradientUnits="userSpaceOnUse" x1="642.4" y1="774.2" x2="642.4" y2="537.3" gradientTransform="matrix(1 0 0 -1 -41.4 984)">
	<stop  offset="0" style="stop-color:#FBD16B"/>
	<stop  offset="1" style="stop-color:#F9BC03"/>
</linearGradient>
<path fill="url(#SVGID_2_)" d="M391.5,209.8h419v236.9h-419L391.5,209.8z"/>
<path fill="#B2864B" d="M261.8,973.9h-31.4V599.1h31.4V973.9z"/>
<path fill="#E8E2D4" d="M994.6,599.1H220.1v-14h774.5V599.1z"/>
<path fill="#FFFFFF" d="M1005.6,585H195.5v-28.5h810.1V585z"/>
<path fill="#FD5A38" d="M373.8,736.9H167V695h206.8V736.9z"/>
<path fill="#CE4630" d="M167,736.9H91.3V694H167V736.9z"/>
<path fill="#CE4630" d="M118.5,695L79.6,392.2H54.9L91.3,695"/>
<path fill="#FD5A38" d="M117.5,695h158.1L233,392.2H78.6"/>
<path fill="#CE4630" d="M274.8,689.3h-163v6.7h163.8"/>
<path fill="#403308" d="M149.7,736.9l41.5,237h13.3l-39.5-237 M106.5,736.9l-41.4,237H51.7l39.6-237 M358.6,736.9l41.5,237h13.3
	l-39.6-237 M314.9,736.9l-41.4,237h-13.4l39.6-237"/>
<path fill="#F4E2AE" d="M279.2,523.2c12.6,33.5,52.3,33.3,52.3,33.3h132.4v-37.8h-93.7c-48.6,0-58.2-57.7-76.5-87.8
	c-18.2-30.1-27.5-38.7-27.5-38.7S266.7,489.6,279.2,523.2z"/>
<path fill="#403308" d="M481.8,924.9c0,0,6.4,12.1,25.7,18.9c19.2,6.8,40.4,9.6,45.4,13.1c4.9,3.5,2.8,17,2.8,17H438.2v-47.7
	L481.8,924.9z"/>
<path fill="#76664D" d="M515.7,946.6c0,0-8.7-3.3-13.9-5.6c-5.1-2.2-15-9.6-15-9.6s-2.1,1.8-11.5,3.7s-34.4,1.2-34.4,1.2v9.3
	c0,0,14.6,1.8,18.4,8.4c3.8,6.7,6.2,13.3,6.2,13.3h46.6c0,0-0.3-6.7,0.9-12C514.1,950,515.7,946.6,515.7,946.6L515.7,946.6z"/>
<path fill="#403308" d="M324.7,857.2l36.1,24.1c0,0-1.7,13.6,10.1,30.3c11.8,16.6,27.5,31.1,29.5,36.9s-7.5,15.5-7.5,15.5
	l-95.8-67.8L324.7,857.2L324.7,857.2z"/>
<path fill="#5B4B37" d="M376.2,918.6c0,0-5.3-7.7-8.1-12.3c-2.9-4.7-6.7-16.5-6.7-16.5s-2.8,0.2-11.5-3.7s-28.7-18.9-28.7-18.9
	l-5.3,7.5c0,0,10.9,9.9,10.1,17.5c-0.8,7.6-2.7,14.4-2.7,14.4l38,26.9c0,0,3.6-5.6,7.6-9.3C373,920.5,376.2,918.6,376.2,918.6
	L376.2,918.6z M279.2,612.4L256.7,639l148.4,62.1l-85,159.7l42.6,25.4c0,0,78.2-135,93.1-160.3c14.8-25.3,33.1-72.1-0.7-84.9
	C421.3,628.1,279.2,612.4,279.2,612.4L279.2,612.4z"/>
<path fill="#76664D" d="M157.2,609.5h122.2v20c0,0,140.4,19.2,160.7,39.5c15.2,15.2,48.1,261.5,48.1,261.5H437
	c0,0-38.5-202.2-46.6-213.3c-8.1-11.1-78-17.7-163.2-17.7S157.2,609.6,157.2,609.5L157.2,609.5z"/>
<path fill="#F4E2AE" d="M266.2,392.2C295,458.8,286,609.6,286,609.6s-5.2,5-42.9,9.1s-85.9-9.1-85.9-9.1l-12.6-118.9v-83.5l30.8-15
	l53.3-12.7L266.2,392.2L266.2,392.2z"/>
<path fill="#F4BB82" d="M232.6,351.3l-43.4-9.4l-2,44.5c0,0,9.4,11.3,28,11c18.5-0.3,22.3-11.8,22.3-11.8L232.6,351.3L232.6,351.3z"
	/>
<path fill="#E58E63" d="M189.2,346.9l45.6,17v2.4c0,0-1.6,4.3-17.3,7.7s-29.7-2.1-29.7-2.1L189.2,346.9z"/>
<path fill="#F4BB82" d="M272.8,285.4c0,0,4.9-44.1-26.2-60.4c-31-16.4-67.3-1.5-72.8,15.9s4.4,51.8,4.4,51.8s-1.2-1.7-6.8-3.9
	c-5.7-2.3-10.6,0.3-10.6,0.3s-7.5,3.6-1.1,20.2c6.4,16.6,17.6,13.3,17.6,13.3s3.9,15.6,11.8,24.3c7.9,8.7,35.5,20.4,59.3,16.1
	c23.8-4.3,24.4-53.4,24.4-53.4L272.8,285.4L272.8,285.4z"/>
<path fill="#E58E63" d="M161.8,304l0.6,0.1c0,0-1-6.6,2.1-7.3c3.2-0.7,5.9,5.8,5.9,5.8s-1.7-0.4-2.6,3.7s1.2,7.3,3.3,7.6
	c2.2,0.3,5.7,0.2,3.7-9s-10.2-11.7-12.3-10.1C160.4,296.4,161.8,304,161.8,304L161.8,304z"/>
<ellipse fill="#4C311E" cx="212.3" cy="292.9" rx="4.4" ry="5.9"/>
<path fill="#4C311E" d="M258.1,298.8c-2.4,0-4.4-2.6-4.4-5.9c0-3.2,2-5.9,4.4-5.9s4.4,2.6,4.4,5.9S260.6,298.8,258.1,298.8z"/>
<path fill="#E58E63" d="M251.6,311.8c0.3,3.7-2.8,5.6-5.9,6.8c-2.5,0.9-6.9,1-7.5-2.4c-0.1-0.5,0.3-1,0.8-0.8c1.8,0.5,3.2,0.9,5,0.4
	c1.3-0.4,3.8-1.4,4.3-2.8c0.7-2.2-2.1-4.6-3.2-6.1c-0.9-1.1-1.7-2.3-2.4-3.5c-2.7-4.6-5.3-12-2.6-17.1c0.1-0.2,0.4-0.1,0.4,0.1
	c0.2,2.8,0,5.4,0.9,8.2c0.8,2.3,2,4.5,3.3,6.5C246.8,304.3,251.3,307.7,251.6,311.8L251.6,311.8z"/>
<path fill="#8E5930" d="M218.3,272.1c3.6,2.6,1.3,6.4-2.4,6.7c-6.1,0.7-11.9,1-17.9,2.6c-1.1,0.3-1.9-0.4-2-1.3
	c-0.2-0.2-0.4-0.4-0.4-0.7l-0.1-0.7c0-0.4,0.2-0.8,0.6-0.9c1.6-3.5,5.1-5.8,8.9-6.6C208.7,270.3,215,269.7,218.3,272.1L218.3,272.1z
	 M250.1,278.4c-3.7-0.6-5.8-4.6-2.1-7c3.5-2.2,9.8-1.2,13.4-0.1c3.8,1.1,7.2,3.5,8.5,7.2c0.3,0.2,0.6,0.5,0.5,1l-0.1,0.7
	c0,0.3-0.2,0.5-0.4,0.7c-0.2,0.9-1.1,1.5-2.1,1.2C261.9,280.2,256.1,279.4,250.1,278.4L250.1,278.4z"/>
<path fill="#FFFFFF" d="M252.5,334.2l-1.2,4.3c-2.8,3.1-6.9,5.4-13,5.4c-17.1,0-18.6-18.4-18.6-18.4h34.8l-2,7.6l-9.4,0.7
	L252.5,334.2z"/>
<path fill="#E58E63" d="M254.5,325.5h2.3c0,0-0.6,7.7-5.6,13.1l1.2-4.3l-9.3-0.5l9.4-0.7L254.5,325.5L254.5,325.5z"/>
<path fill="#8E5930" d="M172.1,268.8c-4.2-12.2,5.1-16.7,5.1-16.7s-1.8,6.3-0.3,11.6c1.5,5.2,2,7,5.5,13s5.1,22.3,4.9,23.2
	c-0.1,0.8-7.3,2.7-7.3,2.7C181.5,288.4,176.3,281,172.1,268.8L172.1,268.8z M285.9,249.8c1.2,22.3-13.1,35.6-13.2,35.7v-9.7
	c0,0-4.3-2.9-6.3-9c-2-6.2,0-13.5,0-13.5s-8,13.5-40,13.5c-9.5,0-17.7-1.3-24.5-3.1c-20.8-7.1-17.9-20.1-17.9-20.1s-15.5-0.3-22.8-6
	c-7.2-5.6,3.8-14.6,4.1-14.8c4-2.5,9.6-5.3,17.1-8.4c20.8-8.5,41.1-4.6,41.1-4.6l-15,5.6c0,0,5.3-0.9,23-2.6
	c17.7-1.7,40.1,2.2,43.3,3.4C278.1,217.4,284.7,227.5,285.9,249.8L285.9,249.8z"/>
<path fill="#6B371B" d="M184.1,243.5c0,0-2.9,13,17.8,19.9c-16.2-4.3-24.8-11.5-24.8-11.5s-9.3,4.6-5.1,16.8
	c4.2,12.3,9.4,19.6,7.9,33.8c0,0-0.7-6.3-5.1-9.5c-4.5-3.2-14-3.9-14-3.9s-4.9-13.5-6.6-29.7c-1.7-16.1,0.1-25.9,1-27.9
	c0.6-1.3,3.1-4.5,10.2-8.8c-0.3,0.3-11.3,9.2-4.1,14.8C168.6,243.1,184.1,243.5,184.1,243.5L184.1,243.5z"/>
<path opacity="0.24" fill="#FFE7D7" enable-background="new    " d="M185.4,243.7v2.8c0,0,15.9,13.9,60.7,3.3
	C291,239.2,278.6,220,275,218s-26.8-4-26.8-4s13.1,6.7-1.3,18.6C232.4,244.4,185.4,243.7,185.4,243.7L185.4,243.7z"/>
<path fill="#F4BB82" d="M325.4,457.1l21,20.5c0,0,15.5-8.8,21.7-14.6c6.2-5.7,15.1-16.9,11.4-20.7s-8.2,2.1-8.2,2.1s2.8-7.1,0.1-8.6
	s-8.4,1.4-8.4,1.4s1.9-4.1-0.6-7.5c-2.5-3.4-9.2,0.3-9.2,0.3s6.4-10.7,11-18.2c4.5-7.5,9.9-17.8,4.6-19.5s-27.3,36.8-27.3,36.8
	s-10.2,4.9-13.1,8.2S325.4,457.1,325.4,457.1L325.4,457.1z"/>
<path fill="#FFFFFF" d="M236.6,379.4l8.4,2.9l11.7,42.3l-24-17.8l-5.1,30l-52.3-44.6l12-9.9c0,0,10.8,11.6,27.8,12.4
	C232.1,395.4,236.6,379.4,236.6,379.4L236.6,379.4z"/>
<path fill="#E0C990" d="M291.4,484.2c0,0-0.6-4.2-4-24.7s-14.3-49.8-14.3-49.8s4.1,19.7,7.3,37.7c3.2,18,4.6,43.3,4.6,43.3
	L291.4,484.2z"/>
<path fill="#F4BB82" d="M464,556.5v-22.6c0,0,53,5,68.2,10.4c15.3,5.4,9.4,12.2,9.4,12.2L464,556.5L464,556.5z"/>
<path fill="#B2864B" d="M968.3,973.9h-31.4V599.1h31.4V973.9z"/>
<path opacity="0.64" fill="#D4D4D4" enable-background="new    " d="M968.3,630.5h-31.4v-31.4h31.4V630.5z"/>
<path fill="#76664D" d="M246.4,416.9l-13.8-10.2l-2.4,14.4l4.5,2.6l8.4,108.1c0,0,28.6-9.5,30-9.5S245,419,245,419L246.4,416.9
	L246.4,416.9z"/>
<path fill="#FFF3CA" d="M320.1,450.8l32.6,27.9c0,0-65,92.4-115.6,95.8c-50.6,3.4-98.7-58.1-114.2-107.1s15.5-69.3,35.9-57.1
	c20.4,12.2,39.5,109.9,78.3,110.8C266.1,521.7,320.1,450.8,320.1,450.8L320.1,450.8z"/>
<path fill="#A9500E" d="M165,303.4l0.6,0.1c0,0-1-6.5,2.1-7.2c3.1-0.7,5.8,5.7,5.8,5.7s-1.8-0.4-2.6,3.6s1.2,7.2,3.3,7.5
	c2.1,0.3,5.5,0.2,3.6-8.9c-1.9-9.1-10-11.5-12.1-9.9C163.6,295.9,165,303.4,165,303.4L165,303.4z"/>
<path fill="#DBE2EA" d="M157.5,263.8c-7,0.9-12.3,7.5-11.7,31.4c0.6,23.9,10,41.9,22.4,41.6c12.4-0.3,15.9-8.4,18.3-22.6
	s-0.9-41.6-8.1-47.7S157.5,263.8,157.5,263.8L157.5,263.8z"/>
<path fill="#9CAAAD" d="M162.5,263c0,0,10.8,7.2,12,33.8s-6.2,40-6.2,40l4.3-0.5c0,0,6.2-6.4,5.9-38.1
	c-0.3-31.7-11.9-35.4-11.9-35.4L162.5,263z"/>
<path fill="#FFFFFF" d="M157.2,264.7c-0.3,0.9,8.4,8,11,15.8c2.6,7.8,4.7,27.1,4.7,27.1s0.9-18.2-2.5-29.3
	c-3.3-11-9.9-14.4-9.9-14.4S157.5,263.8,157.2,264.7z M170.5,264.7c-0.3,0.9,8.4,8,11,15.8c2.6,7.8,4.7,27.1,4.7,27.1
	s0.9-18.2-2.5-29.3c-3.3-11-9.9-14.4-9.9-14.4S170.8,263.8,170.5,264.7z"/>
<ellipse transform="matrix(0.7071 -0.7071 0.7071 0.7071 -180.4414 295.1487)" fill="#4C311E" cx="266.1" cy="365.4" rx="6.9" ry="6.9"/>
<path fill="#DBE2EA" d="M168,262.9l-13.8,2.1c0,0-6.7-54.4,19.8-73.1s70.9-12.1,82.7,6.9c6.3,10.2,5.6,15.2,5.6,15.2l-8.8-1
	c0,0,1.5,0.5-1.8-7c-3.3-7.6-22.9-19.9-59.1-11.2C156.5,203.5,168,262.9,168,262.9L168,262.9z"/>
<path fill="#FFFFFF" d="M189.3,195.1c0,0-15.2,4-23,22.1s-6.1,45.3-6.1,45.3s3.9,0.3,4.1,0s-2.6-19.6,2-40.3
	C170.9,201.6,189.3,195.1,189.3,195.1L189.3,195.1z"/>
<g>
	<path fill="#FFFFFF" d="M447.8,229.5l-13.1,7.6l-13.1-7.6v2.5l2.2,1.3v15.2l11,6.3l11-6.3v-15.2l2.2-1.3v-2.5H447.8z M443.5,247.2
		l-8.8,5.1l-8.8-5.1v-12.7l8.8,5.1l8.8-5.1V247.2z"/>
	<path fill="#FFFFFF" d="M430.3,242.1v2.6l4.4,2.5l4.4-2.5v-2.6l-4.4,2.6 M453.1,238.5c-0.1-0.3-0.2-0.4-0.5-0.4h-0.3v-1.9h1.4
		c0.9,0,1.2,0.2,1.5,1l2.4,6.9c0.2,0.7,0.5,1.8,0.5,1.8s0.2-1.1,0.5-1.8l2.4-6.9c0.3-0.8,0.6-1,1.4-1h1.5v1.9h-0.3
		c-0.3,0-0.4,0.1-0.5,0.4l-3.7,10H457L453.1,238.5z M467.3,239.5c2.5,0,3.9,1.9,3.9,4.2c0,0.3-0.1,0.8-0.1,0.8H465
		c0.2,1.6,1.3,2.4,2.7,2.4c1.4,0,2.5-1,2.5-1l0.9,1.5c0,0-1.4,1.3-3.6,1.3c-2.9,0-4.8-2.1-4.8-4.6
		C462.8,241.4,464.7,239.5,467.3,239.5L467.3,239.5z M469,243c0-1.1-0.8-1.8-1.7-1.8c-1.1,0-1.9,0.7-2.2,1.8H469L469,243z
		 M473.3,241.9c0-0.3-0.1-0.4-0.4-0.4h-0.7v-1.9h2c0.8,0,1.2,0.3,1.2,1.1v1.1c0.4-1.3,1.5-2.3,2.8-2.3h0.4v2.2h-0.5
		c-0.9,0-2,0.5-2.4,1.9c-0.1,0.4-0.2,0.9-0.2,1.4v3.5h-2.2L473.3,241.9L473.3,241.9z M480.8,241.9c0-0.3-0.1-0.4-0.4-0.4h-0.7v-1.9
		h2.1c0.8,0,1.2,0.4,1.2,1.2v5.4c0,0.2,0.1,0.4,0.4,0.4h0.7v1.9H482c-0.8,0-1.2-0.3-1.2-1.2V241.9z M480.9,236.2h1.9v2h-1.9V236.2z
		 M485.7,241.4h-1.1v-1.8h1.2v-2.4h2.2v2.4h2v1.8h-2v3.6c0,1.5,1.1,1.7,1.8,1.7h0.4v1.9c0,0-0.3,0.1-0.7,0.1c-1.2,0-3.7-0.4-3.7-3.3
		L485.7,241.4L485.7,241.4z M493,250.3c0.6,0,1.1-0.4,1.5-1.1l0.3-0.7l-3-6.7c-0.1-0.3-0.2-0.3-0.5-0.3H491v-1.9h1.5
		c0.6,0,0.9,0.2,1.2,0.8l1.7,4.4c0.2,0.5,0.3,1.2,0.3,1.2s0.1-0.7,0.3-1.2l1.5-4.4c0.2-0.6,0.6-0.8,1.2-0.8h1.5v1.9h-0.3
		c-0.3,0-0.4,0.1-0.5,0.3l-3.2,8c-0.6,1.6-1.9,2.3-3.2,2.3c-1.4,0-2.2-0.9-2.2-0.9l0.9-1.6C491.7,249.7,492.2,250.3,493,250.3
		L493,250.3z"/>
</g>
<path fill="#FFFFFF" d="M668,245.9h-31c-2.1,0-3.9-1.7-3.9-3.9c0-2.1,1.7-3.9,3.9-3.9h31c2.1,0,3.9,1.7,3.9,3.9
	S670.1,245.9,668,245.9z M757,245.9h-71c-2.1,0-3.9-1.7-3.9-3.9c0-2.1,1.7-3.9,3.9-3.9h71c2.1,0,3.9,1.7,3.9,3.9
	S759.1,245.9,757,245.9z"/>
<circle fill="#FFFFFF" cx="777.4" cy="242.7" r="4.4"/>
<g>
	<circle fill="#FFFFFF" cx="429.8" cy="285.7" r="4.4"/>
	<path fill="#FFFFFF" d="M475,289.9h-31c-2.1,0-3.9-1.7-3.9-3.9c0-2.1,1.7-3.9,3.9-3.9h31c2.1,0,3.9,1.7,3.9,3.9
		S477.1,289.9,475,289.9z"/>
</g>
<g opacity="0.5">
	<circle fill="#FFFFFF" cx="429.8" cy="343.7" r="4.4"/>
	<path fill="#FFFFFF" d="M475,347.9h-31c-2.1,0-3.9-1.7-3.9-3.9c0-2.1,1.7-3.9,3.9-3.9h31c2.1,0,3.9,1.7,3.9,3.9
		S477.1,347.9,475,347.9z"/>
</g>
<g opacity="0.5">
	<circle fill="#FFFFFF" cx="429.8" cy="314.7" r="4.4"/>
	<path fill="#FFFFFF" d="M475,318.9h-31c-2.1,0-3.9-1.7-3.9-3.9c0-2.1,1.7-3.9,3.9-3.9h31c2.1,0,3.9,1.7,3.9,3.9
		S477.1,318.9,475,318.9z"/>
</g>
<g opacity="0.5">
	<circle fill="#FFFFFF" cx="429.8" cy="370.7" r="4.4"/>
	<path fill="#FFFFFF" d="M475,374.9h-31c-2.1,0-3.9-1.7-3.9-3.9c0-2.1,1.7-3.9,3.9-3.9h31c2.1,0,3.9,1.7,3.9,3.9
		S477.1,374.9,475,374.9z"/>
</g>
<path opacity="0.5" fill="#FFFFFF" enable-background="new    " d="M566.9,353.1h-47.4c-6.6,0-12-5.4-12-12v-47.4
	c0-6.6,5.4-12,12-12h47.4c6.6,0,12,5.4,12,12v47.4C578.9,347.7,573.5,353.1,566.9,353.1z"/>
<path fill="#FFFFFF" d="M668.4,353.1H621c-6.6,0-12-5.4-12-12v-47.4c0-6.6,5.4-12,12-12h47.4c6.6,0,12,5.4,12,12v47.4
	C680.4,347.7,675,353.1,668.4,353.1z"/>
<path opacity="0.5" fill="#FFFFFF" enable-background="new    " d="M769.9,353.1h-47.4c-6.6,0-12-5.4-12-12v-47.4
	c0-6.6,5.4-12,12-12h47.4c6.6,0,12,5.4,12,12v47.4C781.9,347.7,776.5,353.1,769.9,353.1z"/>
<linearGradient id="SVGID_3_" gradientUnits="userSpaceOnUse" x1="584.6" y1="602.3" x2="584.6" y2="530.9" gradientTransform="matrix(1 0 0 -1 -41.4 984)">
	<stop  offset="0" style="stop-color:#FFFFFF"/>
	<stop  offset="0.7" style="stop-color:#FFFFFF;stop-opacity:0"/>
</linearGradient>
<path opacity="0.5" fill="url(#SVGID_3_)" enable-background="new    " d="M566.9,453.1h-47.4c-6.6,0-12-5.4-12-12v-47.4
	c0-6.6,5.4-12,12-12h47.4c6.6,0,12,5.4,12,12v47.4C578.9,447.7,573.5,453.1,566.9,453.1z"/>
<linearGradient id="SVGID_4_" gradientUnits="userSpaceOnUse" x1="686.1" y1="602.3" x2="686.1" y2="530.9" gradientTransform="matrix(1 0 0 -1 -41.4 984)">
	<stop  offset="0" style="stop-color:#FFFFFF"/>
	<stop  offset="0.7" style="stop-color:#FFFFFF;stop-opacity:0"/>
</linearGradient>
<path opacity="0.5" fill="url(#SVGID_4_)" enable-background="new    " d="M668.4,453.1H621c-6.6,0-12-5.4-12-12v-47.4
	c0-6.6,5.4-12,12-12h47.4c6.6,0,12,5.4,12,12v47.4C680.4,447.7,675,453.1,668.4,453.1z"/>
<linearGradient id="SVGID_5_" gradientUnits="userSpaceOnUse" x1="787.6" y1="602.3" x2="787.6" y2="530.9" gradientTransform="matrix(1 0 0 -1 -41.4 984)">
	<stop  offset="0" style="stop-color:#FFFFFF"/>
	<stop  offset="0.7" style="stop-color:#FFFFFF;stop-opacity:0"/>
</linearGradient>
<path opacity="0.5" fill="url(#SVGID_5_)" enable-background="new    " d="M769.9,453.1h-47.4c-6.6,0-12-5.4-12-12v-47.4
	c0-6.6,5.4-12,12-12h47.4c6.6,0,12,5.4,12,12v47.4C781.9,447.7,776.5,453.1,769.9,453.1z"/>
<linearGradient id="SVGID_6_" gradientUnits="userSpaceOnUse" x1="290.2" y1="785.7" x2="290.2" y2="635.3" gradientTransform="matrix(-1 0 0 -1 1243.4 984)">
	<stop  offset="0" style="stop-color:#96E2BE"/>
	<stop  offset="1" style="stop-color:#1BD07A"/>
</linearGradient>
<circle fill="url(#SVGID_6_)" cx="953.2" cy="273.5" r="75.2"/>
<linearGradient id="SVGID_7_" gradientUnits="userSpaceOnUse" x1="565.8" y1="984" x2="565.8" y2="828.4" gradientTransform="matrix(-1 0 0 -1 1243.4 984)">
	<stop  offset="0" style="stop-color:#87D1E9"/>
	<stop  offset="1" style="stop-color:#04AAD9"/>
</linearGradient>
<circle fill="url(#SVGID_7_)" cx="677.6" cy="77.8" r="77.8"/>
<linearGradient id="SVGID_8_" gradientUnits="userSpaceOnUse" x1="930.7" y1="975.6" x2="930.7" y2="820" gradientTransform="matrix(-1 0 0 -1 1243.4 984)">
	<stop  offset="0" style="stop-color:#A9A3DF"/>
	<stop  offset="1" style="stop-color:#6157C5"/>
</linearGradient>
<circle fill="url(#SVGID_8_)" cx="312.7" cy="86.2" r="77.8"/>
<linearGradient id="SVGID_9_" gradientUnits="userSpaceOnUse" x1="479.8473" y1="235.3122" x2="488.0303" y2="235.3122" gradientTransform="matrix(-0.9913 -0.1316 0.1316 -0.9913 1297.5331 835.1415)">
	<stop  offset="0" style="stop-color:#FCF8F2"/>
	<stop  offset="0.391" style="stop-color:#F9F5EF"/>
	<stop  offset="0.712" style="stop-color:#F1ECE5"/>
	<stop  offset="1" style="stop-color:#E3DDD4"/>
</linearGradient>
<path fill="url(#SVGID_9_)" d="M847.7,545.7l-2.1-15.6l8.2,1.1"/>
<path fill="#3C3C3B" d="M847,540.1l0.7,5.6l2.2-5.2"/>
<path fill="#4C486D" d="M825.6,546.1l1.9-9.5l-8.3,0.7l3.4,9.1"/>
<path fill="#4C486D" d="M822.8,546.3l1.7,4.6l0.9-4.8"/>
<path fill="#37354F" d="M822.3,545.6l0.3,0.8l3-0.3l0.2-0.8"/>
<linearGradient id="SVGID_10_" gradientUnits="userSpaceOnUse" x1="451.6374" y1="346.9774" x2="459.8194" y2="346.9774" gradientTransform="matrix(-0.9976 -6.923414e-02 6.923414e-02 -0.9976 1266.0223 908.9433)">
	<stop  offset="0" style="stop-color:#FCF8F2"/>
	<stop  offset="0.391" style="stop-color:#F9F5EF"/>
	<stop  offset="0.712" style="stop-color:#F1ECE5"/>
	<stop  offset="1" style="stop-color:#E3DDD4"/>
</linearGradient>
<path fill="url(#SVGID_10_)" d="M834.8,538.8l-3-15.4l8.2,0.6"/>
<path fill="#3C3C3B" d="M833.7,533.3l1.1,5.5l1.9-5.3"/>
<path fill="#FD5A38" d="M837.6,527.4l-2.7-0.3l9.4-76.4l2.7,0.3L837.6,527.4z M834.9,527l-2.7-0.3l9.4-76.4l2.7,0.3L834.9,527z
	 M832.2,526.7l-2.7-0.3l9.4-76.4l2.7,0.3L832.2,526.7z"/>
<path fill="#F4E2AE" d="M844.8,435.4l-5.9,14.5l8.1,1"/>
<path fill="#403308" d="M842.7,440.6l2.1-5.2l0.8,5.6"/>
<linearGradient id="SVGID_11_" gradientUnits="userSpaceOnUse" x1="149.3485" y1="2785.3308" x2="158.1875" y2="2785.3308" gradientTransform="matrix(-0.9925 -0.1223 0.1223 -0.9925 650.3425 3310.9248)">
	<stop  offset="0" style="stop-color:#F6F6F6"/>
	<stop  offset="0.504" style="stop-color:#F3F3F3"/>
	<stop  offset="0.892" style="stop-color:#E9E9E9"/>
	<stop  offset="1" style="stop-color:#E5E5E5"/>
</linearGradient>
<path fill="url(#SVGID_11_)" d="M833.8,528.5l8.8,1.1l0.3-2.7l-8.7-1.1"/>
<path fill="#F4D7E3" d="M834.2,528.5l8.1,1.1l-0.4,2.9c-0.2,1.4-1.5,2.4-2.9,2.2l-3-0.4c-1.4-0.2-2.4-1.5-2.2-2.9L834.2,528.5
	L834.2,528.5z"/>
<path fill="#DDC3CF" d="M842.3,530v-0.5l-8.1-1l-0.1,0.5"/>
<path fill="#13D27C" d="M836.7,548l-2.6-0.6l16-75.3l2.6,0.6L836.7,548z M834,547.4l-2.6-0.6l16-75.3l2.6,0.6L834,547.4z M831.3,547
	l-2.6-0.6l16-75.3l2.6,0.6L831.3,547z"/>
<path fill="#F4E2AE" d="M851.8,457.1l-7.2,13.9l8,1.7"/>
<path fill="#403308" d="M849.2,462.1l2.6-5l0.3,5.6"/>
<linearGradient id="SVGID_12_" gradientUnits="userSpaceOnUse" x1="186.5461" y1="2627.4756" x2="195.386" y2="2627.4756" gradientTransform="matrix(-0.9781 -0.2079 0.2079 -0.9781 477.938 3157.7942)">
	<stop  offset="0" style="stop-color:#F6F6F6"/>
	<stop  offset="0.504" style="stop-color:#F3F3F3"/>
	<stop  offset="0.892" style="stop-color:#E9E9E9"/>
	<stop  offset="1" style="stop-color:#E5E5E5"/>
</linearGradient>
<path fill="url(#SVGID_12_)" d="M832.8,548.4l8.7,1.9l0.5-2.7l-8.6-1.8"/>
<path fill="#F4D7E3" d="M833.2,548.5l8.1,1.7l-0.6,2.8c-0.3,1.4-1.7,2.3-3.1,2l-3-0.6c-1.4-0.3-2.3-1.7-2-3.1L833.2,548.5
	L833.2,548.5z"/>
<path fill="#DDC3CF" d="M841.1,550.7l-8-1.7l0.1-0.5l8,1.7L841.1,550.7z"/>
<path fill="#00AFD9" d="M826.8,521.8l-1.9-77l2.7-0.1l1.9,77L826.8,521.8z"/>
<path fill="#00AFD9" d="M824.1,521.9l-1.9-77l2.7-0.1l1.9,77L824.1,521.9z M821.4,522l-2-77l2.7-0.1l2,77L821.4,522z"/>
<path fill="#F4E2AE" d="M823.1,429.8l-3.7,15.2l8.2-0.2"/>
<path fill="#403308" d="M821.8,435.2l1.3-5.4l1.6,5.3"/>
<linearGradient id="SVGID_13_" gradientUnits="userSpaceOnUse" x1="43.9859" y1="-1265.2196" x2="52.8179" y2="-1265.2196" gradientTransform="matrix(-1 2.500000e-02 2.500000e-02 1 909.945 1786.708)">
	<stop  offset="0" style="stop-color:#F6F6F6"/>
	<stop  offset="0.504" style="stop-color:#F3F3F3"/>
	<stop  offset="0.892" style="stop-color:#E9E9E9"/>
	<stop  offset="1" style="stop-color:#E5E5E5"/>
</linearGradient>
<path fill="url(#SVGID_13_)" d="M825.1,524.2l8.8-0.2l-0.1-2.8l-8.8,0.3"/>
<path fill="#F4D7E3" d="M825.4,524.2l8.1-0.2l0.1,2.9c0,1.4-1.1,2.6-2.5,2.6l-3,0.1c-1.4,0-2.6-1.1-2.6-2.5L825.4,524.2L825.4,524.2
	z"/>
<path fill="#DDC3CF" d="M825.4,524.6l0-0.5l8.2-0.2l0,0.5L825.4,524.6z"/>
<linearGradient id="SVGID_14_" gradientUnits="userSpaceOnUse" x1="201.3674" y1="2533.0725" x2="210.2074" y2="2533.0725" gradientTransform="matrix(-0.9629 -0.27 0.27 -0.9629 363.4541 3036.249)">
	<stop  offset="0" style="stop-color:#F6F6F6"/>
	<stop  offset="0.504" style="stop-color:#F3F3F3"/>
	<stop  offset="0.892" style="stop-color:#E9E9E9"/>
	<stop  offset="1" style="stop-color:#E5E5E5"/>
</linearGradient>
<path fill="url(#SVGID_14_)" d="M842.5,541.2l8.5,2.4l0.7-2.6l-8.5-2.4"/>
<path fill="#F4D7E3" d="M850.7,543.5l-0.8,2.8c-0.4,1.4-1.8,2.2-3.2,1.8l-2.9-0.8c-1.4-0.4-2.2-1.8-1.8-3.2l0.8-2.8L850.7,543.5z"/>
<path fill="#DDC3CF" d="M850.6,544l-7.9-2.2l0.1-0.5l7.9,2.2L850.6,544z"/>
<path fill="#EDEDED" d="M837.6,547.4c1.6,0,2.8-1.2,2.8-2.7l0.4-17.3h-1.1l-0.9,2.6h0.8l-0.3,14.7c0,0.9-0.8,1.6-1.7,1.6H837v1.1
	L837.6,547.4L837.6,547.4z"/>
<path fill="#EDEDED" d="M838.5,547.4l-9-0.2l0-0.7l9,0.2L838.5,547.4z"/>
<path fill="#4C486D" d="M838.2,547.4l-8.4-0.2l-0.1,5c0,1.5,1.1,2.7,2.6,2.7l3.1,0.1c1.5,0,2.7-1.1,2.7-2.6L838.2,547.4L838.2,547.4
	z"/>
<path fill="#F4E2AE" d="M829.4,454.7l-2.9,9.2l8.4,0.2l-2.5-9.4"/>
<path fill="#403308" d="M832.3,454.7L831,450l-1.4,4.7"/>
<path fill="#665DC7" d="M830.4,546.7h2.8l1.7-82.8h-2.8l-5.6-0.1l-1.7,82.7"/>
<linearGradient id="SVGID_15_" gradientUnits="userSpaceOnUse" x1="-0.8881" y1="3070.709" x2="7.9482" y2="3070.709" gradientTransform="matrix(-0.997 7.699745e-02 -7.699745e-02 -0.997 1074.899 3605.5178)">
	<stop  offset="0" style="stop-color:#F6F6F6"/>
	<stop  offset="0.504" style="stop-color:#F3F3F3"/>
	<stop  offset="0.892" style="stop-color:#E9E9E9"/>
	<stop  offset="1" style="stop-color:#E5E5E5"/>
</linearGradient>
<path fill="url(#SVGID_15_)" d="M830.6,545.9l8.8-0.7l-0.2-2.7l-8.8,0.7"/>
<path fill="#F4D7E3" d="M839.2,545.2l0.2,2.9c0.1,1.5-1,2.7-2.4,2.8l-3,0.2c-1.5,0.1-2.7-1-2.8-2.4l-0.2-2.9L839.2,545.2z"/>
<path fill="#DDC3CF" d="M839.2,545.7l-0.1-0.5l-8.1,0.6v0.5"/>
<path fill="#403308" d="M850.1,555.4h-30.5v-8.6h30.5V555.4z"/>
<path fill="#5B4B37" d="M855.4,547.6h-41.2v-49.7h41.2V547.6z M1047.6,871.6h130.1l3,21.3h-136.1"/>
<g>
	<path fill="#FFFFFF" d="M968.2,273.6l27.9,27c0-0.3,0.1-0.6,0.1-0.9v-52.2c0-0.3,0-0.6-0.1-0.9
		C996.1,246.6,968.2,273.6,968.2,273.6z M940.4,275.8l-27.9,27c0.2,0.1,0.5,0.1,0.7,0.1h79.9c0.3,0,0.5-0.1,0.7-0.1l-27.9-27
		l-3.5,3.4c-0.3,0.3-0.7,0.6-1,0.9c-1.4,1.1-2.9,1.8-4.5,2.3l-1.2,0.3c-0.8,0.1-1.7,0.2-2.5,0.2c-2.9,0-5.8-1-8.2-2.9
		c-0.3-0.3-0.7-0.6-1-0.9L940.4,275.8z"/>
	<path fill="#FFFFFF" d="M993.8,244.4c-0.2,0-0.4-0.1-0.7-0.2h-79.8c-0.3,0-0.5,0.1-0.7,0.1l29,28l4.6,4.4c2,1.9,4.6,2.9,7.1,2.9
		c1.6,0,3.1-0.4,4.6-1.1c0.8-0.4,1.7-1,2.4-1.7l4.6-4.4L993.8,244.4 M910.2,299.6c0,0.3,0,0.6,0.1,0.9l27.9-27l-27.9-27
		c0,0.3-0.1,0.6-0.1,0.9V299.6z"/>
</g>
<path fill="#FFFFFF" d="M634.6,50.3v47.4c0,4.7,3.9,8.6,8.6,8.6h11.5v14.3c0,0.6,0.3,1.1,0.9,1.3c0.2,0.1,0.3,0.1,0.5,0.1
	c0.4,0,0.8-0.2,1.1-0.5l13.9-15.3H712c4.7,0,8.6-3.9,8.6-8.6V50.3c0-4.7-3.9-8.6-8.6-8.6h-68.8C638.6,41.7,634.6,45.6,634.6,50.3z
	 M704.8,61.7c0,0.8-0.6,1.4-1.4,1.4h-21.5c-0.8,0-1.4-0.6-1.4-1.4c0-0.8,0.6-1.4,1.4-1.4h21.5C704.2,60.3,704.9,61,704.8,61.7z
	 M653.3,84.7c0-0.8,0.6-1.4,1.4-1.4h48.7c0.8,0,1.4,0.6,1.4,1.4s-0.6,1.4-1.4,1.4h-48.7C653.9,86.1,653.3,85.5,653.3,84.7z
	 M653.3,73.3c0-0.8,0.6-1.4,1.4-1.4h48.7c0.8,0,1.4,0.6,1.4,1.4s-0.6,1.4-1.4,1.4h-48.7C653.9,74.7,653.3,74.1,653.3,73.3z
	 M270.6,108.4c-1.6,3.1-1.1,6.8,1.3,9.4l4,4c4.9,5,10.5,7.5,16.4,7.5c8.1,0,16.8-4.6,26-13.8l23.4-23.4c7.2-7.2,11.7-14.2,13.2-20.8
	c1.8-8-0.5-15.2-6.9-21.6l-4-4c-1.5-1.5-3.5-2.3-5.6-2.3c-1.3,0-2.6,0.3-3.7,0.9c-6.1,3.2-12.6,14.3-12.9,14.8c-1.1,2-1.5,4.1-1,5.9
	c0.4,1.4,1.3,2.5,2.5,3.2c2,1.6,4.2,3.6,4.6,4.1c2.6,3.7,2.3,6.7-1,10l-18.3,18.3c-3.2,3.3-6.2,3.6-10,1c-0.5-0.4-2.5-2.7-4.1-4.6
	c-1-1.8-2.7-2.7-4.8-2.7c-1.4,0-2.9,0.4-4.3,1.2C284.9,95.8,273.8,102.3,270.6,108.4"/>
</svg>
